<svg xmlns="http://www.w3.org/2000/svg" viewBox="0 0 363 410"><defs><style>.cls-1{fill:#173961;}.cls-2{fill:#fff;}.cls-3{fill:#a8a8a8;}.cls-4{fill:#a8a7a7;}</style></defs><g id="Capa_2" data-name="Capa 2"><path class="cls-1" d="M52,3.78H350a0,0,0,0,1,0,0V205a40,40,0,0,1-40,40H12a0,0,0,0,1,0,0V43.78A40,40,0,0,1,52,3.78Z"/><path class="cls-1" d="M52,260.06H350a0,0,0,0,1,0,0v90.68a40,40,0,0,1-40,40H12a0,0,0,0,1,0,0V300.06A40,40,0,0,1,52,260.06Z"/><path class="cls-2" d="M193.5,72.89a11.62,11.62,0,0,0,2.8-7.5v-5.7H166.7v5.7a11.62,11.62,0,0,0,2.8,7.5l5.7,6.8a3.33,3.33,0,0,1,0,4.3l-5.8,7a11.81,11.81,0,0,0-2.7,7.4v5.8h29.6v-5.8a11.81,11.81,0,0,0-2.7-7.4l-5.8-7a3.46,3.46,0,0,1,0-4.3C187.7,79.69,193.5,72.89,193.5,72.89Zm-1-7.6a7.91,7.91,0,0,1-1.9,5.2l-1.8,2.2H174l-1.8-2.2a8.11,8.11,0,0,1-1.9-5.2Zm-1.8,28.1a8,8,0,0,1,1.8,5.2h-2c-3.6-3.7-9.1-3.7-9.1-3.7s-5.6,0-9.1,3.7h-2a7.83,7.83,0,0,1,1.8-5.2l5.8-7a6.67,6.67,0,0,0,1.3-2.5h.3v1.9h3.7v-1.9h.3a7.45,7.45,0,0,0,1.3,2.5Zm-11.2-2.2h3.7V93h-3.7Zm0-3.7h3.7v1.9h-3.7Z"/></g><g id="Capa_3" data-name="Capa 3"><path class="cls-2" d="M107.79,30h3.55a6.85,6.85,0,0,1,3.53.7,2.41,2.41,0,0,1,1.1,2.2,2.78,2.78,0,0,1-.48,1.68,1.91,1.91,0,0,1-1.28.78v.08a2.52,2.52,0,0,1,1.57.91,3.3,3.3,0,0,1-.65,4.2,4.85,4.85,0,0,1-3.07.88h-4.27Zm2.42,4.53h1.41a2.49,2.49,0,0,0,1.42-.31,1.12,1.12,0,0,0,.45-1,1,1,0,0,0-.49-.95,3.06,3.06,0,0,0-1.51-.28h-1.28Zm0,1.92v3h1.58a2.32,2.32,0,0,0,1.48-.39,1.42,1.42,0,0,0,.47-1.17c0-1-.67-1.42-2-1.42Z"/><path class="cls-2" d="M123.9,41.44l-.46-1.19h-.06a3.76,3.76,0,0,1-1.24,1,4,4,0,0,1-1.66.29,2.68,2.68,0,0,1-2-.72,2.75,2.75,0,0,1-.73-2,2.3,2.3,0,0,1,1-2,5.55,5.55,0,0,1,2.93-.73l1.52,0v-.38a1.19,1.19,0,0,0-1.36-1.33,6.19,6.19,0,0,0-2.46.63l-.79-1.61a7.16,7.16,0,0,1,3.34-.79,4.19,4.19,0,0,1,2.7.77,2.83,2.83,0,0,1,.93,2.33v5.82Zm-.7-4-.93,0a2.92,2.92,0,0,0-1.54.38,1.16,1.16,0,0,0-.51,1c0,.67.38,1,1.16,1a1.82,1.82,0,0,0,1.32-.48,1.65,1.65,0,0,0,.5-1.26Z"/><path class="cls-2" d="M136.08,41.44H133.7v-5.1a2.48,2.48,0,0,0-.34-1.42,1.21,1.21,0,0,0-1.07-.48,1.63,1.63,0,0,0-1.45.67,4.25,4.25,0,0,0-.44,2.22v4.11H128V32.7h1.82l.32,1.12h.13a2.57,2.57,0,0,1,1.1-1,3.79,3.79,0,0,1,1.59-.32,3.06,3.06,0,0,1,2.31.82,3.3,3.3,0,0,1,.79,2.38Z"/><path class="cls-2" d="M142.08,41.59q-4.08,0-4.08-4.47a4.79,4.79,0,0,1,1.11-3.41,4.17,4.17,0,0,1,3.18-1.17,6.14,6.14,0,0,1,2.72.59l-.7,1.85c-.38-.16-.73-.28-1.05-.38a3.61,3.61,0,0,0-1-.14q-1.86,0-1.86,2.64c0,1.71.62,2.56,1.86,2.56a4.28,4.28,0,0,0,1.27-.18,4.72,4.72,0,0,0,1.18-.57v2a3.72,3.72,0,0,1-1.17.51A6.28,6.28,0,0,1,142.08,41.59Z"/><path class="cls-2" d="M152.31,41.44l-.47-1.19h-.06a3.57,3.57,0,0,1-1.24,1,3.89,3.89,0,0,1-1.66.29,2.68,2.68,0,0,1-2-.72,2.74,2.74,0,0,1-.72-2,2.29,2.29,0,0,1,1-2,5.59,5.59,0,0,1,2.94-.73l1.51,0v-.38a1.19,1.19,0,0,0-1.36-1.33,6.19,6.19,0,0,0-2.46.63L147,33.31a7.2,7.2,0,0,1,3.35-.79,4.15,4.15,0,0,1,2.69.77,2.81,2.81,0,0,1,.94,2.33v5.82Zm-.71-4-.92,0a3,3,0,0,0-1.55.38,1.16,1.16,0,0,0-.5,1c0,.67.38,1,1.15,1a1.84,1.84,0,0,0,1.33-.48,1.64,1.64,0,0,0,.49-1.26Z"/><path class="cls-2" d="M163.34,41.59a2.84,2.84,0,0,1-2.41-1.19,5.47,5.47,0,0,1-.88-3.31,5.54,5.54,0,0,1,.89-3.35,2.91,2.91,0,0,1,2.47-1.2,2.85,2.85,0,0,1,2.51,1.28H166a9.7,9.7,0,0,1-.18-1.74v-2.8h2.39V41.44h-1.83l-.46-1.14h-.1A2.73,2.73,0,0,1,163.34,41.59Zm.84-1.9a1.59,1.59,0,0,0,1.34-.53,3.12,3.12,0,0,0,.47-1.8V37.1a3.52,3.52,0,0,0-.44-2,1.6,1.6,0,0,0-1.41-.61,1.41,1.41,0,0,0-1.24.67,3.66,3.66,0,0,0-.44,2,3.37,3.37,0,0,0,.45,1.93A1.44,1.44,0,0,0,164.18,39.69Z"/><path class="cls-2" d="M174.66,41.59a4.49,4.49,0,0,1-3.3-1.16,4.43,4.43,0,0,1-1.19-3.3,4.85,4.85,0,0,1,1.1-3.39,3.9,3.9,0,0,1,3-1.2,3.86,3.86,0,0,1,2.88,1.05,4,4,0,0,1,1,2.92v1.15h-5.63a2.25,2.25,0,0,0,.6,1.59,2.11,2.11,0,0,0,1.58.57,7.16,7.16,0,0,0,1.49-.16,7.49,7.49,0,0,0,1.47-.53V41a5.89,5.89,0,0,1-1.34.46A8.49,8.49,0,0,1,174.66,41.59Zm-.34-7.36a1.53,1.53,0,0,0-1.19.48,2.27,2.27,0,0,0-.49,1.37H176a2,2,0,0,0-.47-1.37A1.54,1.54,0,0,0,174.32,34.23Z"/><path class="cls-2" d="M192.39,33.58a3.48,3.48,0,0,1-1.15,2.82,4.94,4.94,0,0,1-3.28,1h-1v4.07H184.5V30h3.65a4.82,4.82,0,0,1,3.16.9A3.28,3.28,0,0,1,192.39,33.58Zm-5.47,1.81h.8a2.69,2.69,0,0,0,1.67-.44,1.56,1.56,0,0,0,.56-1.29,1.58,1.58,0,0,0-.47-1.25A2.18,2.18,0,0,0,188,32h-1.1Z"/><path class="cls-2" d="M198.31,41.59A4.48,4.48,0,0,1,195,40.43a4.39,4.39,0,0,1-1.19-3.3,4.85,4.85,0,0,1,1.1-3.39,3.9,3.9,0,0,1,3-1.2,3.83,3.83,0,0,1,2.88,1.05,4,4,0,0,1,1,2.92v1.15h-5.64a2.34,2.34,0,0,0,.6,1.59,2.14,2.14,0,0,0,1.58.57,7.19,7.19,0,0,0,1.5-.16,7.65,7.65,0,0,0,1.46-.53V41a5.81,5.81,0,0,1-1.33.46A8.6,8.6,0,0,1,198.31,41.59ZM198,34.23a1.52,1.52,0,0,0-1.19.48,2.21,2.21,0,0,0-.49,1.37h3.34a2,2,0,0,0-.46-1.37A1.57,1.57,0,0,0,198,34.23Z"/><path class="cls-2" d="M208.69,32.54a3.6,3.6,0,0,1,.8.07l-.18,2.23a2.75,2.75,0,0,0-.7-.08,2.55,2.55,0,0,0-1.78.59A2.13,2.13,0,0,0,206.2,37v4.45h-2.39V32.7h1.81l.35,1.47h.12A3.25,3.25,0,0,1,207.18,33,2.75,2.75,0,0,1,208.69,32.54Z"/><path class="cls-2" d="M217.17,38.84a2.41,2.41,0,0,1-.93,2,4.59,4.59,0,0,1-2.79.7,8.46,8.46,0,0,1-1.63-.13,6.15,6.15,0,0,1-1.26-.37v-2a9.06,9.06,0,0,0,1.5.52,6,6,0,0,0,1.46.21c.87,0,1.3-.25,1.3-.75a.65.65,0,0,0-.17-.46,2.37,2.37,0,0,0-.59-.39c-.29-.15-.66-.33-1.13-.52a7.62,7.62,0,0,1-1.48-.79,2.14,2.14,0,0,1-.69-.82,2.76,2.76,0,0,1-.21-1.14,2.07,2.07,0,0,1,.9-1.8,4.34,4.34,0,0,1,2.56-.64,7.26,7.26,0,0,1,3.07.69l-.72,1.71c-.44-.18-.85-.34-1.23-.46A3.8,3.8,0,0,0,214,34.3q-1,0-1.05.57a.68.68,0,0,0,.33.56,8.84,8.84,0,0,0,1.49.69,6.67,6.67,0,0,1,1.5.78,2.32,2.32,0,0,1,.71.83A2.53,2.53,0,0,1,217.17,38.84Z"/><path class="cls-2" d="M227,37.05a4.69,4.69,0,0,1-1.13,3.34,4.08,4.08,0,0,1-3.13,1.2,4.35,4.35,0,0,1-2.22-.55A3.58,3.58,0,0,1,219,39.46a5.25,5.25,0,0,1-.52-2.41,4.63,4.63,0,0,1,1.12-3.32,4.06,4.06,0,0,1,3.14-1.19,4.35,4.35,0,0,1,2.22.55,3.55,3.55,0,0,1,1.47,1.57A5.16,5.16,0,0,1,227,37.05Zm-6,0a3.58,3.58,0,0,0,.43,2,1.75,1.75,0,0,0,2.75,0,3.72,3.72,0,0,0,.42-2,3.61,3.61,0,0,0-.42-1.94,1.53,1.53,0,0,0-1.38-.65,1.54,1.54,0,0,0-1.38.64A3.62,3.62,0,0,0,220.93,37.05Z"/><path class="cls-2" d="M237,41.44h-2.38v-5.1a2.4,2.4,0,0,0-.34-1.42,1.21,1.21,0,0,0-1.07-.48,1.6,1.6,0,0,0-1.44.67,4.14,4.14,0,0,0-.45,2.22v4.11h-2.38V32.7h1.82l.32,1.12h.13a2.57,2.57,0,0,1,1.1-1,3.86,3.86,0,0,1,1.59-.32,3,3,0,0,1,2.31.82,3.3,3.3,0,0,1,.79,2.38Z"/><path class="cls-2" d="M245,41.44l-.46-1.19h-.06a3.66,3.66,0,0,1-1.24,1,4,4,0,0,1-1.66.29,2.68,2.68,0,0,1-2-.72,2.74,2.74,0,0,1-.72-2,2.29,2.29,0,0,1,1-2,5.55,5.55,0,0,1,2.93-.73l1.52,0v-.38a1.19,1.19,0,0,0-1.36-1.33,6.19,6.19,0,0,0-2.46.63l-.79-1.61a7.16,7.16,0,0,1,3.34-.79,4.19,4.19,0,0,1,2.7.77,2.84,2.84,0,0,1,.94,2.33v5.82Zm-.7-4-.92,0a2.93,2.93,0,0,0-1.55.38,1.16,1.16,0,0,0-.51,1c0,.67.39,1,1.16,1a1.82,1.82,0,0,0,1.32-.48,1.65,1.65,0,0,0,.5-1.26Z"/><path class="cls-2" d="M255.21,38.84a2.41,2.41,0,0,1-.93,2,4.61,4.61,0,0,1-2.79.7,8.46,8.46,0,0,1-1.63-.13,6.15,6.15,0,0,1-1.26-.37v-2a8.75,8.75,0,0,0,1.5.52,6,6,0,0,0,1.46.21c.87,0,1.3-.25,1.3-.75a.65.65,0,0,0-.17-.46,2.47,2.47,0,0,0-.6-.39,11.48,11.48,0,0,0-1.12-.52,7.33,7.33,0,0,1-1.48-.79,2.14,2.14,0,0,1-.69-.82,2.76,2.76,0,0,1-.21-1.14,2.07,2.07,0,0,1,.9-1.8,4.34,4.34,0,0,1,2.56-.64,7.26,7.26,0,0,1,3.07.69l-.72,1.71c-.44-.18-.85-.34-1.23-.46A3.85,3.85,0,0,0,252,34.3c-.7,0-1.06.19-1.06.57a.69.69,0,0,0,.34.56,8.84,8.84,0,0,0,1.49.69,7.16,7.16,0,0,1,1.5.78,2.32,2.32,0,0,1,.71.83A2.53,2.53,0,0,1,255.21,38.84Z"/></g><g id="Capa_4" data-name="Capa 4"><path class="cls-2" d="M39.44,330.75v-9.28H41v9.28Z"/><path class="cls-2" d="M51.51,330.75H50v-4.32a1.86,1.86,0,0,0-.33-1.21,1.27,1.27,0,0,0-1-.4,1.62,1.62,0,0,0-1.38.56,3.07,3.07,0,0,0-.44,1.87v3.5H45.34v-7h1.17l.2.92h.08a2.07,2.07,0,0,1,.9-.77,3.05,3.05,0,0,1,1.3-.27,2.25,2.25,0,0,1,2.52,2.57Z"/><path class="cls-2" d="M61.61,323.72v.82l-1.2.23a1.82,1.82,0,0,1,.27.54,2,2,0,0,1,.11.69,2.08,2.08,0,0,1-.75,1.7,3.09,3.09,0,0,1-2.06.63,3.76,3.76,0,0,1-.61-.05.83.83,0,0,0-.48.69.39.39,0,0,0,.22.37,2,2,0,0,0,.83.12h1.23a2.71,2.71,0,0,1,1.76.49,1.76,1.76,0,0,1,.61,1.43,2.07,2.07,0,0,1-1,1.84,5.17,5.17,0,0,1-2.84.65,3.9,3.9,0,0,1-2.19-.51,1.63,1.63,0,0,1-.76-1.45,1.57,1.57,0,0,1,.41-1.09,2.27,2.27,0,0,1,1.15-.61,1.17,1.17,0,0,1-.69-1,1.08,1.08,0,0,1,.22-.67,2.73,2.73,0,0,1,.66-.54,1.9,1.9,0,0,1-.88-.76,2.49,2.49,0,0,1,.38-3,3,3,0,0,1,2.05-.63,4.64,4.64,0,0,1,.63,0,4.51,4.51,0,0,1,.49.08Zm-5.51,8.12a.81.81,0,0,0,.43.74,2.43,2.43,0,0,0,1.22.26,3.75,3.75,0,0,0,1.82-.35,1,1,0,0,0,.59-.93.69.69,0,0,0-.32-.65,2.66,2.66,0,0,0-1.22-.19H57.49a1.59,1.59,0,0,0-1,.3A1,1,0,0,0,56.1,331.84Zm.64-5.84a1.37,1.37,0,0,0,.34,1,1.26,1.26,0,0,0,1,.36c.86,0,1.3-.46,1.3-1.39a1.54,1.54,0,0,0-.33-1.05,1.19,1.19,0,0,0-1-.37,1.27,1.27,0,0,0-1,.36A1.59,1.59,0,0,0,56.74,326Z"/><path class="cls-2" d="M68.57,323.6a3.8,3.8,0,0,1,.74.06l-.15,1.39a2.84,2.84,0,0,0-.66-.08,1.92,1.92,0,0,0-1.45.59,2.1,2.1,0,0,0-.55,1.52v3.67H65v-7h1.16l.2,1.24h.08a2.64,2.64,0,0,1,.91-1A2.1,2.1,0,0,1,68.57,323.6Z"/><path class="cls-2" d="M75.77,330.87a3.41,3.41,0,0,1-2.56-.95,3.63,3.63,0,0,1-.93-2.63,4,4,0,0,1,.86-2.71,3,3,0,0,1,2.36-1,2.89,2.89,0,0,1,2.19.84,3.23,3.23,0,0,1,.81,2.32v.81H73.82a2.32,2.32,0,0,0,.55,1.57,1.92,1.92,0,0,0,1.47.55,5.36,5.36,0,0,0,1.16-.12,5,5,0,0,0,1.15-.39v1.22a4.57,4.57,0,0,1-1.1.36A6.23,6.23,0,0,1,75.77,330.87Zm-.27-6.14a1.48,1.48,0,0,0-1.14.45,2.09,2.09,0,0,0-.51,1.31H77a1.92,1.92,0,0,0-.42-1.31A1.42,1.42,0,0,0,75.5,324.73Z"/><path class="cls-2" d="M87,328.75a1.82,1.82,0,0,1-.75,1.57,3.54,3.54,0,0,1-2.14.55,5.15,5.15,0,0,1-2.26-.42v-1.29a5.59,5.59,0,0,0,2.31.57c.92,0,1.38-.28,1.38-.83a.64.64,0,0,0-.16-.45,1.7,1.7,0,0,0-.5-.36,7.27,7.27,0,0,0-1-.44,4.37,4.37,0,0,1-1.64-.94,1.69,1.69,0,0,1-.43-1.21,1.58,1.58,0,0,1,.73-1.4,3.38,3.38,0,0,1,2-.5,5.53,5.53,0,0,1,2.34.5l-.48,1.12a5.31,5.31,0,0,0-1.91-.47c-.79,0-1.19.23-1.19.68a.67.67,0,0,0,.31.55,6.23,6.23,0,0,0,1.35.63,6.37,6.37,0,0,1,1.26.62,1.75,1.75,0,0,1,.58.64A1.87,1.87,0,0,1,87,328.75Z"/><path class="cls-2" d="M95.1,330.75l-.3-1h0a2.93,2.93,0,0,1-1,.87,3.13,3.13,0,0,1-1.32.23,2.22,2.22,0,0,1-1.62-.56,2.11,2.11,0,0,1-.58-1.58,1.86,1.86,0,0,1,.81-1.64,4.81,4.81,0,0,1,2.46-.6l1.21,0v-.37a1.44,1.44,0,0,0-.32-1,1.28,1.28,0,0,0-1-.33,3.22,3.22,0,0,0-1,.16,10,10,0,0,0-1,.37l-.48-1.06a5.46,5.46,0,0,1,1.25-.46,5.93,5.93,0,0,1,1.28-.15,3,3,0,0,1,2,.58,2.28,2.28,0,0,1,.69,1.84v4.73Zm-2.22-1a1.84,1.84,0,0,0,1.3-.45,1.66,1.66,0,0,0,.5-1.28v-.61l-.91,0a3.13,3.13,0,0,0-1.53.35,1.08,1.08,0,0,0-.48,1,1,1,0,0,0,.28.72A1.22,1.22,0,0,0,92.88,329.73Z"/><path class="cls-2" d="M110.21,330.75l-.3-1h0a2.86,2.86,0,0,1-1,.87,3.13,3.13,0,0,1-1.32.23,2.19,2.19,0,0,1-1.61-.56,2.08,2.08,0,0,1-.58-1.58,1.88,1.88,0,0,1,.8-1.64,4.81,4.81,0,0,1,2.46-.6l1.21,0v-.37a1.44,1.44,0,0,0-.31-1,1.3,1.3,0,0,0-1-.33,3.22,3.22,0,0,0-1,.16,8.93,8.93,0,0,0-1,.37l-.48-1.06a5.29,5.29,0,0,1,1.25-.46,5.93,5.93,0,0,1,1.28-.15,3,3,0,0,1,2,.58,2.31,2.31,0,0,1,.68,1.84v4.73Zm-2.23-1a1.86,1.86,0,0,0,1.31-.45,1.66,1.66,0,0,0,.49-1.28v-.61l-.9,0a3.13,3.13,0,0,0-1.53.35,1.08,1.08,0,0,0-.48,1,.91.91,0,0,0,.28.72A1.18,1.18,0,0,0,108,329.73Z"/><path class="cls-2" d="M117.8,330.87a2.44,2.44,0,0,1-2-.95,4.3,4.3,0,0,1-.73-2.67,4.25,4.25,0,0,1,.75-2.68,2.44,2.44,0,0,1,2.06-1,2.8,2.8,0,0,1,1.18.24,2.6,2.6,0,0,1,.94.8H120l.16-.92h1.24v10.15h-1.49v-3c0-.18,0-.38,0-.59s0-.37,0-.48h-.09A2.3,2.3,0,0,1,117.8,330.87Zm.43-1.19a1.6,1.6,0,0,0,1.35-.54,2.75,2.75,0,0,0,.41-1.64v-.24a3.2,3.2,0,0,0-.43-1.87,1.57,1.57,0,0,0-1.36-.57,1.38,1.38,0,0,0-1.22.63,3.29,3.29,0,0,0-.42,1.82C116.56,328.88,117.12,329.68,118.23,329.68Z"/><path class="cls-2" d="M130.59,330.75l-.21-.93h-.08a2,2,0,0,1-.88.77,2.9,2.9,0,0,1-1.31.28,2.6,2.6,0,0,1-1.91-.63,2.7,2.7,0,0,1-.62-1.93v-4.59h1.5v4.33a1.88,1.88,0,0,0,.33,1.21,1.25,1.25,0,0,0,1,.41,1.66,1.66,0,0,0,1.39-.57,3.11,3.11,0,0,0,.44-1.88v-3.5h1.49v7Z"/><path class="cls-2" d="M135.91,322.87v-.16c.24-.3.49-.63.74-1s.46-.68.61-.93H139v.13c-.22.26-.55.59-1,1s-.81.72-1.11.95Zm1.57,7.88H136v-7h1.5Z"/><path class="cls-2" d="M150.73,330.87a2.46,2.46,0,0,1-2.07-1h-.09q.09.9.09,1.08v2.88h-1.49V323.72h1.21l.21.94h.07a2.35,2.35,0,0,1,2.1-1.06,2.46,2.46,0,0,1,2.05.95,4.35,4.35,0,0,1,.73,2.67,4.3,4.3,0,0,1-.75,2.69A2.45,2.45,0,0,1,150.73,330.87Zm-.36-6.05a1.56,1.56,0,0,0-1.3.52,2.7,2.7,0,0,0-.41,1.66v.22a3.28,3.28,0,0,0,.41,1.86,1.51,1.51,0,0,0,1.33.57,1.35,1.35,0,0,0,1.19-.63,3.3,3.3,0,0,0,.42-1.81,3.16,3.16,0,0,0-.42-1.79A1.38,1.38,0,0,0,150.37,324.82Z"/><path class="cls-2" d="M161.76,330.75l-.3-1h-.05a2.93,2.93,0,0,1-1,.87,3.19,3.19,0,0,1-1.32.23,2.22,2.22,0,0,1-1.62-.56,2.08,2.08,0,0,1-.58-1.58,1.88,1.88,0,0,1,.8-1.64,4.81,4.81,0,0,1,2.46-.6l1.21,0v-.37a1.44,1.44,0,0,0-.31-1,1.28,1.28,0,0,0-1-.33,3.28,3.28,0,0,0-1,.16,8.93,8.93,0,0,0-1,.37l-.48-1.06a5.29,5.29,0,0,1,1.25-.46,5.93,5.93,0,0,1,1.28-.15,3,3,0,0,1,2,.58,2.27,2.27,0,0,1,.68,1.84v4.73Zm-2.22-1a1.85,1.85,0,0,0,1.3-.45,1.66,1.66,0,0,0,.49-1.28v-.61l-.9,0a3.13,3.13,0,0,0-1.53.35,1.08,1.08,0,0,0-.48,1,.91.91,0,0,0,.28.72A1.19,1.19,0,0,0,159.54,329.73Z"/><path class="cls-2" d="M170.56,323.6a3.73,3.73,0,0,1,.74.06l-.14,1.39a3,3,0,0,0-.66-.08,1.94,1.94,0,0,0-1.46.59,2.1,2.1,0,0,0-.55,1.52v3.67H167v-7h1.17l.19,1.24h.08a2.72,2.72,0,0,1,.91-1A2.13,2.13,0,0,1,170.56,323.6Z"/><path class="cls-2" d="M179.09,330.75l-.3-1h0a2.93,2.93,0,0,1-1,.87,3.16,3.16,0,0,1-1.32.23,2.22,2.22,0,0,1-1.62-.56,2.08,2.08,0,0,1-.58-1.58,1.86,1.86,0,0,1,.81-1.64,4.74,4.74,0,0,1,2.45-.6l1.22,0v-.37a1.44,1.44,0,0,0-.32-1,1.28,1.28,0,0,0-1-.33,3.28,3.28,0,0,0-1,.16,9.85,9.85,0,0,0-.95.37l-.48-1.06a5.46,5.46,0,0,1,1.25-.46,5.93,5.93,0,0,1,1.28-.15,3,3,0,0,1,2,.58,2.28,2.28,0,0,1,.69,1.84v4.73Zm-2.22-1a1.85,1.85,0,0,0,1.3-.45,1.66,1.66,0,0,0,.49-1.28v-.61l-.9,0a3.13,3.13,0,0,0-1.53.35,1.08,1.08,0,0,0-.48,1,.91.91,0,0,0,.28.72A1.22,1.22,0,0,0,176.87,329.73Z"/><path class="cls-2" d="M192.63,330.87a3.07,3.07,0,0,1-2.42-.93,4.7,4.7,0,0,1,0-5.39,3.23,3.23,0,0,1,2.5-.95,4.77,4.77,0,0,1,2,.41l-.45,1.2a4.42,4.42,0,0,0-1.56-.37c-1.22,0-1.82.81-1.82,2.42a2.88,2.88,0,0,0,.45,1.77,1.57,1.57,0,0,0,1.33.6,3.84,3.84,0,0,0,1.89-.5v1.3a2.92,2.92,0,0,1-.86.34A5,5,0,0,1,192.63,330.87Z"/><path class="cls-2" d="M204.56,327.22a3.85,3.85,0,0,1-.89,2.69,3.14,3.14,0,0,1-2.45,1,3.41,3.41,0,0,1-1.74-.44,2.89,2.89,0,0,1-1.16-1.28,4.35,4.35,0,0,1-.41-1.93,3.76,3.76,0,0,1,.88-2.66,3.15,3.15,0,0,1,2.46-1,3.11,3.11,0,0,1,2.42,1A3.78,3.78,0,0,1,204.56,327.22Zm-5.11,0c0,1.62.59,2.43,1.79,2.43s1.78-.81,1.78-2.43-.6-2.4-1.79-2.4a1.5,1.5,0,0,0-1.36.62A3.16,3.16,0,0,0,199.45,327.22Z"/><path class="cls-2" d="M214.54,330.75H213v-4.32a1.86,1.86,0,0,0-.33-1.21,1.23,1.23,0,0,0-1-.4,1.64,1.64,0,0,0-1.39.56,3.08,3.08,0,0,0-.43,1.87v3.5h-1.5v-7h1.17l.21.92h.08a2.07,2.07,0,0,1,.9-.77,3,3,0,0,1,1.29-.27,2.25,2.25,0,0,1,2.53,2.57Z"/><path class="cls-2" d="M224.93,327.22a3.84,3.84,0,0,1-.88,2.69,3.16,3.16,0,0,1-2.45,1,3.41,3.41,0,0,1-1.74-.44,2.89,2.89,0,0,1-1.16-1.28,4.22,4.22,0,0,1-.41-1.93,3.76,3.76,0,0,1,.88-2.66,3.55,3.55,0,0,1,4.88,0A3.78,3.78,0,0,1,224.93,327.22Zm-5.1,0c0,1.62.59,2.43,1.79,2.43s1.78-.81,1.78-2.43-.6-2.4-1.79-2.4a1.5,1.5,0,0,0-1.36.62A3.16,3.16,0,0,0,219.83,327.22Z"/><path class="cls-2" d="M231.57,330.87a3.07,3.07,0,0,1-2.42-.93,4.7,4.7,0,0,1,0-5.39,3.23,3.23,0,0,1,2.5-.95,4.77,4.77,0,0,1,2,.41l-.45,1.2a4.42,4.42,0,0,0-1.56-.37c-1.21,0-1.82.81-1.82,2.42a2.88,2.88,0,0,0,.45,1.77,1.58,1.58,0,0,0,1.33.6,3.82,3.82,0,0,0,1.89-.5v1.3a2.92,2.92,0,0,1-.86.34A5,5,0,0,1,231.57,330.87Z"/><path class="cls-2" d="M240.34,330.87a3.41,3.41,0,0,1-2.56-.95,3.63,3.63,0,0,1-.93-2.63,4,4,0,0,1,.86-2.71,3,3,0,0,1,2.35-1,2.91,2.91,0,0,1,2.2.84,3.23,3.23,0,0,1,.81,2.32v.81h-4.68a2.27,2.27,0,0,0,.55,1.57,1.92,1.92,0,0,0,1.47.55,5.36,5.36,0,0,0,1.16-.12,5.21,5.21,0,0,0,1.15-.39v1.22a4.64,4.64,0,0,1-1.11.36A6.07,6.07,0,0,1,240.34,330.87Zm-.28-6.14a1.51,1.51,0,0,0-1.14.45,2.21,2.21,0,0,0-.51,1.31h3.19a1.92,1.92,0,0,0-.42-1.31A1.43,1.43,0,0,0,240.06,324.73Z"/><path class="cls-2" d="M250.42,323.6a3.8,3.8,0,0,1,.74.06l-.15,1.39a2.84,2.84,0,0,0-.66-.08,1.92,1.92,0,0,0-1.45.59,2.1,2.1,0,0,0-.55,1.52v3.67h-1.49v-7H248l.2,1.24h.08a2.64,2.64,0,0,1,.91-1A2.1,2.1,0,0,1,250.42,323.6Z"/><path class="cls-2" d="M262.64,329.67a3.46,3.46,0,0,0,1.09-.18v1.13a3.16,3.16,0,0,1-.64.18,4.28,4.28,0,0,1-.81.07c-1.41,0-2.12-.74-2.12-2.23v-3.79h-1v-.66l1-.54.51-1.49h.92v1.56h2v1.13h-2v3.76a1.06,1.06,0,0,0,.27.8A1,1,0,0,0,262.64,329.67Z"/><path class="cls-2" d="M267.14,321.86a.8.8,0,0,1,.22-.61A.81.81,0,0,1,268,321a.76.76,0,0,1,.83.83.82.82,0,0,1-.22.61.84.84,0,0,1-.61.21.85.85,0,0,1-.62-.21A.82.82,0,0,1,267.14,321.86Zm1.58,8.89h-1.49v-7h1.49Z"/><path class="cls-2" d="M276.5,330.87a2.45,2.45,0,0,1-2.06-1h-.09q.09.9.09,1.08v2.88h-1.5V323.72h1.21l.21.94h.08a2.32,2.32,0,0,1,2.09-1.06,2.45,2.45,0,0,1,2.05.95,5.22,5.22,0,0,1,0,5.36A2.45,2.45,0,0,1,276.5,330.87Zm-.36-6.05a1.56,1.56,0,0,0-1.3.52,2.7,2.7,0,0,0-.4,1.66v.22a3.29,3.29,0,0,0,.4,1.86,1.51,1.51,0,0,0,1.33.57,1.35,1.35,0,0,0,1.19-.63,3.3,3.3,0,0,0,.42-1.81,3.16,3.16,0,0,0-.42-1.79A1.38,1.38,0,0,0,276.14,324.82Z"/><path class="cls-2" d="M287.85,328.75a1.82,1.82,0,0,1-.75,1.57,3.54,3.54,0,0,1-2.14.55,5.15,5.15,0,0,1-2.26-.42v-1.29a5.59,5.59,0,0,0,2.31.57c.92,0,1.38-.28,1.38-.83a.69.69,0,0,0-.16-.45,1.84,1.84,0,0,0-.5-.36,7.27,7.27,0,0,0-1-.44,4.37,4.37,0,0,1-1.64-.94,1.69,1.69,0,0,1-.43-1.21,1.58,1.58,0,0,1,.73-1.4,3.38,3.38,0,0,1,2-.5,5.53,5.53,0,0,1,2.34.5l-.49,1.12a5.22,5.22,0,0,0-1.91-.47c-.78,0-1.18.23-1.18.68a.67.67,0,0,0,.31.55,6.08,6.08,0,0,0,1.34.63,6.23,6.23,0,0,1,1.27.62,1.84,1.84,0,0,1,.58.64A1.87,1.87,0,0,1,287.85,328.75Z"/><path class="cls-2" d="M299.39,330.87a2.48,2.48,0,0,1-2.05-.95,4.28,4.28,0,0,1-.73-2.67,4.35,4.35,0,0,1,.74-2.69,2.48,2.48,0,0,1,2.07-1,2.44,2.44,0,0,1,2.11,1h.07a9,9,0,0,1-.1-1.19v-2.56H303v9.88h-1.16l-.26-.93h-.07A2.39,2.39,0,0,1,299.39,330.87Zm.4-1.2a1.62,1.62,0,0,0,1.34-.52,2.75,2.75,0,0,0,.44-1.68v-.21a3.11,3.11,0,0,0-.44-1.88,1.56,1.56,0,0,0-1.35-.56,1.37,1.37,0,0,0-1.21.63,3.33,3.33,0,0,0-.43,1.82,3.14,3.14,0,0,0,.42,1.78A1.39,1.39,0,0,0,299.79,329.67Z"/><path class="cls-2" d="M310.29,330.87a3.43,3.43,0,0,1-2.57-.95,3.66,3.66,0,0,1-.92-2.63,4,4,0,0,1,.86-2.71,3,3,0,0,1,2.35-1,2.91,2.91,0,0,1,2.2.84,3.23,3.23,0,0,1,.8,2.32v.81h-4.67a2.27,2.27,0,0,0,.55,1.57,1.91,1.91,0,0,0,1.47.55,5.2,5.2,0,0,0,1.15-.12,5.11,5.11,0,0,0,1.16-.39v1.22a4.79,4.79,0,0,1-1.11.36A6.13,6.13,0,0,1,310.29,330.87Zm-.28-6.14a1.51,1.51,0,0,0-1.14.45,2.21,2.21,0,0,0-.51,1.31h3.19a1.92,1.92,0,0,0-.42-1.31A1.43,1.43,0,0,0,310,324.73Z"/><path class="cls-2" d="M44,344.35a1.82,1.82,0,0,1-.75,1.57,3.52,3.52,0,0,1-2.14.55,5.07,5.07,0,0,1-2.25-.42v-1.29a5.51,5.51,0,0,0,2.3.57c.92,0,1.38-.28,1.38-.83a.68.68,0,0,0-.15-.45,1.72,1.72,0,0,0-.51-.36,7.27,7.27,0,0,0-1-.44,4.37,4.37,0,0,1-1.64-.94,1.75,1.75,0,0,1-.43-1.21,1.6,1.6,0,0,1,.73-1.4,3.38,3.38,0,0,1,2-.5,5.53,5.53,0,0,1,2.34.5l-.48,1.12a5.31,5.31,0,0,0-1.91-.47c-.79,0-1.18.23-1.18.68a.66.66,0,0,0,.3.55,6.23,6.23,0,0,0,1.35.63,6.09,6.09,0,0,1,1.26.62,1.75,1.75,0,0,1,.58.64A1.87,1.87,0,0,1,44,344.35Z"/><path class="cls-2" d="M50.76,346.47a3.43,3.43,0,0,1-2.56-1,3.66,3.66,0,0,1-.92-2.63,4,4,0,0,1,.86-2.71,3,3,0,0,1,2.35-1,2.91,2.91,0,0,1,2.2.84,3.22,3.22,0,0,1,.8,2.33v.8H48.82a2.27,2.27,0,0,0,.55,1.57,1.9,1.9,0,0,0,1.46.55,5.41,5.41,0,0,0,2.32-.51V346a4.79,4.79,0,0,1-1.11.36A6.17,6.17,0,0,1,50.76,346.47Zm-.27-6.14a1.51,1.51,0,0,0-1.14.45,2.21,2.21,0,0,0-.51,1.31H52a2,2,0,0,0-.42-1.32A1.45,1.45,0,0,0,50.49,340.33Z"/><path class="cls-2" d="M63.21,339.32v.82l-1.2.23a1.82,1.82,0,0,1,.27.54,2,2,0,0,1,.11.69,2.08,2.08,0,0,1-.75,1.7,3.09,3.09,0,0,1-2.06.63,3.76,3.76,0,0,1-.61-.05.83.83,0,0,0-.48.69.4.4,0,0,0,.22.37,2,2,0,0,0,.83.12h1.23a2.71,2.71,0,0,1,1.76.49,1.75,1.75,0,0,1,.6,1.43,2.06,2.06,0,0,1-1,1.84,5.17,5.17,0,0,1-2.84.65,3.9,3.9,0,0,1-2.19-.51,1.63,1.63,0,0,1-.76-1.45,1.57,1.57,0,0,1,.41-1.09,2.27,2.27,0,0,1,1.15-.61,1.1,1.1,0,0,1-.5-.41,1.07,1.07,0,0,1,0-1.26,2.73,2.73,0,0,1,.66-.54,1.9,1.9,0,0,1-.88-.76,2.49,2.49,0,0,1,.38-3,3,3,0,0,1,2-.63,4.64,4.64,0,0,1,.63,0l.49.08Zm-5.52,8.12a.82.82,0,0,0,.44.74,2.43,2.43,0,0,0,1.22.26,3.75,3.75,0,0,0,1.82-.35,1,1,0,0,0,.59-.93.71.71,0,0,0-.32-.65,2.66,2.66,0,0,0-1.22-.19H59.09a1.59,1.59,0,0,0-1,.3A1,1,0,0,0,57.69,347.44Zm.65-5.84a1.37,1.37,0,0,0,.34,1,1.26,1.26,0,0,0,1,.36c.86,0,1.29-.46,1.29-1.39a1.52,1.52,0,0,0-.32-1.05,1.19,1.19,0,0,0-1-.37,1.27,1.27,0,0,0-1,.36A1.59,1.59,0,0,0,58.34,341.6Z"/><path class="cls-2" d="M71.56,346.34l-.21-.91h-.08a2.12,2.12,0,0,1-.88.76,3,3,0,0,1-1.32.28,2.58,2.58,0,0,1-1.9-.63,2.65,2.65,0,0,1-.63-1.93v-4.59h1.51v4.33a1.88,1.88,0,0,0,.33,1.21,1.25,1.25,0,0,0,1,.41,1.63,1.63,0,0,0,1.38-.57,3,3,0,0,0,.44-1.88v-3.5h1.5v7Z"/><path class="cls-2" d="M80.51,339.2a3.73,3.73,0,0,1,.74.06l-.14,1.39a2.84,2.84,0,0,0-.66-.07,1.9,1.9,0,0,0-1.45.58,2.11,2.11,0,0,0-.56,1.52v3.66H77v-7h1.17l.19,1.24h.08a2.72,2.72,0,0,1,.91-1A2.15,2.15,0,0,1,80.51,339.2Z"/><path class="cls-2" d="M84.56,337.47a.81.81,0,0,1,.22-.62.85.85,0,0,1,.62-.22.87.87,0,0,1,.62.22.85.85,0,0,1,.21.62.8.8,0,0,1-.21.59.83.83,0,0,1-.62.22.81.81,0,0,1-.62-.22A.77.77,0,0,1,84.56,337.47Zm1.58,8.87H84.65v-7h1.49Z"/><path class="cls-2" d="M92.73,346.47a2.46,2.46,0,0,1-2-1,4.28,4.28,0,0,1-.73-2.67,4.35,4.35,0,0,1,.74-2.69,2.48,2.48,0,0,1,2.07-1,2.44,2.44,0,0,1,2.11,1h.07a9.29,9.29,0,0,1-.11-1.19v-2.56h1.5v9.87H95.16l-.26-.91h-.07A2.38,2.38,0,0,1,92.73,346.47Zm.4-1.2a1.63,1.63,0,0,0,1.34-.52,2.69,2.69,0,0,0,.43-1.68v-.21a3.17,3.17,0,0,0-.43-1.89,1.59,1.59,0,0,0-1.35-.55,1.37,1.37,0,0,0-1.21.63,3.24,3.24,0,0,0-.43,1.82,3.12,3.12,0,0,0,.42,1.78A1.38,1.38,0,0,0,93.13,345.27Z"/><path class="cls-2" d="M105,346.34l-.3-1h-.05a2.82,2.82,0,0,1-1,.87,3.29,3.29,0,0,1-1.32.23,2.22,2.22,0,0,1-1.62-.56,2.11,2.11,0,0,1-.58-1.58,1.83,1.83,0,0,1,.81-1.63,4.7,4.7,0,0,1,2.46-.61l1.21,0v-.37a1.44,1.44,0,0,0-.32-1,1.28,1.28,0,0,0-1-.33,3.28,3.28,0,0,0-1,.16,7.79,7.79,0,0,0-.95.37l-.48-1.06a5.46,5.46,0,0,1,1.25-.46,5.93,5.93,0,0,1,1.28-.15,3,3,0,0,1,2,.58,2.28,2.28,0,0,1,.69,1.84v4.72Zm-2.22-1a1.84,1.84,0,0,0,1.3-.45,1.66,1.66,0,0,0,.5-1.28V343l-.91,0a3.13,3.13,0,0,0-1.53.35,1.08,1.08,0,0,0-.48,1,1,1,0,0,0,.28.72A1.22,1.22,0,0,0,102.73,345.33Z"/><path class="cls-2" d="M112.56,346.47a2.45,2.45,0,0,1-2-1,5.19,5.19,0,0,1,0-5.36,2.48,2.48,0,0,1,2.06-1,2.41,2.41,0,0,1,2.11,1h.08a9.29,9.29,0,0,1-.11-1.19v-2.56h1.5v9.87H115l-.26-.91h-.07A2.4,2.4,0,0,1,112.56,346.47Zm.4-1.2a1.65,1.65,0,0,0,1.34-.52,2.75,2.75,0,0,0,.43-1.68v-.21a3.17,3.17,0,0,0-.43-1.89,1.61,1.61,0,0,0-1.35-.55,1.36,1.36,0,0,0-1.21.63,3.24,3.24,0,0,0-.43,1.82,3.21,3.21,0,0,0,.41,1.78A1.4,1.4,0,0,0,113,345.27Z"/><path class="cls-2" d="M124.79,339.32h1.62l1.43,4a7.23,7.23,0,0,1,.43,1.6h0a7.3,7.3,0,0,1,.21-.84c.1-.34.64-1.91,1.62-4.74h1.61l-3,8a2.84,2.84,0,0,1-2.72,2.19,4.44,4.44,0,0,1-1-.11v-1.18a3.57,3.57,0,0,0,.77.08,1.59,1.59,0,0,0,1.52-1.25l.26-.67Z"/><path class="cls-2" d="M144.78,346.34l-.3-1h0a2.82,2.82,0,0,1-1,.87,3.29,3.29,0,0,1-1.32.23,2.22,2.22,0,0,1-1.62-.56,2.11,2.11,0,0,1-.58-1.58,1.83,1.83,0,0,1,.81-1.63,4.68,4.68,0,0,1,2.46-.61l1.21,0v-.37a1.44,1.44,0,0,0-.32-1,1.28,1.28,0,0,0-1-.33,3.28,3.28,0,0,0-1,.16,7.79,7.79,0,0,0-.95.37l-.48-1.06a5.46,5.46,0,0,1,1.25-.46,5.93,5.93,0,0,1,1.28-.15,3,3,0,0,1,2,.58,2.28,2.28,0,0,1,.69,1.84v4.72Zm-2.22-1a1.84,1.84,0,0,0,1.3-.45,1.66,1.66,0,0,0,.49-1.28V343l-.9,0a3.13,3.13,0,0,0-1.53.35,1.08,1.08,0,0,0-.48,1,.91.91,0,0,0,.28.72A1.22,1.22,0,0,0,142.56,345.33Z"/><path class="cls-2" d="M149,339.32h1.62l1.43,4a7.82,7.82,0,0,1,.43,1.6h.05a7.3,7.3,0,0,1,.21-.84c.1-.34.64-1.91,1.61-4.74h1.61l-3,8a2.84,2.84,0,0,1-2.73,2.19,4.35,4.35,0,0,1-1-.11v-1.18a3.5,3.5,0,0,0,.77.08,1.57,1.57,0,0,0,1.51-1.25l.26-.67Z"/><path class="cls-2" d="M164,346.34l-.21-.91h-.08a2.08,2.08,0,0,1-.89.76,2.9,2.9,0,0,1-1.31.28,2.58,2.58,0,0,1-1.9-.63,2.65,2.65,0,0,1-.63-1.93v-4.59h1.51v4.33a1.82,1.82,0,0,0,.33,1.21,1.25,1.25,0,0,0,1,.41,1.63,1.63,0,0,0,1.38-.57,3.11,3.11,0,0,0,.44-1.88v-3.5h1.5v7Z"/><path class="cls-2" d="M171.8,346.47a2.45,2.45,0,0,1-2.05-1,4.22,4.22,0,0,1-.74-2.67,4.28,4.28,0,0,1,.75-2.69,2.69,2.69,0,0,1,4.17.06H174a9,9,0,0,1-.1-1.19v-2.56h1.5v9.87h-1.17l-.26-.91h-.07A2.4,2.4,0,0,1,171.8,346.47Zm.4-1.2a1.65,1.65,0,0,0,1.34-.52,2.75,2.75,0,0,0,.43-1.68v-.21a3.25,3.25,0,0,0-.43-1.89,1.61,1.61,0,0,0-1.36-.55,1.37,1.37,0,0,0-1.21.63,3.33,3.33,0,0,0-.42,1.82,3.13,3.13,0,0,0,.41,1.78A1.39,1.39,0,0,0,172.2,345.27Z"/><path class="cls-2" d="M184,346.34l-.29-1h-.05a2.77,2.77,0,0,1-1,.87,3.29,3.29,0,0,1-1.32.23,2.18,2.18,0,0,1-1.61-.56,2.08,2.08,0,0,1-.58-1.58,1.85,1.85,0,0,1,.8-1.63,4.7,4.7,0,0,1,2.46-.61l1.21,0v-.37a1.44,1.44,0,0,0-.31-1,1.3,1.3,0,0,0-1-.33,3.22,3.22,0,0,0-1,.16,7.2,7.2,0,0,0-.95.37l-.49-1.06a5.64,5.64,0,0,1,1.25-.46,6,6,0,0,1,1.29-.15,3,3,0,0,1,2,.58,2.31,2.31,0,0,1,.68,1.84v4.72Zm-2.22-1a1.88,1.88,0,0,0,1.31-.45,1.66,1.66,0,0,0,.49-1.28V343l-.9,0a3.1,3.1,0,0,0-1.53.35,1.08,1.08,0,0,0-.48,1,.91.91,0,0,0,.28.72A1.18,1.18,0,0,0,181.79,345.33Z"/><path class="cls-2" d="M197.56,346.47a3.09,3.09,0,0,1-2.43-.93,4.74,4.74,0,0,1,0-5.39,3.2,3.2,0,0,1,2.51-.95,4.8,4.8,0,0,1,2,.41l-.45,1.2a4.42,4.42,0,0,0-1.56-.37c-1.22,0-1.83.81-1.83,2.42a2.82,2.82,0,0,0,.46,1.77,1.55,1.55,0,0,0,1.33.6,3.81,3.81,0,0,0,1.88-.5V346a2.86,2.86,0,0,1-.85.34A5,5,0,0,1,197.56,346.47Z"/><path class="cls-2" d="M209.48,342.82a3.84,3.84,0,0,1-.88,2.69,3.18,3.18,0,0,1-2.46,1,3.46,3.46,0,0,1-1.74-.44,3,3,0,0,1-1.16-1.28,4.35,4.35,0,0,1-.4-1.93,3.81,3.81,0,0,1,.87-2.66,3.19,3.19,0,0,1,2.47-1,3.06,3.06,0,0,1,2.41,1A3.74,3.74,0,0,1,209.48,342.82Zm-5.11,0q0,2.43,1.8,2.43c1.18,0,1.78-.81,1.78-2.43s-.6-2.4-1.79-2.4a1.53,1.53,0,0,0-1.37.62A3.16,3.16,0,0,0,204.37,342.82Z"/><path class="cls-2" d="M219.46,346.34H218V342a1.86,1.86,0,0,0-.33-1.21,1.25,1.25,0,0,0-1-.4,1.64,1.64,0,0,0-1.38.55,3.13,3.13,0,0,0-.44,1.88v3.49h-1.49v-7h1.17l.21.93h.07a2,2,0,0,1,.9-.78,3.05,3.05,0,0,1,1.3-.27,2.25,2.25,0,0,1,2.52,2.57Z"/><path class="cls-2" d="M231.72,345.27a3.46,3.46,0,0,0,1.09-.18v1.13a3.16,3.16,0,0,1-.64.18,4.28,4.28,0,0,1-.81.07c-1.41,0-2.12-.74-2.12-2.23v-3.79h-1v-.66l1-.54.51-1.49h.92v1.56h2v1.13h-2v3.76a1.06,1.06,0,0,0,.27.8A1,1,0,0,0,231.72,345.27Z"/><path class="cls-2" d="M241.26,346.34l-.21-.91H241a2.12,2.12,0,0,1-.88.76,2.93,2.93,0,0,1-1.31.28,2.6,2.6,0,0,1-1.91-.63,2.65,2.65,0,0,1-.63-1.93v-4.59h1.51v4.33a1.88,1.88,0,0,0,.33,1.21,1.25,1.25,0,0,0,1,.41,1.63,1.63,0,0,0,1.38-.57,3,3,0,0,0,.44-1.88v-3.5h1.5v7Z"/><path class="cls-2" d="M255.71,339.2a2.44,2.44,0,0,1,2,.95,5.25,5.25,0,0,1,0,5.36,2.48,2.48,0,0,1-2.07,1,2.46,2.46,0,0,1-2.07-1h-.1l-.27.83h-1.12v-9.87h1.49v2.35c0,.17,0,.43,0,.77s0,.56,0,.66h.06A2.39,2.39,0,0,1,255.71,339.2Zm-.39,1.22a1.51,1.51,0,0,0-1.3.53,3.11,3.11,0,0,0-.41,1.77v.1a3.28,3.28,0,0,0,.41,1.86,1.51,1.51,0,0,0,1.33.57,1.35,1.35,0,0,0,1.2-.62,3.38,3.38,0,0,0,.41-1.82C257,341.21,256.41,340.42,255.32,340.42Z"/><path class="cls-2" d="M266.71,346.34l-.3-1h-.05a2.82,2.82,0,0,1-1,.87,3.36,3.36,0,0,1-1.32.23,2.22,2.22,0,0,1-1.62-.56,2.08,2.08,0,0,1-.58-1.58,1.85,1.85,0,0,1,.8-1.63,4.7,4.7,0,0,1,2.46-.61l1.21,0v-.37a1.44,1.44,0,0,0-.31-1,1.28,1.28,0,0,0-1-.33,3.28,3.28,0,0,0-1,.16,7.2,7.2,0,0,0-1,.37l-.48-1.06a5.29,5.29,0,0,1,1.25-.46,5.93,5.93,0,0,1,1.28-.15,3,3,0,0,1,2,.58,2.27,2.27,0,0,1,.68,1.84v4.72Zm-2.22-1a1.85,1.85,0,0,0,1.3-.45,1.66,1.66,0,0,0,.49-1.28V343l-.9,0a3.13,3.13,0,0,0-1.53.35,1.08,1.08,0,0,0-.48,1,.91.91,0,0,0,.28.72A1.19,1.19,0,0,0,264.49,345.33Z"/><path class="cls-2" d="M278.12,346.34h-1.49V342a1.86,1.86,0,0,0-.33-1.21,1.25,1.25,0,0,0-1-.4,1.64,1.64,0,0,0-1.38.55,3.13,3.13,0,0,0-.44,1.88v3.49H272v-7h1.17l.21.93h.07a2,2,0,0,1,.9-.78,3.05,3.05,0,0,1,1.3-.27,2.25,2.25,0,0,1,2.52,2.57Z"/><path class="cls-2" d="M285.12,346.47a3.07,3.07,0,0,1-2.42-.93,4.7,4.7,0,0,1,0-5.39,3.19,3.19,0,0,1,2.5-.95,4.73,4.73,0,0,1,2,.41l-.45,1.2a4.42,4.42,0,0,0-1.56-.37c-1.21,0-1.82.81-1.82,2.42a2.88,2.88,0,0,0,.45,1.77,1.58,1.58,0,0,0,1.33.6,3.82,3.82,0,0,0,1.89-.5V346a3,3,0,0,1-.85.34A5.07,5.07,0,0,1,285.12,346.47Z"/><path class="cls-2" d="M295.22,346.34l-.3-1h-.05a2.77,2.77,0,0,1-1,.87,3.29,3.29,0,0,1-1.32.23,2.19,2.19,0,0,1-1.61-.56,2.08,2.08,0,0,1-.58-1.58,1.85,1.85,0,0,1,.8-1.63,4.7,4.7,0,0,1,2.46-.61l1.21,0v-.37a1.44,1.44,0,0,0-.31-1,1.29,1.29,0,0,0-1-.33,3.26,3.26,0,0,0-1,.16,7.2,7.2,0,0,0-1,.37l-.48-1.06a5.29,5.29,0,0,1,1.25-.46,5.93,5.93,0,0,1,1.28-.15,3,3,0,0,1,2,.58,2.31,2.31,0,0,1,.68,1.84v4.72Zm-2.23-1a1.86,1.86,0,0,0,1.31-.45,1.66,1.66,0,0,0,.49-1.28V343l-.9,0a3.13,3.13,0,0,0-1.53.35,1.08,1.08,0,0,0-.48,1,.91.91,0,0,0,.28.72A1.18,1.18,0,0,0,293,345.33Z"/><path class="cls-2" d="M309,346.47a3.43,3.43,0,0,1-2.56-1,3.66,3.66,0,0,1-.92-2.63,4,4,0,0,1,.85-2.71,3,3,0,0,1,2.36-1,2.91,2.91,0,0,1,2.2.84,3.26,3.26,0,0,1,.8,2.33v.8H307a2.33,2.33,0,0,0,.56,1.57,1.89,1.89,0,0,0,1.46.55,5.3,5.3,0,0,0,1.16-.12,5,5,0,0,0,1.15-.39V346a4.57,4.57,0,0,1-1.1.36A6.17,6.17,0,0,1,309,346.47Zm-.27-6.14a1.51,1.51,0,0,0-1.14.45,2.09,2.09,0,0,0-.51,1.31h3.19a2,2,0,0,0-.42-1.32A1.47,1.47,0,0,0,308.72,340.33Z"/><path class="cls-2" d="M321.69,346.34h-1.5V342a1.86,1.86,0,0,0-.33-1.21,1.25,1.25,0,0,0-1-.4,1.64,1.64,0,0,0-1.38.55,3.13,3.13,0,0,0-.44,1.88v3.49h-1.49v-7h1.17l.21.93H317a2.05,2.05,0,0,1,.91-.78,3,3,0,0,1,1.29-.27,2.25,2.25,0,0,1,2.53,2.57Z"/><path class="cls-2" d="M40.77,362H39.28v-9.88h1.49Z"/><path class="cls-2" d="M44.92,354.07v-.16c.24-.3.49-.63.74-1s.46-.68.61-.93H48v.13c-.22.26-.55.59-1,1s-.81.72-1.11.95ZM46.49,362H45v-7h1.5Z"/><path class="cls-2" d="M56.89,362h-1.5v-4.32a1.86,1.86,0,0,0-.33-1.21,1.23,1.23,0,0,0-1-.4,1.64,1.64,0,0,0-1.39.56,3.07,3.07,0,0,0-.44,1.87V362H50.71v-7h1.17l.21.91h.08a2.07,2.07,0,0,1,.9-.77,3,3,0,0,1,1.29-.27,2.25,2.25,0,0,1,2.53,2.57Z"/><path class="cls-2" d="M64.12,362.07a3.43,3.43,0,0,1-2.56-.95,3.66,3.66,0,0,1-.92-2.63,4,4,0,0,1,.86-2.71,3,3,0,0,1,2.35-1,2.91,2.91,0,0,1,2.2.84,3.28,3.28,0,0,1,.8,2.33v.8H62.17a2.33,2.33,0,0,0,.56,1.57,1.89,1.89,0,0,0,1.46.55,5.3,5.3,0,0,0,1.16-.12,5,5,0,0,0,1.15-.39v1.22a4.57,4.57,0,0,1-1.1.36A6.17,6.17,0,0,1,64.12,362.07Zm-.27-6.14a1.51,1.51,0,0,0-1.14.45,2.15,2.15,0,0,0-.51,1.31h3.19a1.92,1.92,0,0,0-.42-1.31A1.44,1.44,0,0,0,63.85,355.93Z"/><path class="cls-2" d="M75,362l-.3-1h0a2.84,2.84,0,0,1-1,.87,3.13,3.13,0,0,1-1.32.23,2.18,2.18,0,0,1-1.61-.56,2.08,2.08,0,0,1-.58-1.58,1.83,1.83,0,0,1,.8-1.63,4.7,4.7,0,0,1,2.46-.61l1.21,0v-.37a1.44,1.44,0,0,0-.31-1,1.3,1.3,0,0,0-1-.33,3.22,3.22,0,0,0-1,.16,8.93,8.93,0,0,0-1,.37l-.49-1.06a5.46,5.46,0,0,1,1.25-.46,6,6,0,0,1,1.29-.15,3,3,0,0,1,2,.58,2.31,2.31,0,0,1,.68,1.84V362Zm-2.22-1a1.88,1.88,0,0,0,1.31-.45,1.69,1.69,0,0,0,.49-1.28v-.61l-.9,0a3.14,3.14,0,0,0-1.54.35,1.08,1.08,0,0,0-.48,1,1,1,0,0,0,.28.72A1.22,1.22,0,0,0,72.81,360.93Z"/><path class="cls-2" d="M80.05,361.15a1,1,0,0,1,.24-.71,1,1,0,0,1,.7-.25.94.94,0,0,1,.71.26,1,1,0,0,1,.24.7,1,1,0,0,1-.25.72.91.91,0,0,1-.7.26.93.93,0,0,1-.7-.26A1,1,0,0,1,80.05,361.15Z"/><path class="cls-2" d="M75.39,304.76H73v-9.4h-3.1v-2h8.63v2h-3.1Z"/><path class="cls-2" d="M80.25,304.76V293.34h2.42v11.42Z"/><path class="cls-2" d="M93.43,296.9a3.48,3.48,0,0,1-1.15,2.82,4.94,4.94,0,0,1-3.28,1H88v4.06H85.54V293.34h3.65a4.88,4.88,0,0,1,3.16.89A3.28,3.28,0,0,1,93.43,296.9ZM88,298.72h.8a2.6,2.6,0,0,0,1.67-.45A1.54,1.54,0,0,0,91,297a1.59,1.59,0,0,0-.47-1.26,2.16,2.16,0,0,0-1.45-.41H88Z"/><path class="cls-2" d="M102.33,301.59a3,3,0,0,1-1.11,2.44,4.87,4.87,0,0,1-3.1.89,7.21,7.21,0,0,1-3.23-.69V302a13.87,13.87,0,0,0,2,.73,5.91,5.91,0,0,0,1.47.21,2,2,0,0,0,1.22-.31,1,1,0,0,0,.43-.9,1,1,0,0,0-.19-.6,2.08,2.08,0,0,0-.55-.5,13.55,13.55,0,0,0-1.48-.78,7.15,7.15,0,0,1-1.57-.94,3.58,3.58,0,0,1-.84-1.06,3.3,3.3,0,0,1,.72-3.79,4.3,4.3,0,0,1,2.84-.86,6.77,6.77,0,0,1,1.7.21,12.7,12.7,0,0,1,1.69.59l-.78,1.88a11.49,11.49,0,0,0-1.52-.52,4.75,4.75,0,0,0-1.17-.15,1.6,1.6,0,0,0-1.06.32,1.07,1.07,0,0,0-.36.84,1,1,0,0,0,.15.56,1.47,1.47,0,0,0,.47.46,15.14,15.14,0,0,0,1.53.8,6.18,6.18,0,0,1,2.2,1.53A3,3,0,0,1,102.33,301.59Z"/><path class="cls-2" d="M118,298.94a5.63,5.63,0,0,1-1.61,4.32,6.56,6.56,0,0,1-4.64,1.5h-3.23V293.34h3.58a6,6,0,0,1,4.35,1.48A5.43,5.43,0,0,1,118,298.94Zm-2.52.06q0-3.67-3.25-3.68H111v7.44h1Q115.51,302.76,115.52,299Z"/><path class="cls-2" d="M127,304.76H120.4V293.34H127v2h-4.16v2.51h3.87v2h-3.87v2.94H127Z"/><path class="cls-2" d="M140.26,301.59a3,3,0,0,1-1.11,2.44,4.87,4.87,0,0,1-3.1.89,7.21,7.21,0,0,1-3.23-.69V302a13.87,13.87,0,0,0,2,.73,5.91,5.91,0,0,0,1.47.21,2,2,0,0,0,1.22-.31,1.11,1.11,0,0,0,.24-1.5,2.08,2.08,0,0,0-.55-.5,13.55,13.55,0,0,0-1.48-.78,7.15,7.15,0,0,1-1.57-.94,3.58,3.58,0,0,1-.84-1.06A3.3,3.3,0,0,1,134,294a4.3,4.3,0,0,1,2.84-.86,6.77,6.77,0,0,1,1.7.21,12.7,12.7,0,0,1,1.69.59l-.78,1.88a11.49,11.49,0,0,0-1.52-.52,4.75,4.75,0,0,0-1.17-.15,1.6,1.6,0,0,0-1.06.32,1.07,1.07,0,0,0-.36.84,1.13,1.13,0,0,0,.14.56,1.64,1.64,0,0,0,.48.46,15.14,15.14,0,0,0,1.53.8,6.18,6.18,0,0,1,2.2,1.53A3,3,0,0,1,140.26,301.59Z"/><path class="cls-2" d="M148.91,304.76h-6.58V293.34h6.58v2h-4.16v2.51h3.87v2h-3.87v2.94h4.16Z"/><path class="cls-2" d="M155.63,298.35h4.53v5.92a12.13,12.13,0,0,1-2.07.5,13.13,13.13,0,0,1-2,.15,5,5,0,0,1-3.95-1.52,6.31,6.31,0,0,1-1.36-4.36,5.74,5.74,0,0,1,1.58-4.32,6,6,0,0,1,4.38-1.54,8.4,8.4,0,0,1,3.39.7l-.8,1.94a5.7,5.7,0,0,0-2.6-.63,3.2,3.2,0,0,0-2.52,1.06,4.06,4.06,0,0,0-.94,2.83,4.53,4.53,0,0,0,.76,2.84,2.62,2.62,0,0,0,2.21,1,8.11,8.11,0,0,0,1.54-.15v-2.39h-2.16Z"/><path class="cls-2" d="M172.18,293.34v7.39a4.27,4.27,0,0,1-.57,2.22,3.65,3.65,0,0,1-1.64,1.46,5.8,5.8,0,0,1-2.53.51,4.85,4.85,0,0,1-3.42-1.13,4,4,0,0,1-1.22-3.09v-7.36h2.41v7a2.9,2.9,0,0,0,.54,1.94,2.75,2.75,0,0,0,3.48,0,3,3,0,0,0,.53-1.95v-7Z"/><path class="cls-2" d="M177.39,300.38v4.38H175V293.34h3.33a5.69,5.69,0,0,1,3.45.85,3.39,3.39,0,0,1,.56,4.36,3.65,3.65,0,0,1-1.57,1.24q2.58,3.84,3.36,5h-2.69l-2.73-4.38Zm0-2h.79a3,3,0,0,0,1.69-.38,1.37,1.37,0,0,0,.55-1.21,1.25,1.25,0,0,0-.56-1.15,3.37,3.37,0,0,0-1.73-.35h-.74Z"/><path class="cls-2" d="M185.54,304.76V293.34H188v11.42Z"/><path class="cls-2" d="M200.31,298.94a5.63,5.63,0,0,1-1.61,4.32,6.53,6.53,0,0,1-4.63,1.5h-3.24V293.34h3.59a6,6,0,0,1,4.34,1.48A5.43,5.43,0,0,1,200.31,298.94Zm-2.52.06q0-3.67-3.25-3.68h-1.29v7.44h1C196.63,302.76,197.79,301.51,197.79,299Z"/><path class="cls-2" d="M209.67,304.76l-.83-2.72h-4.16l-.83,2.72h-2.61l4-11.47h3l4.05,11.47ZM208.26,300,207,295.83c-.1-.32-.17-.58-.21-.76q-.25,1-1.47,4.94Z"/><path class="cls-2" d="M223.19,298.94a5.62,5.62,0,0,1-1.6,4.32,6.56,6.56,0,0,1-4.64,1.5h-3.24V293.34h3.59a6,6,0,0,1,4.34,1.48A5.39,5.39,0,0,1,223.19,298.94Zm-2.51.06c0-2.45-1.09-3.68-3.25-3.68h-1.29v7.44h1Q220.68,302.76,220.68,299Z"/><path class="cls-2" d="M233.27,298l2.38-4.7h2.61l-3.79,7v4.44h-2.4v-4.37l-3.79-7.05h2.62Z"/><path class="cls-2" d="M250.85,304.76,250,302h-4.16l-.83,2.72h-2.61l4-11.47h3l4.05,11.47ZM249.44,300l-1.29-4.18c-.1-.32-.17-.58-.21-.76q-.25,1-1.48,4.94Z"/><path class="cls-2" d="M258.45,298l2.38-4.7h2.61l-3.79,7v4.44h-2.4v-4.37l-3.79-7.05h2.62Z"/><path class="cls-2" d="M274.18,293.34v7.39a4.27,4.27,0,0,1-.57,2.22,3.65,3.65,0,0,1-1.64,1.46,5.8,5.8,0,0,1-2.53.51,4.85,4.85,0,0,1-3.42-1.13,4,4,0,0,1-1.22-3.09v-7.36h2.41v7a2.9,2.9,0,0,0,.54,1.94,2.75,2.75,0,0,0,3.48,0,3,3,0,0,0,.53-1.95v-7Z"/><path class="cls-2" d="M286.45,298.94a5.63,5.63,0,0,1-1.61,4.32,6.53,6.53,0,0,1-4.63,1.5H277V293.34h3.59a6,6,0,0,1,4.34,1.48A5.43,5.43,0,0,1,286.45,298.94Zm-2.52.06q0-3.67-3.25-3.68h-1.29v7.44h1C282.77,302.76,283.93,301.51,283.93,299Z"/><path class="cls-2" d="M295.81,304.76,295,302h-4.16l-.83,2.72h-2.61l4-11.47h3l4.05,11.47ZM294.4,300l-1.29-4.18c-.1-.32-.17-.58-.21-.76q-.25,1-1.47,4.94Z"/><path class="cls-2" d="M50.79,283.34a13.29,13.29,0,0,0,7.82,2.7v10.7c0,3.4-1.88,4.28-7.82,7.94C44.86,301,43,300.14,43,296.74V286A13.27,13.27,0,0,0,50.79,283.34Zm0-2.84c-3.77,3.2-6.13,3.35-10.06,3.35v12.89c0,5.15,3.58,6.49,10.06,10.58,6.48-4.09,10.06-5.43,10.06-10.58V283.85C56.92,283.85,54.56,283.7,50.79,280.5ZM55.26,297l-3.1-3.06,3.06-3.08-1.38-1.38-3.06,3.1-3.09-3.06-1.37,1.37,3.1,3.07L46.36,297l1.37,1.37,3.07-3.1,3.08,3.06Z"/><path class="cls-3" d="M73.11,122.52a2.68,2.68,0,0,1-1,2.23,4.17,4.17,0,0,1-2.71.78h-1V129H67v-9.28h2.67a4,4,0,0,1,2.61.71A2.56,2.56,0,0,1,73.11,122.52Zm-4.62,1.73h.8a2.92,2.92,0,0,0,1.72-.41,1.48,1.48,0,0,0,.54-1.27,1.42,1.42,0,0,0-.49-1.19,2.41,2.41,0,0,0-1.52-.39H68.49Z"/><path class="cls-3" d="M81,125.47a3.82,3.82,0,0,1-.88,2.69,3.16,3.16,0,0,1-2.45,1,3.31,3.31,0,0,1-1.74-.44,3,3,0,0,1-1.17-1.28,4.32,4.32,0,0,1-.4-1.93,3.82,3.82,0,0,1,.87-2.66,3.19,3.19,0,0,1,2.47-1,3.13,3.13,0,0,1,2.42,1A3.81,3.81,0,0,1,81,125.47Zm-5.11,0c0,1.63.6,2.44,1.8,2.44s1.78-.81,1.78-2.44-.6-2.4-1.79-2.4a1.53,1.53,0,0,0-1.36.62A3.18,3.18,0,0,0,75.92,125.47Z"/><path class="cls-3" d="M86.31,121.85a3.73,3.73,0,0,1,.74.06l-.14,1.39a3,3,0,0,0-.66-.07,1.9,1.9,0,0,0-1.45.58,2.13,2.13,0,0,0-.56,1.52V129H82.75v-7h1.17l.19,1.24h.08a2.75,2.75,0,0,1,.91-1A2.15,2.15,0,0,1,86.31,121.85Z"/><path class="cls-3" d="M95.25,123.11H93.54V129H92v-5.89H90.89v-.7L92,122v-.46a2.56,2.56,0,0,1,.59-1.84,2.36,2.36,0,0,1,1.78-.6,4.89,4.89,0,0,1,1.55.26l-.4,1.13a3.31,3.31,0,0,0-1-.18.87.87,0,0,0-.74.32,1.61,1.61,0,0,0-.23.94V122h1.71Z"/><path class="cls-3" d="M100.84,129l-.3-1h-.05a2.82,2.82,0,0,1-1,.87,3.13,3.13,0,0,1-1.32.23,2.26,2.26,0,0,1-1.62-.55A2.13,2.13,0,0,1,96,127a1.85,1.85,0,0,1,.81-1.64,4.66,4.66,0,0,1,2.45-.61l1.22,0v-.38a1.4,1.4,0,0,0-.32-1,1.24,1.24,0,0,0-1-.34,3.59,3.59,0,0,0-1,.16,7.84,7.84,0,0,0-.95.38l-.48-1.07a5,5,0,0,1,1.25-.45,5.4,5.4,0,0,1,1.28-.16,3.08,3.08,0,0,1,2,.58,2.29,2.29,0,0,1,.69,1.84V129Zm-2.22-1a1.85,1.85,0,0,0,1.3-.45,1.64,1.64,0,0,0,.49-1.27v-.61l-.9,0A3.11,3.11,0,0,0,98,126a1.07,1.07,0,0,0-.48,1,1,1,0,0,0,.28.73A1.22,1.22,0,0,0,98.62,128Z"/><path class="cls-3" d="M105.59,129l-2.67-7h1.58l1.42,4.08a7.77,7.77,0,0,1,.45,1.66h0a11,11,0,0,1,.44-1.66l1.43-4.08h1.59l-2.68,7Z"/><path class="cls-3" d="M117.17,125.47a3.82,3.82,0,0,1-.88,2.69,3.18,3.18,0,0,1-2.46,1,3.36,3.36,0,0,1-1.74-.44,3,3,0,0,1-1.16-1.28,4.32,4.32,0,0,1-.4-1.93,3.82,3.82,0,0,1,.87-2.66,3.19,3.19,0,0,1,2.47-1,3.09,3.09,0,0,1,2.41,1A3.77,3.77,0,0,1,117.17,125.47Zm-5.11,0c0,1.63.6,2.44,1.8,2.44s1.78-.81,1.78-2.44-.6-2.4-1.79-2.4a1.56,1.56,0,0,0-1.37.62A3.19,3.19,0,0,0,112.06,125.47Z"/><path class="cls-3" d="M122.45,121.85a3.8,3.8,0,0,1,.74.06L123,123.3a2.84,2.84,0,0,0-.66-.07,1.91,1.91,0,0,0-1.45.58,2.12,2.12,0,0,0-.55,1.52V129h-1.49v-7h1.16l.2,1.24h.08a2.67,2.67,0,0,1,.91-1A2.13,2.13,0,0,1,122.45,121.85Z"/><path class="cls-3" d="M130.93,129.12a3.39,3.39,0,0,1-2.56-1,3.65,3.65,0,0,1-.92-2.63,4,4,0,0,1,.86-2.71,3,3,0,0,1,2.35-1,2.91,2.91,0,0,1,2.2.84,3.28,3.28,0,0,1,.8,2.33v.8H129a2.35,2.35,0,0,0,.56,1.58,1.92,1.92,0,0,0,1.46.54,5.32,5.32,0,0,0,1.16-.11,6.25,6.25,0,0,0,1.15-.39v1.21a4.6,4.6,0,0,1-1.1.37A7,7,0,0,1,130.93,129.12Zm-.27-6.14a1.51,1.51,0,0,0-1.14.45,2.21,2.21,0,0,0-.51,1.31h3.19a2,2,0,0,0-.42-1.31A1.44,1.44,0,0,0,130.66,123Z"/><path class="cls-3" d="M140.07,127a1.87,1.87,0,0,1-.74,1.58,3.65,3.65,0,0,1-2.15.54,5.07,5.07,0,0,1-2.25-.42v-1.29a5.51,5.51,0,0,0,2.3.57c.92,0,1.38-.28,1.38-.83a.63.63,0,0,0-.15-.44,1.92,1.92,0,0,0-.51-.37,7.45,7.45,0,0,0-1-.43,4.66,4.66,0,0,1-1.64-.94,1.78,1.78,0,0,1-.43-1.22,1.61,1.61,0,0,1,.73-1.4,3.45,3.45,0,0,1,2-.5,5.69,5.69,0,0,1,2.34.5l-.48,1.13a5.11,5.11,0,0,0-1.91-.47c-.79,0-1.18.22-1.18.67a.69.69,0,0,0,.3.56,7.4,7.4,0,0,0,1.35.63,6.17,6.17,0,0,1,1.26.61,1.78,1.78,0,0,1,.58.65A1.8,1.8,0,0,1,140.07,127Z"/><path class="cls-3" d="M145.25,129.12a2.45,2.45,0,0,1-2.07-1h-.09q.09.89.09,1.08v2.87h-1.49V122h1.2c0,.13.11.44.21.94h.08a2.33,2.33,0,0,1,2.09-1.07,2.45,2.45,0,0,1,2,1,4.3,4.3,0,0,1,.73,2.67,4.35,4.35,0,0,1-.74,2.69A2.48,2.48,0,0,1,145.25,129.12Zm-.36-6.05a1.53,1.53,0,0,0-1.3.52,2.65,2.65,0,0,0-.41,1.66v.22a3.29,3.29,0,0,0,.4,1.86,1.54,1.54,0,0,0,1.33.58,1.34,1.34,0,0,0,1.19-.64,3.27,3.27,0,0,0,.42-1.81,3.21,3.21,0,0,0-.41-1.78A1.39,1.39,0,0,0,144.89,123.07Z"/><path class="cls-3" d="M152.85,129.12a3.39,3.39,0,0,1-2.56-1,3.6,3.6,0,0,1-.92-2.63,4,4,0,0,1,.85-2.71,3,3,0,0,1,2.36-1,2.91,2.91,0,0,1,2.2.84,3.28,3.28,0,0,1,.8,2.33v.8H150.9a2.3,2.3,0,0,0,.56,1.58,1.92,1.92,0,0,0,1.46.54,5.32,5.32,0,0,0,1.16-.11,6.25,6.25,0,0,0,1.15-.39v1.21a4.6,4.6,0,0,1-1.1.37A7,7,0,0,1,152.85,129.12Zm-.27-6.14a1.5,1.5,0,0,0-1.14.45,2.09,2.09,0,0,0-.51,1.31h3.19a2,2,0,0,0-.42-1.31A1.44,1.44,0,0,0,152.58,123Z"/><path class="cls-3" d="M160.84,121.85a3.73,3.73,0,0,1,.74.06l-.15,1.39a2.84,2.84,0,0,0-.66-.07,1.91,1.91,0,0,0-1.45.58,2.12,2.12,0,0,0-.55,1.52V129h-1.49v-7h1.16l.2,1.24h.08a2.67,2.67,0,0,1,.91-1A2.13,2.13,0,0,1,160.84,121.85Z"/><path class="cls-3" d="M167.27,129l-.29-1h-.06a2.67,2.67,0,0,1-1,.87,3.13,3.13,0,0,1-1.32.23,2.22,2.22,0,0,1-1.61-.55,2.09,2.09,0,0,1-.58-1.58,1.84,1.84,0,0,1,.8-1.64,4.7,4.7,0,0,1,2.46-.61l1.21,0v-.38a1.39,1.39,0,0,0-.31-1,1.27,1.27,0,0,0-1-.34,3.52,3.52,0,0,0-1,.16,7.24,7.24,0,0,0-.95.38l-.49-1.07a5,5,0,0,1,1.25-.45,5.48,5.48,0,0,1,1.29-.16,3.1,3.1,0,0,1,2,.58,2.32,2.32,0,0,1,.68,1.84V129Zm-2.22-1a1.88,1.88,0,0,0,1.31-.45,1.67,1.67,0,0,0,.49-1.27v-.61l-.9,0a3.13,3.13,0,0,0-1.54.36,1.06,1.06,0,0,0-.47,1,1,1,0,0,0,.27.73A1.22,1.22,0,0,0,165.05,128Z"/><path class="cls-3" d="M179.72,129h-1.5v-4.33a1.89,1.89,0,0,0-.31-1.2,1.11,1.11,0,0,0-.95-.4,1.47,1.47,0,0,0-1.27.56,3.39,3.39,0,0,0-.4,1.87V129H173.8v-7H175l.21.92h.07a2,2,0,0,1,.85-.78,2.76,2.76,0,0,1,1.22-.27,2.15,2.15,0,0,1,2.15,1.1h.1a2.23,2.23,0,0,1,.88-.81,2.79,2.79,0,0,1,1.29-.29,2.32,2.32,0,0,1,1.83.64,2.75,2.75,0,0,1,.58,1.93V129h-1.5v-4.33a2,2,0,0,0-.3-1.2,1.14,1.14,0,0,0-1-.4,1.48,1.48,0,0,0-1.27.54,2.8,2.8,0,0,0-.4,1.67Z"/><path class="cls-3" d="M186.14,120.12a.83.83,0,0,1,.22-.62.85.85,0,0,1,.62-.21.74.74,0,0,1,.83.83.84.84,0,0,1-.21.6.87.87,0,0,1-.62.22.85.85,0,0,1-.62-.22A.81.81,0,0,1,186.14,120.12Zm1.58,8.88h-1.49v-7h1.49Z"/><path class="cls-3" d="M192.92,129.12a3.37,3.37,0,0,1-2.56-1,3.61,3.61,0,0,1-.93-2.63,4,4,0,0,1,.86-2.71,3,3,0,0,1,2.36-1,2.9,2.9,0,0,1,2.19.84,3.24,3.24,0,0,1,.81,2.33v.8H191a2.3,2.3,0,0,0,.55,1.58,2,2,0,0,0,1.47.54,5.38,5.38,0,0,0,1.16-.11,6.51,6.51,0,0,0,1.15-.39v1.21a4.53,4.53,0,0,1-1.11.37A6.89,6.89,0,0,1,192.92,129.12Zm-.27-6.14a1.48,1.48,0,0,0-1.14.45,2.09,2.09,0,0,0-.51,1.31h3.18a2,2,0,0,0-.42-1.31A1.42,1.42,0,0,0,192.65,123Z"/><path class="cls-3" d="M203.52,129H202v-4.32a1.88,1.88,0,0,0-.33-1.21,1.23,1.23,0,0,0-1-.4,1.67,1.67,0,0,0-1.39.56,3.07,3.07,0,0,0-.44,1.87V129h-1.49v-7h1.17l.21.92h.08a2.09,2.09,0,0,1,.9-.78,3,3,0,0,1,1.29-.27,2.25,2.25,0,0,1,2.53,2.57Z"/><path class="cls-3" d="M208.21,127.92a3.75,3.75,0,0,0,1.09-.17v1.12a3.16,3.16,0,0,1-.64.18,4.28,4.28,0,0,1-.81.07c-1.41,0-2.12-.74-2.12-2.23v-3.78h-.95v-.66l1-.55.51-1.48h.92V122h2v1.13h-2v3.75a1.06,1.06,0,0,0,.27.8A1,1,0,0,0,208.21,127.92Z"/><path class="cls-3" d="M214.27,121.85a3.8,3.8,0,0,1,.74.06l-.15,1.39a2.84,2.84,0,0,0-.66-.07,1.91,1.91,0,0,0-1.45.58,2.12,2.12,0,0,0-.55,1.52V129h-1.49v-7h1.16l.2,1.24h.08a2.67,2.67,0,0,1,.91-1A2.1,2.1,0,0,1,214.27,121.85Z"/><path class="cls-3" d="M220.7,129l-.3-1h-.05a2.82,2.82,0,0,1-1,.87,3.13,3.13,0,0,1-1.32.23,2.22,2.22,0,0,1-1.61-.55,2.1,2.1,0,0,1-.59-1.58,1.85,1.85,0,0,1,.81-1.64,4.7,4.7,0,0,1,2.46-.61l1.21,0v-.38a1.44,1.44,0,0,0-.31-1,1.27,1.27,0,0,0-1-.34,3.52,3.52,0,0,0-1,.16,8,8,0,0,0-1,.38l-.48-1.07a5,5,0,0,1,1.25-.45,5.4,5.4,0,0,1,1.28-.16,3.11,3.11,0,0,1,2,.58,2.32,2.32,0,0,1,.68,1.84V129Zm-2.22-1a1.88,1.88,0,0,0,1.31-.45,1.67,1.67,0,0,0,.49-1.27v-.61l-.9,0a3.13,3.13,0,0,0-1.54.36,1.07,1.07,0,0,0-.48,1,1,1,0,0,0,.28.73A1.22,1.22,0,0,0,218.48,128Z"/><path class="cls-3" d="M228.57,127a1.85,1.85,0,0,1-.75,1.58,3.65,3.65,0,0,1-2.15.54,5.13,5.13,0,0,1-2.25-.42v-1.29a5.51,5.51,0,0,0,2.3.57c.92,0,1.38-.28,1.38-.83a.63.63,0,0,0-.15-.44,1.84,1.84,0,0,0-.5-.37,8.93,8.93,0,0,0-1-.43,4.73,4.73,0,0,1-1.65-.94,1.77,1.77,0,0,1-.42-1.22,1.6,1.6,0,0,1,.72-1.4,3.5,3.5,0,0,1,2-.5,5.62,5.62,0,0,1,2.34.5l-.48,1.13a5.07,5.07,0,0,0-1.91-.47c-.79,0-1.18.22-1.18.67a.68.68,0,0,0,.31.56,6.88,6.88,0,0,0,1.34.63,6.17,6.17,0,0,1,1.26.61,1.9,1.9,0,0,1,.59.65A1.93,1.93,0,0,1,228.57,127Z"/><path class="cls-3" d="M235.16,129l-2.67-7h1.57l1.43,4.08a7.77,7.77,0,0,1,.45,1.66H236a11,11,0,0,1,.44-1.66l1.43-4.08h1.59l-2.68,7Z"/><path class="cls-3" d="M244.91,129l-.3-1h-.05a2.82,2.82,0,0,1-1,.87,3.21,3.21,0,0,1-1.33.23,2.23,2.23,0,0,1-1.61-.55A2.09,2.09,0,0,1,240,127a1.87,1.87,0,0,1,.8-1.64,4.7,4.7,0,0,1,2.46-.61l1.21,0v-.38a1.39,1.39,0,0,0-.31-1,1.26,1.26,0,0,0-1-.34,3.54,3.54,0,0,0-1,.16,7.24,7.24,0,0,0-.95.38l-.48-1.07A4.87,4.87,0,0,1,242,122a5.4,5.4,0,0,1,1.28-.16,3.1,3.1,0,0,1,2,.58,2.32,2.32,0,0,1,.68,1.84V129Zm-2.23-1a1.86,1.86,0,0,0,1.31-.45,1.64,1.64,0,0,0,.49-1.27v-.61l-.9,0a3.11,3.11,0,0,0-1.53.36,1.07,1.07,0,0,0-.48,1,1,1,0,0,0,.28.73A1.18,1.18,0,0,0,242.68,128Z"/><path class="cls-3" d="M249.55,129h-1.5v-9.88h1.5Z"/><path class="cls-3" d="M251.59,120.12a.83.83,0,0,1,.22-.62.84.84,0,0,1,1.46.62.85.85,0,0,1-.22.6,1,1,0,0,1-1.24,0A.81.81,0,0,1,251.59,120.12Zm1.58,8.88h-1.49v-7h1.49Z"/><path class="cls-3" d="M257.67,129.12a2.42,2.42,0,0,1-2.05-1,5.19,5.19,0,0,1,0-5.36,2.48,2.48,0,0,1,2.07-1,2.41,2.41,0,0,1,2.1,1h.08a9.29,9.29,0,0,1-.11-1.19v-2.56h1.5V129H260.1l-.26-.92h-.07A2.38,2.38,0,0,1,257.67,129.12Zm.4-1.2a1.62,1.62,0,0,0,1.34-.52,2.71,2.71,0,0,0,.43-1.68v-.21a3.12,3.12,0,0,0-.43-1.88,1.61,1.61,0,0,0-1.35-.56,1.35,1.35,0,0,0-1.21.64,3.2,3.2,0,0,0-.43,1.82,3.25,3.25,0,0,0,.41,1.78A1.42,1.42,0,0,0,258.07,127.92Z"/><path class="cls-3" d="M267.79,129l-.29-1h-.05a2.77,2.77,0,0,1-1,.87,3.13,3.13,0,0,1-1.32.23,2.23,2.23,0,0,1-1.61-.55,2.09,2.09,0,0,1-.58-1.58,1.87,1.87,0,0,1,.8-1.64,4.7,4.7,0,0,1,2.46-.61l1.21,0v-.38a1.39,1.39,0,0,0-.31-1,1.27,1.27,0,0,0-1-.34,3.52,3.52,0,0,0-1,.16,7.24,7.24,0,0,0-.95.38l-.49-1.07a5.09,5.09,0,0,1,1.26-.45,5.4,5.4,0,0,1,1.28-.16,3.1,3.1,0,0,1,2,.58,2.32,2.32,0,0,1,.68,1.84V129Zm-2.22-1a1.86,1.86,0,0,0,1.31-.45,1.64,1.64,0,0,0,.49-1.27v-.61l-.9,0a3.11,3.11,0,0,0-1.53.36,1.07,1.07,0,0,0-.48,1,1,1,0,0,0,.28.73A1.18,1.18,0,0,0,265.57,128Z"/><path class="cls-3" d="M276.86,129h-1.5v-4.33a2,2,0,0,0-.3-1.2,1.12,1.12,0,0,0-.95-.4,1.47,1.47,0,0,0-1.27.56,3.31,3.31,0,0,0-.4,1.87V129h-1.5v-7h1.17l.21.92h.08a2,2,0,0,1,.84-.78,2.81,2.81,0,0,1,1.23-.27,2.13,2.13,0,0,1,2.14,1.1h.1a2.23,2.23,0,0,1,.88-.81,2.85,2.85,0,0,1,1.29-.29,2.36,2.36,0,0,1,1.84.64,2.8,2.8,0,0,1,.57,1.93V129H279.8v-4.33a1.89,1.89,0,0,0-.31-1.2,1.11,1.11,0,0,0-.95-.4,1.5,1.5,0,0,0-1.28.54,2.8,2.8,0,0,0-.4,1.67Z"/><path class="cls-3" d="M289.6,125.47a3.82,3.82,0,0,1-.88,2.69,3.18,3.18,0,0,1-2.46,1,3.36,3.36,0,0,1-1.74-.44,3,3,0,0,1-1.16-1.28,4.32,4.32,0,0,1-.41-1.93,3.83,3.83,0,0,1,.88-2.66,3.17,3.17,0,0,1,2.47-1,3.11,3.11,0,0,1,2.41,1A3.82,3.82,0,0,1,289.6,125.47Zm-5.11,0c0,1.63.6,2.44,1.8,2.44s1.77-.81,1.77-2.44-.59-2.4-1.79-2.4a1.54,1.54,0,0,0-1.36.62A3.19,3.19,0,0,0,284.49,125.47Z"/><path class="cls-3" d="M296,127a1.85,1.85,0,0,1-.75,1.58,3.63,3.63,0,0,1-2.15.54,5.13,5.13,0,0,1-2.25-.42v-1.29a5.55,5.55,0,0,0,2.31.57c.91,0,1.37-.28,1.37-.83a.63.63,0,0,0-.15-.44,1.84,1.84,0,0,0-.5-.37,8.12,8.12,0,0,0-1-.43,4.57,4.57,0,0,1-1.64-.94,1.73,1.73,0,0,1-.43-1.22,1.59,1.59,0,0,1,.73-1.4,3.44,3.44,0,0,1,2-.5,5.7,5.7,0,0,1,2.35.5l-.49,1.13a5,5,0,0,0-1.91-.47c-.78,0-1.18.22-1.18.67a.68.68,0,0,0,.31.56,7.2,7.2,0,0,0,1.34.63,6.59,6.59,0,0,1,1.27.61,1.87,1.87,0,0,1,.58.65A1.8,1.8,0,0,1,296,127Z"/><path class="cls-3" d="M140,143.52a3.75,3.75,0,0,0,1.09-.17v1.12a3.16,3.16,0,0,1-.64.18,4.28,4.28,0,0,1-.81.07c-1.41,0-2.12-.74-2.12-2.23v-3.78h-1v-.66l1-.55.51-1.48H139v1.56h2v1.13h-2v3.76a1,1,0,0,0,.27.79A1,1,0,0,0,140,143.52Z"/><path class="cls-3" d="M147.42,144.6l-.21-.92h-.07a2.17,2.17,0,0,1-.89.77,3,3,0,0,1-1.31.27,2.58,2.58,0,0,1-1.9-.63,2.61,2.61,0,0,1-.63-1.92v-4.59h1.5v4.33a1.9,1.9,0,0,0,.33,1.21,1.3,1.3,0,0,0,1,.4,1.65,1.65,0,0,0,1.38-.56,3.14,3.14,0,0,0,.44-1.89v-3.49h1.5v7Z"/><path class="cls-3" d="M154,135.72a.87.87,0,0,1,.22-.62.89.89,0,0,1,.63-.21.85.85,0,0,1,.61.21.83.83,0,0,1,.22.62.81.81,0,0,1-.22.6.86.86,0,0,1-.61.22.89.89,0,0,1-.63-.22A.85.85,0,0,1,154,135.72Zm1.58,8.88H154.1v-7h1.49Z"/><path class="cls-3" d="M163.9,144.6h-1.5v-4.32a1.88,1.88,0,0,0-.32-1.21,1.27,1.27,0,0,0-1-.4,1.65,1.65,0,0,0-1.38.56,3,3,0,0,0-.44,1.87v3.5h-1.49v-7h1.16l.21.92h.08a2.09,2.09,0,0,1,.9-.78,3.05,3.05,0,0,1,1.3-.27A2.25,2.25,0,0,1,163.9,140Z"/><path class="cls-3" d="M169.5,138.71h-1.71v5.89h-1.5v-5.89h-1.16V138l1.16-.46v-.46a2.56,2.56,0,0,1,.58-1.84,2.4,2.4,0,0,1,1.79-.6,4.89,4.89,0,0,1,1.55.26l-.4,1.13a3.41,3.41,0,0,0-1.05-.18.85.85,0,0,0-.74.32,1.53,1.53,0,0,0-.23.94v.46h1.71Z"/><path class="cls-3" d="M176.92,141.07a3.82,3.82,0,0,1-.88,2.69,3.18,3.18,0,0,1-2.46,1,3.36,3.36,0,0,1-1.74-.44,3,3,0,0,1-1.16-1.28,4.32,4.32,0,0,1-.4-1.93,3.82,3.82,0,0,1,.87-2.66,3.19,3.19,0,0,1,2.47-1,3.09,3.09,0,0,1,2.41,1A3.77,3.77,0,0,1,176.92,141.07Zm-5.11,0c0,1.63.6,2.44,1.8,2.44s1.78-.81,1.78-2.44-.6-2.4-1.79-2.4a1.56,1.56,0,0,0-1.37.62A3.19,3.19,0,0,0,171.81,141.07Z"/><path class="cls-3" d="M182.2,137.45a3.8,3.8,0,0,1,.74.06l-.15,1.39a2.84,2.84,0,0,0-.66-.07,1.91,1.91,0,0,0-1.45.58,2.12,2.12,0,0,0-.55,1.52v3.67h-1.49v-7h1.16l.2,1.24h.08a2.67,2.67,0,0,1,.91-1A2.13,2.13,0,0,1,182.2,137.45Z"/><path class="cls-3" d="M190.16,144.6h-1.5v-4.33a1.89,1.89,0,0,0-.31-1.2,1.11,1.11,0,0,0-.95-.4,1.48,1.48,0,0,0-1.27.56,3.39,3.39,0,0,0-.4,1.87v3.5h-1.49v-7h1.17l.21.92h.07a2,2,0,0,1,.85-.78,2.76,2.76,0,0,1,1.22-.27,2.15,2.15,0,0,1,2.15,1.1h.1a2.23,2.23,0,0,1,.88-.81,2.82,2.82,0,0,1,1.29-.29,2.32,2.32,0,0,1,1.83.64,2.75,2.75,0,0,1,.58,1.93v4.58H193.1v-4.33a2,2,0,0,0-.31-1.2,1.14,1.14,0,0,0-1-.4,1.48,1.48,0,0,0-1.27.54,2.8,2.8,0,0,0-.4,1.67Z"/><path class="cls-3" d="M201.06,144.6l-.3-1h0a2.75,2.75,0,0,1-1,.87,3.13,3.13,0,0,1-1.32.23,2.22,2.22,0,0,1-1.61-.55,2.1,2.1,0,0,1-.59-1.58A1.85,1.85,0,0,1,197,141a4.7,4.7,0,0,1,2.46-.61l1.21,0v-.38a1.44,1.44,0,0,0-.31-1,1.28,1.28,0,0,0-1-.34,3.52,3.52,0,0,0-1,.16,8,8,0,0,0-1,.38l-.48-1.07a5,5,0,0,1,1.25-.45,5.4,5.4,0,0,1,1.28-.16,3.11,3.11,0,0,1,2,.58,2.32,2.32,0,0,1,.68,1.84v4.73Zm-2.22-1a1.84,1.84,0,0,0,1.3-.45,1.64,1.64,0,0,0,.5-1.27v-.61l-.9,0a3.13,3.13,0,0,0-1.54.36,1.07,1.07,0,0,0-.48,1,1,1,0,0,0,.28.73A1.22,1.22,0,0,0,198.84,143.58Z"/><path class="cls-3" d="M207,144.72a3.1,3.1,0,0,1-2.42-.92,4.71,4.71,0,0,1,0-5.4,3.23,3.23,0,0,1,2.5-1,4.77,4.77,0,0,1,2,.41l-.45,1.2a4.65,4.65,0,0,0-1.56-.37c-1.21,0-1.82.81-1.82,2.42a2.94,2.94,0,0,0,.45,1.78,1.59,1.59,0,0,0,1.33.59A3.83,3.83,0,0,0,209,143v1.3a2.89,2.89,0,0,1-.86.33A5,5,0,0,1,207,144.72Z"/><path class="cls-3" d="M210.56,135.72a.83.83,0,0,1,.22-.62.85.85,0,0,1,.62-.21.88.88,0,0,1,.62.21.86.86,0,0,1,.21.62.84.84,0,0,1-.21.6.88.88,0,0,1-.62.22.85.85,0,0,1-.62-.22A.81.81,0,0,1,210.56,135.72Zm1.58,8.88h-1.49v-7h1.49Z"/><path class="cls-3" d="M220.5,141.07a3.82,3.82,0,0,1-.88,2.69,3.18,3.18,0,0,1-2.46,1,3.31,3.31,0,0,1-1.74-.44,3,3,0,0,1-1.16-1.28,4.32,4.32,0,0,1-.41-1.93,3.78,3.78,0,0,1,.88-2.66,3.17,3.17,0,0,1,2.47-1,3.11,3.11,0,0,1,2.41,1A3.82,3.82,0,0,1,220.5,141.07Zm-5.11,0c0,1.63.6,2.44,1.8,2.44s1.77-.81,1.77-2.44-.59-2.4-1.79-2.4a1.54,1.54,0,0,0-1.36.62A3.19,3.19,0,0,0,215.39,141.07Zm.82-4.35v-.16c.24-.29.49-.62.74-1a11,11,0,0,0,.61-.93h1.73v.13c-.22.26-.55.59-1,1a13.17,13.17,0,0,1-1.11.95Z"/><path class="cls-3" d="M228.39,144.6h-1.5v-4.32a1.88,1.88,0,0,0-.33-1.21,1.23,1.23,0,0,0-1-.4,1.67,1.67,0,0,0-1.39.56,3.07,3.07,0,0,0-.44,1.87v3.5h-1.49v-7h1.17l.21.92h.08a2.09,2.09,0,0,1,.9-.78,3,3,0,0,1,1.29-.27,2.25,2.25,0,0,1,2.53,2.57Z"/><path class="cls-4" d="M200,185.32a29.33,29.33,0,0,1-.8,3.2l3.4,1.7a18.35,18.35,0,0,0,1.2-4.6Zm-7.4,12a17.54,17.54,0,0,1-2.9,1.81l1.3,3.6a23.43,23.43,0,0,0,4.3-2.6Zm4.9-5.4a20.14,20.14,0,0,1-2.2,2.9l2.6,2.7a21.93,21.93,0,0,0,2.9-3.9Zm4.5-18.4-2.5-13.2-4.1,4.11a22.29,22.29,0,0,0-13.9-4.8,22.5,22.5,0,0,0,0,45,22,22,0,0,0,5.8-.81l-1.2-3.6a17.59,17.59,0,0,1-4.6.6,18.8,18.8,0,0,1,0-37.6,19,19,0,0,1,11.2,3.7l-3.8,3.8Zm1.6,4.3h-3.9a15.84,15.84,0,0,1,.5,3.81l3.8.3A18.49,18.49,0,0,0,203.6,177.82Z"/></g></svg>