<svg xmlns="http://www.w3.org/2000/svg" viewBox="0 0 363 568"><defs><style>.cls-1{fill:#173961;}.cls-2,.cls-7{fill:#fff;}.cls-3{fill:none;stroke:#fff;}.cls-3,.cls-6{stroke-miterlimit:10;}.cls-4{opacity:0.5;}.cls-5,.cls-6{fill:#bbbbba;}.cls-6{stroke:#bbbbba;}.cls-6,.cls-7{fill-rule:evenodd;}</style></defs><g id="Capa_2" data-name="Capa 2"><path class="cls-1" d="M52,3.68H350a0,0,0,0,1,0,0v365a40,40,0,0,1-40,40H12a0,0,0,0,1,0,0v-365A40,40,0,0,1,52,3.68Z"/><path class="cls-1" d="M52,426H350a0,0,0,0,1,0,0v90.68a40,40,0,0,1-40,40H12a0,0,0,0,1,0,0V466A40,40,0,0,1,52,426Z"/></g><g id="Capa_3" data-name="Capa 3"><path class="cls-2" d="M107.79,29.91h3.55a6.85,6.85,0,0,1,3.53.7,2.41,2.41,0,0,1,1.1,2.2,2.78,2.78,0,0,1-.48,1.68,1.91,1.91,0,0,1-1.28.78v.08a2.52,2.52,0,0,1,1.57.91,3.3,3.3,0,0,1-.65,4.2,4.85,4.85,0,0,1-3.07.88h-4.27Zm2.42,4.53h1.41a2.49,2.49,0,0,0,1.42-.31,1.12,1.12,0,0,0,.45-1,1,1,0,0,0-.49-1,3.06,3.06,0,0,0-1.51-.28h-1.28Zm0,1.92v3h1.58a2.32,2.32,0,0,0,1.48-.39,1.42,1.42,0,0,0,.47-1.17c0-1-.67-1.42-2-1.42Z"/><path class="cls-2" d="M123.9,41.34l-.46-1.19h-.06a3.76,3.76,0,0,1-1.24,1.05,4,4,0,0,1-1.66.29,2.68,2.68,0,0,1-2-.72,2.75,2.75,0,0,1-.73-2,2.3,2.3,0,0,1,1-2,5.55,5.55,0,0,1,2.93-.73l1.52-.05v-.38a1.19,1.19,0,0,0-1.36-1.33,6.19,6.19,0,0,0-2.46.63l-.79-1.61a7.16,7.16,0,0,1,3.34-.79,4.19,4.19,0,0,1,2.7.77,2.83,2.83,0,0,1,.93,2.33v5.82Zm-.7-4.05-.93,0a2.92,2.92,0,0,0-1.54.38,1.16,1.16,0,0,0-.51,1c0,.67.38,1,1.16,1a1.82,1.82,0,0,0,1.32-.48,1.65,1.65,0,0,0,.5-1.26Z"/><path class="cls-2" d="M136.08,41.34H133.7v-5.1a2.48,2.48,0,0,0-.34-1.42,1.21,1.21,0,0,0-1.07-.48,1.63,1.63,0,0,0-1.45.67,4.25,4.25,0,0,0-.44,2.22v4.11H128V32.6h1.82l.32,1.12h.13a2.57,2.57,0,0,1,1.1-1,3.79,3.79,0,0,1,1.59-.32,3.06,3.06,0,0,1,2.31.82,3.3,3.3,0,0,1,.79,2.38Z"/><path class="cls-2" d="M142.08,41.49Q138,41.49,138,37a4.79,4.79,0,0,1,1.11-3.41,4.17,4.17,0,0,1,3.18-1.17A6.14,6.14,0,0,1,145,33l-.7,1.85c-.38-.16-.73-.28-1.05-.38a3.61,3.61,0,0,0-1-.14q-1.86,0-1.86,2.64c0,1.71.62,2.56,1.86,2.56a4.28,4.28,0,0,0,1.27-.18,4.72,4.72,0,0,0,1.18-.57v2a3.72,3.72,0,0,1-1.17.51A6.28,6.28,0,0,1,142.08,41.49Z"/><path class="cls-2" d="M152.31,41.34l-.47-1.19h-.06a3.57,3.57,0,0,1-1.24,1.05,3.89,3.89,0,0,1-1.66.29,2.68,2.68,0,0,1-2-.72,2.74,2.74,0,0,1-.72-2,2.29,2.29,0,0,1,1-2,5.59,5.59,0,0,1,2.94-.73l1.51-.05v-.38a1.19,1.19,0,0,0-1.36-1.33,6.19,6.19,0,0,0-2.46.63L147,33.21a7.2,7.2,0,0,1,3.35-.79,4.15,4.15,0,0,1,2.69.77,2.81,2.81,0,0,1,.94,2.33v5.82Zm-.71-4.05-.92,0a3,3,0,0,0-1.55.38,1.16,1.16,0,0,0-.5,1c0,.67.38,1,1.15,1a1.84,1.84,0,0,0,1.33-.48A1.64,1.64,0,0,0,151.6,38Z"/><path class="cls-2" d="M163.34,41.49a2.84,2.84,0,0,1-2.41-1.19,5.47,5.47,0,0,1-.88-3.31,5.54,5.54,0,0,1,.89-3.35,2.91,2.91,0,0,1,2.47-1.2,2.85,2.85,0,0,1,2.51,1.28H166a9.7,9.7,0,0,1-.18-1.74v-2.8h2.39V41.34h-1.83l-.46-1.14h-.1A2.73,2.73,0,0,1,163.34,41.49Zm.84-1.9a1.59,1.59,0,0,0,1.34-.53,3.12,3.12,0,0,0,.47-1.8V37a3.52,3.52,0,0,0-.44-2,1.6,1.6,0,0,0-1.41-.61,1.41,1.41,0,0,0-1.24.67,3.66,3.66,0,0,0-.44,2,3.37,3.37,0,0,0,.45,1.93A1.44,1.44,0,0,0,164.18,39.59Z"/><path class="cls-2" d="M174.66,41.49a4.49,4.49,0,0,1-3.3-1.16,4.43,4.43,0,0,1-1.19-3.3,4.85,4.85,0,0,1,1.1-3.39,3.9,3.9,0,0,1,3-1.2,3.86,3.86,0,0,1,2.88,1.05,4,4,0,0,1,1,2.92v1.15h-5.63a2.25,2.25,0,0,0,.6,1.59,2.11,2.11,0,0,0,1.58.57,7.16,7.16,0,0,0,1.49-.16,7.49,7.49,0,0,0,1.47-.53v1.85a5.89,5.89,0,0,1-1.34.46A8.49,8.49,0,0,1,174.66,41.49Zm-.34-7.36a1.53,1.53,0,0,0-1.19.48,2.27,2.27,0,0,0-.49,1.37H176a2,2,0,0,0-.47-1.37A1.54,1.54,0,0,0,174.32,34.13Z"/><path class="cls-2" d="M192.39,33.48a3.48,3.48,0,0,1-1.15,2.82,4.94,4.94,0,0,1-3.28,1h-1v4.07H184.5V29.91h3.65a4.82,4.82,0,0,1,3.16.9A3.28,3.28,0,0,1,192.39,33.48Zm-5.47,1.81h.8a2.69,2.69,0,0,0,1.67-.44,1.56,1.56,0,0,0,.56-1.29,1.58,1.58,0,0,0-.47-1.25A2.18,2.18,0,0,0,188,31.9h-1.1Z"/><path class="cls-2" d="M198.31,41.49A4.48,4.48,0,0,1,195,40.33a4.39,4.39,0,0,1-1.19-3.3,4.85,4.85,0,0,1,1.1-3.39,3.9,3.9,0,0,1,3-1.2,3.83,3.83,0,0,1,2.88,1.05,4,4,0,0,1,1,2.92v1.15h-5.64a2.34,2.34,0,0,0,.6,1.59,2.14,2.14,0,0,0,1.58.57,7.19,7.19,0,0,0,1.5-.16,7.65,7.65,0,0,0,1.46-.53v1.85a5.81,5.81,0,0,1-1.33.46A8.6,8.6,0,0,1,198.31,41.49ZM198,34.13a1.52,1.52,0,0,0-1.19.48A2.21,2.21,0,0,0,196.3,36h3.34a2,2,0,0,0-.46-1.37A1.57,1.57,0,0,0,198,34.13Z"/><path class="cls-2" d="M208.69,32.44a3.6,3.6,0,0,1,.8.07l-.18,2.23a2.75,2.75,0,0,0-.7-.08,2.55,2.55,0,0,0-1.78.59,2.13,2.13,0,0,0-.63,1.64v4.45h-2.39V32.6h1.81l.35,1.47h.12a3.25,3.25,0,0,1,1.09-1.18A2.75,2.75,0,0,1,208.69,32.44Z"/><path class="cls-2" d="M217.17,38.74a2.41,2.41,0,0,1-.93,2,4.59,4.59,0,0,1-2.79.7,8.46,8.46,0,0,1-1.63-.13,6.15,6.15,0,0,1-1.26-.37V39a9.06,9.06,0,0,0,1.5.52,6,6,0,0,0,1.46.21c.87,0,1.3-.25,1.3-.75a.65.65,0,0,0-.17-.46,2.37,2.37,0,0,0-.59-.39c-.29-.15-.66-.33-1.13-.52a7.62,7.62,0,0,1-1.48-.79,2.14,2.14,0,0,1-.69-.82,2.76,2.76,0,0,1-.21-1.14,2.07,2.07,0,0,1,.9-1.8,4.34,4.34,0,0,1,2.56-.64,7.26,7.26,0,0,1,3.07.69l-.72,1.71c-.44-.18-.85-.34-1.23-.46A3.8,3.8,0,0,0,214,34.2q-1,0-1.05.57a.68.68,0,0,0,.33.56,8.84,8.84,0,0,0,1.49.69,6.67,6.67,0,0,1,1.5.78,2.32,2.32,0,0,1,.71.83A2.53,2.53,0,0,1,217.17,38.74Z"/><path class="cls-2" d="M227,37a4.69,4.69,0,0,1-1.13,3.34,4.08,4.08,0,0,1-3.13,1.2,4.35,4.35,0,0,1-2.22-.55A3.58,3.58,0,0,1,219,39.36,5.25,5.25,0,0,1,218.5,37a4.63,4.63,0,0,1,1.12-3.32,4.06,4.06,0,0,1,3.14-1.19A4.35,4.35,0,0,1,225,33a3.55,3.55,0,0,1,1.47,1.57A5.16,5.16,0,0,1,227,37Zm-6,0a3.58,3.58,0,0,0,.43,2,1.75,1.75,0,0,0,2.75,0,3.72,3.72,0,0,0,.42-2,3.61,3.61,0,0,0-.42-1.94,1.53,1.53,0,0,0-1.38-.65,1.54,1.54,0,0,0-1.38.64A3.62,3.62,0,0,0,220.93,37Z"/><path class="cls-2" d="M237,41.34h-2.38v-5.1a2.4,2.4,0,0,0-.34-1.42,1.21,1.21,0,0,0-1.07-.48,1.6,1.6,0,0,0-1.44.67,4.14,4.14,0,0,0-.45,2.22v4.11h-2.38V32.6h1.82l.32,1.12h.13a2.57,2.57,0,0,1,1.1-1,3.86,3.86,0,0,1,1.59-.32,3,3,0,0,1,2.31.82,3.3,3.3,0,0,1,.79,2.38Z"/><path class="cls-2" d="M245,41.34l-.46-1.19h-.06a3.66,3.66,0,0,1-1.24,1.05,4,4,0,0,1-1.66.29,2.68,2.68,0,0,1-2-.72,2.74,2.74,0,0,1-.72-2,2.29,2.29,0,0,1,1-2,5.55,5.55,0,0,1,2.93-.73l1.52-.05v-.38a1.19,1.19,0,0,0-1.36-1.33,6.19,6.19,0,0,0-2.46.63l-.79-1.61a7.16,7.16,0,0,1,3.34-.79,4.19,4.19,0,0,1,2.7.77,2.84,2.84,0,0,1,.94,2.33v5.82Zm-.7-4.05-.92,0a2.93,2.93,0,0,0-1.55.38,1.16,1.16,0,0,0-.51,1c0,.67.39,1,1.16,1a1.82,1.82,0,0,0,1.32-.48,1.65,1.65,0,0,0,.5-1.26Z"/><path class="cls-2" d="M255.21,38.74a2.41,2.41,0,0,1-.93,2,4.61,4.61,0,0,1-2.79.7,8.46,8.46,0,0,1-1.63-.13A6.15,6.15,0,0,1,248.6,41V39a8.75,8.75,0,0,0,1.5.52,6,6,0,0,0,1.46.21c.87,0,1.3-.25,1.3-.75a.65.65,0,0,0-.17-.46,2.47,2.47,0,0,0-.6-.39,11.48,11.48,0,0,0-1.12-.52,7.33,7.33,0,0,1-1.48-.79,2.14,2.14,0,0,1-.69-.82,2.76,2.76,0,0,1-.21-1.14,2.07,2.07,0,0,1,.9-1.8,4.34,4.34,0,0,1,2.56-.64,7.26,7.26,0,0,1,3.07.69l-.72,1.71c-.44-.18-.85-.34-1.23-.46A3.85,3.85,0,0,0,252,34.2c-.7,0-1.06.19-1.06.57a.69.69,0,0,0,.34.56,8.84,8.84,0,0,0,1.49.69,7.16,7.16,0,0,1,1.5.78,2.32,2.32,0,0,1,.71.83A2.53,2.53,0,0,1,255.21,38.74Z"/><path class="cls-2" d="M117.18,377.94a5.42,5.42,0,0,1-1.23,3.81,5.31,5.31,0,0,1-7,0,6.5,6.5,0,0,1,0-7.64,4.63,4.63,0,0,1,3.54-1.31,4.56,4.56,0,0,1,3.52,1.32A5.48,5.48,0,0,1,117.18,377.94Zm-7.29,0a4.18,4.18,0,0,0,.63,2.52,2.22,2.22,0,0,0,1.9.85c1.69,0,2.54-1.12,2.54-3.37s-.84-3.38-2.52-3.38a2.26,2.26,0,0,0-1.91.85A4.16,4.16,0,0,0,109.89,377.94Z"/><path class="cls-2" d="M121.17,383h-2.08V372.31h2.08Z"/><path class="cls-2" d="M125.18,383l-2.91-7.64h2.18l1.47,4.35a7.26,7.26,0,0,1,.31,1.57h0a6.85,6.85,0,0,1,.31-1.57l1.47-4.35h2.18L127.32,383Z"/><path class="cls-2" d="M131.23,373.33q0-1,1.14-1c.76,0,1.13.34,1.13,1a1,1,0,0,1-.28.76,1.19,1.19,0,0,1-.85.27C131.61,374.36,131.23,374,131.23,373.33Zm2.18,9.62h-2.09v-7.64h2.09Z"/><path class="cls-2" d="M138,383.09a2.48,2.48,0,0,1-2.12-1,5.87,5.87,0,0,1,0-5.83,2.55,2.55,0,0,1,2.16-1,2.5,2.5,0,0,1,2.2,1.12h.07a8.94,8.94,0,0,1-.16-1.52v-2.45h2.09V383h-1.59l-.41-1h-.09A2.38,2.38,0,0,1,138,383.09Zm.73-1.67a1.41,1.41,0,0,0,1.17-.46,2.75,2.75,0,0,0,.41-1.58v-.22a3.16,3.16,0,0,0-.38-1.77,1.44,1.44,0,0,0-1.24-.53,1.23,1.23,0,0,0-1.08.59,3.13,3.13,0,0,0-.39,1.72,3,3,0,0,0,.39,1.69A1.26,1.26,0,0,0,138.75,381.42Z"/><path class="cls-2" d="M147.91,383.09a3.93,3.93,0,0,1-2.88-1,3.87,3.87,0,0,1-1-2.89,4.24,4.24,0,0,1,1-3,3.43,3.43,0,0,1,2.66-1,3.34,3.34,0,0,1,2.52.93,3.48,3.48,0,0,1,.9,2.55v1H146.1a2.06,2.06,0,0,0,.53,1.39,1.86,1.86,0,0,0,1.38.49,5.54,5.54,0,0,0,1.31-.14,6.86,6.86,0,0,0,1.28-.46v1.62a4.89,4.89,0,0,1-1.17.4A7.22,7.22,0,0,1,147.91,383.09Zm-.29-6.44a1.33,1.33,0,0,0-1,.42,2,2,0,0,0-.43,1.19h2.93a1.73,1.73,0,0,0-.41-1.19A1.36,1.36,0,0,0,147.62,376.65Zm-1.2-2.18v-.19a18.41,18.41,0,0,0,1.6-2.06h2.34v.15c-.24.23-.64.59-1.21,1.05s-1,.82-1.34,1.05Z"/><path class="cls-2" d="M163.21,383h-2.09v-4.46a2.23,2.23,0,0,0-.28-1.25,1,1,0,0,0-.87-.41,1.27,1.27,0,0,0-1.16.59,3.87,3.87,0,0,0-.36,1.93V383h-2.09v-7.64H158l.28,1h.11a2.14,2.14,0,0,1,.89-.82,2.86,2.86,0,0,1,1.33-.3,2.42,2.42,0,0,1,2.33,1.12h.18a2.08,2.08,0,0,1,.91-.82,3,3,0,0,1,1.35-.3,2.66,2.66,0,0,1,2,.67A2.91,2.91,0,0,1,168,378v5h-2.09v-4.46a2.23,2.23,0,0,0-.28-1.25,1,1,0,0,0-.87-.41,1.28,1.28,0,0,0-1.14.55,3,3,0,0,0-.38,1.73Z"/><path class="cls-2" d="M170,373.33q0-1,1.14-1c.75,0,1.13.34,1.13,1a1,1,0,0,1-.28.76,1.19,1.19,0,0,1-.85.27C170.4,374.36,170,374,170,373.33ZM172.2,383h-2.09v-7.64h2.09Z"/><path class="cls-2" d="M181.12,383.09c-2.38,0-3.56-1.31-3.56-3.92a4.18,4.18,0,0,1,1-3,3.64,3.64,0,0,1,2.78-1,5.4,5.4,0,0,1,2.38.52l-.62,1.62c-.33-.14-.63-.24-.91-.33a3.19,3.19,0,0,0-.85-.13c-1.09,0-1.63.78-1.63,2.32s.54,2.24,1.63,2.24a3.92,3.92,0,0,0,1.11-.16,4.11,4.11,0,0,0,1-.51v1.79a3.46,3.46,0,0,1-1,.44A5.89,5.89,0,0,1,181.12,383.09Z"/><path class="cls-2" d="M192.16,379.11a4.08,4.08,0,0,1-1,2.92,3.55,3.55,0,0,1-2.74,1.06,3.73,3.73,0,0,1-1.94-.49,3.19,3.19,0,0,1-1.29-1.38,4.53,4.53,0,0,1-.46-2.11,4.11,4.11,0,0,1,1-2.91,3.6,3.6,0,0,1,2.75-1,3.85,3.85,0,0,1,1.94.48,3.19,3.19,0,0,1,1.29,1.38A4.57,4.57,0,0,1,192.16,379.11Zm-5.28,0a3.21,3.21,0,0,0,.37,1.72,1.34,1.34,0,0,0,1.22.58,1.32,1.32,0,0,0,1.2-.58,3.27,3.27,0,0,0,.36-1.72,3.13,3.13,0,0,0-.37-1.7,1.56,1.56,0,0,0-2.41,0A3.11,3.11,0,0,0,186.88,379.11Z"/><path class="cls-2" d="M200.94,383h-2.08v-4.46a2.13,2.13,0,0,0-.3-1.25,1.07,1.07,0,0,0-.93-.41,1.41,1.41,0,0,0-1.27.59,3.6,3.6,0,0,0-.39,1.93V383h-2.08v-7.64h1.59l.28,1h.12a2.16,2.16,0,0,1,1-.83,3.23,3.23,0,0,1,1.39-.29,2.66,2.66,0,0,1,2,.72,2.93,2.93,0,0,1,.69,2.09Z"/><path class="cls-2" d="M206.31,381.42a4.46,4.46,0,0,0,1.31-.23v1.55a4.72,4.72,0,0,1-1.91.35,2.36,2.36,0,0,1-1.83-.64,2.74,2.74,0,0,1-.57-1.89v-3.69h-1V376l1.14-.7.61-1.61h1.33v1.63h2.14v1.56H205.4v3.69a.8.8,0,0,0,.25.65A1,1,0,0,0,206.31,381.42Z"/><path class="cls-2" d="M213.43,375.16a3.37,3.37,0,0,1,.7.06l-.15,2a2.25,2.25,0,0,0-.62-.07,2.21,2.21,0,0,0-1.55.51,1.88,1.88,0,0,0-.56,1.44V383h-2.08v-7.64h1.57l.31,1.28h.1a2.88,2.88,0,0,1,1-1A2.35,2.35,0,0,1,213.43,375.16Z"/><path class="cls-2" d="M220.38,383l-.41-1h-.05a3,3,0,0,1-1.09.92,3.48,3.48,0,0,1-1.45.26,2.34,2.34,0,0,1-1.73-.63,2.43,2.43,0,0,1-.63-1.79,2,2,0,0,1,.85-1.8,4.93,4.93,0,0,1,2.56-.64l1.33,0v-.33a1,1,0,0,0-1.19-1.17,5.4,5.4,0,0,0-2.15.56l-.69-1.41a6.2,6.2,0,0,1,2.92-.69,3.63,3.63,0,0,1,2.36.67,2.48,2.48,0,0,1,.82,2V383Zm-.62-3.54-.81,0a2.53,2.53,0,0,0-1.35.32,1,1,0,0,0-.44.92c0,.59.33.88,1,.88a1.6,1.6,0,0,0,1.16-.42,1.43,1.43,0,0,0,.43-1.1Z"/><path class="cls-2" d="M229.31,380.68a2.1,2.1,0,0,1-.82,1.79,4,4,0,0,1-2.44.62,7.16,7.16,0,0,1-1.42-.12,4.85,4.85,0,0,1-1.1-.33v-1.72a7.68,7.68,0,0,0,1.31.46,5.37,5.37,0,0,0,1.28.18c.75,0,1.13-.22,1.13-.65a.54.54,0,0,0-.15-.4,1.91,1.91,0,0,0-.52-.35c-.24-.13-.57-.28-1-.46a6,6,0,0,1-1.3-.68,2,2,0,0,1-.6-.72,2.48,2.48,0,0,1-.19-1,1.84,1.84,0,0,1,.79-1.58,3.88,3.88,0,0,1,2.24-.56,6.38,6.38,0,0,1,2.69.6l-.63,1.51a9,9,0,0,0-1.07-.4,3.29,3.29,0,0,0-1-.16c-.62,0-.93.16-.93.5a.58.58,0,0,0,.3.48,7.88,7.88,0,0,0,1.3.61,6,6,0,0,1,1.32.68,2.06,2.06,0,0,1,.61.72A2.28,2.28,0,0,1,229.31,380.68Z"/><path class="cls-2" d="M234.4,383.09a4,4,0,0,1-2.89-1,3.87,3.87,0,0,1-1-2.89,4.24,4.24,0,0,1,1-3,3.43,3.43,0,0,1,2.66-1,3.34,3.34,0,0,1,2.52.93,3.48,3.48,0,0,1,.9,2.55v1h-4.93a2.06,2.06,0,0,0,.53,1.39,1.86,1.86,0,0,0,1.38.49,5.54,5.54,0,0,0,1.31-.14,6.61,6.61,0,0,0,1.28-.46v1.62a4.89,4.89,0,0,1-1.17.4A7.18,7.18,0,0,1,234.4,383.09Zm-.3-6.44a1.33,1.33,0,0,0-1,.42,2,2,0,0,0-.43,1.19h2.93a1.72,1.72,0,0,0-.4-1.19A1.39,1.39,0,0,0,234.1,376.65Z"/><path class="cls-2" d="M246.26,383h-2.08v-4.46a2.13,2.13,0,0,0-.3-1.25,1.06,1.06,0,0,0-.93-.41,1.41,1.41,0,0,0-1.27.59,3.6,3.6,0,0,0-.39,1.93V383h-2.08v-7.64h1.59l.28,1h.12a2.16,2.16,0,0,1,1-.83,3.26,3.26,0,0,1,1.39-.29,2.66,2.66,0,0,1,2,.72,2.93,2.93,0,0,1,.69,2.09Zm-4.67-9.2a.61.61,0,0,0-.41.18,1.06,1.06,0,0,0-.28.55h-1a2.62,2.62,0,0,1,.56-1.55,1.63,1.63,0,0,1,1.3-.56,1.54,1.54,0,0,1,.55.11l.53.25.52.24a1.29,1.29,0,0,0,.5.11.58.58,0,0,0,.4-.18,1.06,1.06,0,0,0,.29-.55h1a2.56,2.56,0,0,1-.58,1.56,1.64,1.64,0,0,1-1.28.56,1.33,1.33,0,0,1-.55-.12l-.54-.24-.51-.25A1.33,1.33,0,0,0,241.59,373.75Z"/><path class="cls-2" d="M253.26,383l-.4-1h-.06a3.09,3.09,0,0,1-1.08.92,3.48,3.48,0,0,1-1.45.26,2.34,2.34,0,0,1-1.73-.63,2.39,2.39,0,0,1-.64-1.79,2.05,2.05,0,0,1,.85-1.8,5,5,0,0,1,2.57-.64l1.33,0v-.33a1,1,0,0,0-1.19-1.17,5.48,5.48,0,0,0-2.16.56l-.69-1.41a6.24,6.24,0,0,1,2.93-.69,3.63,3.63,0,0,1,2.36.67,2.48,2.48,0,0,1,.82,2V383Zm-.61-3.54-.81,0a2.48,2.48,0,0,0-1.35.32,1,1,0,0,0-.45.92c0,.59.34.88,1,.88a1.59,1.59,0,0,0,1.16-.42,1.44,1.44,0,0,0,.44-1.1Z"/><rect class="cls-3" x="27.55" y="307.4" width="307.29" height="48.48" rx="2"/></g><g id="Capa_4" data-name="Capa 4"><path class="cls-2" d="M33.22,65.78a2.47,2.47,0,0,0-2.12,1,4.8,4.8,0,0,0-.75,2.87c0,2.54.95,3.82,2.87,3.82a9.07,9.07,0,0,0,2.91-.6v2A8.1,8.1,0,0,1,33,75.5,4.78,4.78,0,0,1,29.18,74a6.4,6.4,0,0,1-1.32-4.34,7.1,7.1,0,0,1,.64-3.12,4.72,4.72,0,0,1,1.87-2,5.49,5.49,0,0,1,2.85-.72,7.66,7.66,0,0,1,3.34.81l-.78,2c-.43-.21-.86-.38-1.29-.54A3.86,3.86,0,0,0,33.22,65.78Z"/><path class="cls-2" d="M46.31,71a4.69,4.69,0,0,1-1.13,3.34,4.08,4.08,0,0,1-3.13,1.2A4.35,4.35,0,0,1,39.83,75a3.58,3.58,0,0,1-1.47-1.58A5.25,5.25,0,0,1,37.84,71,4.63,4.63,0,0,1,39,67.64a4.1,4.1,0,0,1,3.14-1.19,4.35,4.35,0,0,1,2.22.55,3.55,3.55,0,0,1,1.47,1.57A5.16,5.16,0,0,1,46.31,71Zm-6,0a3.65,3.65,0,0,0,.43,2,1.51,1.51,0,0,0,1.38.66,1.49,1.49,0,0,0,1.37-.66,3.72,3.72,0,0,0,.42-2A3.61,3.61,0,0,0,43.45,69a1.79,1.79,0,0,0-2.76,0A3.61,3.61,0,0,0,40.27,71Zm.5-5.31v-.21a21.33,21.33,0,0,0,1.84-2.35h2.67v.16c-.27.27-.74.68-1.39,1.21s-1.16.93-1.53,1.19Z"/><path class="cls-2" d="M51,75.5a2.81,2.81,0,0,1-2.41-1.19,6.71,6.71,0,0,1,0-6.66,2.91,2.91,0,0,1,2.47-1.2,2.86,2.86,0,0,1,2.51,1.28h.08A9.7,9.7,0,0,1,53.52,66v-2.8h2.39V75.35H54.08l-.46-1.14h-.1A2.73,2.73,0,0,1,51,75.5Zm.84-1.89a1.6,1.6,0,0,0,1.34-.54,3,3,0,0,0,.46-1.8V71a3.53,3.53,0,0,0-.43-2,1.6,1.6,0,0,0-1.41-.61,1.41,1.41,0,0,0-1.24.67,3.66,3.66,0,0,0-.44,2A3.37,3.37,0,0,0,50.61,73,1.45,1.45,0,0,0,51.88,73.61Z"/><path class="cls-2" d="M58.3,64.36c0-.78.43-1.17,1.3-1.17s1.3.39,1.3,1.17a1.12,1.12,0,0,1-.33.86,1.39,1.39,0,0,1-1,.31C58.73,65.53,58.3,65.14,58.3,64.36Zm2.49,11H58.4V66.61h2.39Z"/><path class="cls-2" d="M70.89,66.61v1.21l-1.37.36a2.36,2.36,0,0,1,.38,1.31,2.63,2.63,0,0,1-1,2.19,4.25,4.25,0,0,1-2.72.78l-.43,0-.35,0A.82.82,0,0,0,65,73q0,.51,1.32.51h1.48a3.38,3.38,0,0,1,2.19.62A2.22,2.22,0,0,1,70.79,76a2.7,2.7,0,0,1-1.28,2.38,6.69,6.69,0,0,1-3.67.84,5,5,0,0,1-2.79-.64,2,2,0,0,1-1-1.78,1.89,1.89,0,0,1,.49-1.32A2.82,2.82,0,0,1,64,74.69a1.49,1.49,0,0,1-.64-.51,1.23,1.23,0,0,1-.27-.75,1.21,1.21,0,0,1,.29-.84,3.52,3.52,0,0,1,.83-.65,2.34,2.34,0,0,1-1.09-1,2.89,2.89,0,0,1-.4-1.55,2.73,2.73,0,0,1,.93-2.21,4,4,0,0,1,2.65-.78,6.05,6.05,0,0,1,.88.07l.64.09Zm-6.74,10a.86.86,0,0,0,.47.78,2.64,2.64,0,0,0,1.32.28,4.74,4.74,0,0,0,2-.35,1.09,1.09,0,0,0,.73-1,.7.7,0,0,0-.43-.68,3.67,3.67,0,0,0-1.33-.18H65.68a1.82,1.82,0,0,0-1.09.31A.92.92,0,0,0,64.15,76.58ZM65,69.47a1.77,1.77,0,0,0,.33,1.13,1.39,1.39,0,0,0,2,0,1.83,1.83,0,0,0,.31-1.13c0-1-.43-1.58-1.3-1.58S65,68.42,65,69.47Z"/><path class="cls-2" d="M80.26,71a4.69,4.69,0,0,1-1.12,3.34A4.1,4.1,0,0,1,76,75.5,4.34,4.34,0,0,1,73.79,75a3.6,3.6,0,0,1-1.48-1.58A5.38,5.38,0,0,1,71.79,71a4.68,4.68,0,0,1,1.12-3.32,4.11,4.11,0,0,1,3.14-1.19,4.35,4.35,0,0,1,2.22.55,3.63,3.63,0,0,1,1.48,1.57A5.29,5.29,0,0,1,80.26,71Zm-6,0a3.65,3.65,0,0,0,.43,2,1.53,1.53,0,0,0,1.39.66,1.5,1.5,0,0,0,1.37-.66,3.73,3.73,0,0,0,.41-2A3.61,3.61,0,0,0,77.4,69,1.53,1.53,0,0,0,76,68.37a1.51,1.51,0,0,0-1.37.65A3.51,3.51,0,0,0,74.22,71Z"/><rect class="cls-2" x="27.86" y="84.2" width="307.29" height="48.48" rx="2"/><g class="cls-4"><path class="cls-5" d="M55.85,108.07a1.14,1.14,0,0,0-1-1.19h-7.3a1.14,1.14,0,0,0-1,1.19v6.33a1.14,1.14,0,0,0,1,1.2h7.3a1.14,1.14,0,0,0,1-1.2Zm10.7,0a1.14,1.14,0,0,0-1-1.19h-7.3a1.14,1.14,0,0,0-1,1.19v6.33a1.14,1.14,0,0,0,1,1.2h7.3a1.14,1.14,0,0,0,1-1.2Zm-7.8.6h6.3v5.14h-6.3Zm-10.7,0h6.3v5.14h-6.3Zm18.5-11a1.14,1.14,0,0,0-1-1.19h-7.3a1.14,1.14,0,0,0-1,1.19V104a1.14,1.14,0,0,0,1,1.19h7.3a1.14,1.14,0,0,0,1-1.19Zm-10.7,0a1.14,1.14,0,0,0-1-1.19h-7.3a1.14,1.14,0,0,0-1,1.19V104a1.14,1.14,0,0,0,1,1.19h7.3a1.14,1.14,0,0,0,1-1.19Zm2.9.6h6.3v5.14h-6.3Zm-10.7,0h6.3v5.14h-6.3Z"/></g><path class="cls-2" d="M38.28,142.94v7.39a4.27,4.27,0,0,1-.57,2.22A3.74,3.74,0,0,1,36.08,154a5.87,5.87,0,0,1-2.54.51,4.88,4.88,0,0,1-3.42-1.13,4,4,0,0,1-1.22-3.09v-7.36h2.42v7a2.9,2.9,0,0,0,.53,1.94,2.21,2.21,0,0,0,1.76.62,2.14,2.14,0,0,0,1.72-.63,2.91,2.91,0,0,0,.53-2v-7Z"/><path class="cls-2" d="M47,151.77a2.4,2.4,0,0,1-.93,2,4.61,4.61,0,0,1-2.79.71,9.35,9.35,0,0,1-1.63-.13,6.16,6.16,0,0,1-1.26-.38v-2a8,8,0,0,0,1.5.52,6,6,0,0,0,1.46.21c.87,0,1.3-.25,1.3-.75a.63.63,0,0,0-.17-.45,2.45,2.45,0,0,0-.6-.4c-.28-.15-.65-.32-1.12-.52a6.91,6.91,0,0,1-1.48-.78,2.15,2.15,0,0,1-.69-.83,2.76,2.76,0,0,1-.21-1.14,2.07,2.07,0,0,1,.9-1.8,4.34,4.34,0,0,1,2.56-.64,7.26,7.26,0,0,1,3.07.69l-.72,1.72a12.88,12.88,0,0,0-1.23-.46,3.85,3.85,0,0,0-1.16-.18c-.7,0-1.06.19-1.06.57a.68.68,0,0,0,.34.55,9.48,9.48,0,0,0,1.49.7,6.76,6.76,0,0,1,1.5.77,2.41,2.41,0,0,1,.71.83A2.54,2.54,0,0,1,47,151.77Z"/><path class="cls-2" d="M55,154.36l-.32-1.12h-.13a2.43,2.43,0,0,1-1.08.94,3.61,3.61,0,0,1-1.6.34,3,3,0,0,1-2.32-.83,3.28,3.28,0,0,1-.79-2.37v-5.69h2.39v5.1a2.5,2.5,0,0,0,.33,1.42,1.24,1.24,0,0,0,1.07.47A1.61,1.61,0,0,0,54,152a4.11,4.11,0,0,0,.44-2.21v-4.11h2.39v8.73Z"/><path class="cls-2" d="M64.9,154.36l-.46-1.19h-.06a3.36,3.36,0,0,1-1.24,1.05,3.91,3.91,0,0,1-1.66.3,2.68,2.68,0,0,1-2-.72,2.77,2.77,0,0,1-.72-2.05,2.29,2.29,0,0,1,1-2.05,5.69,5.69,0,0,1,2.94-.73l1.51-.05v-.38a1.19,1.19,0,0,0-1.36-1.33,6.19,6.19,0,0,0-2.46.63l-.79-1.6a7.08,7.08,0,0,1,3.35-.79,4.15,4.15,0,0,1,2.69.76,2.82,2.82,0,0,1,.94,2.33v5.82Zm-.7-4.05-.92,0a3.05,3.05,0,0,0-1.55.38,1.18,1.18,0,0,0-.51,1.05c0,.67.39,1,1.16,1a1.81,1.81,0,0,0,1.32-.47,1.65,1.65,0,0,0,.5-1.27Z"/><path class="cls-2" d="M73.9,145.46a4.32,4.32,0,0,1,.8.07l-.18,2.24a2.41,2.41,0,0,0-.7-.08,2.53,2.53,0,0,0-1.78.58,2.14,2.14,0,0,0-.64,1.64v4.45H69v-8.73h1.81l.35,1.46h.11a3.36,3.36,0,0,1,1.1-1.18A2.7,2.7,0,0,1,73.9,145.46Z"/><path class="cls-2" d="M76.19,143.37q0-1.17,1.29-1.17c.87,0,1.3.39,1.3,1.17a1.11,1.11,0,0,1-.33.86,1.33,1.33,0,0,1-1,.31Q76.19,144.54,76.19,143.37Zm2.48,11H76.29v-8.73h2.38Z"/><path class="cls-2" d="M89.11,150A4.68,4.68,0,0,1,88,153.31a4,4,0,0,1-3.13,1.21,4.46,4.46,0,0,1-2.22-.55,3.74,3.74,0,0,1-1.48-1.59,5.34,5.34,0,0,1-.51-2.4,4.64,4.64,0,0,1,1.12-3.33,4.1,4.1,0,0,1,3.14-1.19,4.34,4.34,0,0,1,2.21.55,3.57,3.57,0,0,1,1.48,1.57A5.18,5.18,0,0,1,89.11,150Zm-6,0a3.71,3.71,0,0,0,.42,2,1.54,1.54,0,0,0,1.39.66,1.49,1.49,0,0,0,1.37-.66,3.68,3.68,0,0,0,.42-2,3.62,3.62,0,0,0-.42-1.95,1.79,1.79,0,0,0-2.76,0A3.62,3.62,0,0,0,83.07,150Z"/><rect class="cls-2" x="27.39" y="163" width="307.29" height="48.48" rx="2"/><path class="cls-6" d="M56.94,178.21c-3.54,0-5.89,3.45-2.6,9.52,1.11,2.05-1.2,2.53-3.54,3.07-2.14.5-2.22,1.56-2.21,3.42v.69H65.28v-.67c0-1.87-.07-2.94-2.21-3.44-2.4-.55-4.62-1-3.55-3.07,3.29-6.2.88-9.52-2.59-9.52m0,.7a3.27,3.27,0,0,1,2.94,1.49c.94,1.57.6,4.06-1,7a2.26,2.26,0,0,0-.2,2c.66,1.43,3.31,1.84,4.2,2,1.6.37,1.68.92,1.67,2.74H49.28c0-1.82.07-2.37,1.67-2.74.81-.18,3.58-.64,4.21-2a2.23,2.23,0,0,0-.21-2c-1.55-2.87-1.91-5.4-1-7a3.29,3.29,0,0,1,3-1.52"/><path class="cls-2" d="M33.83,222.74a2.47,2.47,0,0,0-2.11,1,4.77,4.77,0,0,0-.75,2.86q0,3.83,2.86,3.82a9.07,9.07,0,0,0,2.92-.6v2a8.13,8.13,0,0,1-3.14.59A4.8,4.8,0,0,1,29.79,231a6.42,6.42,0,0,1-1.32-4.34,7.1,7.1,0,0,1,.65-3.12A4.68,4.68,0,0,1,31,221.44a5.54,5.54,0,0,1,2.84-.71,7.8,7.8,0,0,1,3.35.8l-.78,2c-.43-.2-.86-.38-1.29-.53A3.94,3.94,0,0,0,33.83,222.74Z"/><path class="cls-2" d="M46.93,227.93a4.72,4.72,0,0,1-1.13,3.34,4.08,4.08,0,0,1-3.13,1.2,4.35,4.35,0,0,1-2.22-.55A3.77,3.77,0,0,1,39,230.34a5.38,5.38,0,0,1-.51-2.41,4.64,4.64,0,0,1,1.12-3.33,4.1,4.1,0,0,1,3.14-1.19,4.51,4.51,0,0,1,2.22.55,3.66,3.66,0,0,1,1.47,1.57A5.18,5.18,0,0,1,46.93,227.93Zm-6,0a3.71,3.71,0,0,0,.42,2,1.55,1.55,0,0,0,1.39.67,1.48,1.48,0,0,0,1.37-.67,4.76,4.76,0,0,0,0-3.91,1.81,1.81,0,0,0-2.76,0A3.62,3.62,0,0,0,40.89,227.93Z"/><path class="cls-2" d="M57,232.31H54.58v-5.1a2.5,2.5,0,0,0-.34-1.42,1.23,1.23,0,0,0-1.07-.47,1.61,1.61,0,0,0-1.45.67,4.19,4.19,0,0,0-.44,2.21v4.11H48.9v-8.73h1.82L51,224.7h.13a2.45,2.45,0,0,1,1.1-1,3.64,3.64,0,0,1,1.59-.33,3.06,3.06,0,0,1,2.31.83,3.29,3.29,0,0,1,.79,2.38Z"/><path class="cls-2" d="M63.09,230.57a5.19,5.19,0,0,0,1.5-.27v1.77a5.26,5.26,0,0,1-2.19.4,2.69,2.69,0,0,1-2.08-.72,3.2,3.2,0,0,1-.65-2.17v-4.21H58.53v-1l1.31-.8.69-1.84h1.52v1.86H64.5v1.79H62.05v4.21a.93.93,0,0,0,.29.75A1.13,1.13,0,0,0,63.09,230.57Z"/><path class="cls-2" d="M71.23,223.41a4.52,4.52,0,0,1,.81.07l-.18,2.24a2.9,2.9,0,0,0-.71-.08,2.51,2.51,0,0,0-1.77.59,2.09,2.09,0,0,0-.64,1.64v4.44H66.36v-8.73h1.8l.35,1.47h.12a3.31,3.31,0,0,1,1.1-1.19A2.69,2.69,0,0,1,71.23,223.41Z"/><path class="cls-2" d="M79.17,232.31l-.46-1.18h-.06a3.76,3.76,0,0,1-1.24,1.05,4.12,4.12,0,0,1-1.66.29,2.68,2.68,0,0,1-2-.72A2.77,2.77,0,0,1,73,229.7a2.31,2.31,0,0,1,1-2,5.65,5.65,0,0,1,2.93-.73l1.52,0v-.39a1.19,1.19,0,0,0-1.36-1.33,6.23,6.23,0,0,0-2.46.64l-.79-1.61a7,7,0,0,1,3.34-.79,4.19,4.19,0,0,1,2.7.76,2.86,2.86,0,0,1,.93,2.33v5.82Zm-.7-4-.93,0a2.92,2.92,0,0,0-1.54.37,1.18,1.18,0,0,0-.51,1.05c0,.67.39,1,1.16,1a1.82,1.82,0,0,0,1.32-.48,1.69,1.69,0,0,0,.5-1.27Z"/><path class="cls-2" d="M89.38,229.72a2.41,2.41,0,0,1-.93,2.05,4.71,4.71,0,0,1-2.8.7,8.42,8.42,0,0,1-1.62-.13,6.16,6.16,0,0,1-1.26-.38v-2a8,8,0,0,0,1.5.53,6,6,0,0,0,1.46.21c.87,0,1.3-.25,1.3-.75a.65.65,0,0,0-.17-.46,2.66,2.66,0,0,0-.6-.4c-.28-.15-.65-.32-1.12-.52a6.91,6.91,0,0,1-1.48-.78A2.12,2.12,0,0,1,83,227a2.78,2.78,0,0,1-.21-1.15,2.09,2.09,0,0,1,.9-1.8,4.42,4.42,0,0,1,2.56-.64,7.26,7.26,0,0,1,3.07.69l-.72,1.72a12.88,12.88,0,0,0-1.23-.46,3.85,3.85,0,0,0-1.16-.18c-.71,0-1.06.19-1.06.57a.7.7,0,0,0,.34.56A10.88,10.88,0,0,0,87,227a7.21,7.21,0,0,1,1.5.77,2.27,2.27,0,0,1,.7.83A2.57,2.57,0,0,1,89.38,229.72Z"/><path class="cls-2" d="M95.19,232.47a4.52,4.52,0,0,1-3.29-1.16,4.39,4.39,0,0,1-1.19-3.3,4.81,4.81,0,0,1,1.1-3.4,3.9,3.9,0,0,1,3-1.2,3.84,3.84,0,0,1,2.88,1.06,4,4,0,0,1,1,2.91v1.16H93.12a2.34,2.34,0,0,0,.6,1.59,2.14,2.14,0,0,0,1.58.57,6.41,6.41,0,0,0,1.49-.17,7.43,7.43,0,0,0,1.47-.52v1.84a5.38,5.38,0,0,1-1.33.47A8.6,8.6,0,0,1,95.19,232.47Zm-.33-7.36a1.52,1.52,0,0,0-1.19.48,2.2,2.2,0,0,0-.49,1.36h3.34a2,2,0,0,0-.46-1.36A1.57,1.57,0,0,0,94.86,225.11Z"/><path class="cls-2" d="M108.76,232.31h-2.39v-5.1a2.5,2.5,0,0,0-.33-1.42,1.24,1.24,0,0,0-1.07-.47,1.61,1.61,0,0,0-1.45.67,4.09,4.09,0,0,0-.44,2.21v4.11h-2.39v-8.73h1.82l.32,1.12H103a2.42,2.42,0,0,1,1.09-1,3.71,3.71,0,0,1,1.59-.33,3.07,3.07,0,0,1,2.32.83,3.33,3.33,0,0,1,.79,2.38Zm-5.35-10.51a.7.7,0,0,0-.46.2,1.26,1.26,0,0,0-.33.63h-1.16a3,3,0,0,1,.64-1.77,1.87,1.87,0,0,1,1.48-.64,1.51,1.51,0,0,1,.63.13c.21.08.41.18.61.28l.59.28a1.46,1.46,0,0,0,.57.12.72.72,0,0,0,.47-.2,1.25,1.25,0,0,0,.32-.63h1.17a3,3,0,0,1-.66,1.78,1.9,1.9,0,0,1-1.47.64,1.77,1.77,0,0,1-.63-.13l-.61-.28c-.2-.1-.4-.2-.59-.28A1.31,1.31,0,0,0,103.41,221.8Z"/><path class="cls-2" d="M116.76,232.31l-.47-1.18h-.06a3.57,3.57,0,0,1-1.24,1.05,4.05,4.05,0,0,1-1.66.29,2.68,2.68,0,0,1-2-.72,2.77,2.77,0,0,1-.72-2.05,2.31,2.31,0,0,1,1-2,5.69,5.69,0,0,1,2.94-.73l1.51,0v-.39a1.19,1.19,0,0,0-1.36-1.33,6.23,6.23,0,0,0-2.46.64l-.79-1.61a7.08,7.08,0,0,1,3.35-.79,4.15,4.15,0,0,1,2.69.76,2.83,2.83,0,0,1,.94,2.33v5.82Zm-.71-4-.92,0a3,3,0,0,0-1.55.37,1.17,1.17,0,0,0-.5,1.05c0,.67.38,1,1.15,1a1.84,1.84,0,0,0,1.33-.48,1.68,1.68,0,0,0,.49-1.27Z"/><rect class="cls-2" x="27.39" y="242.04" width="307.29" height="48.48" rx="2"/><path class="cls-5" d="M55.64,267.55a1.5,1.5,0,0,1,3,0,1.48,1.48,0,0,1-.75,1.29v1.71h-1.5v-1.71A1.49,1.49,0,0,1,55.64,267.55Zm8.23-4.49v10.48H50.4V263.06h2.24v-3a4.49,4.49,0,1,1,9,0v3Zm-9.73,0h6v-3a3,3,0,0,0-6,0Zm8.23,1.5H51.89V272H62.37Z"/><path class="cls-2" d="M143.81,336.34v-10h2.12v10Z"/><path class="cls-2" d="M155.34,336.34h-2.08v-4.47a2.12,2.12,0,0,0-.3-1.24,1.08,1.08,0,0,0-.94-.41,1.4,1.4,0,0,0-1.26.58,3.64,3.64,0,0,0-.39,1.94v3.6h-2.08v-7.65h1.59l.28,1h.11a2.27,2.27,0,0,1,1-.84,3.23,3.23,0,0,1,1.39-.28,2.66,2.66,0,0,1,2,.72,2.9,2.9,0,0,1,.69,2.08Z"/><path class="cls-2" d="M157.4,326.72c0-.68.38-1,1.13-1s1.14.34,1.14,1a1,1,0,0,1-.29.75,1.19,1.19,0,0,1-.85.27C157.78,327.74,157.4,327.4,157.4,326.72Zm2.17,9.62h-2.08v-7.65h2.08Z"/><path class="cls-2" d="M164.86,336.47q-3.57,0-3.57-3.91a4.16,4.16,0,0,1,1-3,3.61,3.61,0,0,1,2.78-1,5.3,5.3,0,0,1,2.38.52l-.62,1.61c-.33-.13-.63-.24-.91-.32a2.83,2.83,0,0,0-.85-.13c-1.09,0-1.63.77-1.63,2.31s.54,2.24,1.63,2.24a3.59,3.59,0,0,0,1.11-.16,3.75,3.75,0,0,0,1-.5v1.79a3.46,3.46,0,0,1-1,.44A6,6,0,0,1,164.86,336.47Z"/><path class="cls-2" d="M168.87,326.72c0-.68.38-1,1.13-1s1.14.34,1.14,1a1,1,0,0,1-.29.75,1.17,1.17,0,0,1-.85.27C169.25,327.74,168.87,327.4,168.87,326.72Zm2.17,9.62H169v-7.65H171Z"/><path class="cls-2" d="M178.08,336.34l-.4-1h-.05a3.32,3.32,0,0,1-1.09.92,3.5,3.5,0,0,1-1.45.25,2.34,2.34,0,0,1-1.73-.63,2.42,2.42,0,0,1-.64-1.79,2,2,0,0,1,.86-1.79,4.84,4.84,0,0,1,2.56-.64l1.33,0v-.34a1,1,0,0,0-1.19-1.16,5.54,5.54,0,0,0-2.15.55l-.69-1.4a6.17,6.17,0,0,1,2.92-.69,3.63,3.63,0,0,1,2.36.67,2.44,2.44,0,0,1,.82,2v5.1Zm-.61-3.55-.81,0a2.59,2.59,0,0,0-1.35.33,1,1,0,0,0-.45.92c0,.58.34.88,1,.88a1.58,1.58,0,0,0,1.15-.42,1.48,1.48,0,0,0,.44-1.11Z"/><path class="cls-2" d="M186,328.55a3.55,3.55,0,0,1,.71.06l-.16,2a2.25,2.25,0,0,0-.62-.07,2.21,2.21,0,0,0-1.55.51,1.86,1.86,0,0,0-.56,1.44v3.89h-2.08v-7.65h1.58l.3,1.29h.11a2.74,2.74,0,0,1,1-1A2.36,2.36,0,0,1,186,328.55Z"/><path class="cls-2" d="M197,334.07a2.11,2.11,0,0,1-.81,1.79,4.06,4.06,0,0,1-2.45.61,8.19,8.19,0,0,1-1.42-.11,6.13,6.13,0,0,1-1.1-.33v-1.72a7.17,7.17,0,0,0,1.31.45,5,5,0,0,0,1.28.19q1.14,0,1.14-.66a.56.56,0,0,0-.16-.4,2.29,2.29,0,0,0-.51-.35q-.37-.19-1-.45a7.07,7.07,0,0,1-1.3-.68,2.06,2.06,0,0,1-.6-.73,2.45,2.45,0,0,1-.18-1,1.81,1.81,0,0,1,.78-1.57,3.88,3.88,0,0,1,2.24-.56,6.38,6.38,0,0,1,2.69.6l-.63,1.51c-.38-.17-.74-.3-1.07-.41a3.51,3.51,0,0,0-1-.16c-.62,0-.92.17-.92.5a.6.6,0,0,0,.29.49,8.12,8.12,0,0,0,1.31.61,6.19,6.19,0,0,1,1.31.67,2,2,0,0,1,.61.73A2.12,2.12,0,0,1,197,334.07Z"/><path class="cls-2" d="M202.1,336.47a4,4,0,0,1-2.89-1,3.86,3.86,0,0,1-1-2.88,4.29,4.29,0,0,1,1-3,3.44,3.44,0,0,1,2.66-1.05,3.38,3.38,0,0,1,2.52.92,3.48,3.48,0,0,1,.91,2.55v1h-4.93a2,2,0,0,0,.52,1.39,1.87,1.87,0,0,0,1.38.5,6.12,6.12,0,0,0,1.31-.14,6.94,6.94,0,0,0,1.29-.46v1.61a5.24,5.24,0,0,1-1.17.41A7.35,7.35,0,0,1,202.1,336.47Zm-.3-6.44a1.31,1.31,0,0,0-1,.42,1.92,1.92,0,0,0-.44,1.2h2.93a1.75,1.75,0,0,0-.4-1.2A1.37,1.37,0,0,0,201.8,330Z"/><path class="cls-2" d="M212.24,334.07a2.11,2.11,0,0,1-.81,1.79,4.06,4.06,0,0,1-2.45.61,8.19,8.19,0,0,1-1.42-.11,6.13,6.13,0,0,1-1.1-.33v-1.72a7.17,7.17,0,0,0,1.31.45,5,5,0,0,0,1.28.19q1.14,0,1.14-.66a.55.55,0,0,0-.15-.4,2.69,2.69,0,0,0-.52-.35q-.37-.19-1-.45a6.6,6.6,0,0,1-1.29-.68,2,2,0,0,1-.61-.73,2.45,2.45,0,0,1-.18-1,1.79,1.79,0,0,1,.79-1.57,3.83,3.83,0,0,1,2.23-.56,6.35,6.35,0,0,1,2.69.6l-.63,1.51c-.38-.17-.74-.3-1.07-.41a3.51,3.51,0,0,0-1-.16c-.61,0-.92.17-.92.5a.59.59,0,0,0,.3.49,7.47,7.47,0,0,0,1.3.61,6.19,6.19,0,0,1,1.31.67,2,2,0,0,1,.61.73A2.12,2.12,0,0,1,212.24,334.07Z"/><path class="cls-2" d="M213.78,326.72q0-1,1.14-1c.75,0,1.13.34,1.13,1a1,1,0,0,1-.28.75,1.2,1.2,0,0,1-.85.27Q213.78,327.74,213.78,326.72Zm2.18,9.62h-2.09v-7.65H216Z"/><path class="cls-2" d="M225.09,332.5a4.1,4.1,0,0,1-1,2.92,3.56,3.56,0,0,1-2.74,1.05,3.85,3.85,0,0,1-1.94-.48,3.19,3.19,0,0,1-1.29-1.38,4.71,4.71,0,0,1-.45-2.11,4,4,0,0,1,1-2.91,3.58,3.58,0,0,1,2.74-1,3.82,3.82,0,0,1,1.94.48,3.13,3.13,0,0,1,1.3,1.37A4.64,4.64,0,0,1,225.09,332.5Zm-5.29,0a3.2,3.2,0,0,0,.38,1.72,1.33,1.33,0,0,0,1.21.58,1.29,1.29,0,0,0,1.2-.58,3.3,3.3,0,0,0,.37-1.72,3.2,3.2,0,0,0-.37-1.7,1.34,1.34,0,0,0-1.21-.57,1.35,1.35,0,0,0-1.21.56A3.24,3.24,0,0,0,219.8,332.5Zm.44-4.65v-.18a18.82,18.82,0,0,0,1.61-2.06h2.34v.14c-.24.24-.65.59-1.22,1.06s-1,.81-1.34,1Z"/><path class="cls-2" d="M233.87,336.34h-2.09v-4.47a2.2,2.2,0,0,0-.29-1.24,1.09,1.09,0,0,0-.94-.41,1.39,1.39,0,0,0-1.26.58,3.64,3.64,0,0,0-.39,1.94v3.6h-2.09v-7.65h1.59l.28,1h.12a2.18,2.18,0,0,1,1-.84,3.26,3.26,0,0,1,1.39-.28,2.66,2.66,0,0,1,2,.72,2.9,2.9,0,0,1,.7,2.08Z"/><path class="cls-7" d="M133,335.52h4.44v-1.1l.55-.56v2.21h-5v1.11l-5.52-1.66v-9.94l5.52-1.66V325h5v2.76l-.55-.55v-1.66H133Zm-.55.92V324.66L128,326v9.12Zm6.12-5.89-1.82-1.82.39-.39,2.49,2.49-2.49,2.48-.39-.39,1.82-1.82h-5v-.55Z"/><path class="cls-2" d="M39.44,496.65v-9.28H41v9.28Z"/><path class="cls-2" d="M51.51,496.65H50v-4.32a1.86,1.86,0,0,0-.33-1.21,1.27,1.27,0,0,0-1-.4,1.62,1.62,0,0,0-1.38.56,3.07,3.07,0,0,0-.44,1.87v3.5H45.34v-7h1.17l.2.92h.08a2.07,2.07,0,0,1,.9-.77,3.05,3.05,0,0,1,1.3-.27,2.25,2.25,0,0,1,2.52,2.57Z"/><path class="cls-2" d="M61.61,489.62v.82l-1.2.23a1.82,1.82,0,0,1,.27.54,2,2,0,0,1,.11.69,2.08,2.08,0,0,1-.75,1.7,3.09,3.09,0,0,1-2.06.63,3.76,3.76,0,0,1-.61-.05.83.83,0,0,0-.48.69.39.39,0,0,0,.22.37,2,2,0,0,0,.83.12h1.23a2.71,2.71,0,0,1,1.76.49,1.76,1.76,0,0,1,.61,1.43,2.07,2.07,0,0,1-1,1.84,5.17,5.17,0,0,1-2.84.65,3.9,3.9,0,0,1-2.19-.51,1.63,1.63,0,0,1-.76-1.45,1.57,1.57,0,0,1,.41-1.09,2.27,2.27,0,0,1,1.15-.61,1.17,1.17,0,0,1-.69-1,1.08,1.08,0,0,1,.22-.67,2.73,2.73,0,0,1,.66-.54,1.9,1.9,0,0,1-.88-.76,2.49,2.49,0,0,1,.38-3,3,3,0,0,1,2.05-.63,4.64,4.64,0,0,1,.63,0,4.51,4.51,0,0,1,.49.08Zm-5.51,8.12a.81.81,0,0,0,.43.74,2.43,2.43,0,0,0,1.22.26,3.75,3.75,0,0,0,1.82-.35,1,1,0,0,0,.59-.93.69.69,0,0,0-.32-.65,2.66,2.66,0,0,0-1.22-.19H57.49a1.59,1.59,0,0,0-1,.3A1,1,0,0,0,56.1,497.74Zm.64-5.84a1.37,1.37,0,0,0,.34,1,1.26,1.26,0,0,0,1,.36c.86,0,1.3-.46,1.3-1.39a1.54,1.54,0,0,0-.33-1.05,1.19,1.19,0,0,0-1-.37,1.27,1.27,0,0,0-1,.36A1.59,1.59,0,0,0,56.74,491.9Z"/><path class="cls-2" d="M68.57,489.5a3.8,3.8,0,0,1,.74.06L69.16,491a2.84,2.84,0,0,0-.66-.08,1.92,1.92,0,0,0-1.45.59A2.1,2.1,0,0,0,66.5,493v3.67H65v-7h1.16l.2,1.24h.08a2.64,2.64,0,0,1,.91-1A2.1,2.1,0,0,1,68.57,489.5Z"/><path class="cls-2" d="M75.77,496.77a3.41,3.41,0,0,1-2.56-.95,3.63,3.63,0,0,1-.93-2.63,4,4,0,0,1,.86-2.71,3,3,0,0,1,2.36-1,2.89,2.89,0,0,1,2.19.84,3.23,3.23,0,0,1,.81,2.32v.81H73.82a2.32,2.32,0,0,0,.55,1.57,1.92,1.92,0,0,0,1.47.55,5.36,5.36,0,0,0,1.16-.12,5,5,0,0,0,1.15-.39v1.22a4.57,4.57,0,0,1-1.1.36A6.23,6.23,0,0,1,75.77,496.77Zm-.27-6.14a1.48,1.48,0,0,0-1.14.45,2.09,2.09,0,0,0-.51,1.31H77a1.92,1.92,0,0,0-.42-1.31A1.42,1.42,0,0,0,75.5,490.63Z"/><path class="cls-2" d="M87,494.65a1.82,1.82,0,0,1-.75,1.57,3.54,3.54,0,0,1-2.14.55,5.15,5.15,0,0,1-2.26-.42v-1.29a5.59,5.59,0,0,0,2.31.57c.92,0,1.38-.28,1.38-.83a.64.64,0,0,0-.16-.45,1.7,1.7,0,0,0-.5-.36,7.27,7.27,0,0,0-1-.44,4.37,4.37,0,0,1-1.64-.94,1.69,1.69,0,0,1-.43-1.21,1.58,1.58,0,0,1,.73-1.4,3.38,3.38,0,0,1,2-.5,5.53,5.53,0,0,1,2.34.5l-.48,1.12a5.31,5.31,0,0,0-1.91-.47c-.79,0-1.19.23-1.19.68a.67.67,0,0,0,.31.55,6.23,6.23,0,0,0,1.35.63,6.37,6.37,0,0,1,1.26.62,1.75,1.75,0,0,1,.58.64A1.87,1.87,0,0,1,87,494.65Z"/><path class="cls-2" d="M95.1,496.65l-.3-1h0a2.93,2.93,0,0,1-1,.87,3.13,3.13,0,0,1-1.32.23,2.22,2.22,0,0,1-1.62-.56,2.11,2.11,0,0,1-.58-1.58A1.86,1.86,0,0,1,91,493a4.81,4.81,0,0,1,2.46-.6l1.21,0V492a1.44,1.44,0,0,0-.32-1,1.28,1.28,0,0,0-1-.33,3.22,3.22,0,0,0-1,.16,10,10,0,0,0-1,.37l-.48-1.06a5.46,5.46,0,0,1,1.25-.46,5.93,5.93,0,0,1,1.28-.15,3,3,0,0,1,2,.58,2.28,2.28,0,0,1,.69,1.84v4.73Zm-2.22-1a1.84,1.84,0,0,0,1.3-.45,1.66,1.66,0,0,0,.5-1.28v-.61l-.91,0a3.13,3.13,0,0,0-1.53.35,1.08,1.08,0,0,0-.48,1,1,1,0,0,0,.28.72A1.22,1.22,0,0,0,92.88,495.63Z"/><path class="cls-2" d="M110.21,496.65l-.3-1h0a2.86,2.86,0,0,1-1,.87,3.13,3.13,0,0,1-1.32.23,2.19,2.19,0,0,1-1.61-.56,2.08,2.08,0,0,1-.58-1.58,1.88,1.88,0,0,1,.8-1.64,4.81,4.81,0,0,1,2.46-.6l1.21,0V492a1.44,1.44,0,0,0-.31-1,1.3,1.3,0,0,0-1-.33,3.22,3.22,0,0,0-1,.16,8.93,8.93,0,0,0-1,.37l-.48-1.06a5.29,5.29,0,0,1,1.25-.46,5.93,5.93,0,0,1,1.28-.15,3,3,0,0,1,2,.58,2.31,2.31,0,0,1,.68,1.84v4.73Zm-2.23-1a1.86,1.86,0,0,0,1.31-.45,1.66,1.66,0,0,0,.49-1.28v-.61l-.9,0a3.13,3.13,0,0,0-1.53.35,1.08,1.08,0,0,0-.48,1,.91.91,0,0,0,.28.72A1.18,1.18,0,0,0,108,495.63Z"/><path class="cls-2" d="M117.8,496.77a2.44,2.44,0,0,1-2-.95,4.3,4.3,0,0,1-.73-2.67,4.25,4.25,0,0,1,.75-2.68,2.44,2.44,0,0,1,2.06-1,2.8,2.8,0,0,1,1.18.24,2.6,2.6,0,0,1,.94.8H120l.16-.92h1.24v10.15h-1.49v-3c0-.18,0-.38,0-.59s0-.37,0-.48h-.09A2.3,2.3,0,0,1,117.8,496.77Zm.43-1.19a1.6,1.6,0,0,0,1.35-.54,2.75,2.75,0,0,0,.41-1.64v-.24a3.2,3.2,0,0,0-.43-1.87,1.57,1.57,0,0,0-1.36-.57,1.38,1.38,0,0,0-1.22.63,3.29,3.29,0,0,0-.42,1.82C116.56,494.78,117.12,495.58,118.23,495.58Z"/><path class="cls-2" d="M130.59,496.65l-.21-.93h-.08a2,2,0,0,1-.88.77,2.9,2.9,0,0,1-1.31.28,2.6,2.6,0,0,1-1.91-.63,2.7,2.7,0,0,1-.62-1.93v-4.59h1.5V494a1.88,1.88,0,0,0,.33,1.21,1.25,1.25,0,0,0,1,.41,1.66,1.66,0,0,0,1.39-.57,3.11,3.11,0,0,0,.44-1.88v-3.5h1.49v7Z"/><path class="cls-2" d="M135.91,488.77v-.16c.24-.3.49-.63.74-1s.46-.68.61-.93H139v.13c-.22.26-.55.59-1,1s-.81.72-1.11.95Zm1.57,7.88H136v-7h1.5Z"/><path class="cls-2" d="M150.73,496.77a2.46,2.46,0,0,1-2.07-1h-.09q.09.9.09,1.08v2.88h-1.49V489.62h1.21l.21.94h.07a2.35,2.35,0,0,1,2.1-1.06,2.46,2.46,0,0,1,2.05.95,4.35,4.35,0,0,1,.73,2.67,4.3,4.3,0,0,1-.75,2.69A2.45,2.45,0,0,1,150.73,496.77Zm-.36-6a1.56,1.56,0,0,0-1.3.52,2.7,2.7,0,0,0-.41,1.66v.22a3.28,3.28,0,0,0,.41,1.86,1.51,1.51,0,0,0,1.33.57,1.35,1.35,0,0,0,1.19-.63,3.3,3.3,0,0,0,.42-1.81,3.16,3.16,0,0,0-.42-1.79A1.38,1.38,0,0,0,150.37,490.72Z"/><path class="cls-2" d="M161.76,496.65l-.3-1h-.05a2.93,2.93,0,0,1-1,.87,3.19,3.19,0,0,1-1.32.23,2.22,2.22,0,0,1-1.62-.56,2.08,2.08,0,0,1-.58-1.58,1.88,1.88,0,0,1,.8-1.64,4.81,4.81,0,0,1,2.46-.6l1.21,0V492a1.44,1.44,0,0,0-.31-1,1.28,1.28,0,0,0-1-.33,3.28,3.28,0,0,0-1,.16,8.93,8.93,0,0,0-1,.37l-.48-1.06a5.29,5.29,0,0,1,1.25-.46,5.93,5.93,0,0,1,1.28-.15,3,3,0,0,1,2,.58,2.27,2.27,0,0,1,.68,1.84v4.73Zm-2.22-1a1.85,1.85,0,0,0,1.3-.45,1.66,1.66,0,0,0,.49-1.28v-.61l-.9,0a3.13,3.13,0,0,0-1.53.35,1.08,1.08,0,0,0-.48,1,.91.91,0,0,0,.28.72A1.19,1.19,0,0,0,159.54,495.63Z"/><path class="cls-2" d="M170.56,489.5a3.73,3.73,0,0,1,.74.06l-.14,1.39a3,3,0,0,0-.66-.08,1.94,1.94,0,0,0-1.46.59,2.1,2.1,0,0,0-.55,1.52v3.67H167v-7h1.17l.19,1.24h.08a2.72,2.72,0,0,1,.91-1A2.13,2.13,0,0,1,170.56,489.5Z"/><path class="cls-2" d="M179.09,496.65l-.3-1h0a2.93,2.93,0,0,1-1,.87,3.16,3.16,0,0,1-1.32.23,2.22,2.22,0,0,1-1.62-.56,2.08,2.08,0,0,1-.58-1.58A1.86,1.86,0,0,1,175,493a4.74,4.74,0,0,1,2.45-.6l1.22,0V492a1.44,1.44,0,0,0-.32-1,1.28,1.28,0,0,0-1-.33,3.28,3.28,0,0,0-1,.16,9.85,9.85,0,0,0-.95.37l-.48-1.06a5.46,5.46,0,0,1,1.25-.46,5.93,5.93,0,0,1,1.28-.15,3,3,0,0,1,2,.58,2.28,2.28,0,0,1,.69,1.84v4.73Zm-2.22-1a1.85,1.85,0,0,0,1.3-.45,1.66,1.66,0,0,0,.49-1.28v-.61l-.9,0a3.13,3.13,0,0,0-1.53.35,1.08,1.08,0,0,0-.48,1,.91.91,0,0,0,.28.72A1.22,1.22,0,0,0,176.87,495.63Z"/><path class="cls-2" d="M192.63,496.77a3.07,3.07,0,0,1-2.42-.93,4.7,4.7,0,0,1,0-5.39,3.23,3.23,0,0,1,2.5-.95,4.77,4.77,0,0,1,2,.41l-.45,1.2a4.42,4.42,0,0,0-1.56-.37c-1.22,0-1.82.81-1.82,2.42a2.88,2.88,0,0,0,.45,1.77,1.57,1.57,0,0,0,1.33.6,3.84,3.84,0,0,0,1.89-.5v1.3a2.92,2.92,0,0,1-.86.34A5,5,0,0,1,192.63,496.77Z"/><path class="cls-2" d="M204.56,493.12a3.85,3.85,0,0,1-.89,2.69,3.14,3.14,0,0,1-2.45,1,3.41,3.41,0,0,1-1.74-.44,2.89,2.89,0,0,1-1.16-1.28,4.35,4.35,0,0,1-.41-1.93,3.76,3.76,0,0,1,.88-2.66,3.15,3.15,0,0,1,2.46-1,3.11,3.11,0,0,1,2.42,1A3.78,3.78,0,0,1,204.56,493.12Zm-5.11,0c0,1.62.59,2.43,1.79,2.43s1.78-.81,1.78-2.43-.6-2.4-1.79-2.4a1.5,1.5,0,0,0-1.36.62A3.16,3.16,0,0,0,199.45,493.12Z"/><path class="cls-2" d="M214.54,496.65H213v-4.32a1.86,1.86,0,0,0-.33-1.21,1.23,1.23,0,0,0-1-.4,1.64,1.64,0,0,0-1.39.56,3.08,3.08,0,0,0-.43,1.87v3.5h-1.5v-7h1.17l.21.92h.08a2.07,2.07,0,0,1,.9-.77,3,3,0,0,1,1.29-.27,2.25,2.25,0,0,1,2.53,2.57Z"/><path class="cls-2" d="M224.93,493.12a3.84,3.84,0,0,1-.88,2.69,3.16,3.16,0,0,1-2.45,1,3.41,3.41,0,0,1-1.74-.44,2.89,2.89,0,0,1-1.16-1.28,4.22,4.22,0,0,1-.41-1.93,3.76,3.76,0,0,1,.88-2.66,3.55,3.55,0,0,1,4.88,0A3.78,3.78,0,0,1,224.93,493.12Zm-5.1,0c0,1.62.59,2.43,1.79,2.43s1.78-.81,1.78-2.43-.6-2.4-1.79-2.4a1.5,1.5,0,0,0-1.36.62A3.16,3.16,0,0,0,219.83,493.12Z"/><path class="cls-2" d="M231.57,496.77a3.07,3.07,0,0,1-2.42-.93,4.7,4.7,0,0,1,0-5.39,3.23,3.23,0,0,1,2.5-.95,4.77,4.77,0,0,1,2,.41l-.45,1.2a4.42,4.42,0,0,0-1.56-.37c-1.21,0-1.82.81-1.82,2.42a2.88,2.88,0,0,0,.45,1.77,1.58,1.58,0,0,0,1.33.6,3.82,3.82,0,0,0,1.89-.5v1.3a2.92,2.92,0,0,1-.86.34A5,5,0,0,1,231.57,496.77Z"/><path class="cls-2" d="M240.34,496.77a3.41,3.41,0,0,1-2.56-.95,3.63,3.63,0,0,1-.93-2.63,4,4,0,0,1,.86-2.71,3,3,0,0,1,2.35-1,2.91,2.91,0,0,1,2.2.84,3.23,3.23,0,0,1,.81,2.32v.81h-4.68a2.27,2.27,0,0,0,.55,1.57,1.92,1.92,0,0,0,1.47.55,5.36,5.36,0,0,0,1.16-.12,5.21,5.21,0,0,0,1.15-.39v1.22a4.64,4.64,0,0,1-1.11.36A6.07,6.07,0,0,1,240.34,496.77Zm-.28-6.14a1.51,1.51,0,0,0-1.14.45,2.21,2.21,0,0,0-.51,1.31h3.19a1.92,1.92,0,0,0-.42-1.31A1.43,1.43,0,0,0,240.06,490.63Z"/><path class="cls-2" d="M250.42,489.5a3.8,3.8,0,0,1,.74.06L251,491a2.84,2.84,0,0,0-.66-.08,1.92,1.92,0,0,0-1.45.59,2.1,2.1,0,0,0-.55,1.52v3.67h-1.49v-7H248l.2,1.24h.08a2.64,2.64,0,0,1,.91-1A2.1,2.1,0,0,1,250.42,489.5Z"/><path class="cls-2" d="M262.64,495.57a3.46,3.46,0,0,0,1.09-.18v1.13a3.16,3.16,0,0,1-.64.18,4.28,4.28,0,0,1-.81.07c-1.41,0-2.12-.74-2.12-2.23v-3.79h-1v-.66l1-.54.51-1.49h.92v1.56h2v1.13h-2v3.76a1.06,1.06,0,0,0,.27.8A1,1,0,0,0,262.64,495.57Z"/><path class="cls-2" d="M267.14,487.76a.8.8,0,0,1,.22-.61.81.81,0,0,1,.62-.22.76.76,0,0,1,.83.83.82.82,0,0,1-.22.61.84.84,0,0,1-.61.21.85.85,0,0,1-.62-.21A.82.82,0,0,1,267.14,487.76Zm1.58,8.89h-1.49v-7h1.49Z"/><path class="cls-2" d="M276.5,496.77a2.45,2.45,0,0,1-2.06-1h-.09q.09.9.09,1.08v2.88h-1.5V489.62h1.21l.21.94h.08a2.32,2.32,0,0,1,2.09-1.06,2.45,2.45,0,0,1,2.05.95,5.22,5.22,0,0,1,0,5.36A2.45,2.45,0,0,1,276.5,496.77Zm-.36-6a1.56,1.56,0,0,0-1.3.52,2.7,2.7,0,0,0-.4,1.66v.22a3.29,3.29,0,0,0,.4,1.86,1.51,1.51,0,0,0,1.33.57,1.35,1.35,0,0,0,1.19-.63,3.3,3.3,0,0,0,.42-1.81,3.16,3.16,0,0,0-.42-1.79A1.38,1.38,0,0,0,276.14,490.72Z"/><path class="cls-2" d="M287.85,494.65a1.82,1.82,0,0,1-.75,1.57,3.54,3.54,0,0,1-2.14.55,5.15,5.15,0,0,1-2.26-.42v-1.29a5.59,5.59,0,0,0,2.31.57c.92,0,1.38-.28,1.38-.83a.69.69,0,0,0-.16-.45,1.84,1.84,0,0,0-.5-.36,7.27,7.27,0,0,0-1-.44,4.37,4.37,0,0,1-1.64-.94,1.69,1.69,0,0,1-.43-1.21,1.58,1.58,0,0,1,.73-1.4,3.38,3.38,0,0,1,2-.5,5.53,5.53,0,0,1,2.34.5l-.49,1.12a5.22,5.22,0,0,0-1.91-.47c-.78,0-1.18.23-1.18.68a.67.67,0,0,0,.31.55,6.08,6.08,0,0,0,1.34.63,6.23,6.23,0,0,1,1.27.62,1.84,1.84,0,0,1,.58.64A1.87,1.87,0,0,1,287.85,494.65Z"/><path class="cls-2" d="M299.39,496.77a2.48,2.48,0,0,1-2.05-.95,4.28,4.28,0,0,1-.73-2.67,4.35,4.35,0,0,1,.74-2.69,2.48,2.48,0,0,1,2.07-1,2.44,2.44,0,0,1,2.11,1h.07a9,9,0,0,1-.1-1.19v-2.56H303v9.88h-1.16l-.26-.93h-.07A2.39,2.39,0,0,1,299.39,496.77Zm.4-1.2a1.62,1.62,0,0,0,1.34-.52,2.75,2.75,0,0,0,.44-1.68v-.21a3.11,3.11,0,0,0-.44-1.88,1.56,1.56,0,0,0-1.35-.56,1.37,1.37,0,0,0-1.21.63,3.33,3.33,0,0,0-.43,1.82,3.14,3.14,0,0,0,.42,1.78A1.39,1.39,0,0,0,299.79,495.57Z"/><path class="cls-2" d="M310.29,496.77a3.43,3.43,0,0,1-2.57-.95,3.66,3.66,0,0,1-.92-2.63,4,4,0,0,1,.86-2.71,3,3,0,0,1,2.35-1,2.91,2.91,0,0,1,2.2.84,3.23,3.23,0,0,1,.8,2.32v.81h-4.67a2.27,2.27,0,0,0,.55,1.57,1.91,1.91,0,0,0,1.47.55,5.2,5.2,0,0,0,1.15-.12,5.11,5.11,0,0,0,1.16-.39v1.22a4.79,4.79,0,0,1-1.11.36A6.13,6.13,0,0,1,310.29,496.77Zm-.28-6.14a1.51,1.51,0,0,0-1.14.45,2.21,2.21,0,0,0-.51,1.31h3.19a1.92,1.92,0,0,0-.42-1.31A1.43,1.43,0,0,0,310,490.63Z"/><path class="cls-2" d="M44,510.25a1.82,1.82,0,0,1-.75,1.57,3.52,3.52,0,0,1-2.14.55,5.07,5.07,0,0,1-2.25-.42v-1.29a5.51,5.51,0,0,0,2.3.57c.92,0,1.38-.28,1.38-.83a.68.68,0,0,0-.15-.45,1.72,1.72,0,0,0-.51-.36,7.27,7.27,0,0,0-1-.44,4.37,4.37,0,0,1-1.64-.94,1.75,1.75,0,0,1-.43-1.21,1.6,1.6,0,0,1,.73-1.4,3.38,3.38,0,0,1,2-.5,5.53,5.53,0,0,1,2.34.5l-.48,1.12a5.31,5.31,0,0,0-1.91-.47c-.79,0-1.18.23-1.18.68a.66.66,0,0,0,.3.55,6.23,6.23,0,0,0,1.35.63,6.09,6.09,0,0,1,1.26.62,1.75,1.75,0,0,1,.58.64A1.87,1.87,0,0,1,44,510.25Z"/><path class="cls-2" d="M50.76,512.37a3.43,3.43,0,0,1-2.56-.95,3.66,3.66,0,0,1-.92-2.63,4,4,0,0,1,.86-2.71,3,3,0,0,1,2.35-1,2.91,2.91,0,0,1,2.2.84,3.22,3.22,0,0,1,.8,2.33v.8H48.82a2.27,2.27,0,0,0,.55,1.57,1.9,1.9,0,0,0,1.46.55,5.41,5.41,0,0,0,2.32-.51v1.22a4.79,4.79,0,0,1-1.11.36A6.17,6.17,0,0,1,50.76,512.37Zm-.27-6.14a1.51,1.51,0,0,0-1.14.45,2.21,2.21,0,0,0-.51,1.31H52a2,2,0,0,0-.42-1.32A1.45,1.45,0,0,0,50.49,506.23Z"/><path class="cls-2" d="M63.21,505.22V506l-1.2.23a1.82,1.82,0,0,1,.27.54,2,2,0,0,1,.11.69,2.08,2.08,0,0,1-.75,1.7,3.09,3.09,0,0,1-2.06.63,3.76,3.76,0,0,1-.61-.05.83.83,0,0,0-.48.69.4.4,0,0,0,.22.37,2,2,0,0,0,.83.12h1.23a2.71,2.71,0,0,1,1.76.49,1.75,1.75,0,0,1,.6,1.43,2.06,2.06,0,0,1-1,1.84,5.17,5.17,0,0,1-2.84.65,3.9,3.9,0,0,1-2.19-.51,1.63,1.63,0,0,1-.76-1.45,1.57,1.57,0,0,1,.41-1.09,2.27,2.27,0,0,1,1.15-.61,1.1,1.1,0,0,1-.5-.41,1.07,1.07,0,0,1,0-1.26,2.73,2.73,0,0,1,.66-.54,1.9,1.9,0,0,1-.88-.76,2.49,2.49,0,0,1,.38-3,3,3,0,0,1,2-.63,4.64,4.64,0,0,1,.63,0l.49.08Zm-5.52,8.12a.82.82,0,0,0,.44.74,2.43,2.43,0,0,0,1.22.26,3.75,3.75,0,0,0,1.82-.35,1,1,0,0,0,.59-.93.71.71,0,0,0-.32-.65,2.66,2.66,0,0,0-1.22-.19H59.09a1.59,1.59,0,0,0-1,.3A1,1,0,0,0,57.69,513.34Zm.65-5.84a1.37,1.37,0,0,0,.34,1,1.26,1.26,0,0,0,1,.36c.86,0,1.29-.46,1.29-1.39a1.52,1.52,0,0,0-.32-1.05,1.19,1.19,0,0,0-1-.37,1.27,1.27,0,0,0-1,.36A1.59,1.59,0,0,0,58.34,507.5Z"/><path class="cls-2" d="M71.56,512.24l-.21-.91h-.08a2.12,2.12,0,0,1-.88.76,3,3,0,0,1-1.32.28,2.58,2.58,0,0,1-1.9-.63,2.65,2.65,0,0,1-.63-1.93v-4.59h1.51v4.33a1.88,1.88,0,0,0,.33,1.21,1.25,1.25,0,0,0,1,.41,1.63,1.63,0,0,0,1.38-.57,3,3,0,0,0,.44-1.88v-3.5h1.5v7Z"/><path class="cls-2" d="M80.51,505.1a3.73,3.73,0,0,1,.74.06l-.14,1.39a2.84,2.84,0,0,0-.66-.07,1.9,1.9,0,0,0-1.45.58,2.11,2.11,0,0,0-.56,1.52v3.66H77v-7h1.17l.19,1.24h.08a2.72,2.72,0,0,1,.91-1A2.15,2.15,0,0,1,80.51,505.1Z"/><path class="cls-2" d="M84.56,503.37a.81.81,0,0,1,.22-.62.85.85,0,0,1,.62-.22.87.87,0,0,1,.62.22.85.85,0,0,1,.21.62A.8.8,0,0,1,86,504a.83.83,0,0,1-.62.22.81.81,0,0,1-.62-.22A.77.77,0,0,1,84.56,503.37Zm1.58,8.87H84.65v-7h1.49Z"/><path class="cls-2" d="M92.73,512.37a2.46,2.46,0,0,1-2-.95,4.28,4.28,0,0,1-.73-2.67,4.35,4.35,0,0,1,.74-2.69,2.48,2.48,0,0,1,2.07-1,2.44,2.44,0,0,1,2.11,1h.07a9.29,9.29,0,0,1-.11-1.19v-2.56h1.5v9.87H95.16l-.26-.91h-.07A2.38,2.38,0,0,1,92.73,512.37Zm.4-1.2a1.63,1.63,0,0,0,1.34-.52A2.69,2.69,0,0,0,94.9,509v-.21a3.17,3.17,0,0,0-.43-1.89,1.59,1.59,0,0,0-1.35-.55,1.37,1.37,0,0,0-1.21.63,3.24,3.24,0,0,0-.43,1.82,3.12,3.12,0,0,0,.42,1.78A1.38,1.38,0,0,0,93.13,511.17Z"/><path class="cls-2" d="M105,512.24l-.3-1h-.05a2.82,2.82,0,0,1-1,.87,3.29,3.29,0,0,1-1.32.23,2.22,2.22,0,0,1-1.62-.56,2.11,2.11,0,0,1-.58-1.58,1.83,1.83,0,0,1,.81-1.63,4.7,4.7,0,0,1,2.46-.61l1.21,0v-.37a1.44,1.44,0,0,0-.32-1,1.28,1.28,0,0,0-1-.33,3.28,3.28,0,0,0-1,.16,7.79,7.79,0,0,0-.95.37l-.48-1.06a5.46,5.46,0,0,1,1.25-.46,5.93,5.93,0,0,1,1.28-.15,3,3,0,0,1,2,.58,2.28,2.28,0,0,1,.69,1.84v4.72Zm-2.22-1a1.84,1.84,0,0,0,1.3-.45,1.66,1.66,0,0,0,.5-1.28v-.61l-.91,0a3.13,3.13,0,0,0-1.53.35,1.08,1.08,0,0,0-.48,1,1,1,0,0,0,.28.72A1.22,1.22,0,0,0,102.73,511.23Z"/><path class="cls-2" d="M112.56,512.37a2.45,2.45,0,0,1-2-.95,5.19,5.19,0,0,1,0-5.36,2.48,2.48,0,0,1,2.06-1,2.41,2.41,0,0,1,2.11,1h.08a9.29,9.29,0,0,1-.11-1.19v-2.56h1.5v9.87H115l-.26-.91h-.07A2.4,2.4,0,0,1,112.56,512.37Zm.4-1.2a1.65,1.65,0,0,0,1.34-.52,2.75,2.75,0,0,0,.43-1.68v-.21a3.17,3.17,0,0,0-.43-1.89,1.61,1.61,0,0,0-1.35-.55,1.36,1.36,0,0,0-1.21.63,3.24,3.24,0,0,0-.43,1.82,3.21,3.21,0,0,0,.41,1.78A1.4,1.4,0,0,0,113,511.17Z"/><path class="cls-2" d="M124.79,505.22h1.62l1.43,4a7.23,7.23,0,0,1,.43,1.6h0a7.3,7.3,0,0,1,.21-.84c.1-.34.64-1.91,1.62-4.74h1.61l-3,8a2.84,2.84,0,0,1-2.72,2.19,4.44,4.44,0,0,1-1-.11v-1.18a3.57,3.57,0,0,0,.77.08,1.59,1.59,0,0,0,1.52-1.25l.26-.67Z"/><path class="cls-2" d="M144.78,512.24l-.3-1h0a2.82,2.82,0,0,1-1,.87,3.29,3.29,0,0,1-1.32.23,2.22,2.22,0,0,1-1.62-.56,2.11,2.11,0,0,1-.58-1.58,1.83,1.83,0,0,1,.81-1.63,4.68,4.68,0,0,1,2.46-.61l1.21,0v-.37a1.44,1.44,0,0,0-.32-1,1.28,1.28,0,0,0-1-.33,3.28,3.28,0,0,0-1,.16,7.79,7.79,0,0,0-.95.37l-.48-1.06a5.46,5.46,0,0,1,1.25-.46,5.93,5.93,0,0,1,1.28-.15,3,3,0,0,1,2,.58,2.28,2.28,0,0,1,.69,1.84v4.72Zm-2.22-1a1.84,1.84,0,0,0,1.3-.45,1.66,1.66,0,0,0,.49-1.28v-.61l-.9,0a3.13,3.13,0,0,0-1.53.35,1.08,1.08,0,0,0-.48,1,.91.91,0,0,0,.28.72A1.22,1.22,0,0,0,142.56,511.23Z"/><path class="cls-2" d="M149,505.22h1.62l1.43,4a7.82,7.82,0,0,1,.43,1.6h.05a7.3,7.3,0,0,1,.21-.84c.1-.34.64-1.91,1.61-4.74h1.61l-3,8a2.84,2.84,0,0,1-2.73,2.19,4.35,4.35,0,0,1-1-.11v-1.18a3.5,3.5,0,0,0,.77.08,1.57,1.57,0,0,0,1.51-1.25l.26-.67Z"/><path class="cls-2" d="M164,512.24l-.21-.91h-.08a2.08,2.08,0,0,1-.89.76,2.9,2.9,0,0,1-1.31.28,2.58,2.58,0,0,1-1.9-.63,2.65,2.65,0,0,1-.63-1.93v-4.59h1.51v4.33a1.82,1.82,0,0,0,.33,1.21,1.25,1.25,0,0,0,1,.41,1.63,1.63,0,0,0,1.38-.57,3.11,3.11,0,0,0,.44-1.88v-3.5h1.5v7Z"/><path class="cls-2" d="M171.8,512.37a2.45,2.45,0,0,1-2.05-.95,4.22,4.22,0,0,1-.74-2.67,4.28,4.28,0,0,1,.75-2.69,2.69,2.69,0,0,1,4.17.06H174a9,9,0,0,1-.1-1.19v-2.56h1.5v9.87h-1.17l-.26-.91h-.07A2.4,2.4,0,0,1,171.8,512.37Zm.4-1.2a1.65,1.65,0,0,0,1.34-.52A2.75,2.75,0,0,0,174,509v-.21a3.25,3.25,0,0,0-.43-1.89,1.61,1.61,0,0,0-1.36-.55A1.37,1.37,0,0,0,171,507a3.33,3.33,0,0,0-.42,1.82,3.13,3.13,0,0,0,.41,1.78A1.39,1.39,0,0,0,172.2,511.17Z"/><path class="cls-2" d="M184,512.24l-.29-1h-.05a2.77,2.77,0,0,1-1,.87,3.29,3.29,0,0,1-1.32.23,2.18,2.18,0,0,1-1.61-.56,2.08,2.08,0,0,1-.58-1.58,1.85,1.85,0,0,1,.8-1.63,4.7,4.7,0,0,1,2.46-.61l1.21,0v-.37a1.44,1.44,0,0,0-.31-1,1.3,1.3,0,0,0-1-.33,3.22,3.22,0,0,0-1,.16,7.2,7.2,0,0,0-.95.37l-.49-1.06a5.64,5.64,0,0,1,1.25-.46,6,6,0,0,1,1.29-.15,3,3,0,0,1,2,.58,2.31,2.31,0,0,1,.68,1.84v4.72Zm-2.22-1a1.88,1.88,0,0,0,1.31-.45,1.66,1.66,0,0,0,.49-1.28v-.61l-.9,0a3.1,3.1,0,0,0-1.53.35,1.08,1.08,0,0,0-.48,1,.91.91,0,0,0,.28.72A1.18,1.18,0,0,0,181.79,511.23Z"/><path class="cls-2" d="M197.56,512.37a3.09,3.09,0,0,1-2.43-.93,4.74,4.74,0,0,1,0-5.39,3.2,3.2,0,0,1,2.51-.95,4.8,4.8,0,0,1,2,.41l-.45,1.2a4.42,4.42,0,0,0-1.56-.37c-1.22,0-1.83.81-1.83,2.42a2.82,2.82,0,0,0,.46,1.77,1.55,1.55,0,0,0,1.33.6,3.81,3.81,0,0,0,1.88-.5v1.3a2.86,2.86,0,0,1-.85.34A5,5,0,0,1,197.56,512.37Z"/><path class="cls-2" d="M209.48,508.72a3.84,3.84,0,0,1-.88,2.69,3.18,3.18,0,0,1-2.46,1,3.46,3.46,0,0,1-1.74-.44,3,3,0,0,1-1.16-1.28,4.35,4.35,0,0,1-.4-1.93,3.81,3.81,0,0,1,.87-2.66,3.19,3.19,0,0,1,2.47-1,3.06,3.06,0,0,1,2.41,1A3.74,3.74,0,0,1,209.48,508.72Zm-5.11,0q0,2.43,1.8,2.43c1.18,0,1.78-.81,1.78-2.43s-.6-2.4-1.79-2.4a1.53,1.53,0,0,0-1.37.62A3.16,3.16,0,0,0,204.37,508.72Z"/><path class="cls-2" d="M219.46,512.24H218v-4.31a1.86,1.86,0,0,0-.33-1.21,1.25,1.25,0,0,0-1-.4,1.64,1.64,0,0,0-1.38.55,3.13,3.13,0,0,0-.44,1.88v3.49h-1.49v-7h1.17l.21.93h.07a2,2,0,0,1,.9-.78,3.05,3.05,0,0,1,1.3-.27,2.25,2.25,0,0,1,2.52,2.57Z"/><path class="cls-2" d="M231.72,511.17a3.46,3.46,0,0,0,1.09-.18v1.13a3.16,3.16,0,0,1-.64.18,4.28,4.28,0,0,1-.81.07c-1.41,0-2.12-.74-2.12-2.23v-3.79h-1v-.66l1-.54.51-1.49h.92v1.56h2v1.13h-2v3.76a1.06,1.06,0,0,0,.27.8A1,1,0,0,0,231.72,511.17Z"/><path class="cls-2" d="M241.26,512.24l-.21-.91H241a2.12,2.12,0,0,1-.88.76,2.93,2.93,0,0,1-1.31.28,2.6,2.6,0,0,1-1.91-.63,2.65,2.65,0,0,1-.63-1.93v-4.59h1.51v4.33a1.88,1.88,0,0,0,.33,1.21,1.25,1.25,0,0,0,1,.41,1.63,1.63,0,0,0,1.38-.57,3,3,0,0,0,.44-1.88v-3.5h1.5v7Z"/><path class="cls-2" d="M255.71,505.1a2.44,2.44,0,0,1,2,.95,5.25,5.25,0,0,1,0,5.36,2.48,2.48,0,0,1-2.07,1,2.46,2.46,0,0,1-2.07-1h-.1l-.27.83h-1.12v-9.87h1.49v2.35c0,.17,0,.43,0,.77s0,.56,0,.66h.06A2.39,2.39,0,0,1,255.71,505.1Zm-.39,1.22a1.51,1.51,0,0,0-1.3.53,3.11,3.11,0,0,0-.41,1.77v.1a3.28,3.28,0,0,0,.41,1.86,1.51,1.51,0,0,0,1.33.57,1.35,1.35,0,0,0,1.2-.62,3.38,3.38,0,0,0,.41-1.82C257,507.11,256.41,506.32,255.32,506.32Z"/><path class="cls-2" d="M266.71,512.24l-.3-1h-.05a2.82,2.82,0,0,1-1,.87,3.36,3.36,0,0,1-1.32.23,2.22,2.22,0,0,1-1.62-.56,2.08,2.08,0,0,1-.58-1.58,1.85,1.85,0,0,1,.8-1.63,4.7,4.7,0,0,1,2.46-.61l1.21,0v-.37a1.44,1.44,0,0,0-.31-1,1.28,1.28,0,0,0-1-.33,3.28,3.28,0,0,0-1,.16,7.2,7.2,0,0,0-1,.37l-.48-1.06a5.29,5.29,0,0,1,1.25-.46,5.93,5.93,0,0,1,1.28-.15,3,3,0,0,1,2,.58,2.27,2.27,0,0,1,.68,1.84v4.72Zm-2.22-1a1.85,1.85,0,0,0,1.3-.45,1.66,1.66,0,0,0,.49-1.28v-.61l-.9,0a3.13,3.13,0,0,0-1.53.35,1.08,1.08,0,0,0-.48,1,.91.91,0,0,0,.28.72A1.19,1.19,0,0,0,264.49,511.23Z"/><path class="cls-2" d="M278.12,512.24h-1.49v-4.31a1.86,1.86,0,0,0-.33-1.21,1.25,1.25,0,0,0-1-.4,1.64,1.64,0,0,0-1.38.55,3.13,3.13,0,0,0-.44,1.88v3.49H272v-7h1.17l.21.93h.07a2,2,0,0,1,.9-.78,3.05,3.05,0,0,1,1.3-.27,2.25,2.25,0,0,1,2.52,2.57Z"/><path class="cls-2" d="M285.12,512.37a3.07,3.07,0,0,1-2.42-.93,4.7,4.7,0,0,1,0-5.39,3.19,3.19,0,0,1,2.5-.95,4.73,4.73,0,0,1,2,.41l-.45,1.2a4.42,4.42,0,0,0-1.56-.37c-1.21,0-1.82.81-1.82,2.42a2.88,2.88,0,0,0,.45,1.77,1.58,1.58,0,0,0,1.33.6,3.82,3.82,0,0,0,1.89-.5v1.3a3,3,0,0,1-.85.34A5.07,5.07,0,0,1,285.12,512.37Z"/><path class="cls-2" d="M295.22,512.24l-.3-1h-.05a2.77,2.77,0,0,1-1,.87,3.29,3.29,0,0,1-1.32.23,2.19,2.19,0,0,1-1.61-.56,2.08,2.08,0,0,1-.58-1.58,1.85,1.85,0,0,1,.8-1.63,4.7,4.7,0,0,1,2.46-.61l1.21,0v-.37a1.44,1.44,0,0,0-.31-1,1.29,1.29,0,0,0-1-.33,3.26,3.26,0,0,0-1,.16,7.2,7.2,0,0,0-1,.37l-.48-1.06a5.29,5.29,0,0,1,1.25-.46,5.93,5.93,0,0,1,1.28-.15,3,3,0,0,1,2,.58,2.31,2.31,0,0,1,.68,1.84v4.72Zm-2.23-1a1.86,1.86,0,0,0,1.31-.45,1.66,1.66,0,0,0,.49-1.28v-.61l-.9,0a3.13,3.13,0,0,0-1.53.35,1.08,1.08,0,0,0-.48,1,.91.91,0,0,0,.28.72A1.18,1.18,0,0,0,293,511.23Z"/><path class="cls-2" d="M309,512.37a3.43,3.43,0,0,1-2.56-.95,3.66,3.66,0,0,1-.92-2.63,4,4,0,0,1,.85-2.71,3,3,0,0,1,2.36-1,2.91,2.91,0,0,1,2.2.84,3.26,3.26,0,0,1,.8,2.33v.8H307a2.33,2.33,0,0,0,.56,1.57,1.89,1.89,0,0,0,1.46.55,5.3,5.3,0,0,0,1.16-.12,5,5,0,0,0,1.15-.39v1.22a4.57,4.57,0,0,1-1.1.36A6.17,6.17,0,0,1,309,512.37Zm-.27-6.14a1.51,1.51,0,0,0-1.14.45,2.09,2.09,0,0,0-.51,1.31h3.19a2,2,0,0,0-.42-1.32A1.47,1.47,0,0,0,308.72,506.23Z"/><path class="cls-2" d="M321.69,512.24h-1.5v-4.31a1.86,1.86,0,0,0-.33-1.21,1.25,1.25,0,0,0-1-.4,1.64,1.64,0,0,0-1.38.55,3.13,3.13,0,0,0-.44,1.88v3.49h-1.49v-7h1.17l.21.93H317a2.05,2.05,0,0,1,.91-.78,3,3,0,0,1,1.29-.27,2.25,2.25,0,0,1,2.53,2.57Z"/><path class="cls-2" d="M40.77,527.85H39.28V518h1.49Z"/><path class="cls-2" d="M44.92,520v-.16c.24-.3.49-.63.74-1s.46-.68.61-.93H48V518c-.22.26-.55.59-1,1s-.81.72-1.11,1Zm1.57,7.88H45v-7h1.5Z"/><path class="cls-2" d="M56.89,527.85h-1.5v-4.32a1.86,1.86,0,0,0-.33-1.21,1.23,1.23,0,0,0-1-.4,1.64,1.64,0,0,0-1.39.56,3.07,3.07,0,0,0-.44,1.87v3.5H50.71v-7h1.17l.21.91h.08a2.07,2.07,0,0,1,.9-.77,3,3,0,0,1,1.29-.27,2.25,2.25,0,0,1,2.53,2.57Z"/><path class="cls-2" d="M64.12,528a3.43,3.43,0,0,1-2.56-1,3.66,3.66,0,0,1-.92-2.63,4,4,0,0,1,.86-2.71,3,3,0,0,1,2.35-1,2.91,2.91,0,0,1,2.2.84,3.28,3.28,0,0,1,.8,2.33v.8H62.17a2.33,2.33,0,0,0,.56,1.57,1.89,1.89,0,0,0,1.46.55,5.3,5.3,0,0,0,1.16-.12,5,5,0,0,0,1.15-.39v1.22a4.57,4.57,0,0,1-1.1.36A6.17,6.17,0,0,1,64.12,528Zm-.27-6.14a1.51,1.51,0,0,0-1.14.45,2.15,2.15,0,0,0-.51,1.31h3.19a1.92,1.92,0,0,0-.42-1.31A1.44,1.44,0,0,0,63.85,521.83Z"/><path class="cls-2" d="M75,527.85l-.3-1h0a2.84,2.84,0,0,1-1,.87,3.13,3.13,0,0,1-1.32.23,2.18,2.18,0,0,1-1.61-.56,2.08,2.08,0,0,1-.58-1.58,1.83,1.83,0,0,1,.8-1.63,4.7,4.7,0,0,1,2.46-.61l1.21,0v-.37a1.44,1.44,0,0,0-.31-1,1.3,1.3,0,0,0-1-.33,3.22,3.22,0,0,0-1,.16,8.93,8.93,0,0,0-1,.37l-.49-1.06a5.46,5.46,0,0,1,1.25-.46,6,6,0,0,1,1.29-.15,3,3,0,0,1,2,.58,2.31,2.31,0,0,1,.68,1.84v4.73Zm-2.22-1a1.88,1.88,0,0,0,1.31-.45,1.69,1.69,0,0,0,.49-1.28v-.61l-.9,0a3.14,3.14,0,0,0-1.54.35,1.08,1.08,0,0,0-.48,1,1,1,0,0,0,.28.72A1.22,1.22,0,0,0,72.81,526.83Z"/><path class="cls-2" d="M80.05,527.05a1,1,0,0,1,.24-.71,1,1,0,0,1,.7-.25.94.94,0,0,1,.71.26,1,1,0,0,1,.24.7,1,1,0,0,1-.25.72.91.91,0,0,1-.7.26.93.93,0,0,1-.7-.26A1,1,0,0,1,80.05,527.05Z"/><path class="cls-2" d="M75.39,470.66H73v-9.4h-3.1v-2h8.63v2h-3.1Z"/><path class="cls-2" d="M80.25,470.66V459.24h2.42v11.42Z"/><path class="cls-2" d="M93.43,462.8a3.48,3.48,0,0,1-1.15,2.82,4.94,4.94,0,0,1-3.28,1H88v4.06H85.54V459.24h3.65a4.88,4.88,0,0,1,3.16.89A3.28,3.28,0,0,1,93.43,462.8ZM88,464.62h.8a2.6,2.6,0,0,0,1.67-.45,1.54,1.54,0,0,0,.56-1.28,1.59,1.59,0,0,0-.47-1.26,2.16,2.16,0,0,0-1.45-.41H88Z"/><path class="cls-2" d="M102.33,467.49a3,3,0,0,1-1.11,2.44,4.87,4.87,0,0,1-3.1.89,7.21,7.21,0,0,1-3.23-.69v-2.25a13.87,13.87,0,0,0,2,.73,5.91,5.91,0,0,0,1.47.21,2,2,0,0,0,1.22-.31,1,1,0,0,0,.43-.9,1,1,0,0,0-.19-.6,2.08,2.08,0,0,0-.55-.5,13.55,13.55,0,0,0-1.48-.78,7.15,7.15,0,0,1-1.57-.94,3.58,3.58,0,0,1-.84-1.06,3.3,3.3,0,0,1,.72-3.79,4.3,4.3,0,0,1,2.84-.86,6.77,6.77,0,0,1,1.7.21,12.7,12.7,0,0,1,1.69.59l-.78,1.88a11.49,11.49,0,0,0-1.52-.52,4.75,4.75,0,0,0-1.17-.15,1.6,1.6,0,0,0-1.06.32,1.07,1.07,0,0,0-.36.84,1,1,0,0,0,.15.56,1.47,1.47,0,0,0,.47.46,15.14,15.14,0,0,0,1.53.8,6.18,6.18,0,0,1,2.2,1.53A3,3,0,0,1,102.33,467.49Z"/><path class="cls-2" d="M118,464.84a5.63,5.63,0,0,1-1.61,4.32,6.56,6.56,0,0,1-4.64,1.5h-3.23V459.24h3.58a6,6,0,0,1,4.35,1.48A5.43,5.43,0,0,1,118,464.84Zm-2.52.06q0-3.67-3.25-3.68H111v7.44h1Q115.51,468.66,115.52,464.9Z"/><path class="cls-2" d="M127,470.66H120.4V459.24H127v2h-4.16v2.51h3.87v2h-3.87v2.94H127Z"/><path class="cls-2" d="M140.26,467.49a3,3,0,0,1-1.11,2.44,4.87,4.87,0,0,1-3.1.89,7.21,7.21,0,0,1-3.23-.69v-2.25a13.87,13.87,0,0,0,2,.73,5.91,5.91,0,0,0,1.47.21,2,2,0,0,0,1.22-.31,1.11,1.11,0,0,0,.24-1.5,2.08,2.08,0,0,0-.55-.5,13.55,13.55,0,0,0-1.48-.78,7.15,7.15,0,0,1-1.57-.94,3.58,3.58,0,0,1-.84-1.06,3.3,3.3,0,0,1,.72-3.79,4.3,4.3,0,0,1,2.84-.86,6.77,6.77,0,0,1,1.7.21,12.7,12.7,0,0,1,1.69.59l-.78,1.88a11.49,11.49,0,0,0-1.52-.52,4.75,4.75,0,0,0-1.17-.15,1.6,1.6,0,0,0-1.06.32,1.07,1.07,0,0,0-.36.84,1.13,1.13,0,0,0,.14.56,1.64,1.64,0,0,0,.48.46,15.14,15.14,0,0,0,1.53.8,6.18,6.18,0,0,1,2.2,1.53A3,3,0,0,1,140.26,467.49Z"/><path class="cls-2" d="M148.91,470.66h-6.58V459.24h6.58v2h-4.16v2.51h3.87v2h-3.87v2.94h4.16Z"/><path class="cls-2" d="M155.63,464.25h4.53v5.92a12.13,12.13,0,0,1-2.07.5,13.13,13.13,0,0,1-2,.15,5,5,0,0,1-3.95-1.52,6.31,6.31,0,0,1-1.36-4.36,5.74,5.74,0,0,1,1.58-4.32,6,6,0,0,1,4.38-1.54,8.4,8.4,0,0,1,3.39.7l-.8,1.94a5.7,5.7,0,0,0-2.6-.63,3.2,3.2,0,0,0-2.52,1.06,4.06,4.06,0,0,0-.94,2.83,4.53,4.53,0,0,0,.76,2.84,2.62,2.62,0,0,0,2.21,1,8.11,8.11,0,0,0,1.54-.15v-2.39h-2.16Z"/><path class="cls-2" d="M172.18,459.24v7.39a4.27,4.27,0,0,1-.57,2.22,3.65,3.65,0,0,1-1.64,1.46,5.8,5.8,0,0,1-2.53.51,4.85,4.85,0,0,1-3.42-1.13,4,4,0,0,1-1.22-3.09v-7.36h2.41v7a2.9,2.9,0,0,0,.54,1.94,2.75,2.75,0,0,0,3.48,0,3,3,0,0,0,.53-1.95v-7Z"/><path class="cls-2" d="M177.39,466.28v4.38H175V459.24h3.33a5.69,5.69,0,0,1,3.45.85,3.39,3.39,0,0,1,.56,4.36,3.65,3.65,0,0,1-1.57,1.24q2.58,3.84,3.36,5h-2.69l-2.73-4.38Zm0-2h.79a3,3,0,0,0,1.69-.38,1.37,1.37,0,0,0,.55-1.21,1.25,1.25,0,0,0-.56-1.15,3.37,3.37,0,0,0-1.73-.35h-.74Z"/><path class="cls-2" d="M185.54,470.66V459.24H188v11.42Z"/><path class="cls-2" d="M200.31,464.84a5.63,5.63,0,0,1-1.61,4.32,6.53,6.53,0,0,1-4.63,1.5h-3.24V459.24h3.59a6,6,0,0,1,4.34,1.48A5.43,5.43,0,0,1,200.31,464.84Zm-2.52.06q0-3.67-3.25-3.68h-1.29v7.44h1C196.63,468.66,197.79,467.41,197.79,464.9Z"/><path class="cls-2" d="M209.67,470.66l-.83-2.72h-4.16l-.83,2.72h-2.61l4-11.47h3l4.05,11.47Zm-1.41-4.75L207,461.73c-.1-.32-.17-.58-.21-.76q-.25,1-1.47,4.94Z"/><path class="cls-2" d="M223.19,464.84a5.62,5.62,0,0,1-1.6,4.32,6.56,6.56,0,0,1-4.64,1.5h-3.24V459.24h3.59a6,6,0,0,1,4.34,1.48A5.39,5.39,0,0,1,223.19,464.84Zm-2.51.06c0-2.45-1.09-3.68-3.25-3.68h-1.29v7.44h1Q220.68,468.66,220.68,464.9Z"/><path class="cls-2" d="M233.27,463.94l2.38-4.7h2.61l-3.79,7v4.44h-2.4v-4.37l-3.79-7.05h2.62Z"/><path class="cls-2" d="M250.85,470.66l-.83-2.72h-4.16l-.83,2.72h-2.61l4-11.47h3l4.05,11.47Zm-1.41-4.75-1.29-4.18c-.1-.32-.17-.58-.21-.76q-.25,1-1.48,4.94Z"/><path class="cls-2" d="M258.45,463.94l2.38-4.7h2.61l-3.79,7v4.44h-2.4v-4.37l-3.79-7.05h2.62Z"/><path class="cls-2" d="M274.18,459.24v7.39a4.27,4.27,0,0,1-.57,2.22,3.65,3.65,0,0,1-1.64,1.46,5.8,5.8,0,0,1-2.53.51,4.85,4.85,0,0,1-3.42-1.13,4,4,0,0,1-1.22-3.09v-7.36h2.41v7a2.9,2.9,0,0,0,.54,1.94,2.75,2.75,0,0,0,3.48,0,3,3,0,0,0,.53-1.95v-7Z"/><path class="cls-2" d="M286.45,464.84a5.63,5.63,0,0,1-1.61,4.32,6.53,6.53,0,0,1-4.63,1.5H277V459.24h3.59a6,6,0,0,1,4.34,1.48A5.43,5.43,0,0,1,286.45,464.84Zm-2.52.06q0-3.67-3.25-3.68h-1.29v7.44h1C282.77,468.66,283.93,467.41,283.93,464.9Z"/><path class="cls-2" d="M295.81,470.66l-.83-2.72h-4.16l-.83,2.72h-2.61l4-11.47h3l4.05,11.47Zm-1.41-4.75-1.29-4.18c-.1-.32-.17-.58-.21-.76q-.25,1-1.47,4.94Z"/><path class="cls-2" d="M50.79,449.24a13.29,13.29,0,0,0,7.82,2.7v10.7c0,3.4-1.88,4.28-7.82,7.94C44.86,466.92,43,466,43,462.64v-10.7A13.27,13.27,0,0,0,50.79,449.24Zm0-2.84c-3.77,3.2-6.13,3.35-10.06,3.35v12.89c0,5.15,3.58,6.49,10.06,10.58,6.48-4.09,10.06-5.43,10.06-10.58V449.75C56.92,449.75,54.56,449.6,50.79,446.4Zm4.47,16.46-3.1-3.06,3.06-3.08-1.38-1.38-3.06,3.1-3.09-3.06-1.37,1.37,3.1,3.07-3.06,3.09,1.37,1.37,3.07-3.1,3.08,3.06Z"/></g></svg>