<svg xmlns="http://www.w3.org/2000/svg" viewBox="0 0 363 410"><defs><style>.cls-1{fill:#173961;}.cls-2,.cls-6{fill:#fff;}.cls-3{fill:none;stroke:#fff;stroke-miterlimit:10;}.cls-4{opacity:0.5;}.cls-5{fill:#bbbbba;}.cls-6{fill-rule:evenodd;}.cls-7{fill:#a9a9a9;}</style></defs><g id="Capa_2" data-name="Capa 2"><path class="cls-1" d="M52,3.78H350a0,0,0,0,1,0,0V205a40,40,0,0,1-40,40H12a0,0,0,0,1,0,0V43.78A40,40,0,0,1,52,3.78Z"/><path class="cls-1" d="M52,260.06H350a0,0,0,0,1,0,0v90.68a40,40,0,0,1-40,40H12a0,0,0,0,1,0,0V300.06A40,40,0,0,1,52,260.06Z"/></g><g id="Capa_3" data-name="Capa 3"><path class="cls-2" d="M107.79,30h3.55a6.85,6.85,0,0,1,3.53.7,2.41,2.41,0,0,1,1.1,2.2,2.78,2.78,0,0,1-.48,1.68,1.91,1.91,0,0,1-1.28.78v.08a2.52,2.52,0,0,1,1.57.91,3.3,3.3,0,0,1-.65,4.2,4.85,4.85,0,0,1-3.07.88h-4.27Zm2.42,4.53h1.41a2.49,2.49,0,0,0,1.42-.31,1.12,1.12,0,0,0,.45-1,1,1,0,0,0-.49-.95,3.06,3.06,0,0,0-1.51-.28h-1.28Zm0,1.92v3h1.58a2.32,2.32,0,0,0,1.48-.39,1.42,1.42,0,0,0,.47-1.17c0-1-.67-1.42-2-1.42Z"/><path class="cls-2" d="M123.9,41.44l-.46-1.19h-.06a3.76,3.76,0,0,1-1.24,1,4,4,0,0,1-1.66.29,2.68,2.68,0,0,1-2-.72,2.75,2.75,0,0,1-.73-2,2.3,2.3,0,0,1,1-2,5.55,5.55,0,0,1,2.93-.73l1.52,0v-.38a1.19,1.19,0,0,0-1.36-1.33,6.19,6.19,0,0,0-2.46.63l-.79-1.61a7.16,7.16,0,0,1,3.34-.79,4.19,4.19,0,0,1,2.7.77,2.83,2.83,0,0,1,.93,2.33v5.82Zm-.7-4-.93,0a2.92,2.92,0,0,0-1.54.38,1.16,1.16,0,0,0-.51,1c0,.67.38,1,1.16,1a1.82,1.82,0,0,0,1.32-.48,1.65,1.65,0,0,0,.5-1.26Z"/><path class="cls-2" d="M136.08,41.44H133.7v-5.1a2.48,2.48,0,0,0-.34-1.42,1.21,1.21,0,0,0-1.07-.48,1.63,1.63,0,0,0-1.45.67,4.25,4.25,0,0,0-.44,2.22v4.11H128V32.7h1.82l.32,1.12h.13a2.57,2.57,0,0,1,1.1-1,3.79,3.79,0,0,1,1.59-.32,3.06,3.06,0,0,1,2.31.82,3.3,3.3,0,0,1,.79,2.38Z"/><path class="cls-2" d="M142.08,41.59q-4.08,0-4.08-4.47a4.79,4.79,0,0,1,1.11-3.41,4.17,4.17,0,0,1,3.18-1.17,6.14,6.14,0,0,1,2.72.59l-.7,1.85c-.38-.16-.73-.28-1.05-.38a3.61,3.61,0,0,0-1-.14q-1.86,0-1.86,2.64c0,1.71.62,2.56,1.86,2.56a4.28,4.28,0,0,0,1.27-.18,4.72,4.72,0,0,0,1.18-.57v2a3.72,3.72,0,0,1-1.17.51A6.28,6.28,0,0,1,142.08,41.59Z"/><path class="cls-2" d="M152.31,41.44l-.47-1.19h-.06a3.57,3.57,0,0,1-1.24,1,3.89,3.89,0,0,1-1.66.29,2.68,2.68,0,0,1-2-.72,2.74,2.74,0,0,1-.72-2,2.29,2.29,0,0,1,1-2,5.59,5.59,0,0,1,2.94-.73l1.51,0v-.38a1.19,1.19,0,0,0-1.36-1.33,6.19,6.19,0,0,0-2.46.63L147,33.31a7.2,7.2,0,0,1,3.35-.79,4.15,4.15,0,0,1,2.69.77,2.81,2.81,0,0,1,.94,2.33v5.82Zm-.71-4-.92,0a3,3,0,0,0-1.55.38,1.16,1.16,0,0,0-.5,1c0,.67.38,1,1.15,1a1.84,1.84,0,0,0,1.33-.48,1.64,1.64,0,0,0,.49-1.26Z"/><path class="cls-2" d="M163.34,41.59a2.84,2.84,0,0,1-2.41-1.19,5.47,5.47,0,0,1-.88-3.31,5.54,5.54,0,0,1,.89-3.35,2.91,2.91,0,0,1,2.47-1.2,2.85,2.85,0,0,1,2.51,1.28H166a9.7,9.7,0,0,1-.18-1.74v-2.8h2.39V41.44h-1.83l-.46-1.14h-.1A2.73,2.73,0,0,1,163.34,41.59Zm.84-1.9a1.59,1.59,0,0,0,1.34-.53,3.12,3.12,0,0,0,.47-1.8V37.1a3.52,3.52,0,0,0-.44-2,1.6,1.6,0,0,0-1.41-.61,1.41,1.41,0,0,0-1.24.67,3.66,3.66,0,0,0-.44,2,3.37,3.37,0,0,0,.45,1.93A1.44,1.44,0,0,0,164.18,39.69Z"/><path class="cls-2" d="M174.66,41.59a4.49,4.49,0,0,1-3.3-1.16,4.43,4.43,0,0,1-1.19-3.3,4.85,4.85,0,0,1,1.1-3.39,3.9,3.9,0,0,1,3-1.2,3.86,3.86,0,0,1,2.88,1.05,4,4,0,0,1,1,2.92v1.15h-5.63a2.25,2.25,0,0,0,.6,1.59,2.11,2.11,0,0,0,1.58.57,7.16,7.16,0,0,0,1.49-.16,7.49,7.49,0,0,0,1.47-.53V41a5.89,5.89,0,0,1-1.34.46A8.49,8.49,0,0,1,174.66,41.59Zm-.34-7.36a1.53,1.53,0,0,0-1.19.48,2.27,2.27,0,0,0-.49,1.37H176a2,2,0,0,0-.47-1.37A1.54,1.54,0,0,0,174.32,34.23Z"/><path class="cls-2" d="M192.39,33.58a3.48,3.48,0,0,1-1.15,2.82,4.94,4.94,0,0,1-3.28,1h-1v4.07H184.5V30h3.65a4.82,4.82,0,0,1,3.16.9A3.28,3.28,0,0,1,192.39,33.58Zm-5.47,1.81h.8a2.69,2.69,0,0,0,1.67-.44,1.56,1.56,0,0,0,.56-1.29,1.58,1.58,0,0,0-.47-1.25A2.18,2.18,0,0,0,188,32h-1.1Z"/><path class="cls-2" d="M198.31,41.59A4.48,4.48,0,0,1,195,40.43a4.39,4.39,0,0,1-1.19-3.3,4.85,4.85,0,0,1,1.1-3.39,3.9,3.9,0,0,1,3-1.2,3.83,3.83,0,0,1,2.88,1.05,4,4,0,0,1,1,2.92v1.15h-5.64a2.34,2.34,0,0,0,.6,1.59,2.14,2.14,0,0,0,1.58.57,7.19,7.19,0,0,0,1.5-.16,7.65,7.65,0,0,0,1.46-.53V41a5.81,5.81,0,0,1-1.33.46A8.6,8.6,0,0,1,198.31,41.59ZM198,34.23a1.52,1.52,0,0,0-1.19.48,2.21,2.21,0,0,0-.49,1.37h3.34a2,2,0,0,0-.46-1.37A1.57,1.57,0,0,0,198,34.23Z"/><path class="cls-2" d="M208.69,32.54a3.6,3.6,0,0,1,.8.07l-.18,2.23a2.75,2.75,0,0,0-.7-.08,2.55,2.55,0,0,0-1.78.59A2.13,2.13,0,0,0,206.2,37v4.45h-2.39V32.7h1.81l.35,1.47h.12A3.25,3.25,0,0,1,207.18,33,2.75,2.75,0,0,1,208.69,32.54Z"/><path class="cls-2" d="M217.17,38.84a2.41,2.41,0,0,1-.93,2,4.59,4.59,0,0,1-2.79.7,8.46,8.46,0,0,1-1.63-.13,6.15,6.15,0,0,1-1.26-.37v-2a9.06,9.06,0,0,0,1.5.52,6,6,0,0,0,1.46.21c.87,0,1.3-.25,1.3-.75a.65.65,0,0,0-.17-.46,2.37,2.37,0,0,0-.59-.39c-.29-.15-.66-.33-1.13-.52a7.62,7.62,0,0,1-1.48-.79,2.14,2.14,0,0,1-.69-.82,2.76,2.76,0,0,1-.21-1.14,2.07,2.07,0,0,1,.9-1.8,4.34,4.34,0,0,1,2.56-.64,7.26,7.26,0,0,1,3.07.69l-.72,1.71c-.44-.18-.85-.34-1.23-.46A3.8,3.8,0,0,0,214,34.3q-1,0-1.05.57a.68.68,0,0,0,.33.56,8.84,8.84,0,0,0,1.49.69,6.67,6.67,0,0,1,1.5.78,2.32,2.32,0,0,1,.71.83A2.53,2.53,0,0,1,217.17,38.84Z"/><path class="cls-2" d="M227,37.05a4.69,4.69,0,0,1-1.13,3.34,4.08,4.08,0,0,1-3.13,1.2,4.35,4.35,0,0,1-2.22-.55A3.58,3.58,0,0,1,219,39.46a5.25,5.25,0,0,1-.52-2.41,4.63,4.63,0,0,1,1.12-3.32,4.06,4.06,0,0,1,3.14-1.19,4.35,4.35,0,0,1,2.22.55,3.55,3.55,0,0,1,1.47,1.57A5.16,5.16,0,0,1,227,37.05Zm-6,0a3.58,3.58,0,0,0,.43,2,1.75,1.75,0,0,0,2.75,0,3.72,3.72,0,0,0,.42-2,3.61,3.61,0,0,0-.42-1.94,1.53,1.53,0,0,0-1.38-.65,1.54,1.54,0,0,0-1.38.64A3.62,3.62,0,0,0,220.93,37.05Z"/><path class="cls-2" d="M237,41.44h-2.38v-5.1a2.4,2.4,0,0,0-.34-1.42,1.21,1.21,0,0,0-1.07-.48,1.6,1.6,0,0,0-1.44.67,4.14,4.14,0,0,0-.45,2.22v4.11h-2.38V32.7h1.82l.32,1.12h.13a2.57,2.57,0,0,1,1.1-1,3.86,3.86,0,0,1,1.59-.32,3,3,0,0,1,2.31.82,3.3,3.3,0,0,1,.79,2.38Z"/><path class="cls-2" d="M245,41.44l-.46-1.19h-.06a3.66,3.66,0,0,1-1.24,1,4,4,0,0,1-1.66.29,2.68,2.68,0,0,1-2-.72,2.74,2.74,0,0,1-.72-2,2.29,2.29,0,0,1,1-2,5.55,5.55,0,0,1,2.93-.73l1.52,0v-.38a1.19,1.19,0,0,0-1.36-1.33,6.19,6.19,0,0,0-2.46.63l-.79-1.61a7.16,7.16,0,0,1,3.34-.79,4.19,4.19,0,0,1,2.7.77,2.84,2.84,0,0,1,.94,2.33v5.82Zm-.7-4-.92,0a2.93,2.93,0,0,0-1.55.38,1.16,1.16,0,0,0-.51,1c0,.67.39,1,1.16,1a1.82,1.82,0,0,0,1.32-.48,1.65,1.65,0,0,0,.5-1.26Z"/><path class="cls-2" d="M255.21,38.84a2.41,2.41,0,0,1-.93,2,4.61,4.61,0,0,1-2.79.7,8.46,8.46,0,0,1-1.63-.13,6.15,6.15,0,0,1-1.26-.37v-2a8.75,8.75,0,0,0,1.5.52,6,6,0,0,0,1.46.21c.87,0,1.3-.25,1.3-.75a.65.65,0,0,0-.17-.46,2.47,2.47,0,0,0-.6-.39,11.48,11.48,0,0,0-1.12-.52,7.33,7.33,0,0,1-1.48-.79,2.14,2.14,0,0,1-.69-.82,2.76,2.76,0,0,1-.21-1.14,2.07,2.07,0,0,1,.9-1.8,4.34,4.34,0,0,1,2.56-.64,7.26,7.26,0,0,1,3.07.69l-.72,1.71c-.44-.18-.85-.34-1.23-.46A3.85,3.85,0,0,0,252,34.3c-.7,0-1.06.19-1.06.57a.69.69,0,0,0,.34.56,8.84,8.84,0,0,0,1.49.69,7.16,7.16,0,0,1,1.5.78,2.32,2.32,0,0,1,.71.83A2.53,2.53,0,0,1,255.21,38.84Z"/><rect class="cls-3" x="27.55" y="176.5" width="307.29" height="48.48" rx="2"/></g><g id="Capa_4" data-name="Capa 4"><rect class="cls-2" x="27.86" y="107.3" width="307.29" height="48.48" rx="2"/><g class="cls-4"><path class="cls-5" d="M55.85,131.17a1.14,1.14,0,0,0-1-1.19h-7.3a1.14,1.14,0,0,0-1,1.19v6.33a1.14,1.14,0,0,0,1,1.2h7.3a1.14,1.14,0,0,0,1-1.2Zm10.7,0a1.14,1.14,0,0,0-1-1.19h-7.3a1.14,1.14,0,0,0-1,1.19v6.33a1.14,1.14,0,0,0,1,1.2h7.3a1.14,1.14,0,0,0,1-1.2Zm-7.8.6h6.3v5.14h-6.3Zm-10.7,0h6.3v5.14h-6.3Zm18.5-11a1.14,1.14,0,0,0-1-1.19h-7.3a1.14,1.14,0,0,0-1,1.19v6.34a1.14,1.14,0,0,0,1,1.19h7.3a1.14,1.14,0,0,0,1-1.19Zm-10.7,0a1.14,1.14,0,0,0-1-1.19h-7.3a1.14,1.14,0,0,0-1,1.19v6.34a1.14,1.14,0,0,0,1,1.19h7.3a1.14,1.14,0,0,0,1-1.19Zm2.9.6h6.3v5.14h-6.3Zm-10.7,0h6.3v5.14h-6.3Z"/></g><path class="cls-2" d="M39.44,330.75v-9.28H41v9.28Z"/><path class="cls-2" d="M51.51,330.75H50v-4.32a1.86,1.86,0,0,0-.33-1.21,1.27,1.27,0,0,0-1-.4,1.62,1.62,0,0,0-1.38.56,3.07,3.07,0,0,0-.44,1.87v3.5H45.34v-7h1.17l.2.92h.08a2.07,2.07,0,0,1,.9-.77,3.05,3.05,0,0,1,1.3-.27,2.25,2.25,0,0,1,2.52,2.57Z"/><path class="cls-2" d="M61.61,323.72v.82l-1.2.23a1.82,1.82,0,0,1,.27.54,2,2,0,0,1,.11.69,2.08,2.08,0,0,1-.75,1.7,3.09,3.09,0,0,1-2.06.63,3.76,3.76,0,0,1-.61-.05.83.83,0,0,0-.48.69.39.39,0,0,0,.22.37,2,2,0,0,0,.83.12h1.23a2.71,2.71,0,0,1,1.76.49,1.76,1.76,0,0,1,.61,1.43,2.07,2.07,0,0,1-1,1.84,5.17,5.17,0,0,1-2.84.65,3.9,3.9,0,0,1-2.19-.51,1.63,1.63,0,0,1-.76-1.45,1.57,1.57,0,0,1,.41-1.09,2.27,2.27,0,0,1,1.15-.61,1.17,1.17,0,0,1-.69-1,1.08,1.08,0,0,1,.22-.67,2.73,2.73,0,0,1,.66-.54,1.9,1.9,0,0,1-.88-.76,2.49,2.49,0,0,1,.38-3,3,3,0,0,1,2.05-.63,4.64,4.64,0,0,1,.63,0,4.51,4.51,0,0,1,.49.08Zm-5.51,8.12a.81.81,0,0,0,.43.74,2.43,2.43,0,0,0,1.22.26,3.75,3.75,0,0,0,1.82-.35,1,1,0,0,0,.59-.93.69.69,0,0,0-.32-.65,2.66,2.66,0,0,0-1.22-.19H57.49a1.59,1.59,0,0,0-1,.3A1,1,0,0,0,56.1,331.84Zm.64-5.84a1.37,1.37,0,0,0,.34,1,1.26,1.26,0,0,0,1,.36c.86,0,1.3-.46,1.3-1.39a1.54,1.54,0,0,0-.33-1.05,1.19,1.19,0,0,0-1-.37,1.27,1.27,0,0,0-1,.36A1.59,1.59,0,0,0,56.74,326Z"/><path class="cls-2" d="M68.57,323.6a3.8,3.8,0,0,1,.74.06l-.15,1.39a2.84,2.84,0,0,0-.66-.08,1.92,1.92,0,0,0-1.45.59,2.1,2.1,0,0,0-.55,1.52v3.67H65v-7h1.16l.2,1.24h.08a2.64,2.64,0,0,1,.91-1A2.1,2.1,0,0,1,68.57,323.6Z"/><path class="cls-2" d="M75.77,330.87a3.41,3.41,0,0,1-2.56-.95,3.63,3.63,0,0,1-.93-2.63,4,4,0,0,1,.86-2.71,3,3,0,0,1,2.36-1,2.89,2.89,0,0,1,2.19.84,3.23,3.23,0,0,1,.81,2.32v.81H73.82a2.32,2.32,0,0,0,.55,1.57,1.92,1.92,0,0,0,1.47.55,5.36,5.36,0,0,0,1.16-.12,5,5,0,0,0,1.15-.39v1.22a4.57,4.57,0,0,1-1.1.36A6.23,6.23,0,0,1,75.77,330.87Zm-.27-6.14a1.48,1.48,0,0,0-1.14.45,2.09,2.09,0,0,0-.51,1.31H77a1.92,1.92,0,0,0-.42-1.31A1.42,1.42,0,0,0,75.5,324.73Z"/><path class="cls-2" d="M87,328.75a1.82,1.82,0,0,1-.75,1.57,3.54,3.54,0,0,1-2.14.55,5.15,5.15,0,0,1-2.26-.42v-1.29a5.59,5.59,0,0,0,2.31.57c.92,0,1.38-.28,1.38-.83a.64.64,0,0,0-.16-.45,1.7,1.7,0,0,0-.5-.36,7.27,7.27,0,0,0-1-.44,4.37,4.37,0,0,1-1.64-.94,1.69,1.69,0,0,1-.43-1.21,1.58,1.58,0,0,1,.73-1.4,3.38,3.38,0,0,1,2-.5,5.53,5.53,0,0,1,2.34.5l-.48,1.12a5.31,5.31,0,0,0-1.91-.47c-.79,0-1.19.23-1.19.68a.67.67,0,0,0,.31.55,6.23,6.23,0,0,0,1.35.63,6.37,6.37,0,0,1,1.26.62,1.75,1.75,0,0,1,.58.64A1.87,1.87,0,0,1,87,328.75Z"/><path class="cls-2" d="M95.1,330.75l-.3-1h0a2.93,2.93,0,0,1-1,.87,3.13,3.13,0,0,1-1.32.23,2.22,2.22,0,0,1-1.62-.56,2.11,2.11,0,0,1-.58-1.58,1.86,1.86,0,0,1,.81-1.64,4.81,4.81,0,0,1,2.46-.6l1.21,0v-.37a1.44,1.44,0,0,0-.32-1,1.28,1.28,0,0,0-1-.33,3.22,3.22,0,0,0-1,.16,10,10,0,0,0-1,.37l-.48-1.06a5.46,5.46,0,0,1,1.25-.46,5.93,5.93,0,0,1,1.28-.15,3,3,0,0,1,2,.58,2.28,2.28,0,0,1,.69,1.84v4.73Zm-2.22-1a1.84,1.84,0,0,0,1.3-.45,1.66,1.66,0,0,0,.5-1.28v-.61l-.91,0a3.13,3.13,0,0,0-1.53.35,1.08,1.08,0,0,0-.48,1,1,1,0,0,0,.28.72A1.22,1.22,0,0,0,92.88,329.73Z"/><path class="cls-2" d="M110.21,330.75l-.3-1h0a2.86,2.86,0,0,1-1,.87,3.13,3.13,0,0,1-1.32.23,2.19,2.19,0,0,1-1.61-.56,2.08,2.08,0,0,1-.58-1.58,1.88,1.88,0,0,1,.8-1.64,4.81,4.81,0,0,1,2.46-.6l1.21,0v-.37a1.44,1.44,0,0,0-.31-1,1.3,1.3,0,0,0-1-.33,3.22,3.22,0,0,0-1,.16,8.93,8.93,0,0,0-1,.37l-.48-1.06a5.29,5.29,0,0,1,1.25-.46,5.93,5.93,0,0,1,1.28-.15,3,3,0,0,1,2,.58,2.31,2.31,0,0,1,.68,1.84v4.73Zm-2.23-1a1.86,1.86,0,0,0,1.31-.45,1.66,1.66,0,0,0,.49-1.28v-.61l-.9,0a3.13,3.13,0,0,0-1.53.35,1.08,1.08,0,0,0-.48,1,.91.91,0,0,0,.28.72A1.18,1.18,0,0,0,108,329.73Z"/><path class="cls-2" d="M117.8,330.87a2.44,2.44,0,0,1-2-.95,4.3,4.3,0,0,1-.73-2.67,4.25,4.25,0,0,1,.75-2.68,2.44,2.44,0,0,1,2.06-1,2.8,2.8,0,0,1,1.18.24,2.6,2.6,0,0,1,.94.8H120l.16-.92h1.24v10.15h-1.49v-3c0-.18,0-.38,0-.59s0-.37,0-.48h-.09A2.3,2.3,0,0,1,117.8,330.87Zm.43-1.19a1.6,1.6,0,0,0,1.35-.54,2.75,2.75,0,0,0,.41-1.64v-.24a3.2,3.2,0,0,0-.43-1.87,1.57,1.57,0,0,0-1.36-.57,1.38,1.38,0,0,0-1.22.63,3.29,3.29,0,0,0-.42,1.82C116.56,328.88,117.12,329.68,118.23,329.68Z"/><path class="cls-2" d="M130.59,330.75l-.21-.93h-.08a2,2,0,0,1-.88.77,2.9,2.9,0,0,1-1.31.28,2.6,2.6,0,0,1-1.91-.63,2.7,2.7,0,0,1-.62-1.93v-4.59h1.5v4.33a1.88,1.88,0,0,0,.33,1.21,1.25,1.25,0,0,0,1,.41,1.66,1.66,0,0,0,1.39-.57,3.11,3.11,0,0,0,.44-1.88v-3.5h1.49v7Z"/><path class="cls-2" d="M135.91,322.87v-.16c.24-.3.49-.63.74-1s.46-.68.61-.93H139v.13c-.22.26-.55.59-1,1s-.81.72-1.11.95Zm1.57,7.88H136v-7h1.5Z"/><path class="cls-2" d="M150.73,330.87a2.46,2.46,0,0,1-2.07-1h-.09q.09.9.09,1.08v2.88h-1.49V323.72h1.21l.21.94h.07a2.35,2.35,0,0,1,2.1-1.06,2.46,2.46,0,0,1,2.05.95,4.35,4.35,0,0,1,.73,2.67,4.3,4.3,0,0,1-.75,2.69A2.45,2.45,0,0,1,150.73,330.87Zm-.36-6.05a1.56,1.56,0,0,0-1.3.52,2.7,2.7,0,0,0-.41,1.66v.22a3.28,3.28,0,0,0,.41,1.86,1.51,1.51,0,0,0,1.33.57,1.35,1.35,0,0,0,1.19-.63,3.3,3.3,0,0,0,.42-1.81,3.16,3.16,0,0,0-.42-1.79A1.38,1.38,0,0,0,150.37,324.82Z"/><path class="cls-2" d="M161.76,330.75l-.3-1h-.05a2.93,2.93,0,0,1-1,.87,3.19,3.19,0,0,1-1.32.23,2.22,2.22,0,0,1-1.62-.56,2.08,2.08,0,0,1-.58-1.58,1.88,1.88,0,0,1,.8-1.64,4.81,4.81,0,0,1,2.46-.6l1.21,0v-.37a1.44,1.44,0,0,0-.31-1,1.28,1.28,0,0,0-1-.33,3.28,3.28,0,0,0-1,.16,8.93,8.93,0,0,0-1,.37l-.48-1.06a5.29,5.29,0,0,1,1.25-.46,5.93,5.93,0,0,1,1.28-.15,3,3,0,0,1,2,.58,2.27,2.27,0,0,1,.68,1.84v4.73Zm-2.22-1a1.85,1.85,0,0,0,1.3-.45,1.66,1.66,0,0,0,.49-1.28v-.61l-.9,0a3.13,3.13,0,0,0-1.53.35,1.08,1.08,0,0,0-.48,1,.91.91,0,0,0,.28.72A1.19,1.19,0,0,0,159.54,329.73Z"/><path class="cls-2" d="M170.56,323.6a3.73,3.73,0,0,1,.74.06l-.14,1.39a3,3,0,0,0-.66-.08,1.94,1.94,0,0,0-1.46.59,2.1,2.1,0,0,0-.55,1.52v3.67H167v-7h1.17l.19,1.24h.08a2.72,2.72,0,0,1,.91-1A2.13,2.13,0,0,1,170.56,323.6Z"/><path class="cls-2" d="M179.09,330.75l-.3-1h0a2.93,2.93,0,0,1-1,.87,3.16,3.16,0,0,1-1.32.23,2.22,2.22,0,0,1-1.62-.56,2.08,2.08,0,0,1-.58-1.58,1.86,1.86,0,0,1,.81-1.64,4.74,4.74,0,0,1,2.45-.6l1.22,0v-.37a1.44,1.44,0,0,0-.32-1,1.28,1.28,0,0,0-1-.33,3.28,3.28,0,0,0-1,.16,9.85,9.85,0,0,0-.95.37l-.48-1.06a5.46,5.46,0,0,1,1.25-.46,5.93,5.93,0,0,1,1.28-.15,3,3,0,0,1,2,.58,2.28,2.28,0,0,1,.69,1.84v4.73Zm-2.22-1a1.85,1.85,0,0,0,1.3-.45,1.66,1.66,0,0,0,.49-1.28v-.61l-.9,0a3.13,3.13,0,0,0-1.53.35,1.08,1.08,0,0,0-.48,1,.91.91,0,0,0,.28.72A1.22,1.22,0,0,0,176.87,329.73Z"/><path class="cls-2" d="M192.63,330.87a3.07,3.07,0,0,1-2.42-.93,4.7,4.7,0,0,1,0-5.39,3.23,3.23,0,0,1,2.5-.95,4.77,4.77,0,0,1,2,.41l-.45,1.2a4.42,4.42,0,0,0-1.56-.37c-1.22,0-1.82.81-1.82,2.42a2.88,2.88,0,0,0,.45,1.77,1.57,1.57,0,0,0,1.33.6,3.84,3.84,0,0,0,1.89-.5v1.3a2.92,2.92,0,0,1-.86.34A5,5,0,0,1,192.63,330.87Z"/><path class="cls-2" d="M204.56,327.22a3.85,3.85,0,0,1-.89,2.69,3.14,3.14,0,0,1-2.45,1,3.41,3.41,0,0,1-1.74-.44,2.89,2.89,0,0,1-1.16-1.28,4.35,4.35,0,0,1-.41-1.93,3.76,3.76,0,0,1,.88-2.66,3.15,3.15,0,0,1,2.46-1,3.11,3.11,0,0,1,2.42,1A3.78,3.78,0,0,1,204.56,327.22Zm-5.11,0c0,1.62.59,2.43,1.79,2.43s1.78-.81,1.78-2.43-.6-2.4-1.79-2.4a1.5,1.5,0,0,0-1.36.62A3.16,3.16,0,0,0,199.45,327.22Z"/><path class="cls-2" d="M214.54,330.75H213v-4.32a1.86,1.86,0,0,0-.33-1.21,1.23,1.23,0,0,0-1-.4,1.64,1.64,0,0,0-1.39.56,3.08,3.08,0,0,0-.43,1.87v3.5h-1.5v-7h1.17l.21.92h.08a2.07,2.07,0,0,1,.9-.77,3,3,0,0,1,1.29-.27,2.25,2.25,0,0,1,2.53,2.57Z"/><path class="cls-2" d="M224.93,327.22a3.84,3.84,0,0,1-.88,2.69,3.16,3.16,0,0,1-2.45,1,3.41,3.41,0,0,1-1.74-.44,2.89,2.89,0,0,1-1.16-1.28,4.22,4.22,0,0,1-.41-1.93,3.76,3.76,0,0,1,.88-2.66,3.55,3.55,0,0,1,4.88,0A3.78,3.78,0,0,1,224.93,327.22Zm-5.1,0c0,1.62.59,2.43,1.79,2.43s1.78-.81,1.78-2.43-.6-2.4-1.79-2.4a1.5,1.5,0,0,0-1.36.62A3.16,3.16,0,0,0,219.83,327.22Z"/><path class="cls-2" d="M231.57,330.87a3.07,3.07,0,0,1-2.42-.93,4.7,4.7,0,0,1,0-5.39,3.23,3.23,0,0,1,2.5-.95,4.77,4.77,0,0,1,2,.41l-.45,1.2a4.42,4.42,0,0,0-1.56-.37c-1.21,0-1.82.81-1.82,2.42a2.88,2.88,0,0,0,.45,1.77,1.58,1.58,0,0,0,1.33.6,3.82,3.82,0,0,0,1.89-.5v1.3a2.92,2.92,0,0,1-.86.34A5,5,0,0,1,231.57,330.87Z"/><path class="cls-2" d="M240.34,330.87a3.41,3.41,0,0,1-2.56-.95,3.63,3.63,0,0,1-.93-2.63,4,4,0,0,1,.86-2.71,3,3,0,0,1,2.35-1,2.91,2.91,0,0,1,2.2.84,3.23,3.23,0,0,1,.81,2.32v.81h-4.68a2.27,2.27,0,0,0,.55,1.57,1.92,1.92,0,0,0,1.47.55,5.36,5.36,0,0,0,1.16-.12,5.21,5.21,0,0,0,1.15-.39v1.22a4.64,4.64,0,0,1-1.11.36A6.07,6.07,0,0,1,240.34,330.87Zm-.28-6.14a1.51,1.51,0,0,0-1.14.45,2.21,2.21,0,0,0-.51,1.31h3.19a1.92,1.92,0,0,0-.42-1.31A1.43,1.43,0,0,0,240.06,324.73Z"/><path class="cls-2" d="M250.42,323.6a3.8,3.8,0,0,1,.74.06l-.15,1.39a2.84,2.84,0,0,0-.66-.08,1.92,1.92,0,0,0-1.45.59,2.1,2.1,0,0,0-.55,1.52v3.67h-1.49v-7H248l.2,1.24h.08a2.64,2.64,0,0,1,.91-1A2.1,2.1,0,0,1,250.42,323.6Z"/><path class="cls-2" d="M262.64,329.67a3.46,3.46,0,0,0,1.09-.18v1.13a3.16,3.16,0,0,1-.64.18,4.28,4.28,0,0,1-.81.07c-1.41,0-2.12-.74-2.12-2.23v-3.79h-1v-.66l1-.54.51-1.49h.92v1.56h2v1.13h-2v3.76a1.06,1.06,0,0,0,.27.8A1,1,0,0,0,262.64,329.67Z"/><path class="cls-2" d="M267.14,321.86a.8.8,0,0,1,.22-.61A.81.81,0,0,1,268,321a.76.76,0,0,1,.83.83.82.82,0,0,1-.22.61.84.84,0,0,1-.61.21.85.85,0,0,1-.62-.21A.82.82,0,0,1,267.14,321.86Zm1.58,8.89h-1.49v-7h1.49Z"/><path class="cls-2" d="M276.5,330.87a2.45,2.45,0,0,1-2.06-1h-.09q.09.9.09,1.08v2.88h-1.5V323.72h1.21l.21.94h.08a2.32,2.32,0,0,1,2.09-1.06,2.45,2.45,0,0,1,2.05.95,5.22,5.22,0,0,1,0,5.36A2.45,2.45,0,0,1,276.5,330.87Zm-.36-6.05a1.56,1.56,0,0,0-1.3.52,2.7,2.7,0,0,0-.4,1.66v.22a3.29,3.29,0,0,0,.4,1.86,1.51,1.51,0,0,0,1.33.57,1.35,1.35,0,0,0,1.19-.63,3.3,3.3,0,0,0,.42-1.81,3.16,3.16,0,0,0-.42-1.79A1.38,1.38,0,0,0,276.14,324.82Z"/><path class="cls-2" d="M287.85,328.75a1.82,1.82,0,0,1-.75,1.57,3.54,3.54,0,0,1-2.14.55,5.15,5.15,0,0,1-2.26-.42v-1.29a5.59,5.59,0,0,0,2.31.57c.92,0,1.38-.28,1.38-.83a.69.69,0,0,0-.16-.45,1.84,1.84,0,0,0-.5-.36,7.27,7.27,0,0,0-1-.44,4.37,4.37,0,0,1-1.64-.94,1.69,1.69,0,0,1-.43-1.21,1.58,1.58,0,0,1,.73-1.4,3.38,3.38,0,0,1,2-.5,5.53,5.53,0,0,1,2.34.5l-.49,1.12a5.22,5.22,0,0,0-1.91-.47c-.78,0-1.18.23-1.18.68a.67.67,0,0,0,.31.55,6.08,6.08,0,0,0,1.34.63,6.23,6.23,0,0,1,1.27.62,1.84,1.84,0,0,1,.58.64A1.87,1.87,0,0,1,287.85,328.75Z"/><path class="cls-2" d="M299.39,330.87a2.48,2.48,0,0,1-2.05-.95,4.28,4.28,0,0,1-.73-2.67,4.35,4.35,0,0,1,.74-2.69,2.48,2.48,0,0,1,2.07-1,2.44,2.44,0,0,1,2.11,1h.07a9,9,0,0,1-.1-1.19v-2.56H303v9.88h-1.16l-.26-.93h-.07A2.39,2.39,0,0,1,299.39,330.87Zm.4-1.2a1.62,1.62,0,0,0,1.34-.52,2.75,2.75,0,0,0,.44-1.68v-.21a3.11,3.11,0,0,0-.44-1.88,1.56,1.56,0,0,0-1.35-.56,1.37,1.37,0,0,0-1.21.63,3.33,3.33,0,0,0-.43,1.82,3.14,3.14,0,0,0,.42,1.78A1.39,1.39,0,0,0,299.79,329.67Z"/><path class="cls-2" d="M310.29,330.87a3.43,3.43,0,0,1-2.57-.95,3.66,3.66,0,0,1-.92-2.63,4,4,0,0,1,.86-2.71,3,3,0,0,1,2.35-1,2.91,2.91,0,0,1,2.2.84,3.23,3.23,0,0,1,.8,2.32v.81h-4.67a2.27,2.27,0,0,0,.55,1.57,1.91,1.91,0,0,0,1.47.55,5.2,5.2,0,0,0,1.15-.12,5.11,5.11,0,0,0,1.16-.39v1.22a4.79,4.79,0,0,1-1.11.36A6.13,6.13,0,0,1,310.29,330.87Zm-.28-6.14a1.51,1.51,0,0,0-1.14.45,2.21,2.21,0,0,0-.51,1.31h3.19a1.92,1.92,0,0,0-.42-1.31A1.43,1.43,0,0,0,310,324.73Z"/><path class="cls-2" d="M44,344.35a1.82,1.82,0,0,1-.75,1.57,3.52,3.52,0,0,1-2.14.55,5.07,5.07,0,0,1-2.25-.42v-1.29a5.51,5.51,0,0,0,2.3.57c.92,0,1.38-.28,1.38-.83a.68.68,0,0,0-.15-.45,1.72,1.72,0,0,0-.51-.36,7.27,7.27,0,0,0-1-.44,4.37,4.37,0,0,1-1.64-.94,1.75,1.75,0,0,1-.43-1.21,1.6,1.6,0,0,1,.73-1.4,3.38,3.38,0,0,1,2-.5,5.53,5.53,0,0,1,2.34.5l-.48,1.12a5.31,5.31,0,0,0-1.91-.47c-.79,0-1.18.23-1.18.68a.66.66,0,0,0,.3.55,6.23,6.23,0,0,0,1.35.63,6.09,6.09,0,0,1,1.26.62,1.75,1.75,0,0,1,.58.64A1.87,1.87,0,0,1,44,344.35Z"/><path class="cls-2" d="M50.76,346.47a3.43,3.43,0,0,1-2.56-1,3.66,3.66,0,0,1-.92-2.63,4,4,0,0,1,.86-2.71,3,3,0,0,1,2.35-1,2.91,2.91,0,0,1,2.2.84,3.22,3.22,0,0,1,.8,2.33v.8H48.82a2.27,2.27,0,0,0,.55,1.57,1.9,1.9,0,0,0,1.46.55,5.41,5.41,0,0,0,2.32-.51V346a4.79,4.79,0,0,1-1.11.36A6.17,6.17,0,0,1,50.76,346.47Zm-.27-6.14a1.51,1.51,0,0,0-1.14.45,2.21,2.21,0,0,0-.51,1.31H52a2,2,0,0,0-.42-1.32A1.45,1.45,0,0,0,50.49,340.33Z"/><path class="cls-2" d="M63.21,339.32v.82l-1.2.23a1.82,1.82,0,0,1,.27.54,2,2,0,0,1,.11.69,2.08,2.08,0,0,1-.75,1.7,3.09,3.09,0,0,1-2.06.63,3.76,3.76,0,0,1-.61-.05.83.83,0,0,0-.48.69.4.4,0,0,0,.22.37,2,2,0,0,0,.83.12h1.23a2.71,2.71,0,0,1,1.76.49,1.75,1.75,0,0,1,.6,1.43,2.06,2.06,0,0,1-1,1.84,5.17,5.17,0,0,1-2.84.65,3.9,3.9,0,0,1-2.19-.51,1.63,1.63,0,0,1-.76-1.45,1.57,1.57,0,0,1,.41-1.09,2.27,2.27,0,0,1,1.15-.61,1.1,1.1,0,0,1-.5-.41,1.07,1.07,0,0,1,0-1.26,2.73,2.73,0,0,1,.66-.54,1.9,1.9,0,0,1-.88-.76,2.49,2.49,0,0,1,.38-3,3,3,0,0,1,2-.63,4.64,4.64,0,0,1,.63,0l.49.08Zm-5.52,8.12a.82.82,0,0,0,.44.74,2.43,2.43,0,0,0,1.22.26,3.75,3.75,0,0,0,1.82-.35,1,1,0,0,0,.59-.93.71.71,0,0,0-.32-.65,2.66,2.66,0,0,0-1.22-.19H59.09a1.59,1.59,0,0,0-1,.3A1,1,0,0,0,57.69,347.44Zm.65-5.84a1.37,1.37,0,0,0,.34,1,1.26,1.26,0,0,0,1,.36c.86,0,1.29-.46,1.29-1.39a1.52,1.52,0,0,0-.32-1.05,1.19,1.19,0,0,0-1-.37,1.27,1.27,0,0,0-1,.36A1.59,1.59,0,0,0,58.34,341.6Z"/><path class="cls-2" d="M71.56,346.34l-.21-.91h-.08a2.12,2.12,0,0,1-.88.76,3,3,0,0,1-1.32.28,2.58,2.58,0,0,1-1.9-.63,2.65,2.65,0,0,1-.63-1.93v-4.59h1.51v4.33a1.88,1.88,0,0,0,.33,1.21,1.25,1.25,0,0,0,1,.41,1.63,1.63,0,0,0,1.38-.57,3,3,0,0,0,.44-1.88v-3.5h1.5v7Z"/><path class="cls-2" d="M80.51,339.2a3.73,3.73,0,0,1,.74.06l-.14,1.39a2.84,2.84,0,0,0-.66-.07,1.9,1.9,0,0,0-1.45.58,2.11,2.11,0,0,0-.56,1.52v3.66H77v-7h1.17l.19,1.24h.08a2.72,2.72,0,0,1,.91-1A2.15,2.15,0,0,1,80.51,339.2Z"/><path class="cls-2" d="M84.56,337.47a.81.81,0,0,1,.22-.62.85.85,0,0,1,.62-.22.87.87,0,0,1,.62.22.85.85,0,0,1,.21.62.8.8,0,0,1-.21.59.83.83,0,0,1-.62.22.81.81,0,0,1-.62-.22A.77.77,0,0,1,84.56,337.47Zm1.58,8.87H84.65v-7h1.49Z"/><path class="cls-2" d="M92.73,346.47a2.46,2.46,0,0,1-2-1,4.28,4.28,0,0,1-.73-2.67,4.35,4.35,0,0,1,.74-2.69,2.48,2.48,0,0,1,2.07-1,2.44,2.44,0,0,1,2.11,1h.07a9.29,9.29,0,0,1-.11-1.19v-2.56h1.5v9.87H95.16l-.26-.91h-.07A2.38,2.38,0,0,1,92.73,346.47Zm.4-1.2a1.63,1.63,0,0,0,1.34-.52,2.69,2.69,0,0,0,.43-1.68v-.21a3.17,3.17,0,0,0-.43-1.89,1.59,1.59,0,0,0-1.35-.55,1.37,1.37,0,0,0-1.21.63,3.24,3.24,0,0,0-.43,1.82,3.12,3.12,0,0,0,.42,1.78A1.38,1.38,0,0,0,93.13,345.27Z"/><path class="cls-2" d="M105,346.34l-.3-1h-.05a2.82,2.82,0,0,1-1,.87,3.29,3.29,0,0,1-1.32.23,2.22,2.22,0,0,1-1.62-.56,2.11,2.11,0,0,1-.58-1.58,1.83,1.83,0,0,1,.81-1.63,4.7,4.7,0,0,1,2.46-.61l1.21,0v-.37a1.44,1.44,0,0,0-.32-1,1.28,1.28,0,0,0-1-.33,3.28,3.28,0,0,0-1,.16,7.79,7.79,0,0,0-.95.37l-.48-1.06a5.46,5.46,0,0,1,1.25-.46,5.93,5.93,0,0,1,1.28-.15,3,3,0,0,1,2,.58,2.28,2.28,0,0,1,.69,1.84v4.72Zm-2.22-1a1.84,1.84,0,0,0,1.3-.45,1.66,1.66,0,0,0,.5-1.28V343l-.91,0a3.13,3.13,0,0,0-1.53.35,1.08,1.08,0,0,0-.48,1,1,1,0,0,0,.28.72A1.22,1.22,0,0,0,102.73,345.33Z"/><path class="cls-2" d="M112.56,346.47a2.45,2.45,0,0,1-2-1,5.19,5.19,0,0,1,0-5.36,2.48,2.48,0,0,1,2.06-1,2.41,2.41,0,0,1,2.11,1h.08a9.29,9.29,0,0,1-.11-1.19v-2.56h1.5v9.87H115l-.26-.91h-.07A2.4,2.4,0,0,1,112.56,346.47Zm.4-1.2a1.65,1.65,0,0,0,1.34-.52,2.75,2.75,0,0,0,.43-1.68v-.21a3.17,3.17,0,0,0-.43-1.89,1.61,1.61,0,0,0-1.35-.55,1.36,1.36,0,0,0-1.21.63,3.24,3.24,0,0,0-.43,1.82,3.21,3.21,0,0,0,.41,1.78A1.4,1.4,0,0,0,113,345.27Z"/><path class="cls-2" d="M124.79,339.32h1.62l1.43,4a7.23,7.23,0,0,1,.43,1.6h0a7.3,7.3,0,0,1,.21-.84c.1-.34.64-1.91,1.62-4.74h1.61l-3,8a2.84,2.84,0,0,1-2.72,2.19,4.44,4.44,0,0,1-1-.11v-1.18a3.57,3.57,0,0,0,.77.08,1.59,1.59,0,0,0,1.52-1.25l.26-.67Z"/><path class="cls-2" d="M144.78,346.34l-.3-1h0a2.82,2.82,0,0,1-1,.87,3.29,3.29,0,0,1-1.32.23,2.22,2.22,0,0,1-1.62-.56,2.11,2.11,0,0,1-.58-1.58,1.83,1.83,0,0,1,.81-1.63,4.68,4.68,0,0,1,2.46-.61l1.21,0v-.37a1.44,1.44,0,0,0-.32-1,1.28,1.28,0,0,0-1-.33,3.28,3.28,0,0,0-1,.16,7.79,7.79,0,0,0-.95.37l-.48-1.06a5.46,5.46,0,0,1,1.25-.46,5.93,5.93,0,0,1,1.28-.15,3,3,0,0,1,2,.58,2.28,2.28,0,0,1,.69,1.84v4.72Zm-2.22-1a1.84,1.84,0,0,0,1.3-.45,1.66,1.66,0,0,0,.49-1.28V343l-.9,0a3.13,3.13,0,0,0-1.53.35,1.08,1.08,0,0,0-.48,1,.91.91,0,0,0,.28.72A1.22,1.22,0,0,0,142.56,345.33Z"/><path class="cls-2" d="M149,339.32h1.62l1.43,4a7.82,7.82,0,0,1,.43,1.6h.05a7.3,7.3,0,0,1,.21-.84c.1-.34.64-1.91,1.61-4.74h1.61l-3,8a2.84,2.84,0,0,1-2.73,2.19,4.35,4.35,0,0,1-1-.11v-1.18a3.5,3.5,0,0,0,.77.08,1.57,1.57,0,0,0,1.51-1.25l.26-.67Z"/><path class="cls-2" d="M164,346.34l-.21-.91h-.08a2.08,2.08,0,0,1-.89.76,2.9,2.9,0,0,1-1.31.28,2.58,2.58,0,0,1-1.9-.63,2.65,2.65,0,0,1-.63-1.93v-4.59h1.51v4.33a1.82,1.82,0,0,0,.33,1.21,1.25,1.25,0,0,0,1,.41,1.63,1.63,0,0,0,1.38-.57,3.11,3.11,0,0,0,.44-1.88v-3.5h1.5v7Z"/><path class="cls-2" d="M171.8,346.47a2.45,2.45,0,0,1-2.05-1,4.22,4.22,0,0,1-.74-2.67,4.28,4.28,0,0,1,.75-2.69,2.69,2.69,0,0,1,4.17.06H174a9,9,0,0,1-.1-1.19v-2.56h1.5v9.87h-1.17l-.26-.91h-.07A2.4,2.4,0,0,1,171.8,346.47Zm.4-1.2a1.65,1.65,0,0,0,1.34-.52,2.75,2.75,0,0,0,.43-1.68v-.21a3.25,3.25,0,0,0-.43-1.89,1.61,1.61,0,0,0-1.36-.55,1.37,1.37,0,0,0-1.21.63,3.33,3.33,0,0,0-.42,1.82,3.13,3.13,0,0,0,.41,1.78A1.39,1.39,0,0,0,172.2,345.27Z"/><path class="cls-2" d="M184,346.34l-.29-1h-.05a2.77,2.77,0,0,1-1,.87,3.29,3.29,0,0,1-1.32.23,2.18,2.18,0,0,1-1.61-.56,2.08,2.08,0,0,1-.58-1.58,1.85,1.85,0,0,1,.8-1.63,4.7,4.7,0,0,1,2.46-.61l1.21,0v-.37a1.44,1.44,0,0,0-.31-1,1.3,1.3,0,0,0-1-.33,3.22,3.22,0,0,0-1,.16,7.2,7.2,0,0,0-.95.37l-.49-1.06a5.64,5.64,0,0,1,1.25-.46,6,6,0,0,1,1.29-.15,3,3,0,0,1,2,.58,2.31,2.31,0,0,1,.68,1.84v4.72Zm-2.22-1a1.88,1.88,0,0,0,1.31-.45,1.66,1.66,0,0,0,.49-1.28V343l-.9,0a3.1,3.1,0,0,0-1.53.35,1.08,1.08,0,0,0-.48,1,.91.91,0,0,0,.28.72A1.18,1.18,0,0,0,181.79,345.33Z"/><path class="cls-2" d="M197.56,346.47a3.09,3.09,0,0,1-2.43-.93,4.74,4.74,0,0,1,0-5.39,3.2,3.2,0,0,1,2.51-.95,4.8,4.8,0,0,1,2,.41l-.45,1.2a4.42,4.42,0,0,0-1.56-.37c-1.22,0-1.83.81-1.83,2.42a2.82,2.82,0,0,0,.46,1.77,1.55,1.55,0,0,0,1.33.6,3.81,3.81,0,0,0,1.88-.5V346a2.86,2.86,0,0,1-.85.34A5,5,0,0,1,197.56,346.47Z"/><path class="cls-2" d="M209.48,342.82a3.84,3.84,0,0,1-.88,2.69,3.18,3.18,0,0,1-2.46,1,3.46,3.46,0,0,1-1.74-.44,3,3,0,0,1-1.16-1.28,4.35,4.35,0,0,1-.4-1.93,3.81,3.81,0,0,1,.87-2.66,3.19,3.19,0,0,1,2.47-1,3.06,3.06,0,0,1,2.41,1A3.74,3.74,0,0,1,209.48,342.82Zm-5.11,0q0,2.43,1.8,2.43c1.18,0,1.78-.81,1.78-2.43s-.6-2.4-1.79-2.4a1.53,1.53,0,0,0-1.37.62A3.16,3.16,0,0,0,204.37,342.82Z"/><path class="cls-2" d="M219.46,346.34H218V342a1.86,1.86,0,0,0-.33-1.21,1.25,1.25,0,0,0-1-.4,1.64,1.64,0,0,0-1.38.55,3.13,3.13,0,0,0-.44,1.88v3.49h-1.49v-7h1.17l.21.93h.07a2,2,0,0,1,.9-.78,3.05,3.05,0,0,1,1.3-.27,2.25,2.25,0,0,1,2.52,2.57Z"/><path class="cls-2" d="M231.72,345.27a3.46,3.46,0,0,0,1.09-.18v1.13a3.16,3.16,0,0,1-.64.18,4.28,4.28,0,0,1-.81.07c-1.41,0-2.12-.74-2.12-2.23v-3.79h-1v-.66l1-.54.51-1.49h.92v1.56h2v1.13h-2v3.76a1.06,1.06,0,0,0,.27.8A1,1,0,0,0,231.72,345.27Z"/><path class="cls-2" d="M241.26,346.34l-.21-.91H241a2.12,2.12,0,0,1-.88.76,2.93,2.93,0,0,1-1.31.28,2.6,2.6,0,0,1-1.91-.63,2.65,2.65,0,0,1-.63-1.93v-4.59h1.51v4.33a1.88,1.88,0,0,0,.33,1.21,1.25,1.25,0,0,0,1,.41,1.63,1.63,0,0,0,1.38-.57,3,3,0,0,0,.44-1.88v-3.5h1.5v7Z"/><path class="cls-2" d="M255.71,339.2a2.44,2.44,0,0,1,2,.95,5.25,5.25,0,0,1,0,5.36,2.48,2.48,0,0,1-2.07,1,2.46,2.46,0,0,1-2.07-1h-.1l-.27.83h-1.12v-9.87h1.49v2.35c0,.17,0,.43,0,.77s0,.56,0,.66h.06A2.39,2.39,0,0,1,255.71,339.2Zm-.39,1.22a1.51,1.51,0,0,0-1.3.53,3.11,3.11,0,0,0-.41,1.77v.1a3.28,3.28,0,0,0,.41,1.86,1.51,1.51,0,0,0,1.33.57,1.35,1.35,0,0,0,1.2-.62,3.38,3.38,0,0,0,.41-1.82C257,341.21,256.41,340.42,255.32,340.42Z"/><path class="cls-2" d="M266.71,346.34l-.3-1h-.05a2.82,2.82,0,0,1-1,.87,3.36,3.36,0,0,1-1.32.23,2.22,2.22,0,0,1-1.62-.56,2.08,2.08,0,0,1-.58-1.58,1.85,1.85,0,0,1,.8-1.63,4.7,4.7,0,0,1,2.46-.61l1.21,0v-.37a1.44,1.44,0,0,0-.31-1,1.28,1.28,0,0,0-1-.33,3.28,3.28,0,0,0-1,.16,7.2,7.2,0,0,0-1,.37l-.48-1.06a5.29,5.29,0,0,1,1.25-.46,5.93,5.93,0,0,1,1.28-.15,3,3,0,0,1,2,.58,2.27,2.27,0,0,1,.68,1.84v4.72Zm-2.22-1a1.85,1.85,0,0,0,1.3-.45,1.66,1.66,0,0,0,.49-1.28V343l-.9,0a3.13,3.13,0,0,0-1.53.35,1.08,1.08,0,0,0-.48,1,.91.91,0,0,0,.28.72A1.19,1.19,0,0,0,264.49,345.33Z"/><path class="cls-2" d="M278.12,346.34h-1.49V342a1.86,1.86,0,0,0-.33-1.21,1.25,1.25,0,0,0-1-.4,1.64,1.64,0,0,0-1.38.55,3.13,3.13,0,0,0-.44,1.88v3.49H272v-7h1.17l.21.93h.07a2,2,0,0,1,.9-.78,3.05,3.05,0,0,1,1.3-.27,2.25,2.25,0,0,1,2.52,2.57Z"/><path class="cls-2" d="M285.12,346.47a3.07,3.07,0,0,1-2.42-.93,4.7,4.7,0,0,1,0-5.39,3.19,3.19,0,0,1,2.5-.95,4.73,4.73,0,0,1,2,.41l-.45,1.2a4.42,4.42,0,0,0-1.56-.37c-1.21,0-1.82.81-1.82,2.42a2.88,2.88,0,0,0,.45,1.77,1.58,1.58,0,0,0,1.33.6,3.82,3.82,0,0,0,1.89-.5V346a3,3,0,0,1-.85.34A5.07,5.07,0,0,1,285.12,346.47Z"/><path class="cls-2" d="M295.22,346.34l-.3-1h-.05a2.77,2.77,0,0,1-1,.87,3.29,3.29,0,0,1-1.32.23,2.19,2.19,0,0,1-1.61-.56,2.08,2.08,0,0,1-.58-1.58,1.85,1.85,0,0,1,.8-1.63,4.7,4.7,0,0,1,2.46-.61l1.21,0v-.37a1.44,1.44,0,0,0-.31-1,1.29,1.29,0,0,0-1-.33,3.26,3.26,0,0,0-1,.16,7.2,7.2,0,0,0-1,.37l-.48-1.06a5.29,5.29,0,0,1,1.25-.46,5.93,5.93,0,0,1,1.28-.15,3,3,0,0,1,2,.58,2.31,2.31,0,0,1,.68,1.84v4.72Zm-2.23-1a1.86,1.86,0,0,0,1.31-.45,1.66,1.66,0,0,0,.49-1.28V343l-.9,0a3.13,3.13,0,0,0-1.53.35,1.08,1.08,0,0,0-.48,1,.91.91,0,0,0,.28.72A1.18,1.18,0,0,0,293,345.33Z"/><path class="cls-2" d="M309,346.47a3.43,3.43,0,0,1-2.56-1,3.66,3.66,0,0,1-.92-2.63,4,4,0,0,1,.85-2.71,3,3,0,0,1,2.36-1,2.91,2.91,0,0,1,2.2.84,3.26,3.26,0,0,1,.8,2.33v.8H307a2.33,2.33,0,0,0,.56,1.57,1.89,1.89,0,0,0,1.46.55,5.3,5.3,0,0,0,1.16-.12,5,5,0,0,0,1.15-.39V346a4.57,4.57,0,0,1-1.1.36A6.17,6.17,0,0,1,309,346.47Zm-.27-6.14a1.51,1.51,0,0,0-1.14.45,2.09,2.09,0,0,0-.51,1.31h3.19a2,2,0,0,0-.42-1.32A1.47,1.47,0,0,0,308.72,340.33Z"/><path class="cls-2" d="M321.69,346.34h-1.5V342a1.86,1.86,0,0,0-.33-1.21,1.25,1.25,0,0,0-1-.4,1.64,1.64,0,0,0-1.38.55,3.13,3.13,0,0,0-.44,1.88v3.49h-1.49v-7h1.17l.21.93H317a2.05,2.05,0,0,1,.91-.78,3,3,0,0,1,1.29-.27,2.25,2.25,0,0,1,2.53,2.57Z"/><path class="cls-2" d="M40.77,362H39.28v-9.88h1.49Z"/><path class="cls-2" d="M44.92,354.07v-.16c.24-.3.49-.63.74-1s.46-.68.61-.93H48v.13c-.22.26-.55.59-1,1s-.81.72-1.11.95ZM46.49,362H45v-7h1.5Z"/><path class="cls-2" d="M56.89,362h-1.5v-4.32a1.86,1.86,0,0,0-.33-1.21,1.23,1.23,0,0,0-1-.4,1.64,1.64,0,0,0-1.39.56,3.07,3.07,0,0,0-.44,1.87V362H50.71v-7h1.17l.21.91h.08a2.07,2.07,0,0,1,.9-.77,3,3,0,0,1,1.29-.27,2.25,2.25,0,0,1,2.53,2.57Z"/><path class="cls-2" d="M64.12,362.07a3.43,3.43,0,0,1-2.56-.95,3.66,3.66,0,0,1-.92-2.63,4,4,0,0,1,.86-2.71,3,3,0,0,1,2.35-1,2.91,2.91,0,0,1,2.2.84,3.28,3.28,0,0,1,.8,2.33v.8H62.17a2.33,2.33,0,0,0,.56,1.57,1.89,1.89,0,0,0,1.46.55,5.3,5.3,0,0,0,1.16-.12,5,5,0,0,0,1.15-.39v1.22a4.57,4.57,0,0,1-1.1.36A6.17,6.17,0,0,1,64.12,362.07Zm-.27-6.14a1.51,1.51,0,0,0-1.14.45,2.15,2.15,0,0,0-.51,1.31h3.19a1.92,1.92,0,0,0-.42-1.31A1.44,1.44,0,0,0,63.85,355.93Z"/><path class="cls-2" d="M75,362l-.3-1h0a2.84,2.84,0,0,1-1,.87,3.13,3.13,0,0,1-1.32.23,2.18,2.18,0,0,1-1.61-.56,2.08,2.08,0,0,1-.58-1.58,1.83,1.83,0,0,1,.8-1.63,4.7,4.7,0,0,1,2.46-.61l1.21,0v-.37a1.44,1.44,0,0,0-.31-1,1.3,1.3,0,0,0-1-.33,3.22,3.22,0,0,0-1,.16,8.93,8.93,0,0,0-1,.37l-.49-1.06a5.46,5.46,0,0,1,1.25-.46,6,6,0,0,1,1.29-.15,3,3,0,0,1,2,.58,2.31,2.31,0,0,1,.68,1.84V362Zm-2.22-1a1.88,1.88,0,0,0,1.31-.45,1.69,1.69,0,0,0,.49-1.28v-.61l-.9,0a3.14,3.14,0,0,0-1.54.35,1.08,1.08,0,0,0-.48,1,1,1,0,0,0,.28.72A1.22,1.22,0,0,0,72.81,360.93Z"/><path class="cls-2" d="M80.05,361.15a1,1,0,0,1,.24-.71,1,1,0,0,1,.7-.25.94.94,0,0,1,.71.26,1,1,0,0,1,.24.7,1,1,0,0,1-.25.72.91.91,0,0,1-.7.26.93.93,0,0,1-.7-.26A1,1,0,0,1,80.05,361.15Z"/><path class="cls-2" d="M75.39,304.76H73v-9.4h-3.1v-2h8.63v2h-3.1Z"/><path class="cls-2" d="M80.25,304.76V293.34h2.42v11.42Z"/><path class="cls-2" d="M93.43,296.9a3.48,3.48,0,0,1-1.15,2.82,4.94,4.94,0,0,1-3.28,1H88v4.06H85.54V293.34h3.65a4.88,4.88,0,0,1,3.16.89A3.28,3.28,0,0,1,93.43,296.9ZM88,298.72h.8a2.6,2.6,0,0,0,1.67-.45A1.54,1.54,0,0,0,91,297a1.59,1.59,0,0,0-.47-1.26,2.16,2.16,0,0,0-1.45-.41H88Z"/><path class="cls-2" d="M102.33,301.59a3,3,0,0,1-1.11,2.44,4.87,4.87,0,0,1-3.1.89,7.21,7.21,0,0,1-3.23-.69V302a13.87,13.87,0,0,0,2,.73,5.91,5.91,0,0,0,1.47.21,2,2,0,0,0,1.22-.31,1,1,0,0,0,.43-.9,1,1,0,0,0-.19-.6,2.08,2.08,0,0,0-.55-.5,13.55,13.55,0,0,0-1.48-.78,7.15,7.15,0,0,1-1.57-.94,3.58,3.58,0,0,1-.84-1.06,3.3,3.3,0,0,1,.72-3.79,4.3,4.3,0,0,1,2.84-.86,6.77,6.77,0,0,1,1.7.21,12.7,12.7,0,0,1,1.69.59l-.78,1.88a11.49,11.49,0,0,0-1.52-.52,4.75,4.75,0,0,0-1.17-.15,1.6,1.6,0,0,0-1.06.32,1.07,1.07,0,0,0-.36.84,1,1,0,0,0,.15.56,1.47,1.47,0,0,0,.47.46,15.14,15.14,0,0,0,1.53.8,6.18,6.18,0,0,1,2.2,1.53A3,3,0,0,1,102.33,301.59Z"/><path class="cls-2" d="M118,298.94a5.63,5.63,0,0,1-1.61,4.32,6.56,6.56,0,0,1-4.64,1.5h-3.23V293.34h3.58a6,6,0,0,1,4.35,1.48A5.43,5.43,0,0,1,118,298.94Zm-2.52.06q0-3.67-3.25-3.68H111v7.44h1Q115.51,302.76,115.52,299Z"/><path class="cls-2" d="M127,304.76H120.4V293.34H127v2h-4.16v2.51h3.87v2h-3.87v2.94H127Z"/><path class="cls-2" d="M140.26,301.59a3,3,0,0,1-1.11,2.44,4.87,4.87,0,0,1-3.1.89,7.21,7.21,0,0,1-3.23-.69V302a13.87,13.87,0,0,0,2,.73,5.91,5.91,0,0,0,1.47.21,2,2,0,0,0,1.22-.31,1.11,1.11,0,0,0,.24-1.5,2.08,2.08,0,0,0-.55-.5,13.55,13.55,0,0,0-1.48-.78,7.15,7.15,0,0,1-1.57-.94,3.58,3.58,0,0,1-.84-1.06A3.3,3.3,0,0,1,134,294a4.3,4.3,0,0,1,2.84-.86,6.77,6.77,0,0,1,1.7.21,12.7,12.7,0,0,1,1.69.59l-.78,1.88a11.49,11.49,0,0,0-1.52-.52,4.75,4.75,0,0,0-1.17-.15,1.6,1.6,0,0,0-1.06.32,1.07,1.07,0,0,0-.36.84,1.13,1.13,0,0,0,.14.56,1.64,1.64,0,0,0,.48.46,15.14,15.14,0,0,0,1.53.8,6.18,6.18,0,0,1,2.2,1.53A3,3,0,0,1,140.26,301.59Z"/><path class="cls-2" d="M148.91,304.76h-6.58V293.34h6.58v2h-4.16v2.51h3.87v2h-3.87v2.94h4.16Z"/><path class="cls-2" d="M155.63,298.35h4.53v5.92a12.13,12.13,0,0,1-2.07.5,13.13,13.13,0,0,1-2,.15,5,5,0,0,1-3.95-1.52,6.31,6.31,0,0,1-1.36-4.36,5.74,5.74,0,0,1,1.58-4.32,6,6,0,0,1,4.38-1.54,8.4,8.4,0,0,1,3.39.7l-.8,1.94a5.7,5.7,0,0,0-2.6-.63,3.2,3.2,0,0,0-2.52,1.06,4.06,4.06,0,0,0-.94,2.83,4.53,4.53,0,0,0,.76,2.84,2.62,2.62,0,0,0,2.21,1,8.11,8.11,0,0,0,1.54-.15v-2.39h-2.16Z"/><path class="cls-2" d="M172.18,293.34v7.39a4.27,4.27,0,0,1-.57,2.22,3.65,3.65,0,0,1-1.64,1.46,5.8,5.8,0,0,1-2.53.51,4.85,4.85,0,0,1-3.42-1.13,4,4,0,0,1-1.22-3.09v-7.36h2.41v7a2.9,2.9,0,0,0,.54,1.94,2.75,2.75,0,0,0,3.48,0,3,3,0,0,0,.53-1.95v-7Z"/><path class="cls-2" d="M177.39,300.38v4.38H175V293.34h3.33a5.69,5.69,0,0,1,3.45.85,3.39,3.39,0,0,1,.56,4.36,3.65,3.65,0,0,1-1.57,1.24q2.58,3.84,3.36,5h-2.69l-2.73-4.38Zm0-2h.79a3,3,0,0,0,1.69-.38,1.37,1.37,0,0,0,.55-1.21,1.25,1.25,0,0,0-.56-1.15,3.37,3.37,0,0,0-1.73-.35h-.74Z"/><path class="cls-2" d="M185.54,304.76V293.34H188v11.42Z"/><path class="cls-2" d="M200.31,298.94a5.63,5.63,0,0,1-1.61,4.32,6.53,6.53,0,0,1-4.63,1.5h-3.24V293.34h3.59a6,6,0,0,1,4.34,1.48A5.43,5.43,0,0,1,200.31,298.94Zm-2.52.06q0-3.67-3.25-3.68h-1.29v7.44h1C196.63,302.76,197.79,301.51,197.79,299Z"/><path class="cls-2" d="M209.67,304.76l-.83-2.72h-4.16l-.83,2.72h-2.61l4-11.47h3l4.05,11.47ZM208.26,300,207,295.83c-.1-.32-.17-.58-.21-.76q-.25,1-1.47,4.94Z"/><path class="cls-2" d="M223.19,298.94a5.62,5.62,0,0,1-1.6,4.32,6.56,6.56,0,0,1-4.64,1.5h-3.24V293.34h3.59a6,6,0,0,1,4.34,1.48A5.39,5.39,0,0,1,223.19,298.94Zm-2.51.06c0-2.45-1.09-3.68-3.25-3.68h-1.29v7.44h1Q220.68,302.76,220.68,299Z"/><path class="cls-2" d="M233.27,298l2.38-4.7h2.61l-3.79,7v4.44h-2.4v-4.37l-3.79-7.05h2.62Z"/><path class="cls-2" d="M250.85,304.76,250,302h-4.16l-.83,2.72h-2.61l4-11.47h3l4.05,11.47ZM249.44,300l-1.29-4.18c-.1-.32-.17-.58-.21-.76q-.25,1-1.48,4.94Z"/><path class="cls-2" d="M258.45,298l2.38-4.7h2.61l-3.79,7v4.44h-2.4v-4.37l-3.79-7.05h2.62Z"/><path class="cls-2" d="M274.18,293.34v7.39a4.27,4.27,0,0,1-.57,2.22,3.65,3.65,0,0,1-1.64,1.46,5.8,5.8,0,0,1-2.53.51,4.85,4.85,0,0,1-3.42-1.13,4,4,0,0,1-1.22-3.09v-7.36h2.41v7a2.9,2.9,0,0,0,.54,1.94,2.75,2.75,0,0,0,3.48,0,3,3,0,0,0,.53-1.95v-7Z"/><path class="cls-2" d="M286.45,298.94a5.63,5.63,0,0,1-1.61,4.32,6.53,6.53,0,0,1-4.63,1.5H277V293.34h3.59a6,6,0,0,1,4.34,1.48A5.43,5.43,0,0,1,286.45,298.94Zm-2.52.06q0-3.67-3.25-3.68h-1.29v7.44h1C282.77,302.76,283.93,301.51,283.93,299Z"/><path class="cls-2" d="M295.81,304.76,295,302h-4.16l-.83,2.72h-2.61l4-11.47h3l4.05,11.47ZM294.4,300l-1.29-4.18c-.1-.32-.17-.58-.21-.76q-.25,1-1.47,4.94Z"/><path class="cls-2" d="M50.79,283.34a13.29,13.29,0,0,0,7.82,2.7v10.7c0,3.4-1.88,4.28-7.82,7.94C44.86,301,43,300.14,43,296.74V286A13.27,13.27,0,0,0,50.79,283.34Zm0-2.84c-3.77,3.2-6.13,3.35-10.06,3.35v12.89c0,5.15,3.58,6.49,10.06,10.58,6.48-4.09,10.06-5.43,10.06-10.58V283.85C56.92,283.85,54.56,283.7,50.79,280.5ZM55.26,297l-3.1-3.06,3.06-3.08-1.38-1.38-3.06,3.1-3.09-3.06-1.37,1.37,3.1,3.07L46.36,297l1.37,1.37,3.07-3.1,3.08,3.06Z"/><path class="cls-2" d="M30.88,94.18v-10h1.63v10Z"/><path class="cls-2" d="M41.63,94.18H40V89.53a2,2,0,0,0-.35-1.3,1.36,1.36,0,0,0-1.12-.43,1.77,1.77,0,0,0-1.49.6,3.27,3.27,0,0,0-.47,2v3.77H35V86.62h1.26l.22,1h.09a2.14,2.14,0,0,1,1-.83,3.18,3.18,0,0,1,1.39-.3c1.82,0,2.72.93,2.72,2.77Z"/><path class="cls-2" d="M50.25,86.62v.88L49,87.74a1.91,1.91,0,0,1,.29.59,2.45,2.45,0,0,1-.69,2.58,3.38,3.38,0,0,1-2.22.67,3.2,3.2,0,0,1-.65-.06.91.91,0,0,0-.52.75.41.41,0,0,0,.24.39,2,2,0,0,0,.89.13h1.32a2.91,2.91,0,0,1,1.9.54,1.86,1.86,0,0,1,.65,1.53,2.24,2.24,0,0,1-1.06,2,5.64,5.64,0,0,1-3.06.69A4.27,4.27,0,0,1,43.69,97a1.78,1.78,0,0,1-.81-1.56,1.61,1.61,0,0,1,.44-1.17,2.29,2.29,0,0,1,1.23-.66,1.27,1.27,0,0,1-.53-.45,1.13,1.13,0,0,1,0-1.35,2.73,2.73,0,0,1,.71-.58,2.11,2.11,0,0,1-.95-.83,2.44,2.44,0,0,1-.37-1.33,2.39,2.39,0,0,1,.78-1.91,3.26,3.26,0,0,1,2.21-.68,5.16,5.16,0,0,1,.67,0,4.29,4.29,0,0,1,.53.09Zm-5.94,8.74a.9.9,0,0,0,.47.8,2.64,2.64,0,0,0,1.32.28,4,4,0,0,0,1.95-.38,1.12,1.12,0,0,0,.64-1,.74.74,0,0,0-.35-.7A2.8,2.8,0,0,0,47,94.15H45.82a1.7,1.7,0,0,0-1.1.33A1.06,1.06,0,0,0,44.31,95.36ZM45,89.07a1.48,1.48,0,0,0,.37,1.09,1.35,1.35,0,0,0,1.05.38c.93,0,1.39-.49,1.39-1.49a1.71,1.71,0,0,0-.34-1.14,1.33,1.33,0,0,0-1-.4,1.37,1.37,0,0,0-1.06.4A1.68,1.68,0,0,0,45,89.07Z"/><path class="cls-2" d="M55.49,86.48a4.32,4.32,0,0,1,.8.07l-.16,1.5a2.76,2.76,0,0,0-.71-.08,2.09,2.09,0,0,0-1.56.62,2.29,2.29,0,0,0-.6,1.64v4H51.65V86.62h1.26L53.12,88h.09a2.89,2.89,0,0,1,1-1.07A2.27,2.27,0,0,1,55.49,86.48Z"/><path class="cls-2" d="M61,94.32a3.7,3.7,0,0,1-2.76-1,3.93,3.93,0,0,1-1-2.84,4.32,4.32,0,0,1,.92-2.91,3.22,3.22,0,0,1,2.54-1.06,3.13,3.13,0,0,1,2.36.91,3.47,3.47,0,0,1,.87,2.5v.87h-5a2.46,2.46,0,0,0,.6,1.69,2.05,2.05,0,0,0,1.58.6,6,6,0,0,0,1.24-.13,7.65,7.65,0,0,0,1.25-.42v1.3a5.06,5.06,0,0,1-1.19.4A7.16,7.16,0,0,1,61,94.32ZM60.7,87.7a1.63,1.63,0,0,0-1.23.48,2.33,2.33,0,0,0-.55,1.42h3.43a2.12,2.12,0,0,0-.45-1.42A1.54,1.54,0,0,0,60.7,87.7Z"/><path class="cls-2" d="M70.84,92a2,2,0,0,1-.81,1.7,3.9,3.9,0,0,1-2.31.59,5.54,5.54,0,0,1-2.43-.46V92.47a6,6,0,0,0,2.48.62c1,0,1.49-.3,1.49-.9a.72.72,0,0,0-.17-.48,1.79,1.79,0,0,0-.54-.39,8.41,8.41,0,0,0-1-.47,4.88,4.88,0,0,1-1.77-1,1.87,1.87,0,0,1-.46-1.31A1.73,1.73,0,0,1,66.06,87a3.69,3.69,0,0,1,2.13-.54,6,6,0,0,1,2.52.54l-.52,1.21a5.7,5.7,0,0,0-2-.5c-.85,0-1.28.24-1.28.72a.71.71,0,0,0,.34.6,7,7,0,0,0,1.44.68,6.37,6.37,0,0,1,1.36.66,2,2,0,0,1,.63.7A2,2,0,0,1,70.84,92Z"/><path class="cls-2" d="M77.3,94.18,77,93.13h0a3.27,3.27,0,0,1-1.1.94,3.63,3.63,0,0,1-1.43.25,2.42,2.42,0,0,1-1.74-.6A2.3,2.3,0,0,1,72,92a2,2,0,0,1,.87-1.76,5,5,0,0,1,2.64-.65l1.31,0v-.4a1.52,1.52,0,0,0-.34-1.09,1.39,1.39,0,0,0-1-.36,3.68,3.68,0,0,0-1.11.17,8.5,8.5,0,0,0-1,.41l-.52-1.15a5.28,5.28,0,0,1,1.35-.49,6.34,6.34,0,0,1,1.38-.17,3.28,3.28,0,0,1,2.18.63,2.47,2.47,0,0,1,.73,2v5.09Zm-2.39-1.09a2,2,0,0,0,1.4-.49,1.76,1.76,0,0,0,.53-1.37v-.66l-1,0a3.45,3.45,0,0,0-1.65.38,1.16,1.16,0,0,0-.51,1,1,1,0,0,0,.3.78A1.31,1.31,0,0,0,74.91,93.09Z"/><path class="cls-2" d="M87.15,93a3.67,3.67,0,0,0,1.17-.19V94a2.88,2.88,0,0,1-.69.2,4.94,4.94,0,0,1-.87.08c-1.52,0-2.28-.81-2.28-2.41V87.84h-1v-.71l1.11-.59.54-1.6h1v1.68h2.16v1.22H86.09v4a1.14,1.14,0,0,0,.29.86A1.06,1.06,0,0,0,87.15,93Z"/><path class="cls-2" d="M95.16,94.18l-.22-1h-.08a2.3,2.3,0,0,1-1,.83,3.18,3.18,0,0,1-1.41.3,2.76,2.76,0,0,1-2-.69,2.82,2.82,0,0,1-.68-2.07V86.62h1.62v4.66a2,2,0,0,0,.36,1.3,1.36,1.36,0,0,0,1.11.44,1.76,1.76,0,0,0,1.49-.61,3.29,3.29,0,0,0,.48-2V86.62h1.61v7.56Z"/><path class="cls-2" d="M105.17,93a3.73,3.73,0,0,0,1.18-.19V94a3,3,0,0,1-.69.2,4.94,4.94,0,0,1-.87.08c-1.52,0-2.28-.81-2.28-2.41V87.84h-1v-.71l1.11-.59.55-1.6h1v1.68h2.15v1.22h-2.15v4a1.14,1.14,0,0,0,.29.86A1,1,0,0,0,105.17,93Z"/><path class="cls-2" d="M114.56,90.39a4.11,4.11,0,0,1-1,2.89,3.4,3.4,0,0,1-2.64,1,3.59,3.59,0,0,1-1.87-.48,3.11,3.11,0,0,1-1.25-1.38,4.54,4.54,0,0,1-.44-2.07,4.11,4.11,0,0,1,.94-2.88,3.46,3.46,0,0,1,2.66-1,3.33,3.33,0,0,1,2.6,1.06A4.06,4.06,0,0,1,114.56,90.39Zm-5.5,0c0,1.74.65,2.61,1.94,2.61s1.91-.87,1.91-2.61-.64-2.59-1.93-2.59a1.63,1.63,0,0,0-1.46.67A3.32,3.32,0,0,0,109.06,90.39Z"/><path class="cls-2" d="M118,90.19l.91-1.14,2.28-2.43H123l-3,3.25,3.23,4.31h-1.89l-2.42-3.32-.89.73v2.59h-1.59V83.54H118v5.19l-.08,1.46Z"/><path class="cls-2" d="M127.72,94.32a3.67,3.67,0,0,1-2.76-1,3.93,3.93,0,0,1-1-2.84,4.27,4.27,0,0,1,.93-2.91,3.2,3.2,0,0,1,2.53-1.06,3.15,3.15,0,0,1,2.37.91,3.47,3.47,0,0,1,.87,2.5v.87h-5a2.46,2.46,0,0,0,.59,1.69,2.07,2.07,0,0,0,1.58.6,6.15,6.15,0,0,0,1.25-.13,7.26,7.26,0,0,0,1.24-.42v1.3a4.91,4.91,0,0,1-1.19.4A7.06,7.06,0,0,1,127.72,94.32Zm-.3-6.62a1.6,1.6,0,0,0-1.22.48,2.33,2.33,0,0,0-.55,1.42h3.43a2.12,2.12,0,0,0-.45-1.42A1.57,1.57,0,0,0,127.42,87.7Z"/><path class="cls-2" d="M139.13,94.18h-1.61V89.53a2,2,0,0,0-.35-1.3,1.36,1.36,0,0,0-1.12-.43,1.77,1.77,0,0,0-1.49.6,3.34,3.34,0,0,0-.47,2v3.77h-1.61V86.62h1.26l.23,1h.08a2.2,2.2,0,0,1,1-.83,3.18,3.18,0,0,1,1.39-.3c1.82,0,2.72.93,2.72,2.77Z"/><path class="cls-6" d="M140.72,204.62h4.44v-1.1l.55-.56v2.21h-5v1.11l-5.52-1.66v-9.94l5.52-1.66v1.11h5v2.76l-.55-.55v-1.66h-4.44Zm-.55.92V193.76l-4.42,1.33v9.12Zm6.12-5.89-1.82-1.82.39-.39,2.49,2.49-2.49,2.48-.39-.39,1.82-1.82h-5v-.55Z"/><path class="cls-2" d="M158.63,195.56a2.32,2.32,0,0,0-2,1,4.45,4.45,0,0,0-.7,2.68q0,3.58,2.68,3.58a8.65,8.65,0,0,0,2.74-.56v1.9a7.53,7.53,0,0,1-3,.55,4.48,4.48,0,0,1-3.57-1.41,6,6,0,0,1-1.24-4.07,6.58,6.58,0,0,1,.61-2.93,4.38,4.38,0,0,1,1.75-1.93,5.18,5.18,0,0,1,2.66-.67,7.28,7.28,0,0,1,3.14.76l-.73,1.84a12.26,12.26,0,0,0-1.21-.49A3.67,3.67,0,0,0,158.63,195.56Z"/><path class="cls-2" d="M170.91,200.43a4.39,4.39,0,0,1-1,3.12,3.82,3.82,0,0,1-2.94,1.13,4.14,4.14,0,0,1-2.08-.51,3.52,3.52,0,0,1-1.39-1.49,5,5,0,0,1-.48-2.25,4.36,4.36,0,0,1,1.05-3.12,3.82,3.82,0,0,1,2.94-1.12,4,4,0,0,1,2.08.52,3.47,3.47,0,0,1,1.39,1.47A5,5,0,0,1,170.91,200.43Zm-5.66,0a3.42,3.42,0,0,0,.4,1.84,1.43,1.43,0,0,0,1.3.62,1.41,1.41,0,0,0,1.28-.62,3.5,3.5,0,0,0,.39-1.84,3.46,3.46,0,0,0-.39-1.83,1.7,1.7,0,0,0-2.59,0A3.41,3.41,0,0,0,165.25,200.43Z"/><path class="cls-2" d="M180.31,204.54h-2.23v-4.79a2.31,2.31,0,0,0-.31-1.33,1.17,1.17,0,0,0-1-.44,1.5,1.5,0,0,0-1.35.63,3.84,3.84,0,0,0-.42,2.07v3.86h-2.23v-8.19h1.7l.3,1h.13a2.35,2.35,0,0,1,1-.89,3.51,3.51,0,0,1,1.49-.31,2.83,2.83,0,0,1,2.16.78,3,3,0,0,1,.74,2.23Z"/><path class="cls-2" d="M186.06,202.9a4.88,4.88,0,0,0,1.41-.25v1.66a5,5,0,0,1-2.05.37,2.5,2.5,0,0,1-1.95-.67,3,3,0,0,1-.61-2V198h-1.07v-.94l1.23-.75.64-1.73h1.43v1.75h2.29V198h-2.29V202a.89.89,0,0,0,.27.71A1,1,0,0,0,186.06,202.9Z"/><path class="cls-2" d="M189,194.23c0-.73.41-1.09,1.22-1.09s1.21.36,1.21,1.09a1.06,1.06,0,0,1-.3.81,1.31,1.31,0,0,1-.91.29C189.44,195.33,189,195,189,194.23Zm2.33,10.31h-2.23v-8.19h2.23Z"/><path class="cls-2" d="M201.26,204.54H199v-4.79a2.31,2.31,0,0,0-.32-1.33,1.15,1.15,0,0,0-1-.44,1.51,1.51,0,0,0-1.36.63,4,4,0,0,0-.41,2.07v3.86H193.7v-8.19h1.71l.3,1h.12a2.41,2.41,0,0,1,1-.89,3.58,3.58,0,0,1,1.49-.31,2.84,2.84,0,0,1,2.17.78,3.09,3.09,0,0,1,.74,2.23Z"/><path class="cls-2" d="M209.36,204.54l-.3-1h-.12a2.3,2.3,0,0,1-1,.88,3.44,3.44,0,0,1-1.5.31,2.84,2.84,0,0,1-2.18-.77,3.11,3.11,0,0,1-.73-2.22v-5.34h2.23v4.78a2.31,2.31,0,0,0,.32,1.33,1.13,1.13,0,0,0,1,.44,1.54,1.54,0,0,0,1.36-.62,4,4,0,0,0,.41-2.08v-3.85h2.24v8.19Z"/><path class="cls-2" d="M218.62,204.54l-.43-1.12h-.06a3.34,3.34,0,0,1-1.16,1,3.83,3.83,0,0,1-1.56.27,2.5,2.5,0,0,1-1.85-.67,2.56,2.56,0,0,1-.68-1.92,2.15,2.15,0,0,1,.91-1.92,5.36,5.36,0,0,1,2.75-.69l1.42,0v-.36a1.11,1.11,0,0,0-1.27-1.25,5.73,5.73,0,0,0-2.31.6l-.74-1.51a6.69,6.69,0,0,1,3.13-.74,3.89,3.89,0,0,1,2.53.72,2.63,2.63,0,0,1,.88,2.18v5.46Zm-.66-3.8-.86,0a2.8,2.8,0,0,0-1.45.35,1.12,1.12,0,0,0-.48,1c0,.63.36,1,1.08,1a1.74,1.74,0,0,0,1.25-.45,1.56,1.56,0,0,0,.46-1.18Z"/><path class="cls-2" d="M227.05,196.19a3.82,3.82,0,0,1,.75.07l-.16,2.09a3,3,0,0,0-.66-.07,2.35,2.35,0,0,0-1.67.55,2,2,0,0,0-.6,1.54v4.17h-2.23v-8.19h1.69l.33,1.37h.11a3.1,3.1,0,0,1,1-1.1A2.46,2.46,0,0,1,227.05,196.19Z"/><path class="cls-7" d="M41.78,58.3H40.12V51.83H38V50.45h5.93v1.38H41.78Z"/><path class="cls-7" d="M50.45,55.29a3.25,3.25,0,0,1-.77,2.29,2.81,2.81,0,0,1-2.15.83A3,3,0,0,1,46,58a2.56,2.56,0,0,1-1-1.09,3.71,3.71,0,0,1-.35-1.65A3.22,3.22,0,0,1,45.4,53a2.8,2.8,0,0,1,2.16-.82,3,3,0,0,1,1.52.38,2.54,2.54,0,0,1,1,1.08A3.71,3.71,0,0,1,50.45,55.29Zm-4.15,0a2.6,2.6,0,0,0,.29,1.35,1.07,1.07,0,0,0,1,.45,1,1,0,0,0,.94-.45,2.55,2.55,0,0,0,.29-1.35A2.52,2.52,0,0,0,48.49,54a1.05,1.05,0,0,0-1-.45,1,1,0,0,0-.95.45A2.49,2.49,0,0,0,46.3,55.29Z"/><path class="cls-7" d="M53.38,55l.71-.91,1.69-1.82h1.84l-2.38,2.6,2.53,3.4H55.88l-1.73-2.43-.71.56V58.3H51.81V49.94h1.63v3.73L53.36,55Z"/><path class="cls-7" d="M61.35,58.41a3.11,3.11,0,0,1-2.27-.8,3,3,0,0,1-.82-2.27A3.29,3.29,0,0,1,59,53a2.68,2.68,0,0,1,2.08-.83,2.65,2.65,0,0,1,2,.73,2.74,2.74,0,0,1,.7,2v.8H59.92a1.61,1.61,0,0,0,.42,1.09,1.44,1.44,0,0,0,1.08.39,4.93,4.93,0,0,0,1-.11,6.19,6.19,0,0,0,1-.36V58a3.72,3.72,0,0,1-.92.32A5.81,5.81,0,0,1,61.35,58.41Zm-.24-5.06a1,1,0,0,0-.81.33,1.51,1.51,0,0,0-.34.94h2.3a1.35,1.35,0,0,0-.32-.94A1.07,1.07,0,0,0,61.11,53.35Z"/><path class="cls-7" d="M70.67,58.3H69V54.79a1.69,1.69,0,0,0-.23-1,.83.83,0,0,0-.74-.33,1.12,1.12,0,0,0-1,.46,2.9,2.9,0,0,0-.31,1.52V58.3H65.13v-6h1.25l.22.76h.09a1.64,1.64,0,0,1,.75-.65,2.57,2.57,0,0,1,1.1-.23,2.09,2.09,0,0,1,1.59.57,2.27,2.27,0,0,1,.54,1.63Z"/><path class="cls-7" d="M77.93,58.41a3.13,3.13,0,0,1-2.27-.8,3.06,3.06,0,0,1-.81-2.27A3.33,3.33,0,0,1,75.6,53a2.7,2.7,0,0,1,2.09-.83,2.61,2.61,0,0,1,2,.73,2.74,2.74,0,0,1,.71,2v.8H76.51a1.6,1.6,0,0,0,.41,1.09,1.47,1.47,0,0,0,1.09.39,4.76,4.76,0,0,0,1-.11,5.87,5.87,0,0,0,1-.36V58a3.45,3.45,0,0,1-.92.32A5.67,5.67,0,0,1,77.93,58.41Zm-.23-5.06a1,1,0,0,0-.82.33,1.51,1.51,0,0,0-.33.94h2.29a1.35,1.35,0,0,0-.31-.94A1.08,1.08,0,0,0,77.7,53.35Z"/><path class="cls-7" d="M82.94,55.23,81,52.3h1.86L84,54.21l1.18-1.91h1.86l-2,2.93,2,3.07H85.29L84,56.24,82.77,58.3H80.91Z"/><path class="cls-7" d="M91.37,58.41a2,2,0,0,1-1.66-.77h-.09q.09.75.09.87v2.43H88.07V52.3H89.4l.23.77h.08a1.9,1.9,0,0,1,1.7-.89,2,2,0,0,1,1.67.82,3.82,3.82,0,0,1,.6,2.29A4.5,4.5,0,0,1,93.4,57,2.38,2.38,0,0,1,92.59,58,2.07,2.07,0,0,1,91.37,58.41Zm-.48-4.92a1,1,0,0,0-.89.38,2.11,2.11,0,0,0-.29,1.23v.18A2.53,2.53,0,0,0,90,56.66a1,1,0,0,0,.91.42c.73,0,1.1-.6,1.1-1.81a2.57,2.57,0,0,0-.27-1.33A.93.93,0,0,0,90.89,53.49Z"/><path class="cls-7" d="M95,50.74c0-.53.3-.8.89-.8s.9.27.9.8a.78.78,0,0,1-.23.6.94.94,0,0,1-.67.21C95.26,51.55,95,51.28,95,50.74Zm1.71,7.56H95v-6h1.64Z"/><path class="cls-7" d="M101.74,52.18a2.72,2.72,0,0,1,.55,0l-.12,1.54a1.65,1.65,0,0,0-.48-.06,1.71,1.71,0,0,0-1.22.41,1.41,1.41,0,0,0-.44,1.12V58.3H98.39v-6h1.24l.24,1H100a2.36,2.36,0,0,1,.76-.81A1.89,1.89,0,0,1,101.74,52.18Z"/><path class="cls-7" d="M107.2,58.3l-.32-.82h0a2.54,2.54,0,0,1-.85.73,2.84,2.84,0,0,1-1.14.2,1.88,1.88,0,0,1-1.37-.5,1.9,1.9,0,0,1-.49-1.4,1.57,1.57,0,0,1,.67-1.41,3.82,3.82,0,0,1,2-.51l1,0V54.3a.81.81,0,0,0-.93-.91,4.24,4.24,0,0,0-1.69.43l-.54-1.11a4.87,4.87,0,0,1,2.29-.54,2.88,2.88,0,0,1,1.86.53,1.93,1.93,0,0,1,.64,1.6v4Zm-.49-2.78-.63,0a1.94,1.94,0,0,0-1.06.26.78.78,0,0,0-.35.72c0,.46.26.69.79.69a1.24,1.24,0,0,0,.91-.33,1.15,1.15,0,0,0,.34-.87Z"/><path class="cls-7" d="M111.93,58.41a2,2,0,0,1-1.66-.82,4.57,4.57,0,0,1,0-4.58,2,2,0,0,1,1.69-.83,2,2,0,0,1,1.73.88h.06a6,6,0,0,1-.13-1.19V49.94h1.65V58.3H114l-.32-.78h-.07A1.88,1.88,0,0,1,111.93,58.41Zm.57-1.31a1.14,1.14,0,0,0,.93-.36,2.2,2.2,0,0,0,.32-1.24v-.18a2.45,2.45,0,0,0-.3-1.39,1.11,1.11,0,0,0-1-.42,1,1,0,0,0-.85.47,3.05,3.05,0,0,0,0,2.68A1,1,0,0,0,112.5,57.1Z"/><path class="cls-7" d="M122.45,55.29a3.21,3.21,0,0,1-.78,2.29,2.79,2.79,0,0,1-2.15.83A3,3,0,0,1,118,58a2.54,2.54,0,0,1-1-1.09,3.58,3.58,0,0,1-.36-1.65,3.22,3.22,0,0,1,.77-2.29,2.8,2.8,0,0,1,2.16-.82,3,3,0,0,1,1.53.38,2.46,2.46,0,0,1,1,1.08A3.58,3.58,0,0,1,122.45,55.29Zm-4.16,0a2.5,2.5,0,0,0,.3,1.35,1,1,0,0,0,1,.45,1,1,0,0,0,.94-.45,2.46,2.46,0,0,0,.29-1.35,2.52,2.52,0,0,0-.29-1.34,1,1,0,0,0-1-.45,1.05,1.05,0,0,0-1,.45A2.49,2.49,0,0,0,118.29,55.29Z"/><path class="cls-7" d="M123.57,53.1a.92.92,0,0,1,.24-.69,1,1,0,0,1,.7-.23.93.93,0,0,1,.69.24,1,1,0,0,1,0,1.35,1,1,0,0,1-.69.24.93.93,0,0,1-.69-.24A.87.87,0,0,1,123.57,53.1Zm0,4.43a.89.89,0,0,1,.24-.68,1,1,0,0,1,.7-.23.93.93,0,0,1,.69.24.85.85,0,0,1,.25.67.88.88,0,0,1-.25.67,1.09,1.09,0,0,1-1.38,0A.89.89,0,0,1,123.57,57.53Z"/><path class="cls-7" d="M133.09,58.41a2,2,0,0,1-1.66-.77h-.08c.05.5.08.79.08.87v2.43h-1.64V52.3h1.34l.23.77h.07a1.91,1.91,0,0,1,1.71-.89,2,2,0,0,1,1.66.82,3.82,3.82,0,0,1,.6,2.29,4.5,4.5,0,0,1-.28,1.67,2.44,2.44,0,0,1-.8,1.08A2.13,2.13,0,0,1,133.09,58.41Zm-.48-4.92a1,1,0,0,0-.89.38,2.19,2.19,0,0,0-.29,1.23v.18a2.53,2.53,0,0,0,.29,1.38,1,1,0,0,0,.91.42c.73,0,1.1-.6,1.1-1.81a2.57,2.57,0,0,0-.27-1.33A.92.92,0,0,0,132.61,53.49Z"/><path class="cls-7" d="M142.21,55.29a3.25,3.25,0,0,1-.77,2.29,2.81,2.81,0,0,1-2.15.83,3,3,0,0,1-1.53-.38,2.56,2.56,0,0,1-1-1.09,3.71,3.71,0,0,1-.35-1.65,3.22,3.22,0,0,1,.77-2.29,2.8,2.8,0,0,1,2.16-.82,3,3,0,0,1,1.52.38,2.54,2.54,0,0,1,1,1.08A3.71,3.71,0,0,1,142.21,55.29Zm-4.15,0a2.6,2.6,0,0,0,.29,1.35,1.07,1.07,0,0,0,1,.45,1,1,0,0,0,.94-.45,2.55,2.55,0,0,0,.29-1.35,2.52,2.52,0,0,0-.29-1.34,1.05,1.05,0,0,0-.95-.45,1,1,0,0,0-1,.45A2.49,2.49,0,0,0,138.06,55.29Z"/><path class="cls-7" d="M146.92,52.18a2.79,2.79,0,0,1,.55,0l-.12,1.54a1.77,1.77,0,0,0-.49-.06,1.73,1.73,0,0,0-1.22.41,1.44,1.44,0,0,0-.44,1.12V58.3h-1.63v-6h1.24l.24,1h.08a2.33,2.33,0,0,1,.75-.81A1.92,1.92,0,0,1,146.92,52.18Z"/><path class="cls-7" d="M154.74,53.53h-1.42V58.3h-1.64V53.53h-.9v-.79l.9-.44v-.45a1.93,1.93,0,0,1,.51-1.49,2.26,2.26,0,0,1,1.61-.48,4.15,4.15,0,0,1,1.51.26l-.42,1.2a3.18,3.18,0,0,0-.91-.16.58.58,0,0,0-.5.21.82.82,0,0,0-.16.53v.38h1.42Z"/><path class="cls-7" d="M159.49,58.3l-.32-.82h0a2.44,2.44,0,0,1-.85.73,2.81,2.81,0,0,1-1.14.2,1.84,1.84,0,0,1-1.36-.5,1.9,1.9,0,0,1-.5-1.4A1.57,1.57,0,0,1,156,55.1a3.87,3.87,0,0,1,2-.51l1,0V54.3c0-.61-.31-.91-.94-.91a4.24,4.24,0,0,0-1.69.43l-.54-1.11a4.91,4.91,0,0,1,2.3-.54,2.87,2.87,0,0,1,1.85.53,1.94,1.94,0,0,1,.65,1.6v4ZM159,55.52l-.64,0a2,2,0,0,0-1.06.26.8.8,0,0,0-.35.72c0,.46.27.69.8.69a1.26,1.26,0,0,0,.91-.33A1.18,1.18,0,0,0,159,56Z"/><path class="cls-7" d="M163.75,58.3l-2.29-6h1.72l1.16,3.42a6.5,6.5,0,0,1,.24,1.23h0a5.5,5.5,0,0,1,.24-1.23L166,52.3h1.71l-2.29,6Z"/><path class="cls-7" d="M174,55.29a3.21,3.21,0,0,1-.78,2.29,2.79,2.79,0,0,1-2.15.83,3,3,0,0,1-1.53-.38,2.48,2.48,0,0,1-1-1.09,3.58,3.58,0,0,1-.36-1.65A3.22,3.22,0,0,1,169,53a2.8,2.8,0,0,1,2.16-.82,3,3,0,0,1,1.53.38,2.46,2.46,0,0,1,1,1.08A3.58,3.58,0,0,1,174,55.29Zm-4.16,0a2.5,2.5,0,0,0,.3,1.35,1,1,0,0,0,.95.45,1,1,0,0,0,.94-.45,2.55,2.55,0,0,0,.29-1.35,2.52,2.52,0,0,0-.29-1.34,1,1,0,0,0-.95-.45,1.05,1.05,0,0,0-1,.45A2.49,2.49,0,0,0,169.88,55.29Z"/><path class="cls-7" d="M178.74,52.18a2.72,2.72,0,0,1,.55,0l-.12,1.54a1.65,1.65,0,0,0-.48-.06,1.71,1.71,0,0,0-1.22.41,1.41,1.41,0,0,0-.44,1.12V58.3h-1.64v-6h1.24l.24,1H177a2.36,2.36,0,0,1,.76-.81A1.89,1.89,0,0,1,178.74,52.18Z"/><path class="cls-7" d="M183.17,50.74c0-.53.3-.8.89-.8s.9.27.9.8a.78.78,0,0,1-.23.6.94.94,0,0,1-.67.21C183.47,51.55,183.17,51.28,183.17,50.74Zm1.71,7.56h-1.64v-6h1.64Z"/><path class="cls-7" d="M192.14,58.3H190.5V54.79a1.62,1.62,0,0,0-.23-1,.83.83,0,0,0-.73-.33,1.14,1.14,0,0,0-1,.46,2.92,2.92,0,0,0-.3,1.52V58.3H186.6v-6h1.25l.22.76h.09a1.66,1.66,0,0,1,.76-.65,2.53,2.53,0,0,1,1.09-.23,2.09,2.09,0,0,1,1.59.57,2.27,2.27,0,0,1,.54,1.63Z"/><path class="cls-7" d="M199.05,52.3v.83l-.94.24a1.58,1.58,0,0,1,.26.9,1.82,1.82,0,0,1-.67,1.51,2.93,2.93,0,0,1-1.87.54l-.3,0-.24,0a.52.52,0,0,0-.25.42q0,.36.9.36h1a2.36,2.36,0,0,1,1.51.42,1.54,1.54,0,0,1,.51,1.25,1.84,1.84,0,0,1-.87,1.63,4.58,4.58,0,0,1-2.53.58,3.55,3.55,0,0,1-1.92-.43,1.41,1.41,0,0,1-.66-1.23,1.27,1.27,0,0,1,.34-.91,2,2,0,0,1,1-.52,1.2,1.2,0,0,1-.44-.35.89.89,0,0,1-.18-.52.84.84,0,0,1,.19-.57,2.38,2.38,0,0,1,.58-.45,1.6,1.6,0,0,1-.75-.66,1.93,1.93,0,0,1-.28-1.06,1.89,1.89,0,0,1,.64-1.52,2.77,2.77,0,0,1,1.83-.54,4.83,4.83,0,0,1,.6,0,3.61,3.61,0,0,1,.44.07Zm-4.63,6.85a.61.61,0,0,0,.32.53,1.79,1.79,0,0,0,.91.19,3.31,3.31,0,0,0,1.39-.24.73.73,0,0,0,.49-.66.47.47,0,0,0-.29-.47,2.58,2.58,0,0,0-.91-.12h-.85a1.31,1.31,0,0,0-.76.21A.66.66,0,0,0,194.42,59.15Zm.6-4.89a1.2,1.2,0,0,0,.22.77.81.81,0,0,0,.68.29.78.78,0,0,0,.67-.29,1.2,1.2,0,0,0,.22-.77c0-.72-.3-1.08-.89-1.08S195,53.54,195,54.26Z"/><path class="cls-7" d="M203.39,52.18a2.83,2.83,0,0,1,.56,0l-.13,1.54a1.65,1.65,0,0,0-.48-.06,1.73,1.73,0,0,0-1.22.41,1.44,1.44,0,0,0-.44,1.12V58.3H200v-6h1.24l.25,1h.08a2.24,2.24,0,0,1,.75-.81A1.91,1.91,0,0,1,203.39,52.18Z"/><path class="cls-7" d="M207.76,58.41a3.11,3.11,0,0,1-2.27-.8,3,3,0,0,1-.82-2.27,3.29,3.29,0,0,1,.76-2.33,2.68,2.68,0,0,1,2.08-.83,2.65,2.65,0,0,1,2,.73,2.74,2.74,0,0,1,.71,2v.8h-3.88a1.61,1.61,0,0,0,.42,1.09,1.44,1.44,0,0,0,1.08.39,4.93,4.93,0,0,0,1-.11,5.87,5.87,0,0,0,1-.36V58a3.72,3.72,0,0,1-.92.32A5.81,5.81,0,0,1,207.76,58.41Zm-.24-5.06a1,1,0,0,0-.81.33,1.51,1.51,0,0,0-.34.94h2.3a1.35,1.35,0,0,0-.32-.94A1.07,1.07,0,0,0,207.52,53.35Z"/><path class="cls-7" d="M215.73,56.52a1.64,1.64,0,0,1-.65,1.4,3.09,3.09,0,0,1-1.92.49,5.93,5.93,0,0,1-1.11-.09,4.64,4.64,0,0,1-.87-.26V56.7a5,5,0,0,0,1,.36,4,4,0,0,0,1,.15c.59,0,.89-.17.89-.52a.43.43,0,0,0-.12-.31,1.59,1.59,0,0,0-.41-.27c-.19-.11-.45-.22-.77-.36a4.61,4.61,0,0,1-1-.54,1.5,1.5,0,0,1-.47-.57,1.81,1.81,0,0,1-.15-.78,1.43,1.43,0,0,1,.62-1.24,3.05,3.05,0,0,1,1.76-.44,4.92,4.92,0,0,1,2.11.48l-.49,1.18a7.59,7.59,0,0,0-.85-.32,2.67,2.67,0,0,0-.8-.12q-.72,0-.72.39a.47.47,0,0,0,.23.38,6.16,6.16,0,0,0,1,.48,4.54,4.54,0,0,1,1,.53,1.44,1.44,0,0,1,.48.57A1.79,1.79,0,0,1,215.73,56.52Z"/><path class="cls-7" d="M220.82,58.3l-.32-.82h0a2.54,2.54,0,0,1-.85.73,2.84,2.84,0,0,1-1.14.2,1.88,1.88,0,0,1-1.37-.5,1.9,1.9,0,0,1-.49-1.4,1.57,1.57,0,0,1,.67-1.41,3.82,3.82,0,0,1,2-.51l1,0V54.3a.81.81,0,0,0-.93-.91,4.24,4.24,0,0,0-1.69.43l-.54-1.11a4.87,4.87,0,0,1,2.29-.54,2.88,2.88,0,0,1,1.86.53,1.93,1.93,0,0,1,.64,1.6v4Zm-.49-2.78-.63,0a1.94,1.94,0,0,0-1.06.26.78.78,0,0,0-.35.72c0,.46.26.69.79.69a1.24,1.24,0,0,0,.91-.33,1.15,1.15,0,0,0,.34-.87Z"/><path class="cls-7" d="M228.41,58.41a2,2,0,0,1-1.66-.82,4.57,4.57,0,0,1,0-4.58,2.14,2.14,0,0,1,3.42.05h0a6.75,6.75,0,0,1-.12-1.19V49.94h1.64V58.3H230.5l-.32-.78h-.07A1.88,1.88,0,0,1,228.41,58.41ZM229,57.1a1.11,1.11,0,0,0,.92-.36,2.05,2.05,0,0,0,.32-1.24v-.18a2.45,2.45,0,0,0-.3-1.39,1.09,1.09,0,0,0-1-.42,1,1,0,0,0-.86.47,2.5,2.5,0,0,0-.3,1.35,2.31,2.31,0,0,0,.31,1.33A1,1,0,0,0,229,57.1Z"/><path class="cls-7" d="M236.18,58.41a3.1,3.1,0,0,1-2.26-.8,3,3,0,0,1-.82-2.27,3.29,3.29,0,0,1,.76-2.33,2.67,2.67,0,0,1,2.08-.83,2.61,2.61,0,0,1,2,.73,2.7,2.7,0,0,1,.71,2v.8h-3.87a1.65,1.65,0,0,0,.41,1.09,1.47,1.47,0,0,0,1.09.39,4.93,4.93,0,0,0,1-.11,6.19,6.19,0,0,0,1-.36V58a3.72,3.72,0,0,1-.92.32A5.84,5.84,0,0,1,236.18,58.41ZM236,53.35a1,1,0,0,0-.81.33,1.51,1.51,0,0,0-.34.94h2.3a1.35,1.35,0,0,0-.32-.94A1.07,1.07,0,0,0,236,53.35Z"/><path class="cls-7" d="M248.37,58.3h-1.64V54.79a1.69,1.69,0,0,0-.23-1,.85.85,0,0,0-.74-.33,1.11,1.11,0,0,0-1,.46,2.81,2.81,0,0,0-.31,1.52V58.3h-1.64v-6h1.26l.21.76h.1a1.64,1.64,0,0,1,.75-.65,2.56,2.56,0,0,1,1.09-.23,2.09,2.09,0,0,1,1.59.57,2.23,2.23,0,0,1,.55,1.63Z"/><path class="cls-7" d="M254.31,58.3l-.22-.77H254a1.65,1.65,0,0,1-.75.65,2.57,2.57,0,0,1-1.1.23,2.09,2.09,0,0,1-1.59-.57,2.27,2.27,0,0,1-.54-1.63V52.3h1.64v3.5a1.73,1.73,0,0,0,.23,1,.85.85,0,0,0,.73.32,1.1,1.1,0,0,0,1-.46,2.85,2.85,0,0,0,.31-1.52V52.3h1.63v6Z"/><path class="cls-7" d="M260,58.41a3.13,3.13,0,0,1-2.27-.8,3.06,3.06,0,0,1-.81-2.27,3.33,3.33,0,0,1,.75-2.33,2.69,2.69,0,0,1,2.09-.83,2.61,2.61,0,0,1,2,.73,2.74,2.74,0,0,1,.71,2v.8h-3.87A1.55,1.55,0,0,0,259,56.8a1.47,1.47,0,0,0,1.09.39,4.76,4.76,0,0,0,1-.11,5.87,5.87,0,0,0,1-.36V58a3.58,3.58,0,0,1-.92.32A5.67,5.67,0,0,1,260,58.41Zm-.23-5.06a1,1,0,0,0-.82.33,1.58,1.58,0,0,0-.34.94h2.3a1.35,1.35,0,0,0-.31-.94A1.08,1.08,0,0,0,259.77,53.35Z"/><path class="cls-7" d="M265.21,58.3l-2.29-6h1.71l1.16,3.42A6.55,6.55,0,0,1,266,57h0a5.5,5.5,0,0,1,.24-1.23l1.16-3.42h1.71l-2.29,6Z"/><path class="cls-7" d="M275.5,55.29a3.21,3.21,0,0,1-.78,2.29,2.79,2.79,0,0,1-2.15.83A3,3,0,0,1,271,58a2.48,2.48,0,0,1-1-1.09,3.58,3.58,0,0,1-.36-1.65,3.22,3.22,0,0,1,.77-2.29,2.8,2.8,0,0,1,2.16-.82,3.07,3.07,0,0,1,1.53.38,2.51,2.51,0,0,1,1,1.08A3.58,3.58,0,0,1,275.5,55.29Zm-4.16,0a2.5,2.5,0,0,0,.3,1.35,1,1,0,0,0,.95.45,1,1,0,0,0,.94-.45,2.55,2.55,0,0,0,.29-1.35,2.52,2.52,0,0,0-.29-1.34,1,1,0,0,0-.95-.45,1.05,1.05,0,0,0-.95.45A2.49,2.49,0,0,0,271.34,55.29Z"/><path class="cls-7" d="M282.24,57.1a3.43,3.43,0,0,0,1-.19v1.22a3.57,3.57,0,0,1-1.51.28,1.85,1.85,0,0,1-1.43-.5,2.16,2.16,0,0,1-.45-1.49V53.53h-.78v-.7l.9-.55.47-1.26h1V52.3h1.68v1.23h-1.68v2.89a.67.67,0,0,0,.2.52A.77.77,0,0,0,282.24,57.1Z"/><path class="cls-7" d="M288.74,58.3l-.23-.77h-.08a1.76,1.76,0,0,1-.75.65,2.57,2.57,0,0,1-1.1.23,2.07,2.07,0,0,1-1.59-.57,2.27,2.27,0,0,1-.54-1.63V52.3h1.64v3.5a1.65,1.65,0,0,0,.23,1,.85.85,0,0,0,.73.32,1.11,1.11,0,0,0,1-.46,2.87,2.87,0,0,0,.3-1.52V52.3H290v6Z"/><path class="cls-7" d="M297.1,57.1a3.43,3.43,0,0,0,1-.19v1.22a3.57,3.57,0,0,1-1.51.28,1.85,1.85,0,0,1-1.43-.5,2.21,2.21,0,0,1-.44-1.49V53.53H294v-.7l.9-.55.48-1.26h1V52.3h1.68v1.23h-1.68v2.89a.67.67,0,0,0,.2.52A.77.77,0,0,0,297.1,57.1Z"/><path class="cls-7" d="M304.8,55.29a3.25,3.25,0,0,1-.77,2.29,2.83,2.83,0,0,1-2.16.83,3,3,0,0,1-1.52-.38,2.56,2.56,0,0,1-1-1.09,3.71,3.71,0,0,1-.35-1.65,3.17,3.17,0,0,1,.77-2.29,2.8,2.8,0,0,1,2.16-.82,3,3,0,0,1,1.52.38,2.54,2.54,0,0,1,1,1.08A3.71,3.71,0,0,1,304.8,55.29Zm-4.15,0a2.6,2.6,0,0,0,.29,1.35,1.05,1.05,0,0,0,.95.45,1,1,0,0,0,.95-.45,2.56,2.56,0,0,0,.28-1.35,2.42,2.42,0,0,0-.29-1.34,1.22,1.22,0,0,0-1.89,0A2.49,2.49,0,0,0,300.65,55.29Z"/><path class="cls-7" d="M307.73,55l.71-.91,1.68-1.82H312l-2.39,2.6,2.54,3.4h-1.9l-1.72-2.43-.71.56V58.3h-1.64V49.94h1.64v3.73L307.71,55Z"/><path class="cls-7" d="M315.69,58.41a3.1,3.1,0,0,1-2.26-.8,3,3,0,0,1-.82-2.27,3.29,3.29,0,0,1,.76-2.33,2.67,2.67,0,0,1,2.08-.83,2.61,2.61,0,0,1,2,.73,2.7,2.7,0,0,1,.71,2v.8h-3.87a1.65,1.65,0,0,0,.41,1.09,1.47,1.47,0,0,0,1.09.39,4.76,4.76,0,0,0,1-.11,5.59,5.59,0,0,0,1-.36V58a3.51,3.51,0,0,1-.91.32A5.84,5.84,0,0,1,315.69,58.41Zm-.23-5.06a1,1,0,0,0-.81.33,1.51,1.51,0,0,0-.34.94h2.3a1.4,1.4,0,0,0-.32-.94A1.08,1.08,0,0,0,315.46,53.35Z"/><path class="cls-7" d="M325,58.3h-1.64V54.79a1.69,1.69,0,0,0-.23-1,.85.85,0,0,0-.74-.33,1.11,1.11,0,0,0-1,.46,2.81,2.81,0,0,0-.31,1.52V58.3h-1.64v-6h1.26l.22.76H321a1.64,1.64,0,0,1,.75-.65,2.56,2.56,0,0,1,1.09-.23,2.09,2.09,0,0,1,1.59.57,2.23,2.23,0,0,1,.55,1.63Z"/></g></svg>