<?xml version="1.0" encoding="utf-8"?>
<!-- Generator: Adobe Illustrator 26.3.1, SVG Export Plug-In . SVG Version: 6.00 Build 0)  -->
<svg version="1.1" id="Capa_1" xmlns="http://www.w3.org/2000/svg" xmlns:xlink="http://www.w3.org/1999/xlink" x="0px" y="0px"
	 viewBox="0 0 363 410" style="enable-background:new 0 0 363 410;" xml:space="preserve">
<style type="text/css">
	.st0{fill:#173961;}
	.st1{fill:#FFFFFF;}
	.st2{fill:none;stroke:#FFFFFF;stroke-miterlimit:10;}
	.st3{opacity:0.5;}
	.st4{fill:#BBBBBA;}
	.st5{fill-rule:evenodd;clip-rule:evenodd;fill:#FFFFFF;}
	.st6{fill:#A8A8A8;}
</style>
<g id="Capa_2_00000093883501834165229070000004028005441113386161_">
	<path class="st0" d="M52,3.8h298l0,0V205c0,22.1-17.9,40-40,40H12l0,0V43.8C12,21.7,29.9,3.8,52,3.8z"/>
	<path class="st0" d="M52,260.1h298l0,0v90.7c0,22.1-17.9,40-40,40H12l0,0v-90.7C12,278,29.9,260.1,52,260.1z"/>
</g>
<g id="Capa_3">
	<path class="st1" d="M107.8,30h3.6c1.2-0.1,2.4,0.2,3.5,0.7c0.7,0.5,1.2,1.3,1.1,2.2c0,0.6-0.1,1.2-0.5,1.7
		c-0.3,0.4-0.8,0.7-1.3,0.8v0.1c0.6,0.1,1.2,0.4,1.6,0.9c0.8,1.4,0.6,3.1-0.7,4.2c-0.9,0.6-2,0.9-3.1,0.9h-4.3V30z M110.2,34.5h1.4
		c0.5,0,1-0.1,1.4-0.3c0.3-0.2,0.5-0.6,0.4-1c0-0.4-0.2-0.8-0.5-1c-0.5-0.2-1-0.3-1.5-0.3h-1.3V34.5z M110.2,36.4v3h1.6
		c0.5,0,1-0.1,1.5-0.4c0.3-0.3,0.5-0.7,0.5-1.2c0-1-0.7-1.4-2-1.4L110.2,36.4z"/>
	<path class="st1" d="M123.9,41.4l-0.5-1.2h-0.1c-0.3,0.4-0.8,0.8-1.2,1c-0.5,0.2-1.1,0.3-1.7,0.3c-0.7,0-1.5-0.2-2-0.7
		c-0.5-0.5-0.8-1.3-0.7-2c0-0.8,0.3-1.6,1-2c0.9-0.5,1.9-0.8,2.9-0.7h1.5v-0.4c0.1-0.7-0.4-1.2-1-1.3c-0.1,0-0.2,0-0.3,0
		c-0.9,0-1.7,0.3-2.5,0.6l-0.8-1.6c1-0.5,2.2-0.8,3.3-0.8c1-0.1,1.9,0.2,2.7,0.8c0.7,0.6,1,1.5,0.9,2.3v5.8L123.9,41.4z M123.2,37.4
		h-0.9c-0.5,0-1.1,0.1-1.5,0.4c-0.3,0.2-0.5,0.6-0.5,1c0,0.7,0.4,1,1.2,1c0.5,0,1-0.1,1.3-0.5c0.3-0.3,0.5-0.8,0.5-1.3V37.4z"/>
	<path class="st1" d="M136.1,41.4h-2.4v-5.1c0-0.5-0.1-1-0.3-1.4c-0.3-0.3-0.7-0.5-1.1-0.5c-0.6,0-1.1,0.2-1.4,0.7
		c-0.3,0.7-0.5,1.5-0.4,2.2v4.1H128v-8.7h1.8l0.3,1.1h0.1c0.3-0.4,0.6-0.8,1.1-1c0.5-0.2,1-0.3,1.6-0.3c0.9-0.1,1.7,0.2,2.3,0.8
		c0.6,0.7,0.9,1.5,0.8,2.4L136.1,41.4z"/>
	<path class="st1" d="M142.1,41.6c-2.7,0-4.1-1.5-4.1-4.5c-0.1-1.2,0.3-2.5,1.1-3.4c0.8-0.8,2-1.2,3.2-1.2c0.9,0,1.9,0.2,2.7,0.6
		l-0.7,1.8c-0.4-0.2-0.7-0.3-1.1-0.4c-0.3-0.1-0.7-0.1-1-0.1c-1.2,0-1.9,0.9-1.9,2.6c0,1.7,0.6,2.6,1.9,2.6c0.4,0,0.9-0.1,1.3-0.2
		c0.4-0.1,0.8-0.3,1.2-0.6v2c-0.4,0.2-0.8,0.4-1.2,0.5C143.1,41.5,142.6,41.6,142.1,41.6z"/>
	<path class="st1" d="M152.3,41.4l-0.5-1.2h-0.1c-0.3,0.4-0.8,0.8-1.2,1c-0.5,0.2-1.1,0.3-1.7,0.3c-0.7,0-1.5-0.2-2-0.7
		c-0.5-0.5-0.8-1.3-0.7-2c0-0.8,0.3-1.6,1-2c0.9-0.5,1.9-0.8,2.9-0.7h1.5v-0.4c0.1-0.7-0.4-1.2-1-1.3c-0.1,0-0.2,0-0.3,0
		c-0.9,0-1.7,0.3-2.5,0.6l-0.8-1.7c1-0.5,2.2-0.8,3.4-0.8c1-0.1,1.9,0.2,2.7,0.8c0.7,0.6,1,1.4,0.9,2.3v5.8L152.3,41.4z M151.6,37.4
		h-0.9c-0.5,0-1.1,0.1-1.6,0.4c-0.3,0.2-0.5,0.6-0.5,1c0,0.7,0.4,1,1.1,1c0.5,0,1-0.1,1.3-0.5c0.3-0.3,0.5-0.8,0.5-1.3V37.4z"/>
	<path class="st1" d="M163.3,41.6c-1,0-1.9-0.4-2.4-1.2c-0.6-1-0.9-2.1-0.9-3.3c-0.1-1.2,0.2-2.4,0.9-3.3c0.6-0.8,1.5-1.2,2.5-1.2
		c1,0,2,0.4,2.5,1.3h0.1c-0.1-0.6-0.2-1.2-0.2-1.7v-2.8h2.4v12.2h-1.8l-0.5-1.1h-0.1C165.3,41.2,164.3,41.6,163.3,41.6z M164.2,39.7
		c0.5,0,1-0.1,1.3-0.5c0.3-0.5,0.5-1.2,0.5-1.8v-0.3c0.1-0.7-0.1-1.4-0.4-2c-0.3-0.4-0.9-0.7-1.4-0.6c-0.5,0-1,0.2-1.2,0.7
		c-0.3,0.6-0.5,1.3-0.4,2c0,0.7,0.1,1.3,0.4,1.9C163.2,39.5,163.7,39.7,164.2,39.7z"/>
	<path class="st1" d="M174.7,41.6c-1.2,0.1-2.4-0.3-3.3-1.2c-0.8-0.9-1.3-2.1-1.2-3.3c-0.1-1.2,0.3-2.4,1.1-3.4
		c0.8-0.8,1.9-1.3,3-1.2c1.1-0.1,2.1,0.3,2.9,1c0.7,0.8,1.1,1.9,1,2.9v1.2h-5.6c0,0.6,0.2,1.2,0.6,1.6c0.4,0.4,1,0.6,1.6,0.6
		c0.5,0,1-0.1,1.5-0.2c0.5-0.1,1-0.3,1.5-0.5V41c-0.4,0.2-0.9,0.4-1.3,0.5C175.8,41.6,175.2,41.6,174.7,41.6z M174.3,34.2
		c-0.4,0-0.9,0.2-1.2,0.5c-0.3,0.4-0.5,0.9-0.5,1.4h3.4c0-0.5-0.1-1-0.5-1.4C175.2,34.4,174.8,34.2,174.3,34.2z"/>
	<path class="st1" d="M192.4,33.6c0.1,1.1-0.4,2.1-1.1,2.8c-0.9,0.7-2.1,1.1-3.3,1h-1v4.1h-2.5V30h3.6c1.1-0.1,2.2,0.2,3.2,0.9
		C192.1,31.6,192.5,32.6,192.4,33.6z M186.9,35.4h0.8c0.6,0,1.2-0.1,1.7-0.4c0.4-0.3,0.6-0.8,0.6-1.3c0-0.5-0.1-0.9-0.5-1.2
		c-0.4-0.3-1-0.5-1.5-0.4h-1.1L186.9,35.4z"/>
	<path class="st1" d="M198.3,41.6c-1.2,0.1-2.4-0.3-3.3-1.2c-0.8-0.9-1.3-2.1-1.2-3.3c-0.1-1.2,0.3-2.4,1.1-3.4
		c0.8-0.8,1.9-1.3,3-1.2c1.1-0.1,2.1,0.3,2.9,1c0.7,0.8,1.1,1.9,1,2.9v1.2h-5.6c0,0.6,0.2,1.2,0.6,1.6c0.4,0.4,1,0.6,1.6,0.6
		c0.5,0,1-0.1,1.5-0.2c0.5-0.1,1-0.3,1.5-0.5V41c-0.4,0.2-0.9,0.4-1.3,0.5C199.4,41.6,198.9,41.6,198.3,41.6z M198,34.2
		c-0.4,0-0.9,0.2-1.2,0.5c-0.3,0.4-0.5,0.9-0.5,1.4h3.3c0-0.5-0.1-1-0.5-1.4C198.9,34.4,198.5,34.2,198,34.2z"/>
	<path class="st1" d="M208.7,32.5c0.3,0,0.5,0,0.8,0.1l-0.2,2.2c-0.2-0.1-0.5-0.1-0.7-0.1c-0.6,0-1.3,0.2-1.8,0.6
		c-0.4,0.4-0.7,1-0.6,1.7v4.5h-2.4v-8.8h1.8l0.4,1.5h0.1c0.3-0.5,0.6-0.9,1.1-1.2C207.6,32.7,208.2,32.5,208.7,32.5z"/>
	<path class="st1" d="M217.2,38.8c0,0.8-0.3,1.5-0.9,2c-0.8,0.5-1.8,0.8-2.8,0.7c-0.5,0-1.1,0-1.6-0.1c-0.4-0.1-0.9-0.2-1.3-0.4v-2
		c0.5,0.2,1,0.4,1.5,0.5c0.5,0.1,1,0.2,1.5,0.2c0.9,0,1.3-0.2,1.3-0.8c0-0.2-0.1-0.3-0.2-0.5c-0.2-0.2-0.4-0.3-0.6-0.4
		c-0.3-0.2-0.7-0.3-1.1-0.5c-0.5-0.2-1-0.5-1.5-0.8c-0.3-0.2-0.5-0.5-0.7-0.8c-0.1-0.4-0.2-0.7-0.2-1.1c0-0.7,0.3-1.4,0.9-1.8
		c0.8-0.5,1.7-0.7,2.6-0.6c1.1,0,2.1,0.2,3.1,0.7l-0.7,1.7c-0.4-0.2-0.9-0.3-1.2-0.5c-0.4-0.1-0.8-0.1-1.1-0.1c-0.7,0-1,0.2-1.1,0.6
		c0,0.2,0.1,0.4,0.3,0.6c0.5,0.3,1,0.5,1.5,0.7c0.5,0.2,1,0.5,1.5,0.8c0.3,0.2,0.5,0.5,0.7,0.8C217.1,38.1,217.2,38.5,217.2,38.8z"
		/>
	<path class="st1" d="M227,37c0.1,1.2-0.3,2.4-1.1,3.3c-0.8,0.8-2,1.3-3.1,1.2c-0.8,0-1.5-0.2-2.2-0.5c-0.7-0.4-1.2-0.9-1.5-1.6
		c-0.4-0.8-0.5-1.6-0.5-2.4c-0.1-1.2,0.3-2.4,1.1-3.3c0.8-0.8,2-1.3,3.1-1.2c0.8,0,1.5,0.2,2.2,0.5c0.6,0.4,1.2,0.9,1.5,1.6
		C226.8,35.4,227,36.2,227,37z M221,37c-0.1,0.7,0.1,1.4,0.4,2c0.6,0.8,1.7,0.9,2.5,0.3c0.1-0.1,0.2-0.2,0.3-0.3
		c0.3-0.6,0.5-1.3,0.4-2c0-0.7-0.1-1.3-0.4-1.9c-0.3-0.4-0.8-0.7-1.4-0.7c-0.5,0-1.1,0.2-1.4,0.6C221.1,35.7,220.9,36.4,221,37
		L221,37z"/>
	<path class="st1" d="M237,41.4h-2.4v-5.1c0-0.5-0.1-1-0.3-1.4c-0.3-0.3-0.7-0.5-1.1-0.5c-0.6,0-1.1,0.2-1.4,0.7
		c-0.4,0.7-0.5,1.5-0.4,2.2v4.1h-2.4v-8.7h1.8l0.3,1.1h0.1c0.3-0.4,0.6-0.8,1.1-1c0.5-0.2,1-0.3,1.6-0.3c0.9-0.1,1.7,0.2,2.3,0.8
		c0.6,0.7,0.9,1.5,0.8,2.4V41.4z"/>
	<path class="st1" d="M245,41.4l-0.5-1.2h-0.1c-0.3,0.4-0.8,0.8-1.2,1c-0.5,0.2-1.1,0.3-1.7,0.3c-0.7,0-1.5-0.2-2-0.7
		c-0.5-0.5-0.8-1.3-0.7-2c0-0.8,0.3-1.6,1-2c0.9-0.5,1.9-0.8,2.9-0.7h1.5v-0.4c0.1-0.7-0.4-1.2-1-1.3c-0.1,0-0.2,0-0.3,0
		c-0.9,0-1.7,0.3-2.5,0.6l-0.8-1.6c1-0.5,2.2-0.8,3.3-0.8c1-0.1,1.9,0.2,2.7,0.8c0.7,0.6,1,1.4,0.9,2.3v5.8L245,41.4z M244.3,37.4
		h-0.9c-0.5,0-1.1,0.1-1.6,0.4c-0.3,0.2-0.5,0.6-0.5,1c0,0.7,0.4,1,1.2,1c0.5,0,1-0.1,1.3-0.5c0.3-0.3,0.5-0.8,0.5-1.3L244.3,37.4z"
		/>
	<path class="st1" d="M255.2,38.8c0,0.8-0.3,1.5-0.9,2c-0.8,0.5-1.8,0.8-2.8,0.7c-0.5,0-1.1,0-1.6-0.1c-0.4-0.1-0.9-0.2-1.3-0.4v-2
		c0.5,0.2,1,0.4,1.5,0.5c0.5,0.1,1,0.2,1.5,0.2c0.9,0,1.3-0.2,1.3-0.8c0-0.2-0.1-0.3-0.2-0.5c-0.2-0.2-0.4-0.3-0.6-0.4
		c-0.4-0.2-0.7-0.4-1.1-0.5c-0.5-0.2-1-0.5-1.5-0.8c-0.3-0.2-0.5-0.5-0.7-0.8c-0.1-0.4-0.2-0.7-0.2-1.1c0-0.7,0.3-1.4,0.9-1.8
		c0.8-0.5,1.7-0.7,2.6-0.6c1.1,0,2.1,0.2,3.1,0.7l-0.7,1.7c-0.4-0.2-0.9-0.3-1.2-0.5c-0.4-0.1-0.8-0.1-1.2-0.1
		c-0.7,0-1.1,0.2-1.1,0.6c0,0.2,0.1,0.4,0.3,0.6c0.5,0.3,1,0.5,1.5,0.7c0.5,0.2,1,0.5,1.5,0.8c0.3,0.2,0.5,0.5,0.7,0.8
		C255.1,38.1,255.2,38.5,255.2,38.8z"/>
	<path class="st2" d="M29.5,176.5h303.3c1.1,0,2,0.9,2,2V223c0,1.1-0.9,2-2,2H29.5c-1.1,0-2-0.9-2-2v-44.5
		C27.5,177.4,28.4,176.5,29.5,176.5z"/>
</g>
<g id="Capa_4">
	<path class="st1" d="M29.9,107.3h303.3c1.1,0,2,0.9,2,2v44.5c0,1.1-0.9,2-2,2H29.9c-1.1,0-2-0.9-2-2v-44.5
		C27.9,108.2,28.8,107.3,29.9,107.3z"/>
	<g class="st3">
		<path class="st4" d="M55.8,131.2c0-0.6-0.4-1.1-1-1.2h-7.3c-0.6,0.1-1,0.6-1,1.2v6.3c0,0.6,0.4,1.1,1,1.2h7.3c0.6-0.1,1-0.6,1-1.2
			V131.2z M66.5,131.2c0-0.6-0.4-1.1-1-1.2h-7.3c-0.6,0.1-1,0.6-1,1.2v6.3c0,0.6,0.4,1.1,1,1.2h7.3c0.6-0.1,1-0.6,1-1.2V131.2z
			 M58.7,131.8H65v5.1h-6.3V131.8z M48,131.8h6.3v5.1H48V131.8z M66.5,120.8c0-0.6-0.4-1.1-1-1.2h-7.3c-0.6,0.1-1,0.6-1,1.2v6.3
			c0,0.6,0.4,1.1,1,1.2h7.3c0.6-0.1,1-0.6,1-1.2V120.8z M55.8,120.8c0-0.6-0.4-1.1-1-1.2h-7.3c-0.6,0.1-1,0.6-1,1.2v6.3
			c0,0.6,0.4,1.1,1,1.2h7.3c0.6-0.1,1-0.6,1-1.2V120.8z M58.7,121.4H65v5.1h-6.3V121.4z M48,121.4h6.3v5.1H48V121.4z"/>
	</g>
	<path class="st1" d="M39.4,330.8v-9.3H41v9.3H39.4z"/>
	<path class="st1" d="M51.5,330.8H50v-4.3c0-0.4-0.1-0.9-0.3-1.2c-0.3-0.3-0.6-0.4-1-0.4c-0.5,0-1,0.2-1.4,0.6
		c-0.3,0.6-0.5,1.2-0.4,1.9v3.5h-1.5v-7h1.2l0.2,0.9h0.1c0.2-0.3,0.5-0.6,0.9-0.8c0.4-0.2,0.9-0.3,1.3-0.3c1.2-0.2,2.4,0.7,2.5,1.9
		c0,0.2,0,0.4,0,0.6L51.5,330.8z"/>
	<path class="st1" d="M61.6,323.7v0.8l-1.2,0.2c0.1,0.2,0.2,0.3,0.3,0.5c0.1,0.2,0.1,0.5,0.1,0.7c0,0.7-0.2,1.3-0.8,1.7
		c-0.6,0.5-1.3,0.7-2.1,0.6c-0.2,0-0.4,0-0.6,0c-0.3,0.1-0.5,0.4-0.5,0.7c0,0.2,0.1,0.3,0.2,0.4c0.3,0.1,0.5,0.1,0.8,0.1h1.2
		c0.6,0,1.2,0.1,1.8,0.5c0.4,0.4,0.6,0.9,0.6,1.4c0,0.7-0.4,1.5-1,1.8c-0.9,0.5-1.9,0.7-2.8,0.6c-0.8,0-1.5-0.1-2.2-0.5
		c-0.5-0.3-0.8-0.9-0.8-1.5c0-0.4,0.1-0.8,0.4-1.1c0.3-0.3,0.7-0.5,1.2-0.6c-0.4-0.2-0.7-0.6-0.7-1c0-0.2,0.1-0.5,0.2-0.7
		c0.2-0.2,0.4-0.4,0.7-0.5c-0.4-0.2-0.7-0.4-0.9-0.8c-0.6-1-0.4-2.2,0.4-3c0.6-0.5,1.3-0.7,2-0.6c0.2,0,0.4,0,0.6,0
		c0.2,0,0.3,0,0.5,0.1L61.6,323.7z M56.1,331.8c0,0.3,0.2,0.6,0.4,0.7c0.4,0.2,0.8,0.3,1.2,0.3c0.6,0,1.3-0.1,1.8-0.4
		c0.4-0.2,0.6-0.5,0.6-0.9c0-0.3-0.1-0.5-0.3-0.6c-0.4-0.2-0.8-0.2-1.2-0.2h-1.1c-0.4,0-0.7,0.1-1,0.3
		C56.2,331.2,56.1,331.5,56.1,331.8z M56.7,326c0,0.4,0.1,0.7,0.3,1c0.3,0.3,0.6,0.4,1,0.4c0.9,0,1.3-0.5,1.3-1.4
		c0-0.4-0.1-0.8-0.3-1c-0.3-0.3-0.6-0.4-1-0.4c-0.4,0-0.7,0.1-1,0.4C56.8,325.2,56.7,325.6,56.7,326z"/>
	<path class="st1" d="M68.6,323.6c0.2,0,0.5,0,0.7,0.1l-0.2,1.4c-0.2-0.1-0.4-0.1-0.7-0.1c-0.5,0-1.1,0.2-1.4,0.6
		c-0.4,0.4-0.6,1-0.6,1.5v3.7H65v-7h1.2l0.2,1.2h0.1c0.2-0.4,0.5-0.8,0.9-1C67.7,323.7,68.1,323.6,68.6,323.6z"/>
	<path class="st1" d="M75.8,330.9c-0.9,0.1-1.9-0.3-2.6-1c-0.6-0.7-1-1.7-0.9-2.6c-0.1-1,0.3-1.9,0.9-2.7c0.6-0.7,1.5-1,2.4-1
		c0.8,0,1.6,0.3,2.2,0.8c0.6,0.6,0.9,1.5,0.8,2.3v0.8h-4.7c0,0.6,0.2,1.1,0.6,1.6c0.4,0.4,0.9,0.6,1.5,0.5c0.4,0,0.8,0,1.2-0.1
		c0.4-0.1,0.8-0.2,1.2-0.4v1.2c-0.3,0.2-0.7,0.3-1.1,0.4C76.6,330.8,76.2,330.9,75.8,330.9z M75.5,324.7c-0.4,0-0.8,0.1-1.1,0.5
		c-0.3,0.4-0.5,0.8-0.5,1.3H77c0-0.5-0.1-0.9-0.4-1.3C76.3,324.9,75.9,324.7,75.5,324.7L75.5,324.7z"/>
	<path class="st1" d="M87,328.8c0,0.6-0.2,1.2-0.8,1.6c-0.6,0.4-1.4,0.6-2.1,0.5c-0.8,0-1.5-0.1-2.3-0.4v-1.3
		c0.7,0.4,1.5,0.5,2.3,0.6c0.9,0,1.4-0.3,1.4-0.8c0-0.2-0.1-0.3-0.2-0.5c-0.1-0.1-0.3-0.3-0.5-0.4c-0.3-0.2-0.7-0.3-1-0.4
		c-0.6-0.2-1.2-0.5-1.6-0.9c-0.3-0.3-0.5-0.8-0.4-1.2c0-0.6,0.3-1.1,0.7-1.4c0.6-0.4,1.3-0.5,2-0.5c0.8,0,1.6,0.2,2.3,0.5l-0.5,1.1
		c-0.6-0.3-1.2-0.4-1.9-0.5c-0.8,0-1.2,0.2-1.2,0.7c0,0.2,0.1,0.4,0.3,0.5c0.4,0.3,0.9,0.5,1.3,0.6c0.4,0.2,0.9,0.4,1.3,0.6
		c0.2,0.2,0.4,0.4,0.6,0.6C86.9,328.1,87,328.4,87,328.8z"/>
	<path class="st1" d="M95.1,330.8l-0.3-1l0,0c-0.3,0.4-0.6,0.7-1,0.9c-0.4,0.2-0.9,0.2-1.3,0.2c-0.6,0-1.2-0.2-1.6-0.6
		c-0.4-0.4-0.6-1-0.6-1.6c0-0.7,0.3-1.3,0.8-1.6c0.8-0.4,1.6-0.6,2.5-0.6h1.2v-0.4c0-0.4-0.1-0.7-0.3-1c-0.3-0.2-0.6-0.4-1-0.3
		c-0.3,0-0.7,0.1-1,0.2c-0.3,0.1-0.7,0.2-1,0.4l-0.5-1.1c0.4-0.2,0.8-0.4,1.2-0.5c0.4-0.1,0.8-0.1,1.3-0.1c0.7-0.1,1.4,0.2,2,0.6
		c0.5,0.5,0.7,1.2,0.7,1.8v4.7L95.1,330.8z M92.9,329.8c0.5,0,0.9-0.1,1.3-0.5c0.3-0.3,0.5-0.8,0.5-1.3v-0.6h-0.9
		c-0.5,0-1.1,0.1-1.5,0.4c-0.3,0.2-0.5,0.6-0.5,1c0,0.3,0.1,0.5,0.3,0.7C92.3,329.7,92.6,329.8,92.9,329.8L92.9,329.8z"/>
	<path class="st1" d="M110.2,330.8l-0.3-1l0,0c-0.3,0.4-0.6,0.7-1,0.9c-0.4,0.2-0.9,0.2-1.3,0.2c-0.6,0-1.2-0.2-1.6-0.6
		c-0.4-0.4-0.6-1-0.6-1.6c0-0.6,0.3-1.3,0.8-1.6c0.8-0.4,1.6-0.6,2.5-0.6h1.2v-0.4c0-0.4-0.1-0.7-0.3-1c-0.3-0.2-0.6-0.4-1-0.3
		c-0.3,0-0.7,0.1-1,0.2c-0.3,0.1-0.7,0.2-1,0.4l-0.5-1.1c0.4-0.2,0.8-0.4,1.2-0.5c0.4-0.1,0.8-0.1,1.3-0.1c0.7-0.1,1.4,0.2,2,0.6
		c0.5,0.5,0.7,1.2,0.7,1.8v4.7L110.2,330.8z M108,329.8c0.5,0,0.9-0.1,1.3-0.5c0.3-0.3,0.5-0.8,0.5-1.3v-0.6h-0.9
		c-0.5,0-1.1,0.1-1.5,0.4c-0.3,0.2-0.5,0.6-0.5,1c0,0.3,0.1,0.5,0.3,0.7C107.4,329.7,107.7,329.8,108,329.8L108,329.8z"/>
	<path class="st1" d="M117.8,330.9c-0.8,0-1.5-0.3-2-1c-0.5-0.8-0.8-1.7-0.7-2.7c-0.1-1,0.2-1.9,0.8-2.7c0.5-0.7,1.2-1,2.1-1
		c0.4,0,0.8,0.1,1.2,0.2c0.4,0.2,0.7,0.5,0.9,0.8l0,0l0.2-0.9h1.2v10.1h-1.5v-3c0-0.2,0-0.4,0-0.6s0-0.4,0-0.5h-0.1
		C119.4,330.5,118.6,330.9,117.8,330.9z M118.2,329.7c0.5,0,1-0.2,1.3-0.5c0.3-0.5,0.4-1.1,0.4-1.6v-0.2c0.1-0.7-0.1-1.3-0.4-1.9
		c-0.3-0.4-0.8-0.6-1.4-0.6c-0.5,0-1,0.2-1.2,0.6c-0.3,0.6-0.5,1.2-0.4,1.8C116.6,328.9,117.1,329.7,118.2,329.7z"/>
	<path class="st1" d="M130.6,330.8l-0.2-0.9h-0.1c-0.2,0.3-0.5,0.6-0.9,0.8c-0.4,0.2-0.9,0.3-1.3,0.3c-0.7,0.1-1.4-0.2-1.9-0.6
		c-0.4-0.5-0.7-1.2-0.6-1.9v-4.6h1.5v4.3c0,0.4,0.1,0.9,0.3,1.2c0.3,0.3,0.6,0.4,1,0.4c0.5,0,1-0.2,1.4-0.6c0.3-0.6,0.5-1.2,0.4-1.9
		v-3.5h1.5v7L130.6,330.8z"/>
	<path class="st1" d="M135.9,322.9v-0.2c0.2-0.3,0.5-0.6,0.7-1s0.5-0.7,0.6-0.9h1.7v0.1c-0.2,0.3-0.6,0.6-1,1s-0.8,0.7-1.1,1
		L135.9,322.9z M137.5,330.8H136v-7h1.5L137.5,330.8z"/>
	<path class="st1" d="M150.7,330.9c-0.8,0-1.6-0.3-2.1-1h-0.1c0.1,0.6,0.1,1,0.1,1.1v2.9h-1.5v-10.1h1.2l0.2,0.9h0.1
		c0.5-0.7,1.3-1.1,2.1-1.1c0.8,0,1.6,0.3,2.1,1c0.5,0.8,0.8,1.7,0.7,2.7c0.1,1-0.2,1.9-0.8,2.7C152.3,330.5,151.5,330.9,150.7,330.9
		z M150.4,324.8c-0.5,0-1,0.2-1.3,0.5c-0.3,0.5-0.5,1.1-0.4,1.7v0.2c-0.1,0.6,0.1,1.3,0.4,1.9c0.3,0.4,0.8,0.6,1.3,0.6
		c0.5,0,0.9-0.2,1.2-0.6c0.3-0.6,0.5-1.2,0.4-1.8c0-0.6-0.1-1.2-0.4-1.8C151.3,325,150.9,324.8,150.4,324.8z"/>
	<path class="st1" d="M161.8,330.8l-0.3-1h-0.1c-0.3,0.4-0.6,0.7-1,0.9c-0.4,0.2-0.9,0.2-1.3,0.2c-0.6,0-1.2-0.2-1.6-0.6
		c-0.4-0.4-0.6-1-0.6-1.6c0-0.6,0.3-1.3,0.8-1.6c0.8-0.4,1.6-0.6,2.5-0.6h1.2v-0.4c0-0.4-0.1-0.7-0.3-1c-0.3-0.2-0.6-0.4-1-0.3
		c-0.3,0-0.7,0.1-1,0.2c-0.3,0.1-0.7,0.2-1,0.4l-0.5-1.1c0.4-0.2,0.8-0.4,1.2-0.5c0.4-0.1,0.8-0.1,1.3-0.1c0.7-0.1,1.4,0.2,2,0.6
		c0.5,0.5,0.7,1.2,0.7,1.8v4.7L161.8,330.8z M159.5,329.8c0.5,0,0.9-0.1,1.3-0.5c0.3-0.3,0.5-0.8,0.5-1.3v-0.6h-0.9
		c-0.5,0-1.1,0.1-1.5,0.4c-0.3,0.2-0.5,0.6-0.5,1c0,0.3,0.1,0.5,0.3,0.7C158.9,329.7,159.2,329.8,159.5,329.8L159.5,329.8z"/>
	<path class="st1" d="M170.6,323.6c0.2,0,0.5,0,0.7,0.1l-0.1,1.4c-0.2-0.1-0.4-0.1-0.7-0.1c-0.5,0-1.1,0.2-1.5,0.6
		c-0.4,0.4-0.6,1-0.6,1.5v3.7H167v-7h1.2l0.2,1.2h0.1c0.2-0.4,0.5-0.7,0.9-1C169.7,323.7,170.1,323.6,170.6,323.6z"/>
	<path class="st1" d="M179.1,330.8l-0.3-1l0,0c-0.3,0.4-0.6,0.7-1,0.9c-0.4,0.2-0.9,0.2-1.3,0.2c-0.6,0-1.2-0.2-1.6-0.6
		c-0.4-0.4-0.6-1-0.6-1.6c0-0.7,0.3-1.3,0.8-1.6c0.7-0.4,1.6-0.6,2.4-0.6h1.2v-0.4c0-0.4-0.1-0.7-0.3-1c-0.3-0.2-0.6-0.4-1-0.3
		c-0.3,0-0.7,0.1-1,0.2c-0.3,0.1-0.6,0.2-0.9,0.4l-0.5-1.1c0.4-0.2,0.8-0.4,1.2-0.5c0.4-0.1,0.8-0.1,1.3-0.1c0.7-0.1,1.4,0.2,2,0.6
		c0.5,0.5,0.7,1.2,0.7,1.8v4.7L179.1,330.8z M176.9,329.8c0.5,0,0.9-0.1,1.3-0.5c0.3-0.3,0.5-0.8,0.5-1.3v-0.6h-0.9
		c-0.5,0-1.1,0.1-1.5,0.4c-0.3,0.2-0.5,0.6-0.5,1c0,0.3,0.1,0.5,0.3,0.7C176.3,329.7,176.6,329.8,176.9,329.8L176.9,329.8z"/>
	<path class="st1" d="M192.6,330.9c-0.9,0.1-1.8-0.3-2.4-0.9c-1.1-1.6-1.1-3.8,0-5.4c0.7-0.7,1.6-1,2.5-1c0.7,0,1.4,0.1,2,0.4
		l-0.4,1.2c-0.5-0.2-1-0.3-1.6-0.4c-1.2,0-1.8,0.8-1.8,2.4c0,0.6,0.1,1.2,0.4,1.8c0.3,0.4,0.8,0.6,1.3,0.6c0.7,0,1.3-0.2,1.9-0.5
		v1.3c-0.3,0.2-0.6,0.3-0.9,0.3C193.3,330.8,193,330.9,192.6,330.9z"/>
	<path class="st1" d="M204.6,327.2c0.1,1-0.3,1.9-0.9,2.7c-0.6,0.7-1.5,1-2.4,1c-0.6,0-1.2-0.1-1.7-0.4c-0.5-0.3-0.9-0.7-1.2-1.3
		c-0.3-0.6-0.4-1.3-0.4-1.9c-0.1-1,0.3-1.9,0.9-2.7c0.6-0.7,1.5-1,2.5-1c0.9,0,1.8,0.3,2.4,1C204.3,325.3,204.6,326.3,204.6,327.2z
		 M199.4,327.2c0,1.6,0.6,2.4,1.8,2.4s1.8-0.8,1.8-2.4s-0.6-2.4-1.8-2.4c-0.5,0-1,0.2-1.4,0.6C199.6,326,199.4,326.6,199.4,327.2z"
		/>
	<path class="st1" d="M214.5,330.8H213v-4.3c0-0.4-0.1-0.9-0.3-1.2c-0.3-0.3-0.6-0.4-1-0.4c-0.5,0-1,0.2-1.4,0.6
		c-0.3,0.6-0.5,1.2-0.4,1.9v3.5h-1.5v-7h1.2l0.2,0.9h0.1c0.2-0.3,0.5-0.6,0.9-0.8c0.4-0.2,0.8-0.3,1.3-0.3c1.2-0.2,2.4,0.7,2.5,1.9
		c0,0.2,0,0.4,0,0.6L214.5,330.8z"/>
	<path class="st1" d="M224.9,327.2c0.1,1-0.3,1.9-0.9,2.7c-0.6,0.7-1.5,1-2.4,1c-0.6,0-1.2-0.1-1.7-0.4c-0.5-0.3-0.9-0.7-1.2-1.3
		c-0.3-0.6-0.4-1.3-0.4-1.9c-0.1-1,0.3-1.9,0.9-2.7c1.4-1.3,3.5-1.3,4.9,0C224.7,325.3,225,326.3,224.9,327.2z M219.8,327.2
		c0,1.6,0.6,2.4,1.8,2.4s1.8-0.8,1.8-2.4s-0.6-2.4-1.8-2.4c-0.5,0-1,0.2-1.4,0.6C219.9,326,219.8,326.6,219.8,327.2L219.8,327.2z"/>
	<path class="st1" d="M231.6,330.9c-0.9,0.1-1.8-0.3-2.4-0.9c-1.1-1.6-1.1-3.8,0-5.4c0.7-0.7,1.6-1,2.5-1c0.7,0,1.4,0.1,2,0.4
		l-0.4,1.2c-0.5-0.2-1-0.3-1.6-0.4c-1.2,0-1.8,0.8-1.8,2.4c0,0.6,0.1,1.2,0.4,1.8c0.3,0.4,0.8,0.6,1.3,0.6c0.7,0,1.3-0.2,1.9-0.5
		v1.3c-0.3,0.2-0.6,0.3-0.9,0.3C232.3,330.8,231.9,330.9,231.6,330.9z"/>
	<path class="st1" d="M240.3,330.9c-0.9,0.1-1.9-0.3-2.6-1c-0.6-0.7-1-1.7-0.9-2.6c-0.1-1,0.3-1.9,0.9-2.7c0.6-0.7,1.5-1,2.4-1
		c0.8,0,1.6,0.3,2.2,0.8c0.6,0.6,0.9,1.5,0.8,2.3v0.8h-4.7c0,0.6,0.2,1.1,0.6,1.6c0.4,0.4,0.9,0.6,1.5,0.5c0.4,0,0.8,0,1.2-0.1
		c0.4-0.1,0.8-0.2,1.1-0.4v1.2c-0.4,0.2-0.7,0.3-1.1,0.4C241.2,330.8,240.8,330.9,240.3,330.9z M240.1,324.7c-0.4,0-0.8,0.1-1.1,0.5
		c-0.3,0.4-0.5,0.8-0.5,1.3h3.2c0-0.5-0.1-0.9-0.4-1.3C240.9,324.9,240.5,324.7,240.1,324.7L240.1,324.7z"/>
	<path class="st1" d="M250.4,323.6c0.2,0,0.5,0,0.7,0.1l-0.1,1.4c-0.2-0.1-0.4-0.1-0.7-0.1c-0.5,0-1.1,0.2-1.4,0.6
		c-0.4,0.4-0.6,1-0.6,1.5v3.7h-1.5v-7h1.1l0.2,1.2h0.1c0.2-0.4,0.5-0.8,0.9-1C249.5,323.7,250,323.6,250.4,323.6z"/>
	<path class="st1" d="M262.6,329.7c0.4,0,0.7-0.1,1.1-0.2v1.1c-0.2,0.1-0.4,0.1-0.6,0.2c-0.3,0-0.5,0.1-0.8,0.1
		c-1.4,0-2.1-0.7-2.1-2.2v-3.8h-1v-0.7l1-0.5l0.5-1.5h0.9v1.6h2v1.1h-2v3.8c0,0.3,0.1,0.6,0.3,0.8
		C262.1,329.6,262.4,329.7,262.6,329.7z"/>
	<path class="st1" d="M267.1,321.9c0-0.2,0.1-0.4,0.2-0.6c0.2-0.2,0.4-0.3,0.6-0.2c0.4,0,0.8,0.3,0.8,0.7c0,0,0,0.1,0,0.1
		c0,0.2-0.1,0.4-0.2,0.6c-0.2,0.1-0.4,0.2-0.6,0.2c-0.2,0-0.4-0.1-0.6-0.2C267.2,322.3,267.1,322.1,267.1,321.9z M268.7,330.8h-1.5
		v-7h1.5V330.8z"/>
	<path class="st1" d="M276.5,330.9c-0.8,0-1.6-0.3-2.1-1h-0.1c0.1,0.6,0.1,1,0.1,1.1v2.9h-1.5v-10.1h1.2l0.2,0.9h0.1
		c0.5-0.7,1.3-1.1,2.1-1.1c0.8,0,1.6,0.3,2,1c1,1.7,1,3.7,0,5.4C278.1,330.6,277.3,330.9,276.5,330.9z M276.1,324.8
		c-0.5,0-1,0.2-1.3,0.5c-0.3,0.5-0.4,1.1-0.4,1.7v0.2c-0.1,0.6,0.1,1.3,0.4,1.9c0.3,0.4,0.8,0.6,1.3,0.6c0.5,0,0.9-0.2,1.2-0.6
		c0.3-0.6,0.5-1.2,0.4-1.8c0-0.6-0.1-1.2-0.4-1.8C277.1,325,276.6,324.8,276.1,324.8z"/>
	<path class="st1" d="M287.9,328.8c0,0.6-0.2,1.2-0.8,1.6c-0.6,0.4-1.4,0.6-2.1,0.5c-0.8,0-1.5-0.1-2.3-0.4v-1.3
		c0.7,0.4,1.5,0.5,2.3,0.6c0.9,0,1.4-0.3,1.4-0.8c0-0.2-0.1-0.3-0.2-0.5c-0.1-0.1-0.3-0.3-0.5-0.4c-0.3-0.2-0.7-0.3-1-0.4
		c-0.6-0.2-1.2-0.5-1.6-0.9c-0.3-0.3-0.5-0.8-0.4-1.2c0-0.6,0.3-1.1,0.7-1.4c0.6-0.4,1.3-0.5,2-0.5c0.8,0,1.6,0.2,2.3,0.5l-0.5,1.1
		c-0.6-0.3-1.2-0.4-1.9-0.5c-0.8,0-1.2,0.2-1.2,0.7c0,0.2,0.1,0.4,0.3,0.5c0.4,0.3,0.9,0.5,1.3,0.6c0.4,0.2,0.9,0.4,1.3,0.6
		c0.2,0.2,0.4,0.4,0.6,0.6C287.8,328.1,287.9,328.4,287.9,328.8z"/>
	<path class="st1" d="M299.4,330.9c-0.8,0-1.6-0.3-2-1c-0.5-0.8-0.8-1.7-0.7-2.7c-0.1-1,0.2-1.9,0.7-2.7c0.5-0.7,1.3-1,2.1-1
		c0.8,0,1.6,0.3,2.1,1h0.1c-0.1-0.4-0.1-0.8-0.1-1.2v-2.6h1.5v9.9h-1.2l-0.3-0.9h-0.1C301.1,330.5,300.2,330.9,299.4,330.9z
		 M299.8,329.7c0.5,0,1-0.1,1.3-0.5c0.3-0.5,0.5-1.1,0.4-1.7v-0.2c0.1-0.7-0.1-1.3-0.4-1.9c-0.3-0.4-0.8-0.6-1.4-0.6
		c-0.5,0-0.9,0.2-1.2,0.6c-0.3,0.6-0.5,1.2-0.4,1.8c0,0.6,0.1,1.2,0.4,1.8C298.8,329.5,299.3,329.7,299.8,329.7L299.8,329.7z"/>
	<path class="st1" d="M310.3,330.9c-1,0.1-1.9-0.3-2.6-1c-0.6-0.7-1-1.7-0.9-2.6c-0.1-1,0.3-1.9,0.9-2.7c0.6-0.7,1.5-1,2.4-1
		c0.8,0,1.6,0.3,2.2,0.8c0.6,0.6,0.8,1.5,0.8,2.3v0.8h-4.7c0,0.6,0.2,1.1,0.5,1.6c0.4,0.4,0.9,0.6,1.5,0.5c0.4,0,0.8,0,1.1-0.1
		c0.4-0.1,0.8-0.2,1.2-0.4v1.2c-0.4,0.2-0.7,0.3-1.1,0.4C311.1,330.8,310.7,330.9,310.3,330.9z M310,324.7c-0.4,0-0.8,0.1-1.1,0.5
		c-0.3,0.4-0.5,0.8-0.5,1.3h3.2c0-0.5-0.1-0.9-0.4-1.3C310.8,324.9,310.4,324.7,310,324.7L310,324.7z"/>
	<path class="st1" d="M44,344.4c0,0.6-0.2,1.2-0.8,1.6c-0.6,0.4-1.4,0.6-2.1,0.5c-0.8,0-1.5-0.1-2.2-0.4v-1.3
		c0.7,0.4,1.5,0.5,2.3,0.6c0.9,0,1.4-0.3,1.4-0.8c0-0.2,0-0.3-0.2-0.5c-0.1-0.2-0.3-0.3-0.5-0.4c-0.3-0.2-0.7-0.3-1-0.4
		c-0.6-0.2-1.2-0.5-1.6-0.9c-0.3-0.3-0.4-0.8-0.4-1.2c0-0.6,0.3-1.1,0.7-1.4c0.6-0.4,1.3-0.5,2-0.5c0.8,0,1.6,0.2,2.3,0.5l-0.5,1.1
		c-0.6-0.3-1.2-0.4-1.9-0.5c-0.8,0-1.2,0.2-1.2,0.7c0,0.2,0.1,0.4,0.3,0.5c0.4,0.3,0.9,0.5,1.3,0.6c0.4,0.2,0.9,0.4,1.3,0.6
		c0.2,0.2,0.4,0.4,0.6,0.6C43.9,343.7,44,344,44,344.4z"/>
	<path class="st1" d="M50.8,346.5c-1,0-1.9-0.3-2.6-1c-0.6-0.7-1-1.7-0.9-2.6c-0.1-1,0.3-1.9,0.9-2.7c0.6-0.7,1.5-1,2.3-1
		c0.8,0,1.6,0.3,2.2,0.8c0.6,0.6,0.9,1.5,0.8,2.3v0.8h-4.7c0,0.6,0.2,1.1,0.5,1.6c0.4,0.4,0.9,0.6,1.5,0.5c0.8,0,1.6-0.2,2.3-0.5
		v1.3c-0.4,0.2-0.7,0.3-1.1,0.4C51.6,346.4,51.2,346.5,50.8,346.5z M50.5,340.3c-0.4,0-0.8,0.1-1.1,0.5c-0.3,0.4-0.5,0.8-0.5,1.3H52
		c0-0.5-0.1-0.9-0.4-1.3C51.3,340.5,50.9,340.3,50.5,340.3z"/>
	<path class="st1" d="M63.2,339.3v0.8l-1.2,0.2c0.1,0.2,0.2,0.3,0.3,0.5c0.1,0.2,0.1,0.5,0.1,0.7c0,0.7-0.2,1.3-0.8,1.7
		c-0.6,0.5-1.3,0.7-2.1,0.6c-0.2,0-0.4,0-0.6,0c-0.3,0.1-0.5,0.4-0.5,0.7c0,0.2,0.1,0.3,0.2,0.4c0.3,0.1,0.5,0.1,0.8,0.1h1.2
		c0.6,0,1.2,0.1,1.8,0.5c0.4,0.4,0.6,0.9,0.6,1.4c0,0.7-0.4,1.5-1,1.8c-0.9,0.5-1.9,0.7-2.8,0.6c-0.8,0-1.5-0.1-2.2-0.5
		c-0.5-0.3-0.8-0.9-0.8-1.5c0-0.4,0.1-0.8,0.4-1.1c0.3-0.3,0.7-0.5,1.2-0.6c-0.2-0.1-0.4-0.2-0.5-0.4c-0.3-0.4-0.3-0.9,0-1.3
		c0.2-0.2,0.4-0.4,0.7-0.5c-0.4-0.2-0.7-0.4-0.9-0.8c-0.6-1-0.4-2.2,0.4-3c0.6-0.4,1.3-0.7,2-0.6c0.2,0,0.4,0,0.6,0l0.5,0.1
		L63.2,339.3z M57.7,347.4c0,0.3,0.2,0.6,0.4,0.7c0.4,0.2,0.8,0.3,1.2,0.3c0.6,0,1.3-0.1,1.8-0.4c0.4-0.2,0.6-0.5,0.6-0.9
		c0-0.3-0.1-0.5-0.3-0.6c-0.4-0.2-0.8-0.2-1.2-0.2h-1.1c-0.4,0-0.7,0.1-1,0.3C57.8,346.8,57.7,347.1,57.7,347.4z M58.3,341.6
		c0,0.4,0.1,0.7,0.3,1c0.3,0.3,0.6,0.4,1,0.4c0.9,0,1.3-0.5,1.3-1.4c0-0.4-0.1-0.8-0.3-1c-0.3-0.3-0.6-0.4-1-0.4
		c-0.4,0-0.7,0.1-1,0.4C58.4,340.8,58.3,341.2,58.3,341.6z"/>
	<path class="st1" d="M71.6,346.3l-0.2-0.9h-0.1c-0.2,0.3-0.5,0.6-0.9,0.8c-0.4,0.2-0.9,0.3-1.3,0.3c-0.7,0.1-1.4-0.2-1.9-0.6
		c-0.5-0.5-0.7-1.2-0.6-1.9v-4.6h1.5v4.3c0,0.4,0.1,0.9,0.3,1.2c0.3,0.3,0.6,0.4,1,0.4c0.5,0,1-0.2,1.4-0.6c0.3-0.6,0.5-1.2,0.4-1.9
		v-3.5h1.5v7L71.6,346.3z"/>
	<path class="st1" d="M80.5,339.2c0.2,0,0.5,0,0.7,0.1l-0.1,1.4c-0.2,0-0.4-0.1-0.7-0.1c-0.5,0-1.1,0.2-1.4,0.6
		c-0.4,0.4-0.6,1-0.6,1.5v3.7H77v-7h1.2l0.2,1.2h0.1c0.2-0.4,0.5-0.7,0.9-1C79.7,339.3,80.1,339.2,80.5,339.2z"/>
	<path class="st1" d="M84.6,337.5c0-0.2,0.1-0.5,0.2-0.6c0.2-0.2,0.4-0.2,0.6-0.2c0.2,0,0.5,0.1,0.6,0.2c0.1,0.2,0.2,0.4,0.2,0.6
		c0,0.2-0.1,0.4-0.2,0.6c-0.2,0.2-0.4,0.2-0.6,0.2c-0.2,0-0.5-0.1-0.6-0.2C84.6,337.9,84.5,337.7,84.6,337.5z M86.1,346.3h-1.5v-7
		h1.5V346.3z"/>
	<path class="st1" d="M92.7,346.5c-0.8,0-1.5-0.4-2-1c-0.5-0.8-0.8-1.7-0.7-2.7c-0.1-1,0.2-1.9,0.7-2.7c0.5-0.7,1.3-1,2.1-1
		c0.8,0,1.6,0.3,2.1,1H95c-0.1-0.4-0.1-0.8-0.1-1.2v-2.6h1.5v9.9h-1.2l-0.3-0.9h-0.1C94.4,346.1,93.6,346.5,92.7,346.5z M93.1,345.3
		c0.5,0,1-0.1,1.3-0.5c0.3-0.5,0.5-1.1,0.4-1.7v-0.2c0.1-0.7-0.1-1.3-0.4-1.9c-0.3-0.4-0.8-0.6-1.3-0.5c-0.5,0-0.9,0.2-1.2,0.6
		c-0.3,0.6-0.5,1.2-0.4,1.8c0,0.6,0.1,1.2,0.4,1.8C92.2,345.1,92.6,345.3,93.1,345.3z"/>
	<path class="st1" d="M105,346.3l-0.3-1h-0.1c-0.3,0.4-0.6,0.7-1,0.9c-0.4,0.2-0.9,0.2-1.3,0.2c-0.6,0-1.2-0.2-1.6-0.6
		c-0.4-0.4-0.6-1-0.6-1.6c0-0.6,0.3-1.3,0.8-1.6c0.7-0.4,1.6-0.6,2.5-0.6h1.2v-0.4c0-0.4-0.1-0.7-0.3-1c-0.3-0.2-0.6-0.4-1-0.3
		c-0.3,0-0.7,0.1-1,0.2c-0.3,0.1-0.6,0.2-0.9,0.4l-0.5-1.1c0.4-0.2,0.8-0.4,1.2-0.5c0.4-0.1,0.8-0.1,1.3-0.1c0.7-0.1,1.4,0.2,2,0.6
		c0.5,0.5,0.7,1.2,0.7,1.8v4.7L105,346.3z M102.8,345.3c0.5,0,0.9-0.1,1.3-0.5c0.3-0.3,0.5-0.8,0.5-1.3V343h-0.9
		c-0.5,0-1.1,0.1-1.5,0.4c-0.3,0.2-0.5,0.6-0.5,1c0,0.3,0.1,0.5,0.3,0.7C102.2,345.2,102.4,345.3,102.8,345.3L102.8,345.3z"/>
	<path class="st1" d="M112.6,346.5c-0.8,0-1.5-0.4-2-1c-1-1.6-1-3.7,0-5.4c0.5-0.6,1.3-1,2.1-1c0.8-0.1,1.6,0.3,2.1,1h0.1
		c-0.1-0.4-0.1-0.8-0.1-1.2v-2.6h1.5v9.9H115l-0.3-0.9h-0.1C114.2,346.1,113.4,346.5,112.6,346.5z M113,345.3c0.5,0,1-0.2,1.3-0.5
		c0.3-0.5,0.5-1.1,0.4-1.7v-0.2c0.1-0.7-0.1-1.3-0.4-1.9c-0.3-0.4-0.8-0.6-1.3-0.5c-0.5,0-0.9,0.2-1.2,0.6c-0.3,0.6-0.5,1.2-0.4,1.8
		c0,0.6,0.1,1.2,0.4,1.8C112,345.1,112.5,345.3,113,345.3L113,345.3z"/>
	<path class="st1" d="M124.8,339.3h1.6l1.4,4c0.2,0.5,0.3,1.1,0.4,1.6l0,0c0.1-0.3,0.1-0.6,0.2-0.8c0.1-0.3,0.6-1.9,1.6-4.7h1.6
		l-3,8c-0.3,1.3-1.4,2.2-2.7,2.2c-0.3,0-0.7,0-1-0.1v-1.2c0.3,0.1,0.5,0.1,0.8,0.1c0.7,0,1.4-0.5,1.5-1.2l0.3-0.7L124.8,339.3z"/>
	<path class="st1" d="M144.8,346.3l-0.3-1l0,0c-0.3,0.4-0.6,0.7-1,0.9c-0.4,0.2-0.9,0.2-1.3,0.2c-0.6,0-1.2-0.2-1.6-0.6
		c-0.4-0.4-0.6-1-0.6-1.6c0-0.6,0.3-1.3,0.8-1.6c0.7-0.4,1.6-0.6,2.5-0.6h1.2v-0.4c0-0.4-0.1-0.7-0.3-1c-0.3-0.2-0.6-0.4-1-0.3
		c-0.3,0-0.7,0.1-1,0.2c-0.3,0.1-0.6,0.2-0.9,0.4l-0.5-1.1c0.4-0.2,0.8-0.4,1.2-0.5c0.4-0.1,0.8-0.1,1.3-0.1c0.7-0.1,1.4,0.2,2,0.6
		c0.5,0.5,0.7,1.2,0.7,1.8v4.7L144.8,346.3z M142.6,345.3c0.5,0,0.9-0.1,1.3-0.5c0.3-0.3,0.5-0.8,0.5-1.3V343h-0.9
		c-0.5,0-1.1,0.1-1.5,0.4c-0.3,0.2-0.5,0.6-0.5,1c0,0.3,0.1,0.5,0.3,0.7C142,345.3,142.3,345.4,142.6,345.3L142.6,345.3z"/>
	<path class="st1" d="M149,339.3h1.6l1.4,4c0.2,0.5,0.3,1.1,0.4,1.6h0.1c0.1-0.3,0.1-0.6,0.2-0.8c0.1-0.3,0.6-1.9,1.6-4.7h1.6l-3,8
		c-0.3,1.3-1.4,2.2-2.7,2.2c-0.3,0-0.7,0-1-0.1v-1.2c0.3,0.1,0.5,0.1,0.8,0.1c0.7,0,1.4-0.5,1.5-1.2l0.3-0.7L149,339.3z"/>
	<path class="st1" d="M164,346.3l-0.2-0.9h-0.1c-0.2,0.3-0.5,0.6-0.9,0.8c-0.4,0.2-0.9,0.3-1.3,0.3c-0.7,0.1-1.4-0.2-1.9-0.6
		c-0.5-0.5-0.7-1.2-0.6-1.9v-4.6h1.5v4.3c0,0.4,0.1,0.9,0.3,1.2c0.3,0.3,0.6,0.4,1,0.4c0.5,0,1-0.2,1.4-0.6c0.3-0.6,0.5-1.2,0.4-1.9
		v-3.5h1.5v7L164,346.3z"/>
	<path class="st1" d="M171.8,346.5c-0.8,0-1.6-0.3-2.1-1c-0.5-0.8-0.8-1.7-0.7-2.7c-0.1-1,0.2-1.9,0.8-2.7c1-1.1,2.7-1.3,3.8-0.3
		c0.1,0.1,0.3,0.2,0.4,0.4h0.1c-0.1-0.4-0.1-0.8-0.1-1.2v-2.6h1.5v9.9h-1.2l-0.3-0.9h-0.1C173.4,346.1,172.6,346.5,171.8,346.5z
		 M172.2,345.3c0.5,0,1-0.2,1.3-0.5c0.3-0.5,0.5-1.1,0.4-1.7v-0.2c0.1-0.7-0.1-1.3-0.4-1.9c-0.3-0.4-0.8-0.6-1.4-0.5
		c-0.5,0-0.9,0.2-1.2,0.6c-0.3,0.6-0.5,1.2-0.4,1.8c0,0.6,0.1,1.2,0.4,1.8C171.2,345.1,171.7,345.3,172.2,345.3z"/>
	<path class="st1" d="M184,346.3l-0.3-1h-0.1c-0.3,0.4-0.6,0.7-1,0.9c-0.4,0.2-0.9,0.2-1.3,0.2c-0.6,0-1.2-0.2-1.6-0.6
		c-0.4-0.4-0.6-1-0.6-1.6c0-0.6,0.3-1.3,0.8-1.6c0.7-0.4,1.6-0.6,2.5-0.6h1.2v-0.4c0-0.4-0.1-0.7-0.3-1c-0.3-0.2-0.6-0.4-1-0.3
		c-0.3,0-0.7,0.1-1,0.2c-0.3,0.1-0.6,0.2-0.9,0.4l-0.5-1.1c0.4-0.2,0.8-0.4,1.2-0.5c0.4-0.1,0.9-0.1,1.3-0.1c0.7-0.1,1.4,0.2,2,0.6
		c0.5,0.5,0.7,1.2,0.7,1.8v4.7L184,346.3z M181.8,345.3c0.5,0,0.9-0.1,1.3-0.5c0.3-0.3,0.5-0.8,0.5-1.3V343h-0.9
		c-0.5,0-1.1,0.1-1.5,0.4c-0.3,0.2-0.5,0.6-0.5,1c0,0.3,0.1,0.5,0.3,0.7C181.2,345.3,181.5,345.4,181.8,345.3L181.8,345.3z"/>
	<path class="st1" d="M197.6,346.5c-0.9,0.1-1.8-0.3-2.4-0.9c-1.1-1.6-1.1-3.8,0-5.4c0.7-0.7,1.6-1,2.5-1c0.7,0,1.4,0.1,2,0.4
		l-0.4,1.2c-0.5-0.2-1-0.3-1.6-0.4c-1.2,0-1.8,0.8-1.8,2.4c0,0.6,0.1,1.2,0.5,1.8c0.3,0.4,0.8,0.6,1.3,0.6c0.7,0,1.3-0.2,1.9-0.5
		v1.3c-0.3,0.2-0.6,0.3-0.9,0.3C198.3,346.4,197.9,346.5,197.6,346.5z"/>
	<path class="st1" d="M209.5,342.8c0.1,1-0.3,1.9-0.9,2.7c-0.6,0.7-1.5,1-2.5,1c-0.6,0-1.2-0.1-1.7-0.4c-0.5-0.3-0.9-0.7-1.2-1.3
		c-0.3-0.6-0.4-1.3-0.4-1.9c-0.1-1,0.3-1.9,0.9-2.7c0.6-0.7,1.5-1,2.5-1c0.9,0,1.8,0.3,2.4,1C209.2,340.9,209.5,341.9,209.5,342.8z
		 M204.4,342.8c0,1.6,0.6,2.4,1.8,2.4c1.2,0,1.8-0.8,1.8-2.4s-0.6-2.4-1.8-2.4c-0.5,0-1.1,0.2-1.4,0.6
		C204.5,341.6,204.3,342.2,204.4,342.8z"/>
	<path class="st1" d="M219.5,346.3H218V342c0-0.4-0.1-0.9-0.3-1.2c-0.3-0.3-0.6-0.4-1-0.4c-0.5,0-1,0.2-1.4,0.5
		c-0.3,0.6-0.5,1.2-0.4,1.9v3.5h-1.5v-7h1.2l0.2,0.9h0.1c0.2-0.3,0.5-0.6,0.9-0.8c0.4-0.2,0.9-0.3,1.3-0.3c1.2-0.2,2.4,0.7,2.5,1.9
		c0,0.2,0,0.4,0,0.6L219.5,346.3z"/>
	<path class="st1" d="M231.7,345.3c0.4,0,0.7-0.1,1.1-0.2v1.1c-0.2,0.1-0.4,0.1-0.6,0.2c-0.3,0-0.5,0.1-0.8,0.1
		c-1.4,0-2.1-0.7-2.1-2.2v-3.8h-1v-0.7l1-0.5l0.5-1.5h0.9v1.6h2v1.1h-2v3.8c0,0.3,0.1,0.6,0.3,0.8
		C231.2,345.2,231.4,345.3,231.7,345.3z"/>
	<path class="st1" d="M241.3,346.3l-0.2-0.9h0c-0.2,0.3-0.5,0.6-0.9,0.8c-0.4,0.2-0.9,0.3-1.3,0.3c-0.7,0.1-1.4-0.2-1.9-0.6
		c-0.5-0.5-0.7-1.2-0.6-1.9v-4.6h1.5v4.3c0,0.4,0.1,0.9,0.3,1.2c0.3,0.3,0.6,0.4,1,0.4c0.5,0,1-0.2,1.4-0.6c0.3-0.6,0.5-1.2,0.4-1.9
		v-3.5h1.5v7L241.3,346.3z"/>
	<path class="st1" d="M255.7,339.2c0.8,0,1.5,0.3,2,1c1,1.7,1,3.7,0,5.4c-0.5,0.7-1.3,1-2.1,1c-0.8,0-1.6-0.3-2.1-1h-0.1l-0.3,0.8
		h-1.1v-9.9h1.5v2.4c0,0.2,0,0.4,0,0.8s0,0.6,0,0.7h0.1C254.1,339.6,254.9,339.2,255.7,339.2z M255.3,340.4c-0.5,0-1,0.2-1.3,0.5
		c-0.3,0.5-0.5,1.2-0.4,1.8v0.1c-0.1,0.6,0.1,1.3,0.4,1.9c0.3,0.4,0.8,0.6,1.3,0.6c0.5,0,0.9-0.2,1.2-0.6c0.3-0.6,0.4-1.2,0.4-1.8
		C257,341.2,256.4,340.4,255.3,340.4z"/>
	<path class="st1" d="M266.7,346.3l-0.3-1h0c-0.3,0.4-0.6,0.7-1,0.9c-0.4,0.2-0.9,0.2-1.3,0.2c-0.6,0-1.2-0.2-1.6-0.6
		c-0.4-0.4-0.6-1-0.6-1.6c0-0.6,0.3-1.3,0.8-1.6c0.7-0.4,1.6-0.6,2.5-0.6h1.2v-0.4c0-0.4-0.1-0.7-0.3-1c-0.3-0.2-0.6-0.4-1-0.3
		c-0.3,0-0.7,0.1-1,0.2c-0.3,0.1-0.7,0.2-1,0.4l-0.5-1.1c0.4-0.2,0.8-0.4,1.2-0.5c0.4-0.1,0.8-0.1,1.3-0.1c0.7-0.1,1.4,0.2,2,0.6
		c0.5,0.5,0.7,1.2,0.7,1.8v4.7L266.7,346.3z M264.5,345.3c0.5,0,0.9-0.1,1.3-0.5c0.3-0.3,0.5-0.8,0.5-1.3V343h-0.9
		c-0.5,0-1.1,0.1-1.5,0.4c-0.3,0.2-0.5,0.6-0.5,1c0,0.3,0.1,0.5,0.3,0.7C263.9,345.3,264.2,345.4,264.5,345.3L264.5,345.3z"/>
	<path class="st1" d="M278.1,346.3h-1.5V342c0-0.4-0.1-0.9-0.3-1.2c-0.3-0.3-0.6-0.4-1-0.4c-0.5,0-1,0.2-1.4,0.5
		c-0.3,0.6-0.5,1.2-0.4,1.9v3.5H272v-7h1.2l0.2,0.9h0.1c0.2-0.3,0.5-0.6,0.9-0.8c0.4-0.2,0.9-0.3,1.3-0.3c1.2-0.2,2.4,0.7,2.5,1.9
		c0,0.2,0,0.4,0,0.6L278.1,346.3z"/>
	<path class="st1" d="M285.1,346.5c-0.9,0.1-1.8-0.3-2.4-0.9c-1.1-1.6-1.1-3.8,0-5.4c0.7-0.7,1.6-1,2.5-1c0.7,0,1.4,0.1,2,0.4
		l-0.5,1.2c-0.5-0.2-1-0.3-1.6-0.4c-1.2,0-1.8,0.8-1.8,2.4c0,0.6,0.1,1.2,0.5,1.8c0.3,0.4,0.8,0.6,1.3,0.6c0.7,0,1.3-0.2,1.9-0.5
		v1.3c-0.3,0.2-0.6,0.3-0.9,0.3C285.8,346.4,285.5,346.5,285.1,346.5z"/>
	<path class="st1" d="M295.2,346.3l-0.3-1h0c-0.3,0.4-0.6,0.7-1,0.9c-0.4,0.2-0.9,0.2-1.3,0.2c-0.6,0-1.2-0.2-1.6-0.6
		c-0.4-0.4-0.6-1-0.6-1.6c0-0.6,0.3-1.3,0.8-1.6c0.7-0.4,1.6-0.6,2.5-0.6h1.2v-0.4c0-0.4-0.1-0.7-0.3-1c-0.3-0.2-0.6-0.4-1-0.3
		c-0.3,0-0.7,0.1-1,0.2c-0.3,0.1-0.7,0.2-1,0.4l-0.5-1.1c0.4-0.2,0.8-0.4,1.2-0.5c0.4-0.1,0.8-0.1,1.3-0.1c0.7-0.1,1.4,0.2,2,0.6
		c0.5,0.5,0.7,1.2,0.7,1.8v4.7L295.2,346.3z M293,345.3c0.5,0,0.9-0.1,1.3-0.5c0.3-0.3,0.5-0.8,0.5-1.3V343h-0.9
		c-0.5,0-1.1,0.1-1.5,0.4c-0.3,0.2-0.5,0.6-0.5,1c0,0.3,0.1,0.5,0.3,0.7C292.4,345.3,292.7,345.4,293,345.3L293,345.3z"/>
	<path class="st1" d="M309,346.5c-1,0-1.9-0.3-2.6-1c-0.6-0.7-1-1.7-0.9-2.6c-0.1-1,0.2-1.9,0.9-2.7c0.6-0.7,1.5-1,2.4-1
		c0.8,0,1.6,0.3,2.2,0.8c0.6,0.6,0.8,1.5,0.8,2.3v0.8H307c0,0.6,0.2,1.1,0.6,1.6c0.4,0.4,0.9,0.6,1.5,0.5c0.4,0,0.8,0,1.2-0.1
		c0.4-0.1,0.8-0.2,1.1-0.4v1.3c-0.3,0.2-0.7,0.3-1.1,0.4C309.8,346.4,309.4,346.5,309,346.5z M308.7,340.3c-0.4,0-0.8,0.1-1.1,0.5
		c-0.3,0.4-0.5,0.8-0.5,1.3h3.2c0-0.5-0.1-0.9-0.4-1.3C309.6,340.5,309.1,340.3,308.7,340.3L308.7,340.3z"/>
	<path class="st1" d="M321.7,346.3h-1.5V342c0-0.4-0.1-0.9-0.3-1.2c-0.3-0.3-0.6-0.4-1-0.4c-0.5,0-1,0.2-1.4,0.5
		c-0.3,0.6-0.5,1.2-0.4,1.9v3.5h-1.5v-7h1.2l0.2,0.9h0.1c0.2-0.3,0.5-0.6,0.9-0.8c0.4-0.2,0.8-0.3,1.3-0.3c1.2-0.2,2.4,0.7,2.5,1.9
		c0,0.2,0,0.4,0,0.6L321.7,346.3z"/>
	<path class="st1" d="M40.8,362h-1.5v-9.9h1.5V362z"/>
	<path class="st1" d="M44.9,354.1v-0.2c0.2-0.3,0.5-0.6,0.7-1s0.5-0.7,0.6-0.9H48v0.1c-0.2,0.3-0.5,0.6-1,1s-0.8,0.7-1.1,1
		L44.9,354.1z M46.5,362H45v-7h1.5L46.5,362z"/>
	<path class="st1" d="M56.9,362h-1.5v-4.3c0-0.4-0.1-0.9-0.3-1.2c-0.3-0.3-0.6-0.4-1-0.4c-0.5,0-1,0.2-1.4,0.6
		c-0.3,0.6-0.5,1.2-0.4,1.9v3.5h-1.5v-7h1.2l0.2,0.9h0.1c0.2-0.3,0.5-0.6,0.9-0.8c0.4-0.2,0.8-0.3,1.3-0.3c1.2-0.2,2.4,0.7,2.5,1.9
		c0,0.2,0,0.4,0,0.6V362z"/>
	<path class="st1" d="M64.1,362.1c-0.9,0.1-1.9-0.3-2.6-1c-0.6-0.7-1-1.7-0.9-2.6c-0.1-1,0.3-1.9,0.9-2.7c0.6-0.7,1.5-1,2.3-1
		c0.8,0,1.6,0.3,2.2,0.8c0.6,0.6,0.8,1.5,0.8,2.3v0.8h-4.7c0,0.6,0.2,1.1,0.6,1.6c0.4,0.4,0.9,0.6,1.5,0.5c0.4,0,0.8,0,1.2-0.1
		c0.4-0.1,0.8-0.2,1.2-0.4v1.2c-0.3,0.2-0.7,0.3-1.1,0.4C65,362,64.6,362.1,64.1,362.1z M63.9,355.9c-0.4,0-0.8,0.1-1.1,0.5
		c-0.3,0.4-0.5,0.8-0.5,1.3h3.2c0-0.5-0.1-0.9-0.4-1.3C64.7,356.1,64.3,355.9,63.9,355.9z"/>
	<path class="st1" d="M75,362l-0.3-1l0,0c-0.3,0.4-0.6,0.7-1,0.9c-0.4,0.2-0.9,0.2-1.3,0.2c-0.6,0-1.2-0.2-1.6-0.6
		c-0.4-0.4-0.6-1-0.6-1.6c0-0.6,0.3-1.3,0.8-1.6c0.7-0.4,1.6-0.6,2.5-0.6h1.2v-0.4c0-0.4-0.1-0.7-0.3-1c-0.3-0.2-0.6-0.4-1-0.3
		c-0.3,0-0.7,0.1-1,0.2c-0.3,0.1-0.7,0.2-1,0.4l-0.5-1.1c0.4-0.2,0.8-0.4,1.2-0.5c0.4-0.1,0.9-0.1,1.3-0.1c0.7-0.1,1.4,0.2,2,0.6
		c0.5,0.5,0.7,1.2,0.7,1.8v4.7H75z M72.8,361c0.5,0,0.9-0.1,1.3-0.5c0.3-0.3,0.5-0.8,0.5-1.3v-0.6h-0.9c-0.5,0-1.1,0.1-1.5,0.4
		c-0.3,0.2-0.5,0.6-0.5,1c0,0.3,0.1,0.5,0.3,0.7C72.2,360.9,72.5,361,72.8,361L72.8,361z"/>
	<path class="st1" d="M80.1,361.1c0-0.3,0.1-0.5,0.2-0.7c0.2-0.2,0.4-0.3,0.7-0.2c0.3,0,0.5,0.1,0.7,0.3c0.2,0.2,0.3,0.4,0.2,0.7
		c0,0.3-0.1,0.5-0.2,0.7c-0.2,0.2-0.4,0.3-0.7,0.3c-0.3,0-0.5-0.1-0.7-0.3C80.1,361.7,80,361.4,80.1,361.1z"/>
	<path class="st1" d="M75.4,304.8H73v-9.4h-3.1v-2h8.6v2h-3.1L75.4,304.8z"/>
	<path class="st1" d="M80.2,304.8v-11.4h2.4v11.4H80.2z"/>
	<path class="st1" d="M93.4,296.9c0.1,1.1-0.4,2.1-1.2,2.8c-0.9,0.7-2.1,1.1-3.3,1h-1v4.1h-2.5v-11.4h3.7c1.1-0.1,2.2,0.2,3.2,0.9
		C93.1,294.9,93.5,295.9,93.4,296.9z M88,298.7h0.8c0.6,0,1.2-0.1,1.7-0.5c0.4-0.3,0.6-0.8,0.5-1.3c0-0.5-0.1-0.9-0.5-1.3
		c-0.4-0.3-0.9-0.5-1.4-0.4H88V298.7z"/>
	<path class="st1" d="M102.3,301.6c0,0.9-0.4,1.8-1.1,2.4c-0.9,0.6-2,1-3.1,0.9c-1.1,0-2.2-0.2-3.2-0.7V302c0.6,0.3,1.3,0.5,2,0.7
		c0.5,0.1,1,0.2,1.5,0.2c0.4,0,0.9-0.1,1.2-0.3c0.3-0.2,0.5-0.5,0.4-0.9c0-0.2-0.1-0.4-0.2-0.6c-0.2-0.2-0.3-0.4-0.6-0.5
		c-0.5-0.3-1-0.6-1.5-0.8c-0.6-0.2-1.1-0.6-1.6-0.9c-0.3-0.3-0.6-0.7-0.8-1.1c-0.6-1.3-0.3-2.8,0.7-3.8c0.8-0.6,1.8-0.9,2.8-0.9
		c0.6,0,1.1,0.1,1.7,0.2c0.6,0.2,1.1,0.4,1.7,0.6l-0.8,1.9c-0.5-0.2-1-0.4-1.5-0.5c-0.4-0.1-0.8-0.1-1.2-0.1c-0.4,0-0.8,0.1-1.1,0.3
		c-0.2,0.2-0.4,0.5-0.4,0.8c0,0.2,0,0.4,0.2,0.6c0.1,0.2,0.3,0.3,0.5,0.5c0.5,0.3,1,0.6,1.5,0.8c0.8,0.3,1.6,0.9,2.2,1.5
		C102.2,300.3,102.4,300.9,102.3,301.6z"/>
	<path class="st1" d="M118,298.9c0.1,1.6-0.5,3.2-1.6,4.3c-1.3,1.1-3,1.6-4.6,1.5h-3.2v-11.4h3.6c1.6-0.1,3.2,0.4,4.3,1.5
		C117.5,295.9,118.1,297.4,118,298.9z M115.5,299c0-2.4-1.1-3.7-3.2-3.7H111v7.4h1C114.3,302.8,115.5,301.5,115.5,299L115.5,299z"/>
	<path class="st1" d="M127,304.8h-6.6v-11.4h6.6v2h-4.2v2.5h3.9v2h-3.9v2.9h4.2V304.8z"/>
	<path class="st1" d="M140.3,301.6c0,0.9-0.4,1.8-1.1,2.4c-0.9,0.6-2,1-3.1,0.9c-1.1,0-2.2-0.2-3.2-0.7V302c0.6,0.3,1.3,0.5,2,0.7
		c0.5,0.1,1,0.2,1.5,0.2c0.4,0,0.9-0.1,1.2-0.3c0.5-0.4,0.6-1,0.2-1.5c-0.2-0.2-0.3-0.4-0.6-0.5c-0.5-0.3-1-0.6-1.5-0.8
		c-0.6-0.2-1.1-0.6-1.6-0.9c-0.3-0.3-0.6-0.7-0.8-1.1c-0.6-1.3-0.4-2.9,0.7-3.9c0.8-0.6,1.8-0.9,2.8-0.9c0.6,0,1.1,0.1,1.7,0.2
		c0.6,0.2,1.1,0.4,1.7,0.6l-0.8,1.9c-0.5-0.2-1-0.4-1.5-0.5c-0.4-0.1-0.8-0.1-1.2-0.1c-0.4,0-0.8,0.1-1.1,0.3
		c-0.2,0.2-0.4,0.5-0.4,0.8c0,0.2,0,0.4,0.1,0.6c0.1,0.2,0.3,0.3,0.5,0.5c0.5,0.3,1,0.6,1.5,0.8c0.8,0.3,1.6,0.9,2.2,1.5
		C140.1,300.2,140.3,300.9,140.3,301.6z"/>
	<path class="st1" d="M148.9,304.8h-6.6v-11.4h6.6v2h-4.2v2.5h3.9v2h-3.9v2.9h4.2V304.8z"/>
	<path class="st1" d="M155.6,298.4h4.5v5.9c-0.7,0.2-1.4,0.4-2.1,0.5c-0.7,0.1-1.3,0.2-2,0.1c-1.5,0.1-2.9-0.5-3.9-1.5
		c-1-1.2-1.5-2.8-1.4-4.4c-0.1-1.6,0.5-3.2,1.6-4.3c1.2-1.1,2.8-1.6,4.4-1.5c1.2,0,2.3,0.2,3.4,0.7l-0.8,1.9
		c-0.8-0.4-1.7-0.6-2.6-0.6c-1,0-1.9,0.3-2.5,1.1c-0.7,0.8-1,1.8-0.9,2.8c-0.1,1,0.2,2,0.8,2.8c0.5,0.7,1.4,1,2.2,1
		c0.5,0,1-0.1,1.5-0.1v-2.4h-2.2L155.6,298.4z"/>
	<path class="st1" d="M172.2,293.3v7.4c0,0.8-0.2,1.5-0.6,2.2c-0.4,0.6-1,1.2-1.6,1.5c-0.8,0.4-1.7,0.5-2.5,0.5
		c-1.2,0.1-2.5-0.3-3.4-1.1c-0.8-0.8-1.3-1.9-1.2-3.1v-7.4h2.4v7c-0.1,0.7,0.1,1.4,0.5,1.9c1,0.8,2.5,0.8,3.5,0
		c0.4-0.6,0.6-1.3,0.5-2v-7L172.2,293.3z"/>
	<path class="st1" d="M177.4,300.4v4.4H175v-11.4h3.3c1.2-0.1,2.4,0.2,3.4,0.9c1.2,1.1,1.5,3,0.6,4.4c-0.4,0.6-0.9,1-1.6,1.2
		c1.7,2.6,2.8,4.2,3.4,5h-2.7l-2.7-4.4L177.4,300.4z M177.4,298.4h0.8c0.6,0,1.2-0.1,1.7-0.4c0.4-0.3,0.6-0.7,0.6-1.2
		c0-0.5-0.2-0.9-0.6-1.1c-0.5-0.3-1.1-0.4-1.7-0.4h-0.7V298.4z"/>
	<path class="st1" d="M185.5,304.8v-11.4h2.5v11.4H185.5z"/>
	<path class="st1" d="M200.3,298.9c0.1,1.6-0.5,3.2-1.6,4.3c-1.3,1.1-3,1.6-4.6,1.5h-3.2v-11.4h3.6c1.6-0.1,3.1,0.4,4.3,1.5
		C199.8,295.9,200.4,297.4,200.3,298.9z M197.8,299c0-2.4-1.1-3.7-3.2-3.7h-1.3v7.4h1C196.6,302.8,197.8,301.5,197.8,299z"/>
	<path class="st1" d="M209.7,304.8l-0.8-2.7h-4.2l-0.8,2.7h-2.6l4-11.5h3l4.1,11.5H209.7z M208.3,300l-1.3-4.2
		c-0.1-0.3-0.2-0.6-0.2-0.8c-0.2,0.7-0.7,2.3-1.5,4.9L208.3,300z"/>
	<path class="st1" d="M223.2,298.9c0.1,1.6-0.5,3.2-1.6,4.3c-1.3,1.1-3,1.6-4.6,1.5h-3.2v-11.4h3.6c1.6-0.1,3.1,0.4,4.3,1.5
		C222.7,295.9,223.3,297.4,223.2,298.9z M220.7,299c0-2.5-1.1-3.7-3.2-3.7h-1.3v7.4h1C219.5,302.8,220.7,301.5,220.7,299L220.7,299z
		"/>
	<path class="st1" d="M233.3,298l2.4-4.7h2.6l-3.8,7v4.4h-2.4v-4.4l-3.8-7h2.6L233.3,298z"/>
	<path class="st1" d="M250.9,304.8L250,302h-4.2l-0.8,2.7h-2.6l4-11.5h3l4.1,11.5L250.9,304.8z M249.4,300l-1.3-4.2
		c-0.1-0.3-0.2-0.6-0.2-0.8c-0.2,0.7-0.7,2.3-1.5,4.9H249.4z"/>
	<path class="st1" d="M258.5,298l2.4-4.7h2.6l-3.8,7v4.4h-2.4v-4.4l-3.8-7h2.6L258.5,298z"/>
	<path class="st1" d="M274.2,293.3v7.4c0,0.8-0.2,1.5-0.6,2.2c-0.4,0.6-1,1.2-1.6,1.5c-0.8,0.4-1.7,0.5-2.5,0.5
		c-1.2,0.1-2.5-0.3-3.4-1.1c-0.8-0.8-1.3-1.9-1.2-3.1v-7.4h2.4v7c-0.1,0.7,0.1,1.4,0.5,1.9c1,0.8,2.5,0.8,3.5,0
		c0.4-0.6,0.6-1.3,0.5-2v-7L274.2,293.3z"/>
	<path class="st1" d="M286.5,298.9c0.1,1.6-0.5,3.2-1.6,4.3c-1.3,1.1-3,1.6-4.6,1.5H277v-11.4h3.6c1.6-0.1,3.1,0.4,4.3,1.5
		C286,295.9,286.5,297.4,286.5,298.9z M283.9,299c0-2.4-1.1-3.7-3.2-3.7h-1.3v7.4h1C282.8,302.8,283.9,301.5,283.9,299L283.9,299z"
		/>
	<path class="st1" d="M295.8,304.8L295,302h-4.2l-0.8,2.7h-2.6l4-11.5h3l4,11.5L295.8,304.8z M294.4,300l-1.3-4.2
		c-0.1-0.3-0.2-0.6-0.2-0.8c-0.2,0.7-0.7,2.3-1.5,4.9H294.4z"/>
	<path class="st1" d="M50.8,283.3c2.3,1.7,5,2.7,7.8,2.7v10.7c0,3.4-1.9,4.3-7.8,7.9c-5.9-3.7-7.8-4.5-7.8-7.9V286
		C45.8,286,48.5,285,50.8,283.3z M50.8,280.5c-3.8,3.2-6.1,3.4-10.1,3.4v12.9c0,5.1,3.6,6.5,10.1,10.6c6.5-4.1,10.1-5.4,10.1-10.6
		v-12.9C56.9,283.9,54.6,283.7,50.8,280.5z M55.3,297l-3.1-3.1l3.1-3.1l-1.4-1.4l-3.1,3.1l-3.1-3.1l-1.4,1.4l3.1,3.1l-3.1,3l1.4,1.4
		l3.1-3.1l3.1,3.1L55.3,297z"/>
	<path class="st1" d="M30.9,94.2v-10h1.6v10H30.9z"/>
	<path class="st1" d="M41.6,94.2H40v-4.7c0-0.5-0.1-0.9-0.3-1.3c-0.3-0.3-0.7-0.5-1.1-0.4c-0.6,0-1.1,0.2-1.5,0.6
		c-0.4,0.6-0.5,1.3-0.5,2v3.8H35v-7.5h1.3l0.2,1h0.1c0.2-0.4,0.6-0.7,1-0.8c0.4-0.2,0.9-0.3,1.4-0.3c1.8,0,2.7,0.9,2.7,2.8
		L41.6,94.2z"/>
	<path class="st1" d="M50.2,86.6v0.9L49,87.7c0.1,0.2,0.2,0.4,0.3,0.6c0.3,0.9,0,1.9-0.7,2.6c-0.6,0.5-1.4,0.7-2.2,0.7
		c-0.2,0-0.4,0-0.7-0.1c-0.3,0.1-0.5,0.4-0.5,0.8c0,0.2,0.1,0.3,0.2,0.4c0.3,0.1,0.6,0.2,0.9,0.1h1.3c0.7,0,1.3,0.1,1.9,0.5
		c0.4,0.4,0.7,0.9,0.7,1.5c0,0.8-0.4,1.6-1.1,2c-0.9,0.5-2,0.8-3.1,0.7c-0.8,0.1-1.7-0.1-2.4-0.5c-0.5-0.3-0.8-0.9-0.8-1.6
		c0-0.4,0.1-0.9,0.4-1.2c0.3-0.3,0.8-0.6,1.2-0.7c-0.2-0.1-0.4-0.3-0.5-0.4c-0.3-0.4-0.3-0.9,0-1.3c0.2-0.2,0.4-0.4,0.7-0.6
		c-0.4-0.2-0.7-0.5-1-0.8c-0.2-0.4-0.4-0.9-0.4-1.3c0-0.7,0.2-1.4,0.8-1.9c0.6-0.5,1.4-0.7,2.2-0.7c0.2,0,0.4,0,0.7,0
		c0.2,0,0.4,0,0.5,0.1L50.2,86.6z M44.3,95.4c0,0.3,0.2,0.6,0.5,0.8c0.4,0.2,0.9,0.3,1.3,0.3c0.7,0,1.3-0.1,2-0.4
		c0.4-0.2,0.6-0.6,0.6-1c0-0.3-0.1-0.6-0.3-0.7c-0.4-0.2-0.9-0.3-1.3-0.2h-1.2c-0.4,0-0.8,0.1-1.1,0.3C44.4,94.7,44.3,95,44.3,95.4z
		 M45,89.1c0,0.4,0.1,0.8,0.4,1.1c0.3,0.3,0.7,0.4,1,0.4c0.9,0,1.4-0.5,1.4-1.5c0-0.4-0.1-0.8-0.3-1.1c-0.3-0.3-0.6-0.4-1-0.4
		c-0.4,0-0.8,0.1-1.1,0.4C45.1,88.2,45,88.6,45,89.1z"/>
	<path class="st1" d="M55.5,86.5c0.3,0,0.5,0,0.8,0.1l-0.2,1.5C55.9,88,55.7,88,55.4,88c-0.6,0-1.1,0.2-1.6,0.6
		c-0.4,0.4-0.6,1-0.6,1.6v4h-1.6v-7.6h1.3l0.2,1.4h0.1c0.2-0.4,0.6-0.8,1-1.1C54.6,86.7,55,86.5,55.5,86.5z"/>
	<path class="st1" d="M61,94.3c-1,0.1-2-0.3-2.8-1c-0.7-0.8-1.1-1.8-1-2.8c-0.1-1,0.3-2.1,0.9-2.9c0.6-0.7,1.6-1.1,2.5-1.1
		c0.9,0,1.7,0.3,2.4,0.9c0.6,0.7,0.9,1.6,0.9,2.5v0.9h-5c0,0.6,0.2,1.2,0.6,1.7c0.4,0.4,1,0.6,1.6,0.6c0.4,0,0.8,0,1.2-0.1
		c0.4-0.1,0.8-0.2,1.2-0.4v1.3c-0.4,0.2-0.8,0.3-1.2,0.4C61.9,94.3,61.5,94.3,61,94.3z M60.7,87.7c-0.5,0-0.9,0.2-1.2,0.5
		c-0.3,0.4-0.5,0.9-0.5,1.4h3.4c0-0.5-0.1-1-0.5-1.4C61.6,87.9,61.2,87.7,60.7,87.7z"/>
	<path class="st1" d="M70.8,92c0,0.7-0.3,1.3-0.8,1.7c-0.7,0.4-1.5,0.6-2.3,0.6c-0.8,0-1.7-0.1-2.4-0.5v-1.4
		c0.8,0.4,1.6,0.6,2.5,0.6c1,0,1.5-0.3,1.5-0.9c0-0.2-0.1-0.3-0.2-0.5c-0.2-0.2-0.3-0.3-0.5-0.4c-0.3-0.2-0.7-0.3-1-0.5
		c-0.7-0.2-1.3-0.5-1.8-1c-0.3-0.4-0.5-0.8-0.5-1.3c0-0.6,0.2-1.2,0.7-1.5c0.6-0.4,1.4-0.6,2.1-0.5c0.9,0,1.7,0.2,2.5,0.5l-0.5,1.2
		c-0.6-0.3-1.3-0.5-2-0.5c-0.8,0-1.3,0.2-1.3,0.7c0,0.2,0.1,0.5,0.3,0.6c0.5,0.3,0.9,0.5,1.4,0.7c0.5,0.2,0.9,0.4,1.4,0.7
		c0.3,0.2,0.5,0.4,0.6,0.7C70.8,91.4,70.9,91.7,70.8,92z"/>
	<path class="st1" d="M77.3,94.2L77,93.1l0,0c-0.3,0.4-0.7,0.7-1.1,0.9c-0.5,0.2-0.9,0.3-1.4,0.2c-0.6,0-1.3-0.2-1.7-0.6
		C72.3,93.3,72,92.7,72,92c0-0.7,0.3-1.4,0.9-1.8c0.8-0.5,1.7-0.7,2.6-0.7h1.3v-0.4c0-0.4-0.1-0.8-0.3-1.1c-0.3-0.2-0.6-0.4-1-0.4
		c-0.4,0-0.8,0.1-1.1,0.2c-0.3,0.1-0.7,0.3-1,0.4l-0.5-1.2c0.4-0.2,0.9-0.4,1.3-0.5c0.5-0.1,0.9-0.2,1.4-0.2
		c0.8-0.1,1.6,0.2,2.2,0.6c0.5,0.5,0.8,1.3,0.7,2v5.1L77.3,94.2z M74.9,93.1c0.5,0,1-0.2,1.4-0.5c0.4-0.4,0.6-0.9,0.5-1.4v-0.7h-1
		c-0.6,0-1.1,0.1-1.7,0.4c-0.3,0.2-0.5,0.6-0.5,1c0,0.3,0.1,0.6,0.3,0.8C74.2,93,74.6,93.1,74.9,93.1z"/>
	<path class="st1" d="M87.2,93c0.4,0,0.8-0.1,1.2-0.2V94c-0.2,0.1-0.5,0.2-0.7,0.2c-0.3,0.1-0.6,0.1-0.9,0.1c-1.5,0-2.3-0.8-2.3-2.4
		v-4h-1v-0.7l1.1-0.6l0.5-1.6h1v1.7h2.2v1.2h-2.2v4c0,0.3,0.1,0.6,0.3,0.9C86.6,92.9,86.9,93,87.2,93z"/>
	<path class="st1" d="M95.2,94.2l-0.2-1h-0.1c-0.2,0.4-0.6,0.7-1,0.8c-0.4,0.2-0.9,0.3-1.4,0.3c-0.7,0-1.5-0.2-2-0.7
		c-0.5-0.6-0.7-1.3-0.7-2.1v-4.9h1.6v4.7c0,0.5,0.1,0.9,0.4,1.3c0.3,0.3,0.7,0.5,1.1,0.4c0.6,0,1.1-0.2,1.5-0.6
		c0.4-0.6,0.5-1.3,0.5-2v-3.8h1.6v7.6H95.2z"/>
	<path class="st1" d="M105.2,93c0.4,0,0.8-0.1,1.2-0.2V94c-0.2,0.1-0.5,0.2-0.7,0.2c-0.3,0.1-0.6,0.1-0.9,0.1
		c-1.5,0-2.3-0.8-2.3-2.4v-4h-1v-0.7l1.1-0.6l0.6-1.6h1v1.7h2.2v1.2h-2.2v4c0,0.3,0.1,0.6,0.3,0.9C104.6,92.9,104.9,93,105.2,93z"/>
	<path class="st1" d="M114.6,90.4c0.1,1.1-0.3,2.1-1,2.9c-0.7,0.7-1.7,1.1-2.6,1c-0.7,0-1.3-0.2-1.9-0.5c-0.5-0.3-1-0.8-1.2-1.4
		c-0.3-0.6-0.5-1.4-0.4-2.1c-0.1-1,0.3-2.1,0.9-2.9c0.7-0.7,1.7-1.1,2.7-1c1,0,1.9,0.3,2.6,1.1C114.2,88.3,114.6,89.3,114.6,90.4z
		 M109.1,90.4c0,1.7,0.7,2.6,1.9,2.6s1.9-0.9,1.9-2.6s-0.6-2.6-1.9-2.6c-0.6,0-1.1,0.2-1.5,0.7C109.2,89,109,89.7,109.1,90.4z"/>
	<path class="st1" d="M118,90.2l0.9-1.1l2.3-2.4h1.8l-3,3.2l3.2,4.3h-1.9l-2.4-3.3l-0.9,0.7v2.6h-1.6V83.5h1.6v5.2V90.2L118,90.2z"
		/>
	<path class="st1" d="M127.7,94.3c-1,0.1-2-0.3-2.8-1c-0.7-0.8-1.1-1.8-1-2.8c-0.1-1.1,0.3-2.1,0.9-2.9c0.6-0.7,1.6-1.1,2.5-1.1
		c0.9,0,1.7,0.3,2.4,0.9c0.6,0.7,0.9,1.6,0.9,2.5v0.9h-5c0,0.6,0.2,1.2,0.6,1.7c0.4,0.4,1,0.6,1.6,0.6c0.4,0,0.8,0,1.2-0.1
		c0.4-0.1,0.8-0.2,1.2-0.4v1.3c-0.4,0.2-0.8,0.3-1.2,0.4C128.7,94.3,128.2,94.3,127.7,94.3z M127.4,87.7c-0.5,0-0.9,0.2-1.2,0.5
		c-0.3,0.4-0.5,0.9-0.6,1.4h3.4c0-0.5-0.1-1-0.4-1.4C128.3,87.9,127.9,87.7,127.4,87.7z"/>
	<path class="st1" d="M139.1,94.2h-1.6v-4.7c0-0.5-0.1-0.9-0.4-1.3c-0.3-0.3-0.7-0.5-1.1-0.4c-0.6,0-1.1,0.2-1.5,0.6
		c-0.4,0.6-0.5,1.3-0.5,2v3.8h-1.6v-7.5h1.3l0.2,1h0.1c0.2-0.4,0.6-0.7,1-0.8c0.4-0.2,0.9-0.3,1.4-0.3c1.8,0,2.7,0.9,2.7,2.8
		L139.1,94.2z"/>
	<path class="st5" d="M140.7,204.6h4.4v-1.1l0.6-0.6v2.2h-5v1.1l-5.5-1.7v-9.9l5.5-1.7v1.1h5v2.8l-0.6-0.6v-1.7h-4.4V204.6z
		 M140.2,205.5v-11.8l-4.4,1.3v9.1L140.2,205.5z M146.3,199.6l-1.8-1.8l0.4-0.4l2.5,2.5l-2.5,2.5l-0.4-0.4l1.8-1.8h-5v-0.6
		L146.3,199.6z"/>
	<path class="st1" d="M158.6,195.6c-0.8,0-1.5,0.3-2,1c-0.5,0.8-0.8,1.7-0.7,2.7c0,2.4,0.9,3.6,2.7,3.6c0.9,0,1.9-0.2,2.7-0.6v1.9
		c-1,0.4-2,0.6-3,0.6c-1.3,0.1-2.7-0.4-3.6-1.4c-0.9-1.2-1.3-2.6-1.2-4.1c0-1,0.2-2,0.6-2.9c0.4-0.8,1-1.5,1.8-1.9
		c0.8-0.5,1.7-0.7,2.7-0.7c1.1,0,2.2,0.3,3.1,0.8l-0.7,1.8c-0.4-0.2-0.8-0.3-1.2-0.5C159.4,195.7,159,195.6,158.6,195.6z"/>
	<path class="st1" d="M170.9,200.4c0.1,1.1-0.3,2.2-1,3.1c-0.8,0.8-1.8,1.2-2.9,1.1c-0.7,0-1.4-0.2-2.1-0.5
		c-0.6-0.3-1.1-0.9-1.4-1.5c-0.3-0.7-0.5-1.5-0.5-2.2c-0.1-1.1,0.3-2.3,1.1-3.1c0.8-0.8,1.8-1.2,2.9-1.1c0.7,0,1.4,0.2,2.1,0.5
		c0.6,0.3,1.1,0.9,1.4,1.5C170.8,198.9,170.9,199.7,170.9,200.4z M165.2,200.4c0,0.6,0.1,1.3,0.4,1.8c0.3,0.4,0.8,0.7,1.3,0.6
		c0.5,0,1-0.2,1.3-0.6c0.3-0.6,0.4-1.2,0.4-1.8c0-0.6-0.1-1.3-0.4-1.8c-0.6-0.7-1.7-0.8-2.4-0.2c-0.1,0.1-0.1,0.1-0.2,0.2
		C165.3,199.2,165.2,199.8,165.2,200.4z"/>
	<path class="st1" d="M180.3,204.5h-2.2v-4.8c0-0.5-0.1-0.9-0.3-1.3c-0.2-0.3-0.6-0.5-1-0.4c-0.5,0-1,0.2-1.4,0.6
		c-0.3,0.6-0.5,1.4-0.4,2.1v3.9h-2.2v-8.2h1.7l0.3,1h0.1c0.2-0.4,0.6-0.7,1-0.9c0.5-0.2,1-0.3,1.5-0.3c0.8-0.1,1.6,0.2,2.2,0.8
		c0.5,0.6,0.8,1.4,0.7,2.2L180.3,204.5z"/>
	<path class="st1" d="M186.1,202.9c0.5,0,1-0.1,1.4-0.2v1.7c-0.6,0.3-1.3,0.4-2.1,0.4c-0.7,0.1-1.4-0.2-1.9-0.7
		c-0.4-0.6-0.7-1.3-0.6-2v-4h-1.1v-0.9l1.2-0.8l0.6-1.7h1.4v1.8h2.3v1.7h-2.3v4c0,0.3,0.1,0.5,0.3,0.7
		C185.6,202.9,185.8,202.9,186.1,202.9z"/>
	<path class="st1" d="M189,194.2c0-0.7,0.4-1.1,1.2-1.1s1.2,0.4,1.2,1.1c0,0.3-0.1,0.6-0.3,0.8c-0.3,0.2-0.6,0.3-0.9,0.3
		C189.4,195.3,189,195,189,194.2z M191.3,204.5h-2.2v-8.2h2.2V204.5z"/>
	<path class="st1" d="M201.3,204.5H199v-4.8c0-0.5-0.1-0.9-0.3-1.3c-0.2-0.3-0.6-0.5-1-0.4c-0.5,0-1.1,0.2-1.4,0.6
		c-0.3,0.6-0.5,1.4-0.4,2.1v3.9h-2.2v-8.2h1.7l0.3,1h0.1c0.2-0.4,0.6-0.7,1-0.9c0.5-0.2,1-0.3,1.5-0.3c0.8-0.1,1.6,0.2,2.2,0.8
		c0.5,0.6,0.8,1.4,0.7,2.2L201.3,204.5z"/>
	<path class="st1" d="M209.4,204.5l-0.3-1h-0.1c-0.2,0.4-0.6,0.7-1,0.9c-0.5,0.2-1,0.3-1.5,0.3c-0.8,0.1-1.6-0.2-2.2-0.8
		c-0.5-0.6-0.8-1.4-0.7-2.2v-5.3h2.2v4.8c0,0.5,0.1,0.9,0.3,1.3c0.2,0.3,0.6,0.5,1,0.4c0.5,0,1-0.2,1.4-0.6c0.3-0.6,0.5-1.4,0.4-2.1
		v-3.9h2.2v8.2L209.4,204.5z"/>
	<path class="st1" d="M218.6,204.5l-0.4-1.1h-0.1c-0.3,0.4-0.7,0.8-1.2,1c-0.5,0.2-1,0.3-1.6,0.3c-0.7,0-1.4-0.2-1.9-0.7
		c-0.5-0.5-0.7-1.2-0.7-1.9c-0.1-0.8,0.3-1.5,0.9-1.9c0.8-0.5,1.8-0.7,2.8-0.7h1.4v-0.4c0.1-0.6-0.3-1.2-0.9-1.3c-0.1,0-0.2,0-0.3,0
		c-0.8,0-1.6,0.2-2.3,0.6l-0.7-1.5c1-0.5,2-0.8,3.1-0.7c0.9-0.1,1.8,0.2,2.5,0.7c0.6,0.5,0.9,1.4,0.9,2.2v5.5L218.6,204.5z
		 M218,200.7h-0.9c-0.5,0-1,0.1-1.4,0.4c-0.3,0.2-0.5,0.6-0.5,1c0,0.6,0.4,1,1.1,1c0.5,0,0.9-0.1,1.2-0.4c0.3-0.3,0.5-0.7,0.5-1.2
		L218,200.7z"/>
	<path class="st1" d="M227.1,196.2c0.3,0,0.5,0,0.8,0.1l-0.2,2.1c-0.2,0-0.4-0.1-0.7-0.1c-0.6,0-1.2,0.2-1.7,0.6
		c-0.4,0.4-0.6,1-0.6,1.5v4.2h-2.2v-8.2h1.7l0.3,1.4h0.1c0.2-0.4,0.6-0.8,1-1.1C226,196.3,226.5,196.2,227.1,196.2z"/>
</g>
<g>
	<path class="st6" d="M43.8,59v-8.6h1.4V59H43.8z"/>
	<path class="st6" d="M53.1,59h-1.4v-4c0-0.5-0.1-0.9-0.3-1.1s-0.5-0.4-1-0.4c-0.6,0-1,0.2-1.3,0.5s-0.4,0.9-0.4,1.7V59h-1.4v-6.5
		h1.1l0.2,0.8h0.1c0.2-0.3,0.5-0.5,0.8-0.7s0.8-0.3,1.2-0.3c1.6,0,2.3,0.8,2.3,2.4V59z"/>
	<path class="st6" d="M60.5,52.5v0.8l-1.1,0.2c0.1,0.1,0.2,0.3,0.3,0.5s0.1,0.4,0.1,0.6c0,0.7-0.2,1.2-0.7,1.6s-1.1,0.6-1.9,0.6
		c-0.2,0-0.4,0-0.6,0c-0.3,0.2-0.4,0.4-0.4,0.6c0,0.1,0.1,0.3,0.2,0.3s0.4,0.1,0.8,0.1h1.1c0.7,0,1.3,0.2,1.6,0.5s0.6,0.7,0.6,1.3
		c0,0.7-0.3,1.3-0.9,1.7s-1.5,0.6-2.6,0.6c-0.9,0-1.6-0.2-2-0.5s-0.7-0.8-0.7-1.3c0-0.4,0.1-0.7,0.4-1s0.6-0.5,1.1-0.6
		c-0.2-0.1-0.3-0.2-0.5-0.4s-0.2-0.4-0.2-0.5c0-0.2,0.1-0.4,0.2-0.6s0.3-0.3,0.6-0.5c-0.3-0.1-0.6-0.4-0.8-0.7s-0.3-0.7-0.3-1.1
		c0-0.7,0.2-1.2,0.7-1.6s1.1-0.6,1.9-0.6c0.2,0,0.4,0,0.6,0s0.4,0.1,0.5,0.1H60.5z M55.4,60c0,0.3,0.1,0.5,0.4,0.7s0.6,0.2,1.1,0.2
		c0.8,0,1.3-0.1,1.7-0.3s0.6-0.5,0.6-0.9c0-0.3-0.1-0.5-0.3-0.6S58.2,59,57.7,59h-1c-0.4,0-0.7,0.1-0.9,0.3S55.4,59.7,55.4,60z
		 M56,54.6c0,0.4,0.1,0.7,0.3,0.9s0.5,0.3,0.9,0.3c0.8,0,1.2-0.4,1.2-1.3c0-0.4-0.1-0.7-0.3-1s-0.5-0.3-0.9-0.3
		c-0.4,0-0.7,0.1-0.9,0.3S56,54.2,56,54.6z"/>
	<path class="st6" d="M64.9,52.4c0.3,0,0.5,0,0.7,0.1l-0.1,1.3c-0.2,0-0.4-0.1-0.6-0.1c-0.6,0-1,0.2-1.3,0.5S63,55,63,55.6V59h-1.4
		v-6.5h1.1l0.2,1.1H63c0.2-0.4,0.5-0.7,0.8-0.9S64.5,52.4,64.9,52.4z"/>
	<path class="st6" d="M69.7,59.1c-1,0-1.8-0.3-2.4-0.9s-0.9-1.4-0.9-2.4c0-1.1,0.3-1.9,0.8-2.5s1.3-0.9,2.2-0.9c0.9,0,1.5,0.3,2,0.8
		s0.7,1.2,0.7,2.1v0.7h-4.3c0,0.6,0.2,1.1,0.5,1.5s0.8,0.5,1.4,0.5c0.4,0,0.7,0,1.1-0.1s0.7-0.2,1.1-0.4v1.1c-0.3,0.2-0.7,0.3-1,0.3
		S70.1,59.1,69.7,59.1z M69.4,53.4c-0.4,0-0.8,0.1-1.1,0.4s-0.4,0.7-0.5,1.2h2.9c0-0.5-0.1-0.9-0.4-1.2S69.8,53.4,69.4,53.4z"/>
	<path class="st6" d="M78.1,57.2c0,0.6-0.2,1.1-0.7,1.5s-1.1,0.5-2,0.5c-0.9,0-1.6-0.1-2.1-0.4v-1.2c0.8,0.4,1.5,0.5,2.1,0.5
		c0.8,0,1.3-0.3,1.3-0.8c0-0.2,0-0.3-0.1-0.4s-0.2-0.2-0.5-0.3s-0.5-0.2-0.9-0.4c-0.7-0.3-1.3-0.6-1.5-0.9s-0.4-0.7-0.4-1.1
		c0-0.6,0.2-1,0.7-1.3s1.1-0.5,1.8-0.5c0.8,0,1.5,0.2,2.2,0.5l-0.4,1c-0.7-0.3-1.3-0.4-1.8-0.4c-0.7,0-1.1,0.2-1.1,0.6
		c0,0.2,0.1,0.4,0.3,0.5s0.6,0.3,1.2,0.6c0.5,0.2,0.9,0.4,1.2,0.6s0.4,0.4,0.5,0.6S78.1,56.8,78.1,57.2z"/>
	<path class="st6" d="M83.6,59l-0.3-0.9h0c-0.3,0.4-0.6,0.7-0.9,0.8s-0.7,0.2-1.2,0.2c-0.6,0-1.1-0.2-1.5-0.5s-0.5-0.8-0.5-1.5
		c0-0.7,0.2-1.2,0.7-1.5s1.3-0.5,2.3-0.6l1.1,0v-0.3c0-0.4-0.1-0.7-0.3-0.9s-0.5-0.3-0.9-0.3c-0.3,0-0.7,0-1,0.1s-0.6,0.2-0.9,0.3
		l-0.4-1c0.4-0.2,0.7-0.3,1.2-0.4s0.8-0.1,1.2-0.1c0.8,0,1.4,0.2,1.9,0.5s0.6,0.9,0.6,1.7V59H83.6z M81.6,58.1
		c0.5,0,0.9-0.1,1.2-0.4s0.5-0.7,0.5-1.2v-0.6l-0.8,0c-0.6,0-1.1,0.1-1.4,0.3s-0.4,0.5-0.4,0.9c0,0.3,0.1,0.5,0.3,0.7
		S81.2,58.1,81.6,58.1z"/>
	<path class="st6" d="M92.5,59.1c-1,0-1.8-0.3-2.4-0.9s-0.9-1.4-0.9-2.4c0-1.1,0.3-1.9,0.8-2.5s1.3-0.9,2.2-0.9c0.9,0,1.5,0.3,2,0.8
		s0.7,1.2,0.7,2.1v0.7h-4.3c0,0.6,0.2,1.1,0.5,1.5S92,58,92.6,58c0.4,0,0.7,0,1.1-0.1s0.7-0.2,1.1-0.4v1.1c-0.3,0.2-0.7,0.3-1,0.3
		S92.9,59.1,92.5,59.1z M92.2,53.4c-0.4,0-0.8,0.1-1.1,0.4s-0.4,0.7-0.5,1.2h2.9c0-0.5-0.1-0.9-0.4-1.2S92.7,53.4,92.2,53.4z"/>
	<path class="st6" d="M98,59h-1.4v-9.1H98V59z"/>
	<path class="st6" d="M105.5,58c0.3,0,0.7-0.1,1-0.2v1c-0.2,0.1-0.3,0.1-0.6,0.2s-0.5,0.1-0.7,0.1c-1.3,0-2-0.7-2-2.1v-3.5h-0.9V53
		l0.9-0.5l0.5-1.4h0.8v1.4h1.8v1h-1.8V57c0,0.3,0.1,0.6,0.2,0.7S105.2,58,105.5,58z"/>
	<path class="st6" d="M113.5,55.7c0,1.1-0.3,1.9-0.8,2.5s-1.3,0.9-2.3,0.9c-0.6,0-1.1-0.1-1.6-0.4s-0.8-0.7-1.1-1.2
		s-0.4-1.1-0.4-1.8c0-1.1,0.3-1.9,0.8-2.5s1.3-0.9,2.3-0.9c0.9,0,1.7,0.3,2.2,0.9S113.5,54.7,113.5,55.7z M108.8,55.7
		c0,1.5,0.6,2.2,1.7,2.2c1.1,0,1.6-0.7,1.6-2.2c0-1.5-0.6-2.2-1.7-2.2c-0.6,0-1,0.2-1.3,0.6S108.8,55,108.8,55.7z"/>
	<path class="st6" d="M116.4,55.6l0.8-1l2-2.1h1.6l-2.6,2.8l2.8,3.7h-1.6l-2.1-2.8l-0.8,0.6V59h-1.4v-9.1h1.4v4.4L116.4,55.6
		L116.4,55.6z"/>
	<path class="st6" d="M124.8,59.1c-1,0-1.8-0.3-2.4-0.9s-0.9-1.4-0.9-2.4c0-1.1,0.3-1.9,0.8-2.5s1.3-0.9,2.2-0.9
		c0.9,0,1.5,0.3,2,0.8s0.7,1.2,0.7,2.1v0.7H123c0,0.6,0.2,1.1,0.5,1.5s0.8,0.5,1.4,0.5c0.4,0,0.7,0,1.1-0.1s0.7-0.2,1.1-0.4v1.1
		c-0.3,0.2-0.7,0.3-1,0.3S125.2,59.1,124.8,59.1z M124.5,53.4c-0.4,0-0.8,0.1-1.1,0.4s-0.4,0.7-0.5,1.2h2.9c0-0.5-0.1-0.9-0.4-1.2
		S125,53.4,124.5,53.4z"/>
	<path class="st6" d="M134.6,59h-1.4v-4c0-0.5-0.1-0.9-0.3-1.1s-0.5-0.4-1-0.4c-0.6,0-1,0.2-1.3,0.5s-0.4,0.9-0.4,1.7V59h-1.4v-6.5
		h1.1l0.2,0.8h0.1c0.2-0.3,0.5-0.5,0.8-0.7s0.8-0.3,1.2-0.3c1.6,0,2.3,0.8,2.3,2.4V59z"/>
	<path class="st6" d="M142.4,59.1c-1,0-1.8-0.3-2.4-0.9s-0.9-1.4-0.9-2.4c0-1.1,0.3-1.9,0.8-2.5s1.3-0.9,2.2-0.9
		c0.9,0,1.5,0.3,2,0.8s0.7,1.2,0.7,2.1v0.7h-4.3c0,0.6,0.2,1.1,0.5,1.5s0.8,0.5,1.4,0.5c0.4,0,0.7,0,1.1-0.1s0.7-0.2,1.1-0.4v1.1
		c-0.3,0.2-0.7,0.3-1,0.3S142.9,59.1,142.4,59.1z M142.2,53.4c-0.4,0-0.8,0.1-1.1,0.4s-0.4,0.7-0.5,1.2h2.9c0-0.5-0.1-0.9-0.4-1.2
		S142.6,53.4,142.2,53.4z"/>
	<path class="st6" d="M152.2,59h-1.4v-4c0-0.5-0.1-0.9-0.3-1.1s-0.5-0.4-1-0.4c-0.6,0-1,0.2-1.3,0.5s-0.4,0.9-0.4,1.7V59h-1.4v-6.5
		h1.1l0.2,0.8h0.1c0.2-0.3,0.5-0.5,0.8-0.7s0.8-0.3,1.2-0.3c1.6,0,2.3,0.8,2.3,2.4V59z"/>
	<path class="st6" d="M155.6,59l-2.5-6.5h1.5l1.3,3.8c0.2,0.6,0.4,1.1,0.4,1.5h0c0-0.3,0.2-0.8,0.4-1.5l1.3-3.8h1.5l-2.5,6.5H155.6z
		"/>
	<path class="st6" d="M160.5,50.8c0-0.2,0.1-0.4,0.2-0.6s0.3-0.2,0.6-0.2c0.2,0,0.4,0.1,0.6,0.2s0.2,0.3,0.2,0.6
		c0,0.2-0.1,0.4-0.2,0.6s-0.3,0.2-0.6,0.2c-0.2,0-0.4-0.1-0.6-0.2S160.5,51,160.5,50.8z M161.9,59h-1.4v-6.5h1.4V59z"/>
	<path class="st6" d="M167.9,59l-0.3-0.9h0c-0.3,0.4-0.6,0.7-0.9,0.8s-0.7,0.2-1.2,0.2c-0.6,0-1.1-0.2-1.5-0.5s-0.5-0.8-0.5-1.5
		c0-0.7,0.2-1.2,0.7-1.5s1.3-0.5,2.3-0.6l1.1,0v-0.3c0-0.4-0.1-0.7-0.3-0.9s-0.5-0.3-0.9-0.3c-0.3,0-0.7,0-1,0.1s-0.6,0.2-0.9,0.3
		l-0.4-1c0.4-0.2,0.7-0.3,1.2-0.4s0.8-0.1,1.2-0.1c0.8,0,1.4,0.2,1.9,0.5s0.6,0.9,0.6,1.7V59H167.9z M165.9,58.1
		c0.5,0,0.9-0.1,1.2-0.4s0.5-0.7,0.5-1.2v-0.6l-0.8,0c-0.6,0-1.1,0.1-1.4,0.3s-0.4,0.5-0.4,0.9c0,0.3,0.1,0.5,0.3,0.7
		S165.6,58.1,165.9,58.1z"/>
	<path class="st6" d="M173,59.1c-0.8,0-1.4-0.3-1.9-0.9s-0.7-1.4-0.7-2.5c0-1.1,0.2-1.9,0.7-2.5s1.1-0.9,1.9-0.9
		c0.9,0,1.5,0.3,1.9,0.9h0.1c-0.1-0.5-0.1-0.8-0.1-1.1v-2.4h1.4V59h-1.1l-0.2-0.8H175C174.5,58.8,173.9,59.1,173,59.1z M173.4,58
		c0.6,0,1-0.2,1.2-0.5s0.4-0.8,0.4-1.5v-0.2c0-0.8-0.1-1.4-0.4-1.7s-0.7-0.5-1.2-0.5c-0.5,0-0.9,0.2-1.1,0.6s-0.4,1-0.4,1.7
		c0,0.7,0.1,1.3,0.4,1.6S172.9,58,173.4,58z"/>
	<path class="st6" d="M184.1,55.7c0,1.1-0.3,1.9-0.8,2.5s-1.3,0.9-2.3,0.9c-0.6,0-1.1-0.1-1.6-0.4s-0.8-0.7-1.1-1.2
		s-0.4-1.1-0.4-1.8c0-1.1,0.3-1.9,0.8-2.5s1.3-0.9,2.3-0.9c0.9,0,1.7,0.3,2.2,0.9S184.1,54.7,184.1,55.7z M179.4,55.7
		c0,1.5,0.6,2.2,1.7,2.2c1.1,0,1.6-0.7,1.6-2.2c0-1.5-0.6-2.2-1.7-2.2c-0.6,0-1,0.2-1.3,0.6S179.4,55,179.4,55.7z"/>
	<path class="st6" d="M192.8,59l-0.3-0.9h0c-0.3,0.4-0.6,0.7-0.9,0.8s-0.7,0.2-1.2,0.2c-0.6,0-1.1-0.2-1.5-0.5s-0.5-0.8-0.5-1.5
		c0-0.7,0.2-1.2,0.7-1.5s1.3-0.5,2.3-0.6l1.1,0v-0.3c0-0.4-0.1-0.7-0.3-0.9s-0.5-0.3-0.9-0.3c-0.3,0-0.7,0-1,0.1s-0.6,0.2-0.9,0.3
		l-0.4-1c0.4-0.2,0.7-0.3,1.2-0.4s0.8-0.1,1.2-0.1c0.8,0,1.4,0.2,1.9,0.5s0.6,0.9,0.6,1.7V59H192.8z M190.8,58.1
		c0.5,0,0.9-0.1,1.2-0.4s0.5-0.7,0.5-1.2v-0.6l-0.8,0c-0.6,0-1.1,0.1-1.4,0.3s-0.4,0.5-0.4,0.9c0,0.3,0.1,0.5,0.3,0.7
		S190.4,58.1,190.8,58.1z"/>
	<path class="st6" d="M201.3,58c0.3,0,0.7-0.1,1-0.2v1c-0.2,0.1-0.3,0.1-0.6,0.2s-0.5,0.1-0.7,0.1c-1.3,0-2-0.7-2-2.1v-3.5h-0.9V53
		l0.9-0.5l0.5-1.4h0.8v1.4h1.8v1h-1.8V57c0,0.3,0.1,0.6,0.2,0.7S201,58,201.3,58z"/>
	<path class="st6" d="M208.1,59l-0.2-0.8h-0.1c-0.2,0.3-0.5,0.5-0.8,0.7s-0.8,0.3-1.2,0.3c-0.8,0-1.4-0.2-1.8-0.6s-0.6-1-0.6-1.8
		v-4.2h1.4v4c0,0.5,0.1,0.9,0.3,1.1s0.5,0.4,1,0.4c0.6,0,1-0.2,1.3-0.5s0.4-0.9,0.4-1.7v-3.2h1.4V59H208.1z"/>
	<path class="st6" d="M220,59h-1.4v-4c0-0.5-0.1-0.9-0.3-1.1s-0.5-0.4-1-0.4c-0.6,0-1,0.2-1.3,0.5s-0.4,0.9-0.4,1.7V59h-1.4v-6.5
		h1.1l0.2,0.8h0.1c0.2-0.3,0.5-0.5,0.8-0.7s0.8-0.3,1.2-0.3c1.6,0,2.3,0.8,2.3,2.4V59z"/>
	<path class="st6" d="M226.5,59l-0.2-0.8h-0.1c-0.2,0.3-0.5,0.5-0.8,0.7s-0.8,0.3-1.2,0.3c-0.8,0-1.4-0.2-1.8-0.6s-0.6-1-0.6-1.8
		v-4.2h1.4v4c0,0.5,0.1,0.9,0.3,1.1s0.5,0.4,1,0.4c0.6,0,1-0.2,1.3-0.5s0.4-0.9,0.4-1.7v-3.2h1.4V59H226.5z M223.9,51.7v-0.1
		c0.2-0.3,0.5-0.6,0.7-0.9s0.4-0.6,0.6-0.9h1.6v0.1c-0.2,0.2-0.5,0.5-0.9,0.9s-0.7,0.7-1,0.9H223.9z"/>
	<path class="st6" d="M235,59h-1.4v-4c0-0.5-0.1-0.9-0.3-1.1s-0.5-0.4-0.9-0.4c-0.5,0-0.9,0.2-1.2,0.5s-0.4,0.9-0.4,1.7V59h-1.4
		v-6.5h1.1l0.2,0.8h0.1c0.2-0.3,0.4-0.5,0.8-0.7s0.7-0.3,1.1-0.3c1,0,1.7,0.3,2,1h0.1c0.2-0.3,0.5-0.6,0.8-0.8s0.7-0.3,1.2-0.3
		c0.8,0,1.3,0.2,1.7,0.6s0.5,1,0.5,1.8V59h-1.4v-4c0-0.5-0.1-0.9-0.3-1.1s-0.5-0.4-0.9-0.4c-0.5,0-0.9,0.2-1.2,0.5s-0.4,0.8-0.4,1.5
		V59z"/>
	<path class="st6" d="M243.8,59.1c-1,0-1.8-0.3-2.4-0.9s-0.9-1.4-0.9-2.4c0-1.1,0.3-1.9,0.8-2.5s1.3-0.9,2.2-0.9
		c0.9,0,1.5,0.3,2,0.8s0.7,1.2,0.7,2.1v0.7H242c0,0.6,0.2,1.1,0.5,1.5s0.8,0.5,1.4,0.5c0.4,0,0.7,0,1.1-0.1s0.7-0.2,1.1-0.4v1.1
		c-0.3,0.2-0.7,0.3-1,0.3S244.3,59.1,243.8,59.1z M243.6,53.4c-0.4,0-0.8,0.1-1.1,0.4s-0.4,0.7-0.5,1.2h2.9c0-0.5-0.1-0.9-0.4-1.2
		S244,53.4,243.6,53.4z"/>
	<path class="st6" d="M251.2,52.4c0.3,0,0.5,0,0.7,0.1l-0.1,1.3c-0.2,0-0.4-0.1-0.6-0.1c-0.6,0-1,0.2-1.3,0.5s-0.5,0.8-0.5,1.4V59
		h-1.4v-6.5h1.1l0.2,1.1h0.1c0.2-0.4,0.5-0.7,0.8-0.9S250.8,52.4,251.2,52.4z"/>
	<path class="st6" d="M258.9,55.7c0,1.1-0.3,1.9-0.8,2.5s-1.3,0.9-2.3,0.9c-0.6,0-1.1-0.1-1.6-0.4s-0.8-0.7-1.1-1.2
		s-0.4-1.1-0.4-1.8c0-1.1,0.3-1.9,0.8-2.5s1.3-0.9,2.3-0.9c0.9,0,1.7,0.3,2.2,0.9S258.9,54.7,258.9,55.7z M254.1,55.7
		c0,1.5,0.6,2.2,1.7,2.2c1.1,0,1.6-0.7,1.6-2.2c0-1.5-0.6-2.2-1.7-2.2c-0.6,0-1,0.2-1.3,0.6S254.1,55,254.1,55.7z"/>
	<path class="st6" d="M265.7,59.1c-0.8,0-1.4-0.3-1.9-0.9s-0.7-1.4-0.7-2.5c0-1.1,0.2-1.9,0.7-2.5s1.1-0.9,1.9-0.9
		c0.9,0,1.5,0.3,1.9,0.9h0.1c-0.1-0.5-0.1-0.8-0.1-1.1v-2.4h1.4V59H268l-0.2-0.8h-0.1C267.2,58.8,266.6,59.1,265.7,59.1z M266.1,58
		c0.6,0,1-0.2,1.2-0.5s0.4-0.8,0.4-1.5v-0.2c0-0.8-0.1-1.4-0.4-1.7s-0.7-0.5-1.2-0.5c-0.5,0-0.9,0.2-1.1,0.6s-0.4,1-0.4,1.7
		c0,0.7,0.1,1.3,0.4,1.6S265.6,58,266.1,58z"/>
	<path class="st6" d="M273.9,59.1c-1,0-1.8-0.3-2.4-0.9s-0.9-1.4-0.9-2.4c0-1.1,0.3-1.9,0.8-2.5s1.3-0.9,2.2-0.9
		c0.9,0,1.5,0.3,2,0.8s0.7,1.2,0.7,2.1v0.7h-4.3c0,0.6,0.2,1.1,0.5,1.5s0.8,0.5,1.4,0.5c0.4,0,0.7,0,1.1-0.1s0.7-0.2,1.1-0.4v1.1
		c-0.3,0.2-0.7,0.3-1,0.3S274.3,59.1,273.9,59.1z M273.6,53.4c-0.4,0-0.8,0.1-1.1,0.4s-0.4,0.7-0.5,1.2h2.9c0-0.5-0.1-0.9-0.4-1.2
		S274,53.4,273.6,53.4z"/>
	<path class="st6" d="M283.7,59.1c-1,0-1.7-0.3-2.2-0.9s-0.8-1.4-0.8-2.5c0-1.1,0.3-1.9,0.8-2.5s1.3-0.9,2.3-0.9
		c0.7,0,1.3,0.1,1.8,0.4l-0.4,1.1c-0.6-0.2-1.1-0.3-1.4-0.3c-1.1,0-1.7,0.7-1.7,2.2c0,0.7,0.1,1.3,0.4,1.6s0.7,0.5,1.2,0.5
		c0.6,0,1.2-0.2,1.7-0.5v1.2c-0.2,0.1-0.5,0.2-0.8,0.3S284.1,59.1,283.7,59.1z"/>
	<path class="st6" d="M289.8,59.1c-1,0-1.8-0.3-2.4-0.9s-0.9-1.4-0.9-2.4c0-1.1,0.3-1.9,0.8-2.5s1.3-0.9,2.2-0.9
		c0.9,0,1.5,0.3,2,0.8s0.7,1.2,0.7,2.1v0.7H288c0,0.6,0.2,1.1,0.5,1.5s0.8,0.5,1.4,0.5c0.4,0,0.7,0,1.1-0.1s0.7-0.2,1.1-0.4v1.1
		c-0.3,0.2-0.7,0.3-1,0.3S290.3,59.1,289.8,59.1z M289.6,53.4c-0.4,0-0.8,0.1-1.1,0.4s-0.4,0.7-0.5,1.2h2.9c0-0.5-0.1-0.9-0.4-1.2
		S290,53.4,289.6,53.4z"/>
	<path class="st6" d="M295.3,59h-1.4v-9.1h1.4V59z"/>
	<path class="st6" d="M301.8,59l-0.2-0.8h-0.1c-0.2,0.3-0.5,0.5-0.8,0.7s-0.8,0.3-1.2,0.3c-0.8,0-1.4-0.2-1.8-0.6s-0.6-1-0.6-1.8
		v-4.2h1.4v4c0,0.5,0.1,0.9,0.3,1.1s0.5,0.4,1,0.4c0.6,0,1-0.2,1.3-0.5s0.4-0.9,0.4-1.7v-3.2h1.4V59H301.8z"/>
	<path class="st6" d="M306.3,59h-1.4v-9.1h1.4V59z"/>
	<path class="st6" d="M312.3,59l-0.3-0.9h0c-0.3,0.4-0.6,0.7-0.9,0.8s-0.7,0.2-1.2,0.2c-0.6,0-1.1-0.2-1.5-0.5s-0.5-0.8-0.5-1.5
		c0-0.7,0.2-1.2,0.7-1.5s1.3-0.5,2.3-0.6l1.1,0v-0.3c0-0.4-0.1-0.7-0.3-0.9s-0.5-0.3-0.9-0.3c-0.3,0-0.7,0-1,0.1s-0.6,0.2-0.9,0.3
		l-0.4-1c0.4-0.2,0.7-0.3,1.2-0.4s0.8-0.1,1.2-0.1c0.8,0,1.4,0.2,1.9,0.5s0.6,0.9,0.6,1.7V59H312.3z M310.2,58.1
		c0.5,0,0.9-0.1,1.2-0.4s0.5-0.7,0.5-1.2v-0.6l-0.8,0c-0.6,0-1.1,0.1-1.4,0.3s-0.4,0.5-0.4,0.9c0,0.3,0.1,0.5,0.3,0.7
		S309.9,58.1,310.2,58.1z"/>
	<path class="st6" d="M318.5,52.4c0.3,0,0.5,0,0.7,0.1l-0.1,1.3c-0.2,0-0.4-0.1-0.6-0.1c-0.6,0-1,0.2-1.3,0.5s-0.5,0.8-0.5,1.4V59
		h-1.4v-6.5h1.1l0.2,1.1h0.1c0.2-0.4,0.5-0.7,0.8-0.9S318.1,52.4,318.5,52.4z"/>
</g>
</svg>
