<svg id="Capa_1" data-name="Capa 1" xmlns="http://www.w3.org/2000/svg" viewBox="0 0 300 60"><defs><style>.cls-1{fill:#fff;}.cls-2{fill:#2bb9ce;stroke:#2bb9ce;stroke-miterlimit:10;}</style></defs><path class="cls-1" d="M15,27.66a2.29,2.29,0,0,0-1.89.85,3.61,3.61,0,0,0-.7,2.36,3.72,3.72,0,0,0,.67,2.39,2.33,2.33,0,0,0,1.92.81A5.22,5.22,0,0,0,16,34c.34-.07.69-.17,1.06-.28v1.2a6.51,6.51,0,0,1-2.29.38,3.64,3.64,0,0,1-2.88-1.14,4.72,4.72,0,0,1-1-3.26,5.23,5.23,0,0,1,.49-2.34A3.43,3.43,0,0,1,12.81,27,4.24,4.24,0,0,1,15,26.46a5.34,5.34,0,0,1,2.42.55l-.5,1.16c-.29-.13-.6-.25-.92-.36A3.4,3.4,0,0,0,15,27.66Z"/><path class="cls-1" d="M18.71,27a.74.74,0,0,1,.2-.57.8.8,0,0,1,.58-.2.77.77,0,0,1,.56.2.74.74,0,0,1,.2.57.72.72,0,0,1-.2.55.73.73,0,0,1-.56.2.76.76,0,0,1-.58-.2A.72.72,0,0,1,18.71,27Zm1.46,8.19H18.79V28.66h1.38Z"/><path class="cls-1" d="M24.55,34.15a3.27,3.27,0,0,0,1-.16v1a3.08,3.08,0,0,1-.59.16,3.67,3.67,0,0,1-.75.07c-1.3,0-2-.69-2-2.06V29.71h-.88V29.1l.95-.51.47-1.37h.85v1.44h1.84v1.05H23.65v3.47a1,1,0,0,0,.25.73A.88.88,0,0,0,24.55,34.15Z"/><path class="cls-1" d="M30.91,35.14l-.28-.9h-.05a2.54,2.54,0,0,1-.94.81,3,3,0,0,1-1.22.21,2.07,2.07,0,0,1-1.49-.51,1.93,1.93,0,0,1-.54-1.46,1.7,1.7,0,0,1,.75-1.51,4.26,4.26,0,0,1,2.27-.56l1.11,0v-.34a1.27,1.27,0,0,0-.29-.93,1.15,1.15,0,0,0-.89-.31,3.06,3.06,0,0,0-1,.15,8.44,8.44,0,0,0-.88.34l-.44-1a5.21,5.21,0,0,1,2.33-.56,2.8,2.8,0,0,1,1.87.54,2.1,2.1,0,0,1,.63,1.69v4.36Zm-2.06-.93a1.71,1.71,0,0,0,1.21-.42,1.53,1.53,0,0,0,.45-1.18v-.56l-.83,0a2.81,2.81,0,0,0-1.41.32,1,1,0,0,0-.45.89.87.87,0,0,0,.26.67A1.09,1.09,0,0,0,28.85,34.21Z"/><path class="cls-1" d="M38.17,33.3a1.66,1.66,0,0,1-.7,1.45,3.29,3.29,0,0,1-2,.51,4.73,4.73,0,0,1-2.08-.39V33.68a5.17,5.17,0,0,0,2.13.53c.85,0,1.27-.26,1.27-.77a.59.59,0,0,0-.14-.41,1.7,1.7,0,0,0-.46-.34,8.49,8.49,0,0,0-.9-.4,4.14,4.14,0,0,1-1.51-.87,1.57,1.57,0,0,1-.4-1.12A1.48,1.48,0,0,1,34.07,29a3.18,3.18,0,0,1,1.83-.46,5.14,5.14,0,0,1,2.16.46l-.45,1a4.74,4.74,0,0,0-1.76-.44c-.73,0-1.09.21-1.09.62a.63.63,0,0,0,.29.52,6.27,6.27,0,0,0,1.23.58,5.77,5.77,0,0,1,1.17.57,1.76,1.76,0,0,1,.54.59A1.73,1.73,0,0,1,38.17,33.3Z"/><path class="cls-1" d="M66.94,35.14l-.86-2.37H62.8L62,35.14H60.49l3.2-8.6h1.53l3.2,8.6Zm-1.23-3.58-.8-2.33c-.06-.16-.14-.41-.25-.74s-.17-.58-.21-.74A12.72,12.72,0,0,1,64,29.33l-.78,2.23Z"/><path class="cls-1" d="M74.88,28.66v.76l-1.11.2a1.73,1.73,0,0,1,.25.51,1.89,1.89,0,0,1,.1.63,1.94,1.94,0,0,1-.69,1.58,2.89,2.89,0,0,1-1.9.57,3.13,3.13,0,0,1-.56,0,.76.76,0,0,0-.45.64.35.35,0,0,0,.21.33,1.67,1.67,0,0,0,.76.12h1.13a2.53,2.53,0,0,1,1.63.45,1.63,1.63,0,0,1,.56,1.32,1.92,1.92,0,0,1-.91,1.7,4.75,4.75,0,0,1-2.62.6,3.61,3.61,0,0,1-2-.47,1.51,1.51,0,0,1-.7-1.34,1.37,1.37,0,0,1,.38-1,2.05,2.05,0,0,1,1-.57,1,1,0,0,1-.45-.38.92.92,0,0,1-.18-.54.93.93,0,0,1,.21-.62,2.33,2.33,0,0,1,.61-.5,1.79,1.79,0,0,1-.82-.7A2.09,2.09,0,0,1,69,30.76a2.05,2.05,0,0,1,.67-1.63,2.76,2.76,0,0,1,1.89-.58l.58,0,.46.08Zm-5.09,7.49a.75.75,0,0,0,.4.69,2.21,2.21,0,0,0,1.13.24A3.42,3.42,0,0,0,73,36.76a1,1,0,0,0,.55-.86.64.64,0,0,0-.3-.6,2.39,2.39,0,0,0-1.12-.18h-1a1.42,1.42,0,0,0-.94.28A.89.89,0,0,0,69.79,36.15Zm.59-5.39a1.3,1.3,0,0,0,.31.94,1.19,1.19,0,0,0,.9.33c.8,0,1.2-.43,1.2-1.28a1.45,1.45,0,0,0-.3-1,1.36,1.36,0,0,0-1.8,0A1.42,1.42,0,0,0,70.38,30.76Z"/><path class="cls-1" d="M78.91,35.26a3.12,3.12,0,0,1-2.36-.88A3.35,3.35,0,0,1,75.69,32a3.63,3.63,0,0,1,.8-2.49,2.7,2.7,0,0,1,2.17-.91,2.67,2.67,0,0,1,2,.78,3,3,0,0,1,.74,2.14v.74H77.11a2.16,2.16,0,0,0,.51,1.46,1.8,1.8,0,0,0,1.36.5,4.57,4.57,0,0,0,1.07-.11,5.31,5.31,0,0,0,1.06-.36v1.12a4.08,4.08,0,0,1-1,.34A6,6,0,0,1,78.91,35.26Zm-.25-5.67a1.36,1.36,0,0,0-1,.42,1.92,1.92,0,0,0-.47,1.21h2.94A1.82,1.82,0,0,0,79.69,30,1.33,1.33,0,0,0,78.66,29.59Z"/><path class="cls-1" d="M88.7,35.14H87.31v-4A1.76,1.76,0,0,0,87,30a1.15,1.15,0,0,0-1-.37,1.5,1.5,0,0,0-1.27.52,2.83,2.83,0,0,0-.41,1.73v3.22H83V28.66h1.07l.2.85h.07a1.94,1.94,0,0,1,.83-.71,2.76,2.76,0,0,1,1.19-.25,2.08,2.08,0,0,1,2.34,2.37Z"/><path class="cls-1" d="M93.23,35.26A2.82,2.82,0,0,1,91,34.4a3.57,3.57,0,0,1-.76-2.46,3.55,3.55,0,0,1,.8-2.51,2.94,2.94,0,0,1,2.31-.88,4.21,4.21,0,0,1,1.84.38L94.77,30a4.12,4.12,0,0,0-1.44-.34c-1.13,0-1.69.74-1.69,2.23a2.7,2.7,0,0,0,.42,1.64,1.46,1.46,0,0,0,1.23.54A3.58,3.58,0,0,0,95,33.66v1.2a2.83,2.83,0,0,1-.79.31A4.91,4.91,0,0,1,93.23,35.26Z"/><path class="cls-1" d="M96.47,27a.77.77,0,0,1,.2-.57.82.82,0,0,1,.58-.2.81.81,0,0,1,.57.2A.77.77,0,0,1,98,27a.76.76,0,0,1-.2.55.76.76,0,0,1-.57.2.77.77,0,0,1-.58-.2A.76.76,0,0,1,96.47,27Zm1.46,8.19H96.55V28.66h1.38Z"/><path class="cls-1" d="M104,35.14l-.27-.9h-.05a2.54,2.54,0,0,1-.94.81,3,3,0,0,1-1.22.21,2.07,2.07,0,0,1-1.49-.51,1.93,1.93,0,0,1-.54-1.46,1.7,1.7,0,0,1,.75-1.51,4.24,4.24,0,0,1,2.26-.56l1.12,0v-.34a1.27,1.27,0,0,0-.29-.93,1.16,1.16,0,0,0-.9-.31,3,3,0,0,0-.95.15,7.65,7.65,0,0,0-.88.34l-.45-1a5.32,5.32,0,0,1,1.16-.42,5,5,0,0,1,1.18-.14,2.8,2.8,0,0,1,1.87.54,2.1,2.1,0,0,1,.63,1.69v4.36Zm-2-.93a1.71,1.71,0,0,0,1.21-.42,1.53,1.53,0,0,0,.45-1.18v-.56l-.83,0a2.89,2.89,0,0,0-1.42.32,1,1,0,0,0-.44.89.87.87,0,0,0,.26.67A1.09,1.09,0,0,0,101.9,34.21Z"/><path class="cls-1" d="M115,26.58h1.45l-3,8.56H112l-3-8.56h1.45l1.78,5.32a8.71,8.71,0,0,1,.3,1c.11.4.17.69.21.89a9.49,9.49,0,0,1,.23-1c.11-.39.19-.68.26-.87Z"/><path class="cls-1" d="M117.36,27a.77.77,0,0,1,.2-.57.82.82,0,0,1,.58-.2.81.81,0,0,1,.57.2.77.77,0,0,1,.2.57.76.76,0,0,1-.2.55.76.76,0,0,1-.57.2.77.77,0,0,1-.58-.2A.76.76,0,0,1,117.36,27Zm1.46,8.19h-1.38V28.66h1.38Z"/><path class="cls-1" d="M124.08,28.55a3.23,3.23,0,0,1,.68.06l-.13,1.28a2.48,2.48,0,0,0-.61-.07,1.76,1.76,0,0,0-1.34.54,2,2,0,0,0-.51,1.4v3.38h-1.38V28.66h1.08l.18,1.15h.07a2.41,2.41,0,0,1,.84-.92A2,2,0,0,1,124.08,28.55Z"/><path class="cls-1" d="M128.38,34.15a3.17,3.17,0,0,0,1-.16v1a2.77,2.77,0,0,1-.58.16,3.67,3.67,0,0,1-.75.07c-1.31,0-2-.69-2-2.06V29.71h-.88V29.1l1-.51.46-1.37h.85v1.44h1.85v1.05h-1.85v3.47a1,1,0,0,0,.25.73A.92.92,0,0,0,128.38,34.15Z"/><path class="cls-1" d="M135.25,35.14l-.19-.85H135a2,2,0,0,1-.82.71,2.65,2.65,0,0,1-1.21.26,2.38,2.38,0,0,1-1.76-.58,2.43,2.43,0,0,1-.58-1.78V28.66H132v4a1.76,1.76,0,0,0,.3,1.12,1.21,1.21,0,0,0,1,.37,1.5,1.5,0,0,0,1.27-.52,2.87,2.87,0,0,0,.41-1.74V28.66h1.38v6.48Z"/><path class="cls-1" d="M142.35,35.14l-.27-.9H142a2.62,2.62,0,0,1-.94.81,3.07,3.07,0,0,1-1.22.21,2.06,2.06,0,0,1-1.49-.51,1.93,1.93,0,0,1-.54-1.46,1.72,1.72,0,0,1,.74-1.51,4.31,4.31,0,0,1,2.27-.56l1.12,0v-.34a1.31,1.31,0,0,0-.29-.93,1.16,1.16,0,0,0-.9-.31,3,3,0,0,0-.95.15,7.65,7.65,0,0,0-.88.34l-.45-1a5.14,5.14,0,0,1,1.16-.42,5,5,0,0,1,1.18-.14,2.82,2.82,0,0,1,1.87.54,2.1,2.1,0,0,1,.63,1.69v4.36Zm-2-.93a1.69,1.69,0,0,0,1.2-.42,1.5,1.5,0,0,0,.46-1.18v-.56l-.83,0a2.89,2.89,0,0,0-1.42.32,1,1,0,0,0-.44.89.84.84,0,0,0,.26.67A1.09,1.09,0,0,0,140.3,34.21Z"/><path class="cls-1" d="M146.63,35.14h-1.37V26h1.37Z"/><path class="cls-1" d="M177.33,35.14h-1.41V31.28H172v3.86h-1.4V26.58H172v3.5h3.95v-3.5h1.41Z"/><path class="cls-1" d="M185.18,31.89a3.54,3.54,0,0,1-.81,2.48,2.93,2.93,0,0,1-2.27.89,3.12,3.12,0,0,1-1.6-.41,2.64,2.64,0,0,1-1.08-1.18,4,4,0,0,1-.37-1.78,3.51,3.51,0,0,1,.81-2.46,2.93,2.93,0,0,1,2.28-.88,2.85,2.85,0,0,1,2.22.9A3.5,3.5,0,0,1,185.18,31.89Zm-4.71,0q0,2.25,1.65,2.25t1.65-2.25c0-1.48-.56-2.22-1.66-2.22a1.39,1.39,0,0,0-1.25.58A2.9,2.9,0,0,0,180.47,31.89Z"/><path class="cls-1" d="M190.05,28.55a3.27,3.27,0,0,1,.69.06l-.14,1.28a2.37,2.37,0,0,0-.61-.07,1.74,1.74,0,0,0-1.33.54,1.91,1.91,0,0,0-.52,1.4v3.38h-1.37V28.66h1.07l.19,1.15h.07a2.41,2.41,0,0,1,.84-.92A1.94,1.94,0,0,1,190.05,28.55Z"/><path class="cls-1" d="M196,35.14l-.27-.9h-.05a2.62,2.62,0,0,1-.94.81,3,3,0,0,1-1.22.21,2.07,2.07,0,0,1-1.49-.51,1.93,1.93,0,0,1-.54-1.46,1.7,1.7,0,0,1,.75-1.51,4.24,4.24,0,0,1,2.26-.56l1.12,0v-.34a1.27,1.27,0,0,0-.29-.93,1.16,1.16,0,0,0-.9-.31,3,3,0,0,0-.95.15,7.65,7.65,0,0,0-.88.34l-.45-1a5.32,5.32,0,0,1,1.16-.42,5,5,0,0,1,1.18-.14,2.8,2.8,0,0,1,1.87.54,2.1,2.1,0,0,1,.63,1.69v4.36Zm-2.05-.93a1.73,1.73,0,0,0,1.21-.42,1.53,1.53,0,0,0,.45-1.18v-.56l-.83,0a2.89,2.89,0,0,0-1.42.32,1,1,0,0,0-.44.89.87.87,0,0,0,.26.67A1.09,1.09,0,0,0,193.94,34.21Z"/><path class="cls-1" d="M202.19,28.55a3.23,3.23,0,0,1,.68.06l-.13,1.28a2.48,2.48,0,0,0-.61-.07,1.76,1.76,0,0,0-1.34.54,2,2,0,0,0-.51,1.4v3.38H198.9V28.66H200l.18,1.15h.07a2.58,2.58,0,0,1,.84-.92A2,2,0,0,1,202.19,28.55Z"/><path class="cls-1" d="M204,27a.77.77,0,0,1,.2-.57.82.82,0,0,1,.58-.2.81.81,0,0,1,.57.2.77.77,0,0,1,.2.57.76.76,0,0,1-.2.55.76.76,0,0,1-.57.2.77.77,0,0,1-.58-.2A.76.76,0,0,1,204,27Zm1.46,8.19h-1.38V28.66h1.38Z"/><path class="cls-1" d="M213.17,31.89a3.5,3.5,0,0,1-.82,2.48,2.92,2.92,0,0,1-2.26.89,3.16,3.16,0,0,1-1.61-.41,2.67,2.67,0,0,1-1.07-1.18,4,4,0,0,1-.38-1.78,3.51,3.51,0,0,1,.81-2.46,2.93,2.93,0,0,1,2.28-.88,2.87,2.87,0,0,1,2.23.9A3.55,3.55,0,0,1,213.17,31.89Zm-4.72,0c0,1.5.55,2.25,1.66,2.25s1.64-.75,1.64-2.25-.55-2.22-1.65-2.22a1.4,1.4,0,0,0-1.26.58A2.9,2.9,0,0,0,208.45,31.89Z"/><path class="cls-1" d="M219.1,33.3a1.68,1.68,0,0,1-.69,1.45,3.29,3.29,0,0,1-2,.51,4.73,4.73,0,0,1-2.08-.39V33.68a5.13,5.13,0,0,0,2.13.53c.85,0,1.27-.26,1.27-.77a.64.64,0,0,0-.14-.41,1.7,1.7,0,0,0-.46-.34,8.49,8.49,0,0,0-.9-.4,4,4,0,0,1-1.51-.87,1.57,1.57,0,0,1-.4-1.12A1.45,1.45,0,0,1,215,29a3.18,3.18,0,0,1,1.83-.46A5.14,5.14,0,0,1,219,29l-.45,1a4.79,4.79,0,0,0-1.76-.44c-.73,0-1.09.21-1.09.62a.62.62,0,0,0,.28.52,6.79,6.79,0,0,0,1.24.58,5.77,5.77,0,0,1,1.17.57,1.76,1.76,0,0,1,.54.59A1.86,1.86,0,0,1,219.1,33.3Z"/><path class="cls-1" d="M247.4,35.14h-4.84V26.58h4.84v1.18H244v2.33h3.23v1.18H244V34h3.44Z"/><path class="cls-1" d="M253.46,33.3a1.68,1.68,0,0,1-.69,1.45,3.29,3.29,0,0,1-2,.51,4.7,4.7,0,0,1-2.08-.39V33.68a5.13,5.13,0,0,0,2.13.53c.85,0,1.27-.26,1.27-.77A.64.64,0,0,0,252,33a1.7,1.7,0,0,0-.46-.34,8.49,8.49,0,0,0-.9-.4,4.2,4.2,0,0,1-1.52-.87,1.61,1.61,0,0,1-.39-1.12,1.45,1.45,0,0,1,.67-1.29,3.18,3.18,0,0,1,1.83-.46,5.14,5.14,0,0,1,2.16.46l-.45,1a4.84,4.84,0,0,0-1.76-.44c-.73,0-1.09.21-1.09.62a.62.62,0,0,0,.28.52,6.79,6.79,0,0,0,1.24.58,5.77,5.77,0,0,1,1.17.57,1.76,1.76,0,0,1,.54.59A1.86,1.86,0,0,1,253.46,33.3Z"/><path class="cls-1" d="M258.24,35.26a2.26,2.26,0,0,1-1.91-.88h-.08c.05.54.08.88.08,1V38H255V28.66h1.11c0,.13.1.41.2.87h.07a2.16,2.16,0,0,1,1.93-1,2.24,2.24,0,0,1,1.89.88,3.93,3.93,0,0,1,.68,2.46,4,4,0,0,1-.69,2.48A2.28,2.28,0,0,1,258.24,35.26Zm-.34-5.59a1.42,1.42,0,0,0-1.19.48,2.44,2.44,0,0,0-.38,1.54v.2a3.07,3.07,0,0,0,.37,1.72,1.41,1.41,0,0,0,1.23.53,1.26,1.26,0,0,0,1.1-.59,3,3,0,0,0,.39-1.67,2.87,2.87,0,0,0-.39-1.65A1.28,1.28,0,0,0,257.9,29.67Z"/><path class="cls-1" d="M266.48,35.14l-.27-.9h0a2.62,2.62,0,0,1-.94.81,3.07,3.07,0,0,1-1.22.21,2.06,2.06,0,0,1-1.49-.51,1.93,1.93,0,0,1-.54-1.46,1.72,1.72,0,0,1,.74-1.51,4.31,4.31,0,0,1,2.27-.56l1.12,0v-.34a1.31,1.31,0,0,0-.29-.93,1.16,1.16,0,0,0-.9-.31,3,3,0,0,0-1,.15,7.65,7.65,0,0,0-.88.34l-.45-1a5.14,5.14,0,0,1,1.16-.42,5,5,0,0,1,1.18-.14,2.82,2.82,0,0,1,1.87.54,2.1,2.1,0,0,1,.63,1.69v4.36Zm-2.05-.93a1.73,1.73,0,0,0,1.21-.42,1.53,1.53,0,0,0,.45-1.18v-.56l-.83,0a2.89,2.89,0,0,0-1.42.32,1,1,0,0,0-.44.89.87.87,0,0,0,.26.67A1.09,1.09,0,0,0,264.43,34.21Z"/><path class="cls-1" d="M275.09,35.14h-1.38v-4a1.76,1.76,0,0,0-.3-1.12,1.18,1.18,0,0,0-1-.37,1.52,1.52,0,0,0-1.28.52,2.84,2.84,0,0,0-.4,1.73v3.22h-1.38V28.66h1.08l.19.85h.07a2,2,0,0,1,.83-.71,2.77,2.77,0,0,1,1.2-.25,2.08,2.08,0,0,1,2.33,2.37Zm-1.95-7.27a1.18,1.18,0,0,1-.48-.1,4,4,0,0,1-.46-.23l-.45-.23a1.07,1.07,0,0,0-.42-.1c-.31,0-.53.23-.63.67H270a2.16,2.16,0,0,1,.45-1.24,1.3,1.3,0,0,1,1-.43,1.24,1.24,0,0,1,.49.11,5.08,5.08,0,0,1,.47.23l.44.22a.93.93,0,0,0,.41.11c.31,0,.52-.23.62-.68h.74a2.09,2.09,0,0,1-.46,1.23A1.22,1.22,0,0,1,273.14,27.87Z"/><path class="cls-1" d="M282.75,31.89a3.54,3.54,0,0,1-.81,2.48,2.93,2.93,0,0,1-2.27.89,3.12,3.12,0,0,1-1.6-.41A2.64,2.64,0,0,1,277,33.67a4,4,0,0,1-.37-1.78,3.51,3.51,0,0,1,.81-2.46,2.93,2.93,0,0,1,2.28-.88,2.85,2.85,0,0,1,2.22.9A3.5,3.5,0,0,1,282.75,31.89Zm-4.71,0c0,1.5.55,2.25,1.66,2.25s1.64-.75,1.64-2.25-.55-2.22-1.66-2.22a1.39,1.39,0,0,0-1.25.58A2.9,2.9,0,0,0,278,31.89Z"/><path class="cls-1" d="M285.71,35.14h-1.37V26h1.37Z"/><line class="cls-2" x1="7.91" y1="38.02" x2="41.7" y2="38.02"/><polygon class="cls-1" points="291.44 33.08 293.71 30 289.17 30 291.44 33.08"/></svg>